<svg width="48" height="48" viewBox="0 0 48 48" fill="none" xmlns="http://www.w3.org/2000/svg">
<path d="M36 37.72H34.48C32.88 37.72 31.36 38.34 30.24 39.46L26.82 42.8401C25.26 44.3801 22.72 44.3801 21.16 42.8401L17.74 39.46C16.62 38.34 15.08 37.72 13.5 37.72H12C8.68 37.72 6 35.06 6 31.78V9.95996C6 6.67996 8.68 4.02002 12 4.02002H36C39.32 4.02002 42 6.67996 42 9.95996V31.78C42 35.04 39.32 37.72 36 37.72Z" stroke="#2E2EE5" stroke-width="3" stroke-miterlimit="10" stroke-linecap="round" stroke-linejoin="round"/>
<path d="M14 18.3196C14 16.4596 15.52 14.9395 17.38 14.9395C19.24 14.9395 20.76 16.4596 20.76 18.3196C20.76 22.0796 15.42 22.4796 14.24 26.0596C14 26.7996 14.62 27.5396 15.4 27.5396H20.76" stroke="#FFBF00" stroke-width="3" stroke-linecap="round" stroke-linejoin="round"/>
<path d="M32.08 27.5197V16.0998C32.08 15.5798 31.74 15.1197 31.24 14.9797C30.74 14.8397 30.2 15.0397 29.92 15.4797C28.48 17.7997 26.92 20.4397 25.56 22.7597C25.34 23.1397 25.34 23.6397 25.56 24.0197C25.78 24.3997 26.2 24.6396 26.66 24.6396H34" stroke="#FFBF00" stroke-width="3" stroke-linecap="round" stroke-linejoin="round"/>
</svg>
