<svg width="65" height="64" viewBox="0 0 65 64" fill="none" xmlns="http://www.w3.org/2000/svg">
<g clip-path="url(#clip0_244_1735)">
<path d="M58.7584 41.7391C59.884 38.7059 60.5 35.425 60.5 32C60.5 28.5751 59.884 25.2944 58.7584 22.261L32.5 19.8262L6.24158 22.261C5.11611 25.2944 4.5 28.5751 4.5 32C4.5 35.425 5.11611 38.7059 6.24158 41.7391L32.5 44.1739L58.7584 41.7391Z" fill="#F0F0F0"/>
<path d="M32.5 60.0002C44.5389 60.0002 54.8022 52.4017 58.7583 41.7393H6.24146C10.1978 52.4017 20.4609 60.0002 32.5 60.0002Z" fill="#D80027"/>
<path d="M32.5 4C20.4609 4 10.1978 11.5985 6.24146 22.2609H58.7584C54.8022 11.5985 44.5389 4 32.5 4Z" fill="#D80027"/>
</g>
<rect x="2.5" y="2" width="60" height="60" rx="30" stroke="white" stroke-width="4"/>
<defs>
<clipPath id="clip0_244_1735">
<rect x="4.5" y="4" width="56" height="56" rx="28" fill="white"/>
</clipPath>
</defs>
</svg>
