<svg width="64" height="64" viewBox="0 0 64 64" fill="none" xmlns="http://www.w3.org/2000/svg">
<g clip-path="url(#clip0_244_1754)">
<path d="M60 32C60 47.4639 47.4639 60 32 60C16.5361 60 4 47.4639 4 32C4 32.0066 32 4.00317 32 4C47.4639 4 60 16.5361 60 32Z" fill="#0052B4"/>
<path d="M31.925 32.0002H32C32 31.9748 32 31.9506 32 31.9253C31.975 31.9503 31.9501 31.9753 31.925 32.0002Z" fill="#F0F0F0"/>
<path d="M32 18.6087C32 13.6819 32 10.4535 32 4H31.9953C16.5335 4.00252 4 16.5374 4 31.9999H18.6087V23.7736L26.835 31.9999H31.9252C31.9502 31.975 31.9752 31.95 32.0001 31.925C32.0001 30.0386 32.0001 28.3554 32.0001 26.8351L23.7737 18.6087H32Z" fill="#F0F0F0"/>
<path d="M18.1657 7.65234C13.7865 10.146 10.1458 13.7866 7.65216 18.1659V32.0002H14.9566V14.9568L32 14.9567C32 12.653 32 10.4582 32 7.65234H18.1657Z" fill="#D80027"/>
<path d="M32 28.5568L22.052 18.6089H18.6088L31.9999 32H32C32 32 32 29.6261 32 28.5568Z" fill="#D80027"/>
<path d="M20.8869 36.8696L22.4237 40.0828L25.8938 39.2808L24.3398 42.4857L27.1304 44.6987L23.6559 45.4818L23.6656 49.0435L20.8869 46.8152L18.1084 49.0435L18.1181 45.4818L14.6435 44.6987L17.4342 42.4857L15.88 39.2808L19.3503 40.0828L20.8869 36.8696Z" fill="#F0F0F0"/>
<path d="M45.9217 42.9565L46.6901 44.5632L48.4252 44.1621L47.6481 45.7645L49.0435 46.8711L47.3062 47.2626L47.311 49.0435L45.9217 47.9293L44.5324 49.0435L44.5373 47.2626L42.8 46.8711L44.1953 45.7645L43.4183 44.1621L45.1534 44.5632L45.9217 42.9565Z" fill="#F0F0F0"/>
<path d="M38.7739 25.9131L39.5422 27.5198L41.2773 27.1186L40.5003 28.7211L41.8956 29.8276L40.1584 30.2192L40.1631 32L38.7739 30.8858L37.3847 32L37.3894 30.2192L35.6522 29.8276L37.0475 28.7211L36.2705 27.1186L38.0056 27.5198L38.7739 25.9131Z" fill="#F0F0F0"/>
<path d="M45.9217 16.1738L46.6901 17.7805L48.4252 17.3795L47.6482 18.9819L49.0434 20.0884L47.3062 20.48L47.311 22.2609L45.9217 21.1467L44.5324 22.2609L44.5373 20.48L42.8 20.0884L44.1952 18.9819L43.4183 17.3795L45.1534 17.7805L45.9217 16.1738Z" fill="#F0F0F0"/>
<path d="M52.1652 23.4785L52.9335 25.0852L54.6686 24.684L53.8916 26.2865L55.2869 27.393L53.5496 27.7847L53.5544 29.5655L52.1652 28.4514L50.776 29.5655L50.7807 27.7847L49.0435 27.393L50.4388 26.2865L49.6618 24.684L51.3968 25.0852L52.1652 23.4785Z" fill="#F0F0F0"/>
<path d="M47.7008 32L48.3051 33.86H50.2609L48.6786 35.0097L49.2831 36.8696L47.7008 35.7201L46.1185 36.8696L46.7228 35.0097L45.1406 33.86H47.0964L47.7008 32Z" fill="#F0F0F0"/>
</g>
<rect x="2" y="2" width="60" height="60" rx="30" stroke="white" stroke-width="4"/>
<defs>
<clipPath id="clip0_244_1754">
<rect x="4" y="4" width="56" height="56" rx="28" fill="white"/>
</clipPath>
</defs>
</svg>
