<svg width="253" height="113" viewBox="0 0 253 113" fill="none" xmlns="http://www.w3.org/2000/svg">
<path d="M26.3835 35.5C25.5515 35.5 24.7515 35.388 23.9835 35.164C23.2475 34.908 22.5915 34.492 22.0155 33.916C21.4395 33.34 20.9755 32.588 20.6235 31.66C20.3035 30.7 20.1435 29.516 20.1435 28.108V5.74H22.5435V27.772C22.5435 29.244 22.8635 30.476 23.5035 31.468C24.1435 32.46 25.2155 32.956 26.7195 32.956H27.3915C28.0955 32.956 28.4475 33.372 28.4475 34.204C28.4475 35.068 28.0955 35.5 27.3915 35.5H26.3835ZM31.647 32.956C32.991 32.956 34.079 32.588 34.911 31.852C35.743 31.116 36.159 30.14 36.159 28.924V21.868H38.511V28.828C38.511 30.94 37.887 32.588 36.639 33.772C35.423 34.924 33.807 35.5 31.791 35.5H27.375C26.959 35.5 26.687 35.404 26.559 35.212C26.399 34.988 26.319 34.684 26.319 34.3C26.319 33.852 26.399 33.516 26.559 33.292C26.687 33.068 26.959 32.956 27.375 32.956H31.647ZM33.375 44.092H29.823V41.164H33.375V44.092ZM89.1146 28.924C89.1146 29.692 89.2266 30.332 89.4506 30.844C89.7066 31.356 90.0266 31.772 90.4106 32.092C90.8266 32.412 91.2746 32.636 91.7546 32.764C92.2666 32.892 92.7946 32.956 93.3386 32.956C94.6826 32.956 95.7546 32.588 96.5546 31.852C97.3546 31.116 97.7546 30.14 97.7546 28.924V21.868H100.155V28.828C100.155 30.94 99.5306 32.588 98.2826 33.772C97.0666 34.924 95.4506 35.5 93.4346 35.5C92.2826 35.5 91.2106 35.276 90.2186 34.828C89.2266 34.38 88.4266 33.548 87.8186 32.332C87.1146 33.548 86.2186 34.38 85.1306 34.828C84.0746 35.276 82.9866 35.5 81.8666 35.5C80.7466 35.5 79.7866 35.324 78.9866 34.972C78.2186 34.62 77.6106 34.124 77.1626 33.484V34.732C77.1626 36.364 76.8906 37.932 76.3466 39.436C75.8026 40.94 75.0186 42.252 73.9946 43.372C73.0026 44.524 71.7866 45.436 70.3466 46.108C68.9066 46.78 67.2906 47.116 65.4986 47.116H62.7626C59.1786 47.116 56.3946 46.012 54.4106 43.804C52.4266 41.596 51.4346 38.572 51.4346 34.732V26.428H53.7866V34.684C53.7866 36.156 53.9786 37.5 54.3626 38.716C54.7466 39.932 55.3226 40.972 56.0906 41.836C56.8586 42.732 57.8186 43.42 58.9706 43.9C60.1546 44.38 61.5466 44.62 63.1466 44.62H65.2586C66.8266 44.62 68.2026 44.348 69.3866 43.804C70.6026 43.292 71.6106 42.588 72.4106 41.692C73.2106 40.796 73.8186 39.74 74.2346 38.524C74.6506 37.34 74.8586 36.092 74.8586 34.78V21.868H77.2106V29.116C77.2106 30.236 77.6106 31.164 78.4106 31.9C79.2426 32.604 80.3786 32.956 81.8186 32.956C83.3866 32.956 84.6026 32.588 85.4666 31.852C86.3306 31.116 86.7626 30.14 86.7626 28.924V21.868H89.1146V28.924ZM112.634 35.5C111.802 35.5 111.002 35.388 110.234 35.164C109.498 34.908 108.842 34.492 108.266 33.916C107.69 33.34 107.226 32.588 106.874 31.66C106.554 30.7 106.394 29.516 106.394 28.108V5.74H108.794V27.772C108.794 29.244 109.114 30.476 109.754 31.468C110.394 32.46 111.466 32.956 112.97 32.956H113.642C114.346 32.956 114.698 33.372 114.698 34.204C114.698 35.068 114.346 35.5 113.642 35.5H112.634ZM114.489 32.956C115.833 32.956 116.825 32.62 117.465 31.948C118.137 31.276 118.473 30.428 118.473 29.404V27.244C118.473 24.396 119.177 22.204 120.585 20.668C121.993 19.1 123.961 18.316 126.489 18.316C129.113 18.316 131.065 19.116 132.345 20.716C133.625 22.284 134.265 24.316 134.265 26.812V28.588C134.265 30.22 134.617 31.356 135.321 31.996C136.057 32.636 137.001 32.956 138.153 32.956H139.065C139.481 32.956 139.753 33.068 139.881 33.292C140.041 33.516 140.121 33.82 140.121 34.204C140.121 34.652 140.041 34.988 139.881 35.212C139.753 35.404 139.481 35.5 139.065 35.5H138.153C137.641 35.5 137.129 35.468 136.617 35.404C136.137 35.308 135.673 35.132 135.225 34.876C134.777 34.588 134.361 34.204 133.977 33.724C133.593 33.244 133.257 32.604 132.969 31.804C132.521 32.54 132.041 33.148 131.529 33.628C131.017 34.108 130.457 34.492 129.849 34.78C129.273 35.036 128.665 35.228 128.025 35.356C127.417 35.452 126.809 35.5 126.201 35.5C124.889 35.5 123.657 35.26 122.505 34.78C121.353 34.268 120.409 33.34 119.673 31.996C119.385 32.796 119.033 33.436 118.617 33.916C118.201 34.364 117.769 34.716 117.321 34.972C116.873 35.196 116.409 35.34 115.929 35.404C115.449 35.468 114.969 35.5 114.489 35.5H113.625C113.209 35.5 112.937 35.404 112.809 35.212C112.649 34.988 112.569 34.684 112.569 34.3C112.569 33.852 112.649 33.516 112.809 33.292C112.937 33.068 113.209 32.956 113.625 32.956H114.489ZM131.913 27.196C131.913 25.276 131.497 23.74 130.665 22.588C129.833 21.404 128.393 20.812 126.345 20.812C124.521 20.812 123.129 21.372 122.169 22.492C121.209 23.58 120.729 25.228 120.729 27.436C120.729 29.26 121.257 30.636 122.313 31.564C123.369 32.492 124.681 32.956 126.249 32.956C128.105 32.956 129.513 32.46 130.473 31.468C131.433 30.444 131.913 29.02 131.913 27.196ZM143.35 32.956C144.694 32.956 145.782 32.588 146.614 31.852C147.446 31.116 147.862 30.14 147.862 28.924V21.868H150.214V28.828C150.214 30.94 149.59 32.588 148.342 33.772C147.126 34.924 145.51 35.5 143.494 35.5H139.078C138.662 35.5 138.39 35.404 138.262 35.212C138.102 34.988 138.022 34.684 138.022 34.3C138.022 33.852 138.102 33.516 138.262 33.292C138.39 33.068 138.662 32.956 139.078 32.956H143.35ZM150.79 15.532H147.478V12.652H150.79V15.532ZM145.03 15.532H141.718V12.652H145.03V15.532ZM78.0229 68.268C78.0229 69.772 77.9909 71.18 77.9269 72.492C77.8629 73.772 77.7829 74.988 77.6869 76.14C77.5909 77.292 77.4789 78.396 77.3509 79.452C77.2229 80.508 77.0949 81.532 76.9669 82.524H73.2709C73.1429 81.532 72.9989 80.524 72.8389 79.5C72.6789 78.444 72.5349 77.34 72.4069 76.188C72.2789 75.036 72.1669 73.804 72.0709 72.492C72.0069 71.18 71.9749 69.772 71.9749 68.268V62.22H78.0229V68.268ZM75.1429 91.5C74.1189 91.5 73.2869 91.244 72.6469 90.732C72.0069 90.188 71.6869 89.356 71.6869 88.236C71.6869 87.052 72.0069 86.204 72.6469 85.692C73.2869 85.18 74.1189 84.924 75.1429 84.924C76.1349 84.924 76.9509 85.18 77.5909 85.692C78.2309 86.204 78.5509 87.052 78.5509 88.236C78.5509 89.356 78.2309 90.188 77.5909 90.732C76.9509 91.244 76.1349 91.5 75.1429 91.5ZM90.9315 91.5C90.0035 91.5 89.1235 91.388 88.2915 91.164C87.4595 90.908 86.7235 90.492 86.0835 89.916C85.4755 89.34 84.9795 88.588 84.5955 87.66C84.2435 86.7 84.0675 85.516 84.0675 84.108V61.74H90.1635V82.524C90.1635 84.124 90.8675 84.924 92.2755 84.924H93.5715C94.2755 84.924 94.6275 85.98 94.6275 88.092C94.6275 90.364 94.2755 91.5 93.5715 91.5H90.9315ZM93.8025 84.924C94.7625 84.924 95.5305 84.764 96.1065 84.444C96.6825 84.092 96.9705 83.452 96.9705 82.524V81.996C96.9705 80.748 97.1625 79.596 97.5465 78.54C97.9305 77.452 98.4745 76.524 99.1785 75.756C99.8825 74.988 100.747 74.38 101.771 73.932C102.795 73.484 103.931 73.26 105.179 73.26C106.491 73.26 107.659 73.484 108.683 73.932C109.707 74.38 110.555 74.988 111.227 75.756C111.931 76.524 112.459 77.452 112.811 78.54C113.195 79.596 113.387 80.748 113.387 81.996V82.524C113.387 83.004 113.483 83.404 113.675 83.724C113.867 84.012 114.107 84.252 114.395 84.444C114.683 84.604 114.987 84.732 115.307 84.828C115.659 84.892 115.979 84.924 116.267 84.924H116.795C117.211 84.924 117.483 85.18 117.611 85.692C117.771 86.204 117.851 87.004 117.851 88.092C117.851 89.276 117.771 90.14 117.611 90.684C117.483 91.228 117.211 91.5 116.795 91.5H116.267C115.339 91.5 114.395 91.308 113.435 90.924C112.507 90.508 111.659 89.724 110.891 88.572C109.995 89.788 109.035 90.588 108.011 90.972C106.987 91.324 105.963 91.5 104.939 91.5C103.691 91.5 102.523 91.244 101.435 90.732C100.347 90.22 99.5305 89.5 98.9865 88.572C98.3785 89.66 97.5945 90.428 96.6345 90.876C95.6745 91.292 94.7305 91.5 93.8025 91.5H93.5625C93.1465 91.5 92.8745 91.244 92.7465 90.732C92.5865 90.188 92.5065 89.388 92.5065 88.332C92.5065 87.116 92.5865 86.252 92.7465 85.74C92.8745 85.196 93.1465 84.924 93.5625 84.924H93.8025ZM107.531 82.524C107.531 81.852 107.371 81.244 107.051 80.7C106.731 80.156 106.107 79.884 105.179 79.884C104.251 79.884 103.627 80.156 103.307 80.7C102.987 81.244 102.827 81.852 102.827 82.524C102.827 84.124 103.611 84.924 105.179 84.924C106.747 84.924 107.531 84.124 107.531 82.524ZM119.213 84.924C120.973 84.924 121.853 84.028 121.853 82.236V77.244H127.901V82.236C127.901 83.164 128.173 83.852 128.717 84.3C129.293 84.716 129.981 84.924 130.781 84.924C131.837 84.924 132.589 84.716 133.037 84.3C133.485 83.852 133.709 83.164 133.709 82.236V77.244H139.805V82.236C139.805 83.164 140.029 83.852 140.477 84.3C140.957 84.716 141.517 84.924 142.156 84.924C143.725 84.924 144.509 84.028 144.509 82.236V77.244H150.605V82.764C150.605 85.676 149.901 87.868 148.493 89.34C147.085 90.78 145.053 91.5 142.397 91.5C141.373 91.5 140.349 91.324 139.325 90.972C138.333 90.588 137.437 89.788 136.637 88.572C135.837 89.788 134.925 90.588 133.901 90.972C132.877 91.324 131.837 91.5 130.781 91.5C129.597 91.5 128.493 91.324 127.469 90.972C126.445 90.588 125.533 89.788 124.733 88.572C123.933 89.788 123.069 90.588 122.141 90.972C121.245 91.324 120.269 91.5 119.213 91.5H116.812C116.396 91.5 116.124 91.244 115.996 90.732C115.836 90.188 115.756 89.388 115.756 88.332C115.756 87.116 115.836 86.252 115.996 85.74C116.124 85.196 116.396 84.924 116.812 84.924H119.213ZM139.565 64.572H133.709V59.052H139.565V64.572ZM143.213 71.964H137.405V66.396H143.213V71.964ZM135.821 71.964H130.013V66.396H135.821V71.964Z" fill="#FFBF00"/>
<rect x="169" y="16.5" width="80" height="80" rx="40" fill="#E6E6F2" fill-opacity="0.2"/>
<g filter="url(#filter0_d_1_4242)">
<path d="M176.351 63.3949C174.989 63.2758 173.959 62.048 174.078 60.6865L175.734 41.7588C176.355 32.7453 180.453 24.5379 187.253 18.7084C194.051 12.9122 202.724 10.1576 211.723 10.9449C230.119 12.5544 243.785 28.8407 242.176 47.2371L240.52 66.1648C240.401 67.5263 239.173 68.5565 237.812 68.4374C236.45 68.3183 235.42 67.0905 235.539 65.7291L237.195 46.8014C238.563 31.1611 226.961 17.2971 211.287 15.9259C203.617 15.2548 196.252 17.5884 190.501 22.506C184.715 27.4538 181.262 34.4127 180.721 42.1282L179.062 61.0891C178.94 62.4838 177.745 63.5169 176.351 63.3949Z" fill="#FFBF00"/>
<path d="M188.744 43.7345L188.313 43.6967C181.339 43.0866 175.164 48.2682 174.554 55.2415L174.008 61.4843C173.398 68.4577 178.579 74.6328 185.553 75.2429L185.984 75.2807C192.958 75.8908 199.133 70.7092 199.743 63.7359L200.289 57.493C200.899 50.5197 195.718 44.3446 188.744 43.7345Z" fill="#FFBF00"/>
<path d="M229.422 47.2926L228.99 47.2548C222.017 46.6447 215.842 51.8263 215.232 58.7996L214.686 65.0424C214.076 72.0158 219.257 78.1909 226.23 78.801L226.662 78.8388C233.635 79.4489 239.811 74.2673 240.421 67.294L240.967 61.0511C241.577 54.0778 236.395 47.9027 229.422 47.2926Z" fill="#FFBF00"/>
</g>
<defs>
<filter id="filter0_d_1_4242" x="159.664" y="-2.33398" width="98.668" height="98.668" filterUnits="userSpaceOnUse" color-interpolation-filters="sRGB">
<feFlood flood-opacity="0" result="BackgroundImageFix"/>
<feColorMatrix in="SourceAlpha" type="matrix" values="0 0 0 0 0 0 0 0 0 0 0 0 0 0 0 0 0 0 127 0" result="hardAlpha"/>
<feOffset dy="3"/>
<feGaussianBlur stdDeviation="3"/>
<feComposite in2="hardAlpha" operator="out"/>
<feColorMatrix type="matrix" values="0 0 0 0 0.0588235 0 0 0 0 0.0666667 0 0 0 0 0.0784314 0 0 0 0.24 0"/>
<feBlend mode="normal" in2="BackgroundImageFix" result="effect1_dropShadow_1_4242"/>
<feBlend mode="normal" in="SourceGraphic" in2="effect1_dropShadow_1_4242" result="shape"/>
</filter>
</defs>
</svg>
