<svg width="64" height="64" viewBox="0 0 64 64" fill="none" xmlns="http://www.w3.org/2000/svg">
<g clip-path="url(#clip0_244_1757)">
<path d="M5.74158 41.7389C9.69778 52.4012 19.961 59.9998 32 59.9998C44.039 59.9998 54.3022 52.4012 58.2584 41.7389L32 39.3042L5.74158 41.7389Z" fill="#FFDA44"/>
<path d="M32 4C19.961 4 9.69778 11.5985 5.74158 22.2609L32 24.6956L58.2584 22.2608C54.3022 11.5985 44.039 4 32 4Z" fill="black"/>
<path d="M5.74158 22.2607C4.61611 25.294 4 28.5749 4 31.9998C4 35.4248 4.61611 38.7056 5.74158 41.7389H58.2585C59.384 38.7056 60 35.4248 60 31.9998C60 28.5749 59.384 25.294 58.2584 22.2607H5.74158Z" fill="#D80027"/>
</g>
<rect x="2" y="2" width="60" height="60" rx="30" stroke="white" stroke-width="4"/>
<defs>
<clipPath id="clip0_244_1757">
<rect x="4" y="4" width="56" height="56" rx="28" fill="white"/>
</clipPath>
</defs>
</svg>
