<svg width="70" height="77" viewBox="0 0 70 77" fill="none" xmlns="http://www.w3.org/2000/svg">
<rect x="3.16675" y="13" width="64" height="64" rx="32" fill="#E6E6F2" fill-opacity="0.2"/>
<g filter="url(#filter0_d_1_4160)">
<path d="M29.5207 7.73752C22.5606 7.12859 16.4072 12.2919 15.7982 19.252C15.2009 26.0793 20.0571 32.072 26.9963 32.92C27.2111 32.912 27.4237 32.9306 27.5807 32.9711C27.6338 32.9758 27.6604 32.9781 27.7135 32.9827C27.7401 32.9851 27.7401 32.9851 27.7667 32.9874C34.5883 33.3433 40.4113 28.2849 41.0352 21.46C41.6441 14.4999 36.4808 8.34645 29.5207 7.73752Z" fill="#FFBF00"/>
<path d="M40.1917 41.1946C33.2123 35.605 21.1251 34.5475 13.228 38.8356C9.6567 40.7985 7.52986 43.6908 7.24399 46.9583C6.95812 50.2258 8.55273 53.4169 11.7047 55.9412C15.2054 58.7637 19.9841 60.44 24.8721 60.8676C29.7601 61.2952 34.7574 60.4743 38.6949 58.3026C42.2397 56.3374 44.3642 53.4716 44.6524 50.1776C44.9117 46.9077 43.3437 43.7189 40.1917 41.1946Z" fill="#FFBF00"/>
<path d="M57.4743 24.4774C57.4484 29.6682 53.3873 33.8635 48.2599 34.0306C48.2334 34.0283 48.2334 34.0283 48.2068 34.026L48.1271 34.019C47.9677 34.0051 47.8083 33.9911 47.6708 34.0326C45.0824 33.94 42.7901 32.9096 41.1427 31.2397C44.0928 29.0351 45.9809 25.5062 46.0107 21.4936C46.013 19.3255 45.4412 17.2946 44.4719 15.5234C45.5255 15.107 46.7222 14.8904 47.927 14.8888C53.1733 14.8927 57.4828 19.1779 57.4743 24.4774Z" fill="#FFBF00"/>
<path d="M60.638 49.5153C60.2 52.0736 58.3577 54.1609 55.4625 55.4334C52.6781 56.6621 49.2705 57.06 45.9568 56.6898C48.0206 55.1304 49.3246 53.0762 49.737 50.8102C50.2908 47.5393 49 44.241 46.0861 41.443C44.4295 39.8793 42.455 38.5823 40.269 37.5612C46.2886 36.3747 53.5738 38.1631 57.7957 42.2265C60.0678 44.4062 61.1002 46.986 60.638 49.5153Z" fill="#FFBF00"/>
</g>
<defs>
<filter id="filter0_d_1_4160" x="-5.50122" y="-2.66724" width="81.3344" height="81.3345" filterUnits="userSpaceOnUse" color-interpolation-filters="sRGB">
<feFlood flood-opacity="0" result="BackgroundImageFix"/>
<feColorMatrix in="SourceAlpha" type="matrix" values="0 0 0 0 0 0 0 0 0 0 0 0 0 0 0 0 0 0 127 0" result="hardAlpha"/>
<feOffset dy="3"/>
<feGaussianBlur stdDeviation="3"/>
<feComposite in2="hardAlpha" operator="out"/>
<feColorMatrix type="matrix" values="0 0 0 0 0.0588235 0 0 0 0 0.0666667 0 0 0 0 0.0784314 0 0 0 0.24 0"/>
<feBlend mode="normal" in2="BackgroundImageFix" result="effect1_dropShadow_1_4160"/>
<feBlend mode="normal" in="SourceGraphic" in2="effect1_dropShadow_1_4160" result="shape"/>
</filter>
</defs>
</svg>
