<svg width="64" height="64" viewBox="0 0 64 64" fill="none" xmlns="http://www.w3.org/2000/svg">
<g clip-path="url(#clip0_244_1744)">
<path d="M32.0001 60C47.4641 60 60.0001 47.464 60.0001 32C60.0001 16.536 47.4641 4 32.0001 4C16.5361 4 4.00012 16.536 4.00012 32C4.00012 47.464 16.5361 60 32.0001 60Z" fill="#F0F0F0"/>
<path d="M4.96472 39.3042C6.58478 45.3153 10.1553 50.5253 14.9567 54.2144V39.3042H4.96472Z" fill="#D80027"/>
<path d="M29.5653 59.8933C30.3679 59.9624 31.1796 59.9998 32.0001 59.9998C44.9369 59.9998 55.8225 51.2256 59.0355 39.3042H29.5653V59.8933Z" fill="#D80027"/>
<path d="M59.0355 24.6956C55.8225 12.7742 44.9369 4 32.0001 4C31.1796 4 30.3679 4.03741 29.5653 4.10653V24.6956H59.0355Z" fill="#D80027"/>
<path d="M14.9567 9.78516C10.1553 13.4744 6.58478 18.6842 4.96472 24.6954H14.9567V9.78516Z" fill="#D80027"/>
<path d="M59.7631 28.3478H25.9133L25.9132 4.66553C23.3256 5.23931 20.8724 6.16932 18.6088 7.4045V28.3476V28.3477H4.23714C4.08128 29.5433 4.00012 30.7622 4.00012 32C4.00012 33.2378 4.08128 34.4567 4.23714 35.6521H18.6087H18.6088V56.5954C20.8724 57.8304 23.3256 58.7607 25.9132 59.3343V35.6525V35.6522H59.7631C59.9187 34.4567 60.0001 33.2378 60.0001 32C60.0001 30.7622 59.9187 29.5433 59.7631 28.3478Z" fill="#0052B4"/>
</g>
<rect x="2.00012" y="2" width="60" height="60" rx="30" stroke="white" stroke-width="4"/>
<defs>
<clipPath id="clip0_244_1744">
<rect x="4.00012" y="4" width="56" height="56" rx="28" fill="white"/>
</clipPath>
</defs>
</svg>
