<svg width="288" height="208" viewBox="0 0 288 208" fill="none" xmlns="http://www.w3.org/2000/svg">
<rect x="112" y="16" width="80" height="80" rx="40" fill="#E6E6F2" fill-opacity="0.2"/>
<g filter="url(#filter0_d_244_1094)">
<path d="M119.351 62.8949C117.989 62.7758 116.959 61.548 117.078 60.1865L118.734 41.2588C119.355 32.2453 123.453 24.0379 130.253 18.2084C137.051 12.4122 145.724 9.65758 154.723 10.4449C173.119 12.0544 186.785 28.3407 185.176 46.7371L183.52 65.6648C183.401 67.0263 182.173 68.0565 180.812 67.9374C179.45 67.8183 178.42 66.5905 178.539 65.2291L180.195 46.3014C181.563 30.6611 169.961 16.7971 154.287 15.4259C146.617 14.7548 139.252 17.0884 133.501 22.006C127.715 26.9538 124.262 33.9127 123.721 41.6282L122.062 60.5891C121.94 61.9838 120.745 63.0169 119.351 62.8949Z" fill="#FFBF00"/>
<path d="M131.744 43.2345L131.313 43.1967C124.339 42.5866 118.164 47.7682 117.554 54.7415L117.008 60.9843C116.398 67.9577 121.579 74.1328 128.553 74.7429L128.984 74.7807C135.958 75.3908 142.133 70.2092 142.743 63.2359L143.289 56.993C143.899 50.0197 138.718 43.8446 131.744 43.2345Z" fill="#FFBF00"/>
<path d="M172.422 46.7926L171.99 46.7548C165.017 46.1447 158.842 51.3263 158.232 58.2996L157.686 64.5424C157.075 71.5158 162.257 77.6909 169.23 78.301L169.662 78.3388C176.635 78.9489 182.811 73.7673 183.421 66.794L183.967 60.5511C184.577 53.5778 179.395 47.4027 172.422 46.7926Z" fill="#FFBF00"/>
</g>
<path d="M87.0777 122.64C87.0777 123.893 87.051 125.067 86.9977 126.16C86.9443 127.227 86.8777 128.24 86.7977 129.2C86.7177 130.16 86.6243 131.08 86.5177 131.96C86.411 132.84 86.3043 133.693 86.1977 134.52H83.1177C83.011 133.693 82.891 132.853 82.7577 132C82.6243 131.12 82.5043 130.2 82.3977 129.24C82.291 128.28 82.1977 127.253 82.1177 126.16C82.0643 125.067 82.0377 123.893 82.0377 122.64V117.6H87.0777V122.64ZM84.6777 142C83.8243 142 83.131 141.787 82.5977 141.36C82.0643 140.907 81.7977 140.213 81.7977 139.28C81.7977 138.293 82.0643 137.587 82.5977 137.16C83.131 136.733 83.8243 136.52 84.6777 136.52C85.5043 136.52 86.1843 136.733 86.7177 137.16C87.251 137.587 87.5177 138.293 87.5177 139.28C87.5177 140.213 87.251 140.907 86.7177 141.36C86.1843 141.787 85.5043 142 84.6777 142ZM105.555 127.04V121.32L118.795 116.48L119.875 121.52L110.435 124.84L115.475 129.92C117.128 131.573 118.462 132.853 119.475 133.76C120.488 134.64 121.368 135.293 122.115 135.72C122.862 136.12 123.555 136.36 124.195 136.44C124.835 136.493 125.595 136.52 126.475 136.52C126.822 136.52 127.048 136.733 127.155 137.16C127.288 137.587 127.355 138.253 127.355 139.16C127.355 140.147 127.288 140.867 127.155 141.32C127.048 141.773 126.822 142 126.475 142C125.622 142 124.848 141.987 124.155 141.96C123.488 141.933 122.835 141.827 122.195 141.64C121.555 141.427 120.915 141.107 120.275 140.68C119.635 140.253 118.928 139.64 118.155 138.84C117.755 140.013 117.062 140.84 116.075 141.32C115.115 141.773 114.035 142 112.835 142H97.8748C96.7815 142 95.8348 141.84 95.0348 141.52C94.2615 141.173 93.6215 140.72 93.1148 140.16C92.6348 139.6 92.2748 138.947 92.0348 138.2C91.8215 137.453 91.7148 136.667 91.7148 135.84V129.92H96.7548V134.52C96.7548 134.84 96.7682 135.133 96.7948 135.4C96.8482 135.64 96.9548 135.853 97.1148 136.04C97.2748 136.2 97.5015 136.32 97.7948 136.4C98.0882 136.48 98.4882 136.52 98.9948 136.52H112.155C112.608 136.52 112.902 136.427 113.035 136.24C113.195 136.053 113.275 135.853 113.275 135.64C113.275 135.293 113.208 135 113.075 134.76C112.942 134.493 112.715 134.187 112.395 133.84L105.555 127.04ZM129.113 136.52C129.886 136.52 130.446 136.347 130.793 136C131.139 135.627 131.313 135.053 131.313 134.28V130.12H136.393V134.28C136.393 135.053 136.633 135.627 137.113 136C137.593 136.347 138.219 136.52 138.993 136.52H139.873C140.486 136.52 140.793 137.4 140.793 139.16C140.793 141.053 140.486 142 139.873 142H138.793C137.779 142 136.846 141.853 135.993 141.56C135.166 141.24 134.419 140.573 133.753 139.56C133.059 140.573 132.326 141.24 131.553 141.56C130.806 141.853 129.993 142 129.113 142H126.473C126.126 142 125.899 141.787 125.793 141.36C125.659 140.907 125.593 140.24 125.593 139.36C125.593 138.347 125.659 137.627 125.793 137.2C125.899 136.747 126.126 136.52 126.473 136.52H129.113ZM138.753 151H133.913V146.36H138.753V151ZM132.593 151H127.753V146.36H132.593V151ZM140.751 136.52C141.524 136.52 142.084 136.347 142.431 136C142.778 135.627 142.951 135.053 142.951 134.28V117.2H148.031V134.28C148.031 135.053 148.271 135.627 148.751 136C149.231 136.347 149.858 136.52 150.631 136.52H151.311C151.898 136.52 152.191 137.4 152.191 139.16C152.191 141.053 151.898 142 151.311 142H150.431C149.444 142 148.511 141.853 147.631 141.56C146.778 141.24 146.018 140.573 145.351 139.56C144.711 140.573 144.004 141.24 143.231 141.56C142.458 141.853 141.631 142 140.751 142H139.871C139.524 142 139.298 141.787 139.191 141.36C139.058 140.907 138.991 140.24 138.991 139.36C138.991 138.347 139.058 137.627 139.191 137.2C139.298 136.747 139.524 136.52 139.871 136.52H140.751ZM160.796 136.52C161.223 136.52 161.503 136.427 161.636 136.24C161.796 136.053 161.876 135.853 161.876 135.64C161.876 135.293 161.81 134.987 161.676 134.72C161.57 134.453 161.343 134.16 160.996 133.84L154.156 127.04V121.32L167.396 116.48L168.476 121.52L159.036 124.84L164.076 129.92C164.716 130.587 165.25 131.2 165.676 131.76C166.103 132.32 166.436 132.867 166.676 133.4C166.943 133.907 167.13 134.413 167.236 134.92C167.343 135.427 167.396 135.96 167.396 136.52C167.396 137.507 167.236 138.347 166.916 139.04C166.596 139.733 166.17 140.307 165.636 140.76C165.103 141.187 164.476 141.507 163.756 141.72C163.036 141.907 162.263 142 161.436 142H151.316C150.97 142 150.743 141.787 150.636 141.36C150.503 140.907 150.436 140.24 150.436 139.36C150.436 138.347 150.503 137.627 150.636 137.2C150.743 136.747 150.97 136.52 151.316 136.52H160.796ZM190.477 127.04V121.32L203.717 116.48L204.797 121.52L195.357 124.84L200.397 129.92C202.05 131.573 203.383 132.853 204.397 133.76C205.41 134.64 206.29 135.293 207.037 135.72C207.783 136.12 208.477 136.36 209.117 136.44C209.757 136.493 210.517 136.52 211.397 136.52C211.743 136.52 211.97 136.733 212.077 137.16C212.21 137.587 212.277 138.253 212.277 139.16C212.277 140.147 212.21 140.867 212.077 141.32C211.97 141.773 211.743 142 211.397 142C210.543 142 209.77 141.987 209.077 141.96C208.41 141.933 207.757 141.827 207.117 141.64C206.477 141.427 205.837 141.107 205.197 140.68C204.557 140.253 203.85 139.64 203.077 138.84C202.677 140.013 201.983 140.84 200.997 141.32C200.037 141.773 198.957 142 197.757 142H182.797C181.703 142 180.757 141.84 179.957 141.52C179.183 141.173 178.543 140.72 178.037 140.16C177.557 139.6 177.197 138.947 176.957 138.2C176.743 137.453 176.637 136.667 176.637 135.84V129.92H181.677V134.52C181.677 134.84 181.69 135.133 181.717 135.4C181.77 135.64 181.877 135.853 182.037 136.04C182.197 136.2 182.423 136.32 182.717 136.4C183.01 136.48 183.41 136.52 183.917 136.52H197.077C197.53 136.52 197.823 136.427 197.957 136.24C198.117 136.053 198.197 135.853 198.197 135.64C198.197 135.293 198.13 135 197.997 134.76C197.863 134.493 197.637 134.187 197.317 133.84L190.477 127.04ZM215.155 136.52C215.928 136.52 216.475 136.347 216.795 136C217.141 135.627 217.315 135.053 217.315 134.28V130.12H222.395V134.72C222.395 137.147 221.808 138.973 220.635 140.2C219.488 141.4 217.808 142 215.595 142H211.395C211.048 142 210.821 141.787 210.715 141.36C210.581 140.907 210.515 140.24 210.515 139.36C210.515 138.347 210.581 137.627 210.715 137.2C210.821 136.747 211.048 136.52 211.395 136.52H215.155ZM222.155 151H217.315V146.36H222.155V151ZM215.995 151H211.155V146.36H215.995V151ZM39.7833 184.04C39.7833 185.453 40.0899 186.453 40.7033 187.04C41.3433 187.6 42.1166 187.88 43.0233 187.88H43.8233C44.1699 187.88 44.3966 187.973 44.5033 188.16C44.6366 188.347 44.7033 188.6 44.7033 188.92C44.7033 189.293 44.6366 189.573 44.5033 189.76C44.3966 189.92 44.1699 190 43.8233 190H43.0233C42.5966 190 42.1833 189.973 41.7833 189.92C41.3833 189.84 40.9966 189.707 40.6233 189.52C40.2766 189.333 39.9433 189.067 39.6233 188.72C39.3033 188.347 39.0233 187.88 38.7833 187.32C38.4633 187.88 38.0633 188.333 37.5833 188.68C37.1299 189.027 36.6499 189.307 36.1433 189.52C35.6366 189.707 35.1166 189.84 34.5833 189.92C34.0766 189.973 33.5833 190 33.1033 190C31.2899 190 29.8233 189.52 28.7033 188.56C27.6099 187.573 27.0633 186.147 27.0633 184.28V181.64C27.0633 180.733 27.1699 179.96 27.3833 179.32C27.6233 178.653 28.0633 178.04 28.7033 177.48H26.7433C24.9033 177.48 23.5033 177.973 22.5433 178.96C21.6099 179.92 21.1433 181.12 21.1433 182.56V199.68H19.1833V182.52C19.1833 181.587 19.3433 180.693 19.6633 179.84C20.0099 178.987 20.5033 178.24 21.1433 177.6C21.7833 176.933 22.5833 176.413 23.5433 176.04C24.5033 175.64 25.6233 175.44 26.9033 175.44H34.1433C35.1833 175.44 36.0633 175.6 36.7833 175.92C37.5033 176.213 38.0766 176.613 38.5033 177.12C38.9566 177.6 39.2766 178.16 39.4633 178.8C39.6766 179.44 39.7833 180.08 39.7833 180.72V184.04ZM33.3433 187.88C34.7033 187.88 35.7833 187.587 36.5833 187C37.4099 186.387 37.8233 185.44 37.8233 184.16V181.16C37.8233 180.2 37.5299 179.36 36.9433 178.64C36.3833 177.893 35.4766 177.52 34.2233 177.52H32.5833C31.3299 177.52 30.4099 177.893 29.8233 178.64C29.2633 179.387 28.9833 180.293 28.9833 181.36V184C28.9833 185.28 29.3699 186.253 30.1433 186.92C30.9166 187.56 31.9833 187.88 33.3433 187.88ZM43.8164 190C43.4697 190 43.2431 189.92 43.1364 189.76C43.0031 189.573 42.9364 189.32 42.9364 189C42.9364 188.627 43.0031 188.347 43.1364 188.16C43.2431 187.973 43.4697 187.88 43.8164 187.88H52.8964C54.0164 187.88 54.9097 187.573 55.5764 186.96C56.2697 186.347 56.6164 185.533 56.6164 184.52V178.64H58.6164V184.44C58.6164 186.2 58.0964 187.573 57.0564 188.56C56.0431 189.52 54.6964 190 53.0164 190H43.8164ZM53.7764 197.12H51.1764V194.72H53.7764V197.12ZM48.8564 197.12H46.2164V194.72H48.8564V197.12ZM56.5258 197.6H57.4058C58.7924 197.6 59.9791 197.373 60.9658 196.92C61.9791 196.467 62.8058 195.853 63.4458 195.08C64.0858 194.333 64.5524 193.453 64.8458 192.44C65.1658 191.453 65.3258 190.427 65.3258 189.36V178.64H67.3258V189.36C67.3258 190.96 67.0724 192.387 66.5658 193.64C66.0858 194.92 65.4058 196 64.5258 196.88C63.6724 197.787 62.6591 198.48 61.4858 198.96C60.3391 199.44 59.0991 199.68 57.7658 199.68H56.7658L56.5258 197.6ZM72.4777 165.2H74.4777V190H72.4777V165.2ZM94.5711 180.68C95.2378 181.453 95.7178 182.213 96.0111 182.96C96.3044 183.68 96.4511 184.387 96.4511 185.08C96.4511 186.52 95.9311 187.707 94.8911 188.64C93.8778 189.547 92.4511 190 90.6111 190H79.2511L79.0511 187.88H90.4111C91.6111 187.88 92.5444 187.6 93.2111 187.04C93.9044 186.48 94.2511 185.747 94.2511 184.84C94.2511 184.387 94.1311 183.907 93.8911 183.4C93.6778 182.867 93.3578 182.373 92.9311 181.92L85.2511 173.24L86.8111 171.76L94.5711 180.68ZM113.671 186.32C115.191 186.32 116.418 186.013 117.351 185.4C118.284 184.787 118.751 184.027 118.751 183.12V176.28H113.911C112.391 176.28 111.204 176.8 110.351 177.84C109.524 178.88 109.111 180.253 109.111 181.96C109.111 183.613 109.498 184.76 110.271 185.4C111.071 186.013 112.204 186.32 113.671 186.32ZM120.711 183.56C120.711 184.813 120.951 185.853 121.431 186.68C121.938 187.48 122.858 187.88 124.191 187.88H124.751C125.098 187.88 125.324 187.973 125.431 188.16C125.564 188.347 125.631 188.6 125.631 188.92C125.631 189.293 125.564 189.573 125.431 189.76C125.324 189.92 125.098 190 124.751 190H124.191C122.991 190 121.951 189.733 121.071 189.2C120.191 188.667 119.564 187.667 119.191 186.2C118.871 186.653 118.458 187.013 117.951 187.28C117.471 187.547 116.951 187.76 116.391 187.92C115.858 188.08 115.311 188.187 114.751 188.24C114.218 188.293 113.711 188.32 113.231 188.32C111.284 188.32 109.791 187.84 108.751 186.88C107.711 185.893 107.191 184.333 107.191 182.2C107.191 181.213 107.324 180.253 107.591 179.32C107.884 178.36 108.311 177.507 108.871 176.76C109.431 176.013 110.124 175.413 110.951 174.96C111.804 174.507 112.804 174.28 113.951 174.28H118.751V171.48H120.711V183.56ZM125.834 187.88C127.034 187.88 127.954 187.573 128.594 186.96C129.234 186.347 129.554 185.533 129.554 184.52V165.2H131.514V184.52C131.514 185.16 131.621 185.693 131.834 186.12C132.047 186.547 132.327 186.893 132.674 187.16C133.021 187.427 133.407 187.613 133.834 187.72C134.261 187.827 134.687 187.88 135.114 187.88H135.674C136.021 187.88 136.247 187.973 136.354 188.16C136.487 188.347 136.554 188.6 136.554 188.92C136.554 189.293 136.487 189.573 136.354 189.76C136.247 189.92 136.021 190 135.674 190H135.074C134.114 190 133.221 189.813 132.394 189.44C131.567 189.067 130.914 188.373 130.434 187.36C129.874 188.373 129.181 189.067 128.354 189.44C127.527 189.813 126.687 190 125.834 190H124.754C124.407 190 124.181 189.92 124.074 189.76C123.941 189.573 123.874 189.32 123.874 189C123.874 188.627 123.941 188.347 124.074 188.16C124.181 187.973 124.407 187.88 124.754 187.88H125.834ZM145.411 187.76C146.691 185.413 147.878 183.44 148.971 181.84C150.091 180.213 151.158 178.893 152.171 177.88C153.211 176.867 154.211 176.133 155.171 175.68C156.131 175.227 157.091 175 158.051 175C159.065 175 159.985 175.2 160.811 175.6C161.665 176 162.398 176.56 163.011 177.28C163.625 177.973 164.091 178.787 164.411 179.72C164.758 180.653 164.931 181.64 164.931 182.68C164.931 183.56 164.785 184.44 164.491 185.32C164.225 186.2 163.798 186.987 163.211 187.68C162.625 188.373 161.878 188.933 160.971 189.36C160.091 189.787 159.038 190 157.811 190H146.531C145.491 190 144.545 189.813 143.691 189.44C142.838 189.067 142.158 188.373 141.651 187.36C141.091 188.373 140.358 189.067 139.451 189.44C138.571 189.813 137.665 190 136.731 190H135.691C135.345 190 135.118 189.92 135.011 189.76C134.878 189.573 134.811 189.32 134.811 189C134.811 188.627 134.878 188.347 135.011 188.16C135.118 187.973 135.345 187.88 135.691 187.88H136.891C138.091 187.88 139.038 187.573 139.731 186.96C140.425 186.347 140.771 185.533 140.771 184.52V178.64H142.771V184.52C142.771 185.373 143.011 186.093 143.491 186.68C143.998 187.24 144.638 187.6 145.411 187.76ZM162.891 182.68C162.891 181.88 162.758 181.133 162.491 180.44C162.251 179.747 161.905 179.16 161.451 178.68C161.025 178.173 160.505 177.787 159.891 177.52C159.278 177.227 158.625 177.08 157.931 177.08C156.358 177.08 154.718 177.947 153.011 179.68C151.305 181.387 149.411 184.12 147.331 187.88H157.851C158.491 187.88 159.105 187.787 159.691 187.6C160.305 187.387 160.838 187.08 161.291 186.68C161.771 186.253 162.158 185.72 162.451 185.08C162.745 184.413 162.891 183.613 162.891 182.68ZM175.1 190C174.406 190 173.74 189.907 173.1 189.72C172.486 189.507 171.94 189.16 171.46 188.68C170.98 188.2 170.593 187.573 170.3 186.8C170.033 186 169.9 185.013 169.9 183.84V165.2H171.9V183.56C171.9 184.787 172.166 185.813 172.7 186.64C173.233 187.467 174.126 187.88 175.38 187.88H175.94C176.526 187.88 176.82 188.227 176.82 188.92C176.82 189.64 176.526 190 175.94 190H175.1ZM183.966 187.88C184.579 187.88 185.126 187.867 185.606 187.84C186.086 187.813 186.592 187.773 187.126 187.72C185.392 187.16 184.019 186.627 183.006 186.12C182.019 185.587 181.272 185.04 180.766 184.48C180.286 183.92 179.979 183.333 179.846 182.72C179.712 182.08 179.646 181.36 179.646 180.56C179.646 179.813 179.792 179.053 180.086 178.28C180.379 177.507 180.806 176.8 181.366 176.16C181.952 175.52 182.659 175 183.486 174.6C184.339 174.2 185.312 174 186.406 174C187.419 174 188.339 174.147 189.166 174.44C189.992 174.707 190.699 175.16 191.286 175.8C191.872 176.413 192.326 177.213 192.646 178.2C192.966 179.187 193.126 180.387 193.126 181.8V183.48C193.126 185.507 192.499 187.107 191.246 188.28C190.019 189.427 188.072 190 185.406 190H175.926C175.579 190 175.352 189.92 175.246 189.76C175.112 189.573 175.046 189.32 175.046 189C175.046 188.627 175.112 188.347 175.246 188.16C175.352 187.973 175.579 187.88 175.926 187.88H183.966ZM186.206 176.12C185.486 176.12 184.832 176.253 184.246 176.52C183.686 176.787 183.206 177.133 182.806 177.56C182.406 177.987 182.086 178.48 181.846 179.04C181.632 179.573 181.526 180.12 181.526 180.68C181.526 181.24 181.579 181.76 181.686 182.24C181.792 182.72 182.099 183.2 182.606 183.68C183.139 184.16 183.952 184.667 185.046 185.2C186.139 185.707 187.659 186.28 189.606 186.92C190.059 186.547 190.432 186.08 190.726 185.52C191.019 184.933 191.166 184.24 191.166 183.44V182.04C191.166 180.173 190.779 178.72 190.006 177.68C189.232 176.64 187.966 176.12 186.206 176.12ZM187.886 169.8H184.926V167.36H187.886V169.8ZM209.709 190C209.016 190 208.349 189.907 207.709 189.72C207.096 189.507 206.549 189.16 206.069 188.68C205.589 188.2 205.202 187.573 204.909 186.8C204.642 186 204.509 185.013 204.509 183.84V165.2H206.509V183.56C206.509 184.787 206.776 185.813 207.309 186.64C207.842 187.467 208.736 187.88 209.989 187.88H210.549C211.136 187.88 211.429 188.227 211.429 188.92C211.429 189.64 211.136 190 210.549 190H209.709ZM211.255 187.88C212.375 187.88 213.202 187.6 213.735 187.04C214.295 186.48 214.575 185.773 214.575 184.92V183.12C214.575 180.747 215.162 178.92 216.335 177.64C217.508 176.333 219.148 175.68 221.255 175.68C223.442 175.68 225.068 176.347 226.135 177.68C227.202 178.987 227.735 180.68 227.735 182.76V184.24C227.735 185.6 228.028 186.547 228.615 187.08C229.228 187.613 230.015 187.88 230.975 187.88H231.735C232.082 187.88 232.308 187.973 232.415 188.16C232.548 188.347 232.615 188.6 232.615 188.92C232.615 189.293 232.548 189.573 232.415 189.76C232.308 189.92 232.082 190 231.735 190H230.975C230.548 190 230.122 189.973 229.695 189.92C229.295 189.84 228.908 189.693 228.535 189.48C228.162 189.24 227.815 188.92 227.495 188.52C227.175 188.12 226.895 187.587 226.655 186.92C226.282 187.533 225.882 188.04 225.455 188.44C225.028 188.84 224.562 189.16 224.055 189.4C223.575 189.613 223.068 189.773 222.535 189.88C222.028 189.96 221.522 190 221.015 190C219.922 190 218.895 189.8 217.935 189.4C216.975 188.973 216.188 188.2 215.575 187.08C215.335 187.747 215.042 188.28 214.695 188.68C214.348 189.053 213.988 189.347 213.615 189.56C213.242 189.747 212.855 189.867 212.455 189.92C212.055 189.973 211.655 190 211.255 190H210.535C210.188 190 209.962 189.92 209.855 189.76C209.722 189.573 209.655 189.32 209.655 189C209.655 188.627 209.722 188.347 209.855 188.16C209.962 187.973 210.188 187.88 210.535 187.88H211.255ZM225.775 183.08C225.775 181.48 225.428 180.2 224.735 179.24C224.042 178.253 222.842 177.76 221.135 177.76C219.615 177.76 218.455 178.227 217.655 179.16C216.855 180.067 216.455 181.44 216.455 183.28C216.455 184.8 216.895 185.947 217.775 186.72C218.655 187.493 219.748 187.88 221.055 187.88C222.602 187.88 223.775 187.467 224.575 186.64C225.375 185.787 225.775 184.6 225.775 183.08ZM233.066 187.88C234.266 187.88 235.213 187.573 235.906 186.96C236.599 186.347 236.946 185.533 236.946 184.52V178.64H238.946V184.52C238.946 185.16 239.053 185.693 239.266 186.12C239.506 186.547 239.799 186.893 240.146 187.16C240.519 187.427 240.919 187.613 241.346 187.72C241.799 187.827 242.253 187.88 242.706 187.88C244.039 187.88 245.066 187.573 245.786 186.96C246.506 186.347 246.866 185.533 246.866 184.52V178.64H248.866V184.52C248.866 185.16 248.959 185.693 249.146 186.12C249.359 186.547 249.626 186.893 249.946 187.16C250.266 187.427 250.639 187.613 251.066 187.72C251.493 187.827 251.933 187.88 252.386 187.88C253.479 187.88 254.359 187.573 255.026 186.96C255.693 186.347 256.026 185.533 256.026 184.52V178.64H258.026V184.44C258.026 186.2 257.506 187.573 256.466 188.56C255.453 189.52 254.106 190 252.426 190C251.439 190 250.533 189.813 249.706 189.44C248.879 189.067 248.226 188.373 247.746 187.36C247.159 188.373 246.413 189.067 245.506 189.44C244.626 189.813 243.693 190 242.706 190C241.639 190 240.679 189.813 239.826 189.44C238.973 189.067 238.306 188.373 237.826 187.36C237.239 188.373 236.506 189.067 235.626 189.44C234.746 189.813 233.826 190 232.866 190H231.746C231.399 190 231.173 189.92 231.066 189.76C230.933 189.573 230.866 189.32 230.866 189C230.866 188.627 230.933 188.347 231.066 188.16C231.173 187.973 231.399 187.88 231.746 187.88H233.066ZM249.306 168.92H246.506V166.52H249.306V168.92ZM251.666 173.36H248.906V170.96H251.666V173.36ZM246.866 173.36H244.106V170.96H246.866V173.36ZM274.709 190C274.016 190 273.349 189.907 272.709 189.72C272.096 189.507 271.549 189.16 271.069 188.68C270.589 188.2 270.202 187.573 269.909 186.8C269.642 186 269.509 185.013 269.509 183.84V165.2H271.509V183.56C271.509 184.787 271.776 185.813 272.309 186.64C272.842 187.467 273.736 187.88 274.989 187.88H275.549C276.136 187.88 276.429 188.227 276.429 188.92C276.429 189.64 276.136 190 275.549 190H274.709ZM279.095 187.88C280.215 187.88 281.122 187.573 281.815 186.96C282.508 186.347 282.855 185.533 282.855 184.52V178.64H284.815V184.44C284.815 186.2 284.295 187.573 283.255 188.56C282.242 189.52 280.895 190 279.215 190H275.535C275.188 190 274.962 189.92 274.855 189.76C274.722 189.573 274.655 189.32 274.655 189C274.655 188.627 274.722 188.347 274.855 188.16C274.962 187.973 275.188 187.88 275.535 187.88H279.095ZM280.535 197.16H277.575V194.72H280.535V197.16Z" fill="#FFBF00"/>
<defs>
<filter id="filter0_d_244_1094" x="88.6643" y="-9.83398" width="126.668" height="126.668" filterUnits="userSpaceOnUse" color-interpolation-filters="sRGB">
<feFlood flood-opacity="0" result="BackgroundImageFix"/>
<feColorMatrix in="SourceAlpha" type="matrix" values="0 0 0 0 0 0 0 0 0 0 0 0 0 0 0 0 0 0 127 0" result="hardAlpha"/>
<feOffset dy="10"/>
<feGaussianBlur stdDeviation="10"/>
<feComposite in2="hardAlpha" operator="out"/>
<feColorMatrix type="matrix" values="0 0 0 0 0.0588235 0 0 0 0 0.0666667 0 0 0 0 0.0784314 0 0 0 0.24 0"/>
<feBlend mode="normal" in2="BackgroundImageFix" result="effect1_dropShadow_244_1094"/>
<feBlend mode="normal" in="SourceGraphic" in2="effect1_dropShadow_244_1094" result="shape"/>
</filter>
</defs>
</svg>
