<svg width="360" height="212" viewBox="0 0 360 212" fill="none" xmlns="http://www.w3.org/2000/svg">
<g clip-path="url(#clip0_14_3817)">
<rect width="360" height="212" fill="#FFBF00"/>
<g style="mix-blend-mode:soft-light" opacity="0.5">
<path d="M220.688 136.845C219.293 142.758 214.439 159.386 208.399 167.997C204.186 174.003 201.394 177.363 195.334 181.498C190.862 184.549 182.86 187.513 182.795 187.537L174.37 167.908C174.408 167.893 182.857 164.506 186.723 160.413C190.978 155.907 195.222 148.928 193.781 146.199C187.934 135.126 155.261 75.8266 155.191 75.7006L181.386 72.3524L204.089 122.697L210.491 68.6335L236.686 65.2862L220.688 136.845ZM24.8668 62.5571C38.7701 60.7805 49.2815 62.509 56.4012 67.7429C63.6087 72.8631 67.8821 80.6619 69.221 91.1397C69.8262 95.8749 69.7003 100.499 68.8434 105.012C67.9736 109.423 66.0948 113.555 63.2079 117.405C60.4088 121.142 56.4618 124.309 51.3669 126.905C46.2719 129.502 39.7947 131.302 31.9363 132.306L22.1136 133.561L27.0189 171.947L4.19892 174.863L-9.58943 66.9597L24.8668 62.5571ZM98.4364 82.9526C103.709 80.9477 109.701 78.9191 117.169 79.0811C126.651 79.2868 146.438 84.2152 149.413 107.499C152.386 130.758 157.945 155.161 157.957 155.214L136.129 158.004L134.162 149.382C132.218 152.599 128.317 157.008 123.031 159.678C118.908 161.761 116.209 162.029 111.575 162.622C106.739 163.24 103.048 162.845 98.8866 161.534C94.8137 160.109 91.4242 157.623 88.7186 154.078C86.0001 150.432 84.2611 145.637 83.5015 139.693C82.3815 130.928 84.6298 124.087 90.2476 119.171C95.8526 114.154 102.074 110.544 114.314 108.57L126.174 107.054C126.174 107.054 125.999 102.489 124.324 100.351C122.265 97.7211 120.128 97.406 116.49 96.9158C112.304 96.3518 108.414 97.3327 103.393 98.5895C97.0743 100.171 93.0069 102.612 89.3973 104.814L83.1723 90.8199C87.3092 87.9362 93.2641 84.9447 98.4364 82.9526ZM288.266 29.1131C288.266 29.1131 294.192 67.1404 296.262 91.6898C297.069 101.256 298.512 109.042 297.917 116.218C297.329 123.316 294.991 127.187 290.144 132.405C282.86 140.248 275.179 141.687 264.376 143.094C257.464 143.994 248.204 142.612 246.54 142.415L246.983 122.727C248.646 122.924 250.191 123.085 252.256 123.129C257.839 123.247 261.606 124.111 266.44 121.316C269.342 119.638 270.929 118.275 272.671 115.411C275.706 110.418 273.721 100.486 273.721 100.486L264.981 32.0886L288.266 29.1131ZM124.268 120.967C117.04 122.096 112.169 124.05 109.657 126.828C107.145 129.606 106.141 132.96 106.643 136.889C107.081 140.315 108.403 142.654 110.611 143.908C112.806 145.061 115.516 145.432 118.74 145.02C123.576 144.402 124.926 143.076 127.89 139.831C130.841 136.484 131.438 132.869 130.768 127.63L129.838 120.353L124.268 120.967ZM346.423 131.132L322.402 134.201L311.858 51.6866L335.878 48.6169L346.423 131.132ZM380.607 57.2497C380.607 57.2497 385.172 51.5194 388.911 48.7913C395.382 44.0711 400.215 41.8309 408.224 41.8878C418.281 41.9592 435.851 45.7513 440.315 80.6774C443.476 105.417 430.695 123.194 409.906 124.499C403.936 124.874 400.214 124.525 394.796 121.991C390.412 119.941 384.999 114.427 384.949 114.376L384.981 126.204L364.607 128.808L351.556 15.1107L374.841 12.1351L380.607 57.2497ZM409.93 66.8132C405.645 63.1426 401.657 61.7492 396.089 62.6658C392.514 63.2545 390.285 64.1236 387.73 66.6929C385.71 68.724 385.102 70.3849 384.108 73.0714C382.288 77.9879 382.623 81.2868 383.373 86.4749C384.318 93.0077 384.779 97.8771 389.868 102.08C394.042 105.527 397.783 107.025 403.123 106.138C407.427 105.423 410.218 103.36 412.752 100.471C417.89 94.6118 417.424 88.4975 416.156 80.8087C415.182 74.9068 414.473 70.7045 409.93 66.8132ZM40.3069 83.6222C37.0504 81.3761 32.2982 80.6526 26.0518 81.4508L15.6249 82.7833L19.7193 114.822L27.275 113.856C31.6071 113.302 35.2639 112.272 38.2454 110.765C41.2271 109.257 43.4202 107.185 44.8239 104.548C46.2277 101.911 46.6845 98.6786 46.1953 94.8501C45.5129 89.5105 43.5504 85.7675 40.3069 83.6222ZM320.402 21.191C323.726 20.7663 326.7 21.2046 329.324 22.5074C331.935 23.7097 333.511 26.4269 334.052 30.6584C334.58 34.7892 333.738 37.815 331.526 39.736C329.314 41.657 326.546 42.8302 323.221 43.2551C319.795 43.6928 316.771 43.2595 314.147 41.9565C311.623 40.6406 310.098 37.9174 309.57 33.7867C309.029 29.5555 309.821 26.5363 311.945 24.7289C314.157 22.8079 316.976 21.6288 320.402 21.191Z" fill="#F5F7FA"/>
</g>
<path d="M335.878 48.6168L346.423 131.131L322.402 134.201L311.857 51.6864L335.878 48.6168ZM320.401 21.19C323.726 20.7652 326.7 21.2043 329.324 22.5073C331.936 23.7095 333.511 26.4263 334.052 30.6579C334.58 34.7886 333.738 37.8144 331.526 39.7354C329.314 41.6565 326.546 42.8293 323.221 43.2542C319.795 43.692 316.771 43.2593 314.147 41.9563C311.623 40.6404 310.098 37.9172 309.57 33.7864C309.029 29.5549 309.821 26.5355 311.945 24.7281C314.157 22.8071 316.976 21.6278 320.401 21.19Z" fill="#2E2EE5"/>
</g>
<defs>
<clipPath id="clip0_14_3817">
<rect width="360" height="212" fill="white"/>
</clipPath>
</defs>
</svg>
