<svg width="249" height="71" viewBox="0 0 249 71" fill="none" xmlns="http://www.w3.org/2000/svg">
<path d="M48.032 26.44C52.32 26.44 54.464 24.36 54.464 20.2V8.872H64.256V20.2C64.256 22.44 64.96 24.04 66.368 25C67.776 25.96 69.44 26.44 71.36 26.44H73.28C74.112 26.44 74.656 26.888 74.912 27.784C75.232 28.616 75.392 29.864 75.392 31.528C75.392 33.384 75.232 34.76 74.912 35.656C74.656 36.552 74.112 37 73.28 37H70.976C68.608 37 66.4 36.616 64.352 35.848C62.304 35.016 60.544 33.384 59.072 30.952C57.6 33.384 55.904 35.016 53.984 35.848C52.128 36.616 50.144 37 48.032 37H15.68C13.056 37 10.784 36.616 8.864 35.848C7.008 35.016 5.472 33.928 4.256 32.584C3.104 31.24 2.24 29.672 1.664 27.88C1.152 26.088 0.896 24.2 0.896 22.216V8.584H10.592V19.72C10.592 21.832 11.072 23.496 12.032 24.712C12.992 25.864 14.944 26.44 17.888 26.44H48.032ZM38.144 57.544H27.296V47.752H38.144V57.544ZM133.24 31.624C131.512 32.648 129.816 33.512 128.152 34.216C126.488 34.856 124.728 35.4 122.872 35.848C121.016 36.232 118.968 36.52 116.728 36.712C114.552 36.904 112.024 37 109.144 37H105.688C104.855 37 104.311 36.584 104.055 35.752C103.735 34.856 103.575 33.576 103.575 31.912C103.575 30.056 103.735 28.68 104.055 27.784C104.311 26.888 104.855 26.44 105.688 26.44H109.528C111.896 26.44 114.04 26.408 115.96 26.344C117.88 26.216 119.608 26.024 121.144 25.768C122.744 25.512 124.248 25.16 125.656 24.712C127.064 24.2 128.472 23.528 129.88 22.696L142.072 15.688C141.624 14.856 141.176 14.12 140.728 13.48C140.344 12.84 139.832 12.328 139.192 11.944C138.616 11.496 137.88 11.176 136.984 10.984C136.088 10.728 134.936 10.6 133.528 10.6H113.176L113.752 0.0399981H135.064C136.856 0.0399981 138.616 0.295999 140.344 0.808C142.136 1.32 143.8 2.312 145.336 3.784C146.936 5.192 148.376 7.208 149.656 9.832C151 12.392 152.12 15.784 153.016 20.008L133.24 31.624ZM134.68 57.544H123.832V47.752H134.68V57.544ZM193.156 49.768C195.972 49.768 198.308 49.576 200.164 49.192C202.084 48.808 203.588 48.264 204.676 47.56C205.828 46.856 206.628 45.992 207.076 44.968C207.588 44.008 207.844 42.952 207.844 41.8C207.844 40.52 207.492 39.4 206.788 38.44C206.084 37.48 204.9 37 203.236 37H189.412L189.988 26.44H223.3C224.708 26.44 225.412 28.136 225.412 31.528C225.412 35.176 224.708 37 223.3 37H215.044C215.876 37.64 216.42 38.472 216.676 39.496C216.996 40.52 217.156 41.768 217.156 43.24C217.156 44.968 216.772 46.824 216.004 48.808C215.236 50.792 213.956 52.616 212.164 54.28C210.436 56.008 208.1 57.416 205.156 58.504C202.276 59.656 198.724 60.232 194.5 60.232H184.324C177.156 60.232 171.588 58.024 167.62 53.608C163.652 49.192 161.668 43.144 161.668 35.464V18.28H171.364V35.08C171.364 37.32 171.62 39.336 172.132 41.128C172.644 42.92 173.444 44.456 174.532 45.736C175.684 47.016 177.156 48.008 178.948 48.712C180.804 49.416 183.044 49.768 185.668 49.768H193.156ZM232.176 26.44C236.464 26.44 238.608 24.36 238.608 20.2V8.872H248.4V20.872C248.4 26.184 247.056 30.216 244.368 32.968C241.68 35.656 237.904 37 233.04 37H223.344C222.512 37 221.968 36.584 221.712 35.752C221.392 34.856 221.232 33.576 221.232 31.912C221.232 30.056 221.392 28.68 221.712 27.784C221.968 26.888 222.512 26.44 223.344 26.44H232.176ZM240.432 70.6H230.256V61.192H240.432V70.6ZM247.152 57.16H237.168V47.752H247.152V57.16ZM233.424 57.16H223.44V47.752H233.424V57.16Z" fill="white"/>
<path d="M79.97 26.44C84.258 26.44 86.402 24.36 86.402 20.2V8.872H96.29V20.2C96.29 22.44 96.962 24.04 98.306 25C99.714 25.96 101.346 26.44 103.202 26.44H105.698C107.17 26.44 107.906 28.136 107.906 31.528C107.906 35.176 107.17 37 105.698 37H102.914C100.482 37 98.274 36.616 96.29 35.848C94.306 35.016 92.578 33.384 91.106 30.952C89.506 33.384 87.778 35.016 85.922 35.848C84.066 36.616 82.082 37 79.97 37H73.25C72.418 37 71.874 36.584 71.618 35.752C71.298 34.856 71.138 33.576 71.138 31.912C71.138 30.056 71.298 28.68 71.618 27.784C71.874 26.888 72.418 26.44 73.25 26.44H79.97ZM101.282 57.16H91.394V47.752H101.282V57.16ZM87.458 57.16H77.57V47.752H87.458V57.16Z" fill="#FFBF00"/>
</svg>
