<svg width="72" height="77" viewBox="0 0 72 77" fill="none" xmlns="http://www.w3.org/2000/svg">
<rect x="5.33337" y="13" width="64" height="64" rx="32" fill="#E6E6F2"/>
<g filter="url(#filter0_d_1_4089)">
<path d="M52.4746 14.9098L25.9094 12.5857C17.9399 11.8884 12.2782 15.4084 11.4648 24.7062L10.6374 34.1634C10.5514 35.1463 11.5074 35.8456 12.4189 35.5238C15.1269 34.5562 18.1683 34.3672 21.2807 35.2016C28.1581 37.0615 32.7181 43.9919 31.9116 51.0686C31.7874 52.182 31.5327 53.2572 31.1476 54.2942C30.863 55.0992 31.4597 55.9277 32.3098 56.002L48.7537 57.4407C56.7232 58.1379 62.3849 54.618 63.1983 45.3202L64.5951 29.3545C65.4086 20.0567 60.4442 15.6071 52.4746 14.9098ZM36.7517 41.6412C33.0857 41.3205 30.3707 38.0849 30.6914 34.4189C31.0121 30.7529 34.2477 28.0379 37.9137 28.3586C41.5797 28.6793 44.2947 31.9149 43.974 35.5809C43.6533 39.2469 40.4177 41.9619 36.7517 41.6412ZM56.1276 41.9979C56.0323 43.0871 55.0501 43.9113 53.9609 43.816C52.8718 43.7207 52.0476 42.7385 52.1429 41.6493L53.0725 31.0232C53.1678 29.9341 54.15 29.1099 55.2392 29.2052C56.3284 29.3005 57.1526 30.2827 57.0573 31.3719L56.1276 41.9979Z" fill="#2626BF"/>
<path d="M18.2722 38.686C14.9515 38.3955 11.8126 39.7002 9.66412 41.9214C8.0161 43.6243 6.93725 45.8587 6.71646 48.3824C6.20282 54.2533 10.5685 59.4268 16.4129 59.9382C21.0352 60.3426 25.2514 57.7401 27.0485 53.7215C27.5423 52.6672 27.8594 51.4903 27.9686 50.2417C28.4799 44.3974 24.1431 39.1996 18.2722 38.686ZM23.2075 54.4829C23.1404 54.6377 23.0202 54.7878 22.9047 54.8847L20.827 56.6035C20.5646 56.8483 20.2366 56.9266 19.8912 56.8964C19.5459 56.8662 19.2098 56.7297 18.994 56.4432C18.6038 56.0075 18.6064 55.3653 18.9139 54.9103L13.5743 54.4432C11.8742 54.2944 10.6136 52.7922 10.7647 51.0655L10.7879 50.7998C10.853 50.056 11.4862 49.5492 12.2035 49.612C12.9208 49.6748 13.4564 50.2838 13.3913 51.0276L13.3681 51.2932C13.3425 51.5854 13.5341 51.8431 13.8263 51.8687L19.1659 52.3358C18.9444 51.8079 19.051 51.2015 19.5133 50.8137C20.0622 50.3531 20.8857 50.4251 21.3197 50.9717L23.065 53.0517C23.162 53.1673 23.2543 53.336 23.3201 53.5023C23.4008 53.8039 23.3682 54.1758 23.2075 54.4829ZM23.8971 47.8244C23.8321 48.5682 23.1988 49.0749 22.4816 49.0122C21.7643 48.9494 21.2287 48.3404 21.2938 47.5966L21.317 47.3309C21.3426 47.0387 21.151 46.781 20.8587 46.7555L15.5457 46.2907C15.7672 46.8186 15.6606 47.425 15.1984 47.8128C14.9384 48.031 14.608 48.1359 14.2361 48.1034C13.9173 48.0755 13.5835 47.9125 13.3654 47.6525L11.62 45.5724C11.5231 45.4569 11.4307 45.2882 11.365 45.1218C11.2866 44.7937 11.3168 44.4484 11.451 44.1389C11.5423 44.0131 11.6383 43.8341 11.7804 43.7394L13.8581 42.0207C14.4093 41.5335 15.2328 41.6056 15.6645 42.1787C16.0547 42.6144 16.0521 43.2566 15.7446 43.7115L21.0842 44.1787C22.7844 44.3274 24.0449 45.8296 23.8938 47.5564L23.8706 47.822L23.8971 47.8244Z" fill="#2626BF"/>
</g>
<defs>
<filter id="filter0_d_1_4089" x="-3.33459" y="-2.66736" width="81.3345" height="81.3345" filterUnits="userSpaceOnUse" color-interpolation-filters="sRGB">
<feFlood flood-opacity="0" result="BackgroundImageFix"/>
<feColorMatrix in="SourceAlpha" type="matrix" values="0 0 0 0 0 0 0 0 0 0 0 0 0 0 0 0 0 0 127 0" result="hardAlpha"/>
<feOffset dy="3"/>
<feGaussianBlur stdDeviation="3"/>
<feComposite in2="hardAlpha" operator="out"/>
<feColorMatrix type="matrix" values="0 0 0 0 0.0588235 0 0 0 0 0.0666667 0 0 0 0 0.0784314 0 0 0 0.24 0"/>
<feBlend mode="normal" in2="BackgroundImageFix" result="effect1_dropShadow_1_4089"/>
<feBlend mode="normal" in="SourceGraphic" in2="effect1_dropShadow_1_4089" result="shape"/>
</filter>
</defs>
</svg>
