<svg width="70" height="77" viewBox="0 0 70 77" fill="none" xmlns="http://www.w3.org/2000/svg">
<rect x="2.66669" y="13" width="64" height="64" rx="32" fill="#E6E6F2"/>
<g filter="url(#filter0_d_1_4095)">
<path d="M36.9902 8.43463C22.3262 7.15169 9.38377 18.0117 8.10083 32.6757C6.8179 47.3397 17.6779 60.2821 32.3419 61.565C47.0059 62.8479 59.9483 51.988 61.2312 37.324C62.5142 22.66 51.6542 9.71756 36.9902 8.43463ZM25.1229 41.5798C24.761 42.3512 23.9464 42.7885 23.1495 42.7188C22.9104 42.6979 22.7002 42.6527 22.4704 42.5255C20.3883 41.5403 18.719 39.8149 17.7557 37.6695C15.5175 32.6553 17.7107 26.5566 22.613 24.0677L29.1662 20.7596C31.574 19.5515 34.2943 19.3612 36.7864 20.2485C39.2786 21.1357 41.2839 22.9976 42.3811 25.4492C44.6193 30.4634 42.4261 36.5621 37.5238 39.051L36.789 39.4953C35.83 40.0538 34.6 39.7321 34.0391 38.7996C33.4806 37.8406 33.8023 36.6107 34.7348 36.0498L35.6094 35.5374C38.7474 33.9382 40.0939 30.1745 38.7314 27.084C38.0819 25.6352 36.9193 24.5431 35.4665 24.0145C34.0137 23.4858 32.4255 23.5878 30.9963 24.3193L24.3875 27.6494C21.3628 29.1782 20.0163 32.9418 21.3765 36.0589C21.936 37.3125 22.9173 38.3352 24.1506 38.9249C25.1541 39.3875 25.5855 40.5763 25.1229 41.5798ZM46.8878 45.8396L40.3345 49.1477C38.6812 49.9935 36.8861 50.3183 35.1062 50.1625C34.3092 50.0928 33.495 49.9145 32.7166 49.6323C30.2245 48.745 28.2191 46.8832 27.1485 44.4339C24.9104 39.4197 27.1036 33.321 32.0058 30.8321L32.7407 30.3878C33.6997 29.8293 34.9296 30.151 35.4905 31.0834C36.049 32.0424 35.7273 33.2724 34.7949 33.8333L33.9202 34.3457C30.7822 35.9449 29.4357 39.7086 30.7982 42.7991C31.4478 44.2479 32.6103 45.34 34.0631 45.8686C35.5159 46.3973 37.1042 46.2953 38.5334 45.5637L45.0866 42.2556C48.1114 40.7268 49.4579 36.9632 48.0977 33.8461C47.5382 32.5925 46.5569 31.5698 45.3236 30.9801C44.3201 30.5175 43.8887 29.3287 44.3778 28.3275C44.8404 27.324 46.0558 26.895 47.0304 27.3818C49.1124 28.367 50.7817 30.0924 51.7451 32.2378C53.9567 37.2497 51.79 43.3507 46.8878 45.8396Z" fill="#2626BF"/>
</g>
<defs>
<filter id="filter0_d_1_4095" x="-6.00128" y="-2.66736" width="81.3344" height="81.3345" filterUnits="userSpaceOnUse" color-interpolation-filters="sRGB">
<feFlood flood-opacity="0" result="BackgroundImageFix"/>
<feColorMatrix in="SourceAlpha" type="matrix" values="0 0 0 0 0 0 0 0 0 0 0 0 0 0 0 0 0 0 127 0" result="hardAlpha"/>
<feOffset dy="3"/>
<feGaussianBlur stdDeviation="3"/>
<feComposite in2="hardAlpha" operator="out"/>
<feColorMatrix type="matrix" values="0 0 0 0 0.0588235 0 0 0 0 0.0666667 0 0 0 0 0.0784314 0 0 0 0.24 0"/>
<feBlend mode="normal" in2="BackgroundImageFix" result="effect1_dropShadow_1_4095"/>
<feBlend mode="normal" in="SourceGraphic" in2="effect1_dropShadow_1_4095" result="shape"/>
</filter>
</defs>
</svg>
