<svg width="65" height="64" viewBox="0 0 65 64" fill="none" xmlns="http://www.w3.org/2000/svg">
<g clip-path="url(#clip0_244_1713)">
<path d="M32.6667 60C48.1306 60 60.6667 47.464 60.6667 32C60.6667 16.536 48.1306 4 32.6667 4C17.2027 4 4.66666 16.536 4.66666 32C4.66666 47.464 17.2027 60 32.6667 60Z" fill="#F0F0F0"/>
<path d="M58.9251 41.7389C60.0507 38.7056 60.6667 35.4248 60.6667 31.9998C60.6667 28.5749 60.0507 25.294 58.9251 22.2607H6.40823C5.28277 25.294 4.66666 28.5749 4.66666 31.9998C4.66666 35.4248 5.28277 38.7056 6.40823 41.7389L32.6667 44.1737L58.9251 41.7389Z" fill="#0052B4"/>
<path d="M32.6667 60.0002C44.7057 60.0002 54.9689 52.4017 58.9251 41.7393H6.40823C10.3644 52.4017 20.6276 60.0002 32.6667 60.0002Z" fill="#D80027"/>
</g>
<rect x="2.66666" y="2" width="60" height="60" rx="30" stroke="white" stroke-width="4"/>
<defs>
<clipPath id="clip0_244_1713">
<rect x="4.66666" y="4" width="56" height="56" rx="28" fill="white"/>
</clipPath>
</defs>
</svg>
