<svg width="65" height="64" viewBox="0 0 65 64" fill="none" xmlns="http://www.w3.org/2000/svg">
<g clip-path="url(#clip0_244_1716)">
<path d="M4.5 32C4.5 35.425 5.11611 38.7058 6.24158 41.7391L32.5 44.1739L58.7584 41.7391C59.8839 38.7058 60.5 35.425 60.5 32C60.5 28.5751 59.8839 25.2943 58.7584 22.261L32.5 19.8262L6.24158 22.261C5.11611 25.2943 4.5 28.5751 4.5 32Z" fill="#FFDA44"/>
<path d="M58.7584 22.2609C54.8022 11.5986 44.539 4 32.5 4C20.461 4 10.1978 11.5986 6.24158 22.2609H58.7584Z" fill="#D80027"/>
<path d="M6.24158 41.7393C10.1978 52.4016 20.461 60.0002 32.5 60.0002C44.539 60.0002 54.8022 52.4016 58.7584 41.7393H6.24158Z" fill="#D80027"/>
</g>
<rect x="2.5" y="2" width="60" height="60" rx="30" stroke="white" stroke-width="4"/>
<defs>
<clipPath id="clip0_244_1716">
<rect x="4.5" y="4" width="56" height="56" rx="28" fill="white"/>
</clipPath>
</defs>
</svg>
