<svg width="64" height="64" viewBox="0 0 64 64" fill="none" xmlns="http://www.w3.org/2000/svg">
<g clip-path="url(#clip0_244_1748)">
<path d="M32 60C47.464 60 60 47.464 60 32C60 16.536 47.464 4 32 4C16.536 4 4 16.536 4 32C4 47.464 16.536 60 32 60Z" fill="#D80027"/>
<path d="M30.8535 26.8799L33.1509 30.0457L36.8716 28.8393L34.5705 32.0025L36.8676 35.1682L33.1483 33.9572L30.8474 37.1203L30.8498 33.209L27.1304 31.998L30.8511 30.7916L30.8535 26.8799Z" fill="#F0F0F0"/>
<path d="M24.5837 39.913C20.2135 39.913 16.6707 36.3701 16.6707 31.9999C16.6707 27.6297 20.2135 24.0869 24.5837 24.0869C25.9463 24.0869 27.2284 24.4315 28.3478 25.038C26.5917 23.3206 24.1902 22.2607 21.5403 22.2607C16.1614 22.2607 11.8012 26.6211 11.8012 31.9998C11.8012 37.3786 16.1615 41.7389 21.5403 41.7389C24.1904 41.7389 26.5919 40.6789 28.3478 38.9616C27.2284 39.5684 25.9463 39.913 24.5837 39.913Z" fill="#F0F0F0"/>
</g>
<rect x="2" y="2" width="60" height="60" rx="30" stroke="white" stroke-width="4"/>
<defs>
<clipPath id="clip0_244_1748">
<rect x="4" y="4" width="56" height="56" rx="28" fill="white"/>
</clipPath>
</defs>
</svg>
