<svg width="86" height="86" viewBox="0 0 86 86" fill="none" xmlns="http://www.w3.org/2000/svg">
<rect x="11" y="13" width="64" height="64" rx="32" fill="#E6E6F2"/>
<g filter="url(#filter0_d_244_2255)">
<path d="M68.5782 34.213L64.8936 29.8218C64.2633 29.0707 63.824 27.667 63.9076 26.7107L64.4096 20.9726C64.6142 18.6349 62.8688 16.5548 60.5311 16.3503L54.8196 15.8506C53.8632 15.7669 52.5572 15.0905 51.9269 14.3394L48.2423 9.94823C46.7393 8.15709 44.0297 7.92002 42.2386 9.42297L37.7942 13.103C37.0697 13.7355 35.6661 14.1749 34.6831 14.0889L28.9716 13.5892C26.6339 13.3847 24.5539 15.13 24.3493 17.4678L23.8496 23.1793C23.766 24.1356 23.0896 25.4416 22.3384 26.0719L17.9473 29.7566C16.1561 31.2595 15.9191 33.9691 17.422 35.7603L21.1066 40.1515C21.7369 40.9026 22.1762 42.3062 22.0926 43.2626L21.5929 48.9741C21.3884 51.3118 23.1337 53.3919 25.4715 53.5964L31.183 54.0961C32.1393 54.1797 33.4453 54.8561 34.0756 55.6073L37.7602 59.9984C39.2632 61.7896 41.9728 62.0267 43.764 60.5237L48.1552 56.8391C48.9063 56.2088 50.3099 55.7695 51.2663 55.8531L56.9778 56.3528C59.3155 56.5574 61.3955 54.812 61.6001 52.4743L62.0998 46.7627C62.1834 45.8064 62.8598 44.5004 63.611 43.8701L68.0021 40.1855C69.8706 38.7161 70.1077 36.0064 68.5782 34.213ZM33.0701 26.1007C33.1979 24.6396 34.498 23.5487 35.959 23.6766C37.4201 23.8044 38.511 25.1044 38.3831 26.5655C38.2553 28.0266 36.9819 29.1198 35.4942 28.9896C34.0331 28.8618 32.9423 27.5618 33.0701 26.1007ZM35.6169 43.8033C35.1836 44.167 34.6626 44.3088 34.1578 44.2646C33.6531 44.2204 33.1646 43.9903 32.801 43.557C32.098 42.7192 32.2096 41.4441 33.0474 40.7411L50.381 26.1965C51.2188 25.4935 52.4939 25.605 53.1969 26.4428C53.8999 27.2806 53.7883 28.5557 52.9505 29.2587L35.6169 43.8033ZM50.0388 46.3232C48.5512 46.1931 47.4603 44.893 47.5882 43.432C47.716 41.9709 49.016 40.88 50.4771 41.0079C51.9382 41.1357 53.029 42.4357 52.9012 43.8968C52.7734 45.3579 51.4999 46.4511 50.0388 46.3232Z" fill="#2626BF"/>
</g>
<defs>
<filter id="filter0_d_244_2255" x="-7.66797" y="-7.66724" width="101.334" height="101.334" filterUnits="userSpaceOnUse" color-interpolation-filters="sRGB">
<feFlood flood-opacity="0" result="BackgroundImageFix"/>
<feColorMatrix in="SourceAlpha" type="matrix" values="0 0 0 0 0 0 0 0 0 0 0 0 0 0 0 0 0 0 127 0" result="hardAlpha"/>
<feOffset dy="8"/>
<feGaussianBlur stdDeviation="8"/>
<feComposite in2="hardAlpha" operator="out"/>
<feColorMatrix type="matrix" values="0 0 0 0 0.0588235 0 0 0 0 0.0666667 0 0 0 0 0.0784314 0 0 0 0.24 0"/>
<feBlend mode="normal" in2="BackgroundImageFix" result="effect1_dropShadow_244_2255"/>
<feBlend mode="normal" in="SourceGraphic" in2="effect1_dropShadow_244_2255" result="shape"/>
</filter>
</defs>
</svg>
