<svg width="44" height="44" viewBox="0 0 44 44" fill="none" xmlns="http://www.w3.org/2000/svg">
<g clip-path="url(#clip0_1_5192)">
<path d="M22 2V42C33.0461 42 42.0003 33.0457 42.0003 22.0003C42.0003 10.9536 33.046 2 22 2Z" fill="#252F6B"/>
<path d="M21.9997 2C10.9543 2 2 10.9539 2 22C2 33.0454 10.9543 41.9997 21.9997 41.9997C33.0457 41.9997 33.0457 2 21.9997 2Z" fill="#273375"/>
<path d="M15.7156 32.6587L17.0642 30.9774L14.9807 31.3547L14.2578 29.3365L13.4722 31.3547L11.345 30.9774L12.6969 32.6217L11.2932 34.2641L13.4326 33.9281L14.1542 35.9047L14.9403 33.9291L17.1223 34.319L15.7156 32.6587Z" fill="#F3F4F5"/>
<path d="M31.6581 34.1437L32.4229 33.1909L31.2419 33.4047L30.8323 32.2612L30.387 33.4047L29.1816 33.1909L29.9477 34.1222L29.1526 35.0534L30.3646 34.8628L30.7735 35.9822L31.2188 34.8633L32.4554 35.0844L31.6581 34.1437Z" fill="#F3F4F5"/>
<path d="M31.6581 13.091L32.4229 12.1379L31.2419 12.352L30.8323 11.2085L30.387 12.352L29.1816 12.1379L29.9477 13.0698L29.1526 14.0004L30.3646 13.81L30.7735 14.9301L31.2188 13.8106L32.4554 14.0313L31.6581 13.091Z" fill="#F3F4F5"/>
<path d="M36.604 18.5372L37.3682 17.5841L36.1878 17.7983L35.7782 16.6548L35.333 17.7983L34.1269 17.5841L34.893 18.5161L34.0979 19.447L35.3099 19.2562L35.7188 20.3764L36.1641 19.2569L37.4007 19.4776L36.604 18.5372Z" fill="#F3F4F5"/>
<path d="M27.3765 20.9583L28.1414 20.0055L26.9604 20.2197L26.5507 19.0762L26.1055 20.2197L24.9004 20.0055L25.6662 20.9368L24.8713 21.868L26.0834 21.6776L26.4924 22.7968L26.9376 21.6783L28.1743 21.899L27.3765 20.9583Z" fill="#F3F4F5"/>
<path d="M6.2015 9.74463C5.88762 10.1491 5.58792 10.5644 5.30469 10.9923H7.4486L6.2015 9.74463Z" fill="#29337A"/>
<path d="M16.5273 21.9999H18.454L16.5273 20.0732V21.9999Z" fill="#29337A"/>
<path d="M10.141 5.896C9.68212 6.23454 9.24039 6.5936 8.8125 6.96905L10.141 8.29696V5.896Z" fill="#29337A"/>
<path d="M8.21484 22H10.1421V20.0728L8.21484 22Z" fill="#29337A"/>
<path d="M21.9988 2C20.1008 2 18.2673 2.26997 16.5273 2.76423V8.29686L21.9993 2.82512V2H21.9988Z" fill="#29337A"/>
<path d="M21.9994 20.1561V17.3794H19.2227L21.9994 20.1561Z" fill="#29337A"/>
<path d="M2.82545 22L7.44699 17.3794H2.54306C2.1916 18.8633 2.00024 20.4091 2.00024 22H2.82545Z" fill="#29337A"/>
<path d="M19.2227 10.9924H22.0013V8.21436L19.2227 10.9924Z" fill="#29337A"/>
<path d="M21.999 20.7395V20.1562L19.2222 17.3794H21.999V16.385H17.6445L21.999 20.7395Z" fill="white"/>
<path d="M7.44831 10.9922H5.3044C5.09033 11.3166 4.8869 11.6485 4.69141 11.9857H8.90314L6.40329 9.48657C6.3348 9.57186 6.2675 9.65808 6.20087 9.74422L7.44831 10.9922Z" fill="white"/>
<path d="M10.1419 20.0728V22H11.1357V18.6179L7.75391 22H8.21464L10.1419 20.0728Z" fill="white"/>
<path d="M16.5287 2.76392C16.1936 2.859 15.8626 2.96253 15.5352 3.074V9.75172L22.0007 3.28655V2.82581L16.5287 8.29655V2.76392Z" fill="white"/>
<path d="M10.1071 17.3794L10.1422 17.3444L11.1012 16.3853H2.80509C2.70941 16.7134 2.62193 17.0447 2.54297 17.3794H7.4469L2.82536 22H5.48624L10.1071 17.3794Z" fill="white"/>
<path d="M21.9987 11.9865V10.9927H19.2201L21.9987 8.21465V5.55444L15.5664 11.9865H21.9987Z" fill="white"/>
<path d="M10.1433 8.29708L8.81477 6.96917C8.34365 7.38321 7.89136 7.81895 7.46094 8.27563L10.1433 10.958L10.1717 10.987L11.1371 11.9524V5.21118C10.7992 5.43066 10.4667 5.65705 10.1436 5.89578V8.29708H10.1433Z" fill="white"/>
<path d="M16.529 20.0733L18.4556 22H20.994L15.5352 16.5416V22H16.529V20.0733Z" fill="white"/>
<path d="M18.6391 17.3792L17.6456 16.3851H22V11.9862H15.5677L15.5345 12.02V11.9862H15.5677L22 5.55447V3.28643L15.5342 9.75193V3.07422C13.9714 3.60825 12.4966 4.32883 11.1353 5.21146V11.9523L11.1697 11.9861H11.1353V11.9523L10.1699 10.987L10.1755 10.9927H10.1418V10.9582L7.45942 8.27591C7.09124 8.66562 6.73851 9.06919 6.40216 9.48728L8.90192 11.9865H4.69028C3.89446 13.3583 3.25816 14.8324 2.80469 16.3854H11.1008L11.1353 16.3504V16.3854H11.1008L10.1418 17.3445V17.3796H10.1067L5.48575 21.9999H7.7538L11.1356 18.6178V21.9999H15.5345V16.5415L20.993 21.9999H21.7437C21.8292 21.9106 21.9164 21.8218 22.0004 21.73V20.7393L18.6391 17.3792Z" fill="#D32030"/>
<path d="M15.5352 9.75212L22.001 3.28662L15.5352 9.75212Z" fill="#D32030"/>
<path d="M10.1402 17.3789V17.3438L10.1055 17.3789H10.1402Z" fill="#D32030"/>
<path d="M11.136 16.3496L11.1016 16.3844H11.136V16.3496Z" fill="#D32030"/>
<path d="M15.5352 12.0198L15.5684 11.9863H15.5352V12.0198Z" fill="#D32030"/>
<path d="M10.1406 10.9921H10.1745L10.1689 10.9868L10.1406 10.958V10.9921Z" fill="#D32030"/>
<path d="M11.1708 11.986L11.1367 11.9521V11.986H11.1708Z" fill="#D32030"/>
</g>
<path d="M22 1C33.598 1 43 10.402 43 22C43 33.598 33.598 43 22 43C10.402 43 1 33.598 1 22C1 10.402 10.402 1 22 1Z" stroke="white" stroke-width="2"/>
<defs>
<clipPath id="clip0_1_5192">
<path d="M2 22C2 10.9543 10.9543 2 22 2C33.0457 2 42 10.9543 42 22C42 33.0457 33.0457 42 22 42C10.9543 42 2 33.0457 2 22Z" fill="white"/>
</clipPath>
</defs>
</svg>
