<svg width="44" height="44" viewBox="0 0 44 44" fill="none" xmlns="http://www.w3.org/2000/svg">
<g clip-path="url(#clip0_1_5237)">
<path d="M22 2V42C33.0461 42 42.0003 33.0457 42.0003 22.0003C42.0003 10.9539 33.046 2 22 2Z" fill="#214391"/>
<path d="M21.9997 2C10.9543 2 2 10.9539 2 22.0003C2 33.0457 10.9543 42 21.9997 42C33.0457 42 33.0457 2 21.9997 2Z" fill="#2B479D"/>
<path d="M21.9653 5.46875L22.4532 6.97003H24.0321L22.7548 7.89783L23.2427 9.39911L21.9653 8.47071L20.6883 9.39911L21.1762 7.89783L19.8984 6.97003H21.4774L21.9653 5.46875Z" fill="#F8D12E"/>
<path d="M21.9653 33.8096L22.4532 35.3115H24.0321L22.7548 36.2393L23.2427 37.7405L21.9653 36.8128L20.6883 37.7405L21.1762 36.2393L19.8984 35.3115H21.4774L21.9653 33.8096Z" fill="#F8D12E"/>
<path d="M29.7462 7.98047L30.2338 9.48208H31.8128L30.5354 10.4105L31.0233 11.9118L29.7462 10.9834L28.4689 11.9118L28.9568 10.4105L27.6797 9.48208H29.2587L29.7462 7.98047Z" fill="#F8D12E"/>
<path d="M35.0513 13.2163L35.5389 14.7176H37.1178L35.8404 15.6457L36.3283 17.147L35.0513 16.2192L33.7739 17.147L34.2618 15.6457L32.9844 14.7176H34.563L35.0513 13.2163Z" fill="#F8D12E"/>
<path d="M35.1763 26.4448L35.6639 27.9467H37.2427L35.9654 28.8745L36.4536 30.3754L35.1763 29.448L33.8989 30.3754L34.3868 28.8745L33.1094 27.9467H34.6883L35.1763 26.4448Z" fill="#F8D12E"/>
<path d="M9.07437 13.2164L9.56196 14.7176H11.1406L9.86351 15.6458L10.3511 17.1471L9.07437 16.2193L7.79704 17.1471L8.28489 15.6458L7.00781 14.7176H8.58678L9.07437 13.2164Z" fill="#F8D12E"/>
<path d="M36.2819 19.5253L36.7695 21.0265H38.3485L37.0711 21.9543L37.559 23.456L36.2819 22.5285L35.0046 23.456L35.4928 21.9543L34.2151 21.0265H35.7937L36.2819 19.5253Z" fill="#F8D12E"/>
<path d="M7.86759 19.5253L8.35518 21.0265H9.93381L8.65648 21.9543L9.14466 23.456L7.86759 22.5285L6.59018 23.456L7.07811 21.9543L5.80078 21.0265H7.37966L7.86759 19.5253Z" fill="#F8D12E"/>
<path d="M8.90275 26.4448L9.39034 27.9467H10.969L9.69198 28.8745L10.1795 30.3754L8.90275 29.448L7.62542 30.3754L8.11326 28.8745L6.83594 27.9467H8.4149L8.90275 26.4448Z" fill="#F8D12E"/>
<path d="M29.9731 31.9038L30.4606 33.4051H32.0396L30.762 34.3335L31.2501 35.8348L29.9731 34.907L28.6954 35.8348L29.1837 34.3335L27.9062 33.4051H29.4852L29.9731 31.9038Z" fill="#F8D12E"/>
<path d="M14.4416 7.98047L14.9291 9.48208H16.508L15.2307 10.4105L15.7189 11.9118L14.4416 10.9834L13.1645 11.9118L13.6523 10.4105L12.375 9.48208H13.9536L14.4416 7.98047Z" fill="#F8D12E"/>
<path d="M13.8634 31.8081L14.3513 33.3101H15.9302L14.6529 34.2375L15.1408 35.7388L13.8634 34.8116L12.5864 35.7388L13.0742 34.2375L11.7969 33.3101H13.3755L13.8634 31.8081Z" fill="#F8D12E"/>
</g>
<path d="M22 1C33.598 1 43 10.402 43 22C43 33.598 33.598 43 22 43C10.402 43 1 33.598 1 22C1 10.402 10.402 1 22 1Z" stroke="white" stroke-width="2"/>
<defs>
<clipPath id="clip0_1_5237">
<path d="M2 22C2 10.9543 10.9543 2 22 2C33.0457 2 42 10.9543 42 22C42 33.0457 33.0457 42 22 42C10.9543 42 2 33.0457 2 22Z" fill="white"/>
</clipPath>
</defs>
</svg>
