<svg width="25" height="24" viewBox="0 0 25 24" fill="none" xmlns="http://www.w3.org/2000/svg">
<path d="M22.4698 18.33C22.4698 18.69 22.3898 19.06 22.2198 19.42C22.0498 19.78 21.8298 20.12 21.5398 20.44C21.0498 20.98 20.5098 21.37 19.8998 21.62C19.2998 21.87 18.6498 22 17.9498 22C16.9298 22 15.8398 21.76 14.6898 21.27C13.5398 20.78 12.3898 20.12 11.2498 19.29C10.0998 18.45 9.00976 17.52 7.96976 16.49C6.93976 15.45 6.00976 14.36 5.17976 13.22C4.35976 12.08 3.69976 10.94 3.21976 9.81C2.73976 8.67 2.49976 7.58 2.49976 6.54C2.49976 5.86 2.61976 5.21 2.85976 4.61C3.09976 4 3.47976 3.44 4.00976 2.94C4.64976 2.31 5.34976 2 6.08976 2C6.36976 2 6.64976 2.06 6.89976 2.18C7.15976 2.3 7.38976 2.48 7.56976 2.74L9.88976 6.01C10.0698 6.26 10.1998 6.49 10.2898 6.71C10.3798 6.92 10.4298 7.13 10.4298 7.32C10.4298 7.56 10.3598 7.8 10.2198 8.03C10.0898 8.26 9.89976 8.5 9.65976 8.74L8.89976 9.53C8.78976 9.64 8.73976 9.77 8.73976 9.93C8.73976 10.01 8.74976 10.08 8.76976 10.16C8.79976 10.24 8.82976 10.3 8.84976 10.36C9.02976 10.69 9.33976 11.12 9.77976 11.64C10.2298 12.16 10.7098 12.69 11.2298 13.22C11.7698 13.75 12.2898 14.24 12.8198 14.69C13.3398 15.13 13.7698 15.43 14.1098 15.61C14.1598 15.63 14.2198 15.66 14.2898 15.69C14.3698 15.72 14.4498 15.73 14.5398 15.73C14.7098 15.73 14.8398 15.67 14.9498 15.56L15.7098 14.81C15.9598 14.56 16.1998 14.37 16.4298 14.25C16.6598 14.11 16.8898 14.04 17.1398 14.04C17.3298 14.04 17.5298 14.08 17.7498 14.17C17.9698 14.26 18.1998 14.39 18.4498 14.56L21.7598 16.91C22.0198 17.09 22.1998 17.3 22.3098 17.55C22.4098 17.8 22.4698 18.05 22.4698 18.33Z" stroke="#2626BF" stroke-width="1.5" stroke-miterlimit="10"/>
</svg>
