<svg width="18" height="19" viewBox="0 0 18 19" fill="none" xmlns="http://www.w3.org/2000/svg">
<path d="M16.4773 13.934C16.4773 14.204 16.4173 14.4815 16.2898 14.7515C16.1623 15.0215 15.9973 15.2765 15.7798 15.5165C15.4123 15.9215 15.0073 16.214 14.5498 16.4015C14.0998 16.589 13.6123 16.6865 13.0873 16.6865C12.3223 16.6865 11.5048 16.5065 10.6423 16.139C9.77976 15.7715 8.91726 15.2765 8.06226 14.654C7.19976 14.024 6.38226 13.3265 5.60226 12.554C4.82976 11.774 4.13226 10.9565 3.50976 10.1015C2.89476 9.24652 2.39976 8.39152 2.03976 7.54402C1.67976 6.68902 1.49976 5.87152 1.49976 5.09152C1.49976 4.58152 1.58976 4.09402 1.76976 3.64402C1.94976 3.18652 2.23476 2.76652 2.63226 2.39152C3.11226 1.91902 3.63726 1.68652 4.19226 1.68652C4.40226 1.68652 4.61226 1.73152 4.79976 1.82152C4.99476 1.91152 5.16726 2.04652 5.30226 2.24152L7.04226 4.69402C7.17726 4.88152 7.27476 5.05402 7.34226 5.21902C7.40976 5.37652 7.44726 5.53402 7.44726 5.67652C7.44726 5.85652 7.39476 6.03652 7.28976 6.20902C7.19226 6.38152 7.04976 6.56152 6.86976 6.74152L6.29976 7.33402C6.21726 7.41652 6.17976 7.51402 6.17976 7.63402C6.17976 7.69402 6.18726 7.74652 6.20226 7.80652C6.22476 7.86652 6.24726 7.91152 6.26226 7.95652C6.39726 8.20402 6.62976 8.52652 6.95976 8.91652C7.29726 9.30652 7.65726 9.70402 8.04726 10.1015C8.45226 10.499 8.84226 10.8665 9.23976 11.204C9.62976 11.534 9.95226 11.759 10.2073 11.894C10.2448 11.909 10.2898 11.9315 10.3423 11.954C10.4023 11.9765 10.4623 11.984 10.5298 11.984C10.6573 11.984 10.7548 11.939 10.8373 11.8565L11.4073 11.294C11.5948 11.1065 11.7748 10.964 11.9473 10.874C12.1198 10.769 12.2923 10.7165 12.4798 10.7165C12.6223 10.7165 12.7723 10.7465 12.9373 10.814C13.1023 10.8815 13.2748 10.979 13.4623 11.1065L15.9448 12.869C16.1398 13.004 16.2748 13.1615 16.3573 13.349C16.4323 13.5365 16.4773 13.724 16.4773 13.934Z" stroke="#71757A" stroke-width="1.125" stroke-miterlimit="10"/>
</svg>
