<svg width="154" height="224" viewBox="0 0 154 224" fill="none" xmlns="http://www.w3.org/2000/svg">
<rect x="45" y="16" width="80" height="80" rx="40" fill="#E6E6F2" fill-opacity="0.2"/>
<g filter="url(#filter0_d_1_3088)">
<path d="M52.3505 62.8949C50.989 62.7758 49.9588 61.548 50.0779 60.1865L51.7339 41.2588C52.3551 32.2453 56.4527 24.0379 63.2533 18.2084C70.0511 12.4122 78.7241 9.65758 87.7231 10.4449C106.119 12.0544 119.785 28.3407 118.176 46.7371L116.52 65.6648C116.401 67.0263 115.173 68.0565 113.812 67.9374C112.45 67.8183 111.42 66.5905 111.539 65.2291L113.195 46.3014C114.563 30.6611 102.961 16.7971 87.2873 15.4259C79.6166 14.7548 72.2519 17.0884 66.5014 22.006C60.7148 26.9538 57.2618 33.9127 56.7207 41.6282L55.0618 60.5891C54.9398 61.9838 53.7452 63.0169 52.3505 62.8949Z" fill="#FFBF00"/>
<path d="M64.7441 43.2345L64.3124 43.1967C57.3391 42.5866 51.164 47.7682 50.5539 54.7415L50.0077 60.9843C49.3976 67.9577 54.5791 74.1328 61.5525 74.7429L61.9842 74.7807C68.9576 75.3908 75.1327 70.2092 75.7427 63.2359L76.2889 56.993C76.899 50.0197 71.7175 43.8446 64.7441 43.2345Z" fill="#FFBF00"/>
<path d="M105.423 46.7926L104.991 46.7548C98.0178 46.1447 91.8427 51.3263 91.2326 58.2996L90.6864 64.5424C90.0763 71.5158 95.2579 77.6909 102.231 78.301L102.663 78.3388C109.636 78.9489 115.811 73.7673 116.421 66.794L116.968 60.5511C117.578 53.5778 112.396 47.4027 105.423 46.7926Z" fill="#FFBF00"/>
</g>
<path d="M26.5398 147C25.7078 147 24.9078 146.888 24.1398 146.664C23.4038 146.408 22.7478 145.992 22.1718 145.416C21.5958 144.84 21.1318 144.088 20.7798 143.16C20.4598 142.2 20.2998 141.016 20.2998 139.608V117.24H22.6998V139.272C22.6998 140.744 23.0198 141.976 23.6598 142.968C24.2998 143.96 25.3718 144.456 26.8758 144.456H27.5478C28.2518 144.456 28.6038 144.872 28.6038 145.704C28.6038 146.568 28.2518 147 27.5478 147H26.5398ZM31.8033 144.456C33.1473 144.456 34.2353 144.088 35.0673 143.352C35.8993 142.616 36.3153 141.64 36.3153 140.424V133.368H38.6673V140.328C38.6673 142.44 38.0433 144.088 36.7953 145.272C35.5793 146.424 33.9633 147 31.9473 147H27.5312C27.1152 147 26.8432 146.904 26.7152 146.712C26.5552 146.488 26.4752 146.184 26.4752 145.8C26.4752 145.352 26.5552 145.016 26.7152 144.792C26.8432 144.568 27.1152 144.456 27.5312 144.456H31.8033ZM33.5312 155.592H29.9793V152.664H33.5312V155.592ZM89.2709 140.424C89.2709 141.192 89.3829 141.832 89.6069 142.344C89.8629 142.856 90.1829 143.272 90.5669 143.592C90.9829 143.912 91.4309 144.136 91.9109 144.264C92.4229 144.392 92.9509 144.456 93.4949 144.456C94.8389 144.456 95.9109 144.088 96.7109 143.352C97.5109 142.616 97.9109 141.64 97.9109 140.424V133.368H100.311V140.328C100.311 142.44 99.6869 144.088 98.4389 145.272C97.2229 146.424 95.6069 147 93.5909 147C92.4389 147 91.3669 146.776 90.3749 146.328C89.3829 145.88 88.5829 145.048 87.9749 143.832C87.2709 145.048 86.3749 145.88 85.2869 146.328C84.2309 146.776 83.1429 147 82.0229 147C80.9029 147 79.9429 146.824 79.1429 146.472C78.3749 146.12 77.7669 145.624 77.3189 144.984V146.232C77.3189 147.864 77.0469 149.432 76.5029 150.936C75.9589 152.44 75.1749 153.752 74.1509 154.872C73.1589 156.024 71.9429 156.936 70.5029 157.608C69.0629 158.28 67.4469 158.616 65.6549 158.616H62.9189C59.3349 158.616 56.5509 157.512 54.5669 155.304C52.5829 153.096 51.5909 150.072 51.5909 146.232V137.928H53.9429V146.184C53.9429 147.656 54.1349 149 54.5189 150.216C54.9029 151.432 55.4789 152.472 56.2469 153.336C57.0149 154.232 57.9749 154.92 59.1269 155.4C60.3109 155.88 61.7029 156.12 63.3029 156.12H65.4149C66.9829 156.12 68.3589 155.848 69.5429 155.304C70.7589 154.792 71.7669 154.088 72.5669 153.192C73.3669 152.296 73.9749 151.24 74.3909 150.024C74.8069 148.84 75.0149 147.592 75.0149 146.28V133.368H77.3669V140.616C77.3669 141.736 77.7669 142.664 78.5669 143.4C79.3989 144.104 80.5349 144.456 81.9749 144.456C83.5429 144.456 84.7589 144.088 85.6229 143.352C86.4869 142.616 86.9189 141.64 86.9189 140.424V133.368H89.2709V140.424ZM112.79 147C111.958 147 111.158 146.888 110.39 146.664C109.654 146.408 108.998 145.992 108.422 145.416C107.846 144.84 107.382 144.088 107.03 143.16C106.71 142.2 106.55 141.016 106.55 139.608V117.24H108.95V139.272C108.95 140.744 109.27 141.976 109.91 142.968C110.55 143.96 111.622 144.456 113.126 144.456H113.798C114.502 144.456 114.854 144.872 114.854 145.704C114.854 146.568 114.502 147 113.798 147H112.79ZM114.645 144.456C115.989 144.456 116.981 144.12 117.621 143.448C118.293 142.776 118.629 141.928 118.629 140.904V138.744C118.629 135.896 119.333 133.704 120.741 132.168C122.149 130.6 124.117 129.816 126.645 129.816C129.269 129.816 131.221 130.616 132.501 132.216C133.781 133.784 134.421 135.816 134.421 138.312V140.088C134.421 141.72 134.773 142.856 135.477 143.496C136.213 144.136 137.157 144.456 138.309 144.456H139.221C139.637 144.456 139.909 144.568 140.037 144.792C140.197 145.016 140.277 145.32 140.277 145.704C140.277 146.152 140.197 146.488 140.037 146.712C139.909 146.904 139.637 147 139.221 147H138.309C137.797 147 137.285 146.968 136.773 146.904C136.293 146.808 135.829 146.632 135.381 146.376C134.933 146.088 134.517 145.704 134.133 145.224C133.749 144.744 133.413 144.104 133.125 143.304C132.677 144.04 132.197 144.648 131.685 145.128C131.173 145.608 130.613 145.992 130.005 146.28C129.429 146.536 128.821 146.728 128.181 146.856C127.573 146.952 126.965 147 126.357 147C125.045 147 123.813 146.76 122.661 146.28C121.509 145.768 120.565 144.84 119.829 143.496C119.541 144.296 119.189 144.936 118.773 145.416C118.357 145.864 117.925 146.216 117.477 146.472C117.029 146.696 116.565 146.84 116.085 146.904C115.605 146.968 115.125 147 114.645 147H113.781C113.365 147 113.093 146.904 112.965 146.712C112.805 146.488 112.725 146.184 112.725 145.8C112.725 145.352 112.805 145.016 112.965 144.792C113.093 144.568 113.365 144.456 113.781 144.456H114.645ZM132.069 138.696C132.069 136.776 131.653 135.24 130.821 134.088C129.989 132.904 128.549 132.312 126.501 132.312C124.677 132.312 123.285 132.872 122.325 133.992C121.365 135.08 120.885 136.728 120.885 138.936C120.885 140.76 121.413 142.136 122.469 143.064C123.525 143.992 124.837 144.456 126.405 144.456C128.261 144.456 129.669 143.96 130.629 142.968C131.589 141.944 132.069 140.52 132.069 138.696ZM143.506 144.456C144.85 144.456 145.938 144.088 146.77 143.352C147.602 142.616 148.018 141.64 148.018 140.424V133.368H150.37V140.328C150.37 142.44 149.746 144.088 148.498 145.272C147.282 146.424 145.666 147 143.65 147H139.234C138.818 147 138.546 146.904 138.418 146.712C138.258 146.488 138.178 146.184 138.178 145.8C138.178 145.352 138.258 145.016 138.418 144.792C138.546 144.568 138.818 144.456 139.234 144.456H143.506ZM150.946 127.032H147.634V124.152H150.946V127.032ZM145.186 127.032H141.874V124.152H145.186V127.032ZM51.9994 179.768C51.9994 181.272 51.9674 182.68 51.9034 183.992C51.8394 185.272 51.7594 186.488 51.6634 187.64C51.5674 188.792 51.4554 189.896 51.3274 190.952C51.1994 192.008 51.0714 193.032 50.9434 194.024H47.2474C47.1194 193.032 46.9754 192.024 46.8154 191C46.6554 189.944 46.5114 188.84 46.3834 187.688C46.2554 186.536 46.1434 185.304 46.0474 183.992C45.9834 182.68 45.9514 181.272 45.9514 179.768V173.72H51.9994V179.768ZM49.1194 203C48.0954 203 47.2634 202.744 46.6234 202.232C45.9834 201.688 45.6634 200.856 45.6634 199.736C45.6634 198.552 45.9834 197.704 46.6234 197.192C47.2634 196.68 48.0954 196.424 49.1194 196.424C50.1114 196.424 50.9274 196.68 51.5674 197.192C52.2074 197.704 52.5274 198.552 52.5274 199.736C52.5274 200.856 52.2074 201.688 51.5674 202.232C50.9274 202.744 50.1114 203 49.1194 203ZM64.9081 203C63.9801 203 63.1001 202.888 62.2681 202.664C61.4361 202.408 60.7001 201.992 60.0601 201.416C59.4521 200.84 58.9561 200.088 58.5721 199.16C58.2201 198.2 58.0441 197.016 58.0441 195.608V173.24H64.1401V194.024C64.1401 195.624 64.8441 196.424 66.2521 196.424H67.5481C68.2521 196.424 68.6041 197.48 68.6041 199.592C68.6041 201.864 68.2521 203 67.5481 203H64.9081ZM67.7791 196.424C68.7391 196.424 69.5071 196.264 70.0831 195.944C70.6591 195.592 70.9471 194.952 70.9471 194.024V193.496C70.9471 192.248 71.1391 191.096 71.5231 190.04C71.9071 188.952 72.4511 188.024 73.1551 187.256C73.8591 186.488 74.7231 185.88 75.7471 185.432C76.7711 184.984 77.9071 184.76 79.1551 184.76C80.4671 184.76 81.6351 184.984 82.6591 185.432C83.6831 185.88 84.5311 186.488 85.2031 187.256C85.9071 188.024 86.4351 188.952 86.7871 190.04C87.1711 191.096 87.3631 192.248 87.3631 193.496V194.024C87.3631 194.504 87.4591 194.904 87.6511 195.224C87.8431 195.512 88.0831 195.752 88.3711 195.944C88.6591 196.104 88.9631 196.232 89.2831 196.328C89.6351 196.392 89.9551 196.424 90.2431 196.424H90.7711C91.1871 196.424 91.4591 196.68 91.5871 197.192C91.7471 197.704 91.8271 198.504 91.8271 199.592C91.8271 200.776 91.7471 201.64 91.5871 202.184C91.4591 202.728 91.1871 203 90.7711 203H90.2431C89.3151 203 88.3711 202.808 87.4111 202.424C86.4831 202.008 85.6351 201.224 84.8671 200.072C83.9711 201.288 83.0111 202.088 81.9871 202.472C80.9631 202.824 79.9391 203 78.9151 203C77.6671 203 76.4991 202.744 75.4111 202.232C74.3231 201.72 73.5071 201 72.9631 200.072C72.3551 201.16 71.5711 201.928 70.6111 202.376C69.6511 202.792 68.7071 203 67.7791 203H67.5391C67.1231 203 66.8511 202.744 66.7231 202.232C66.5631 201.688 66.4831 200.888 66.4831 199.832C66.4831 198.616 66.5631 197.752 66.7231 197.24C66.8511 196.696 67.1231 196.424 67.5391 196.424H67.7791ZM81.5071 194.024C81.5071 193.352 81.3471 192.744 81.0271 192.2C80.7071 191.656 80.0831 191.384 79.1551 191.384C78.2271 191.384 77.6031 191.656 77.2831 192.2C76.9631 192.744 76.8031 193.352 76.8031 194.024C76.8031 195.624 77.5871 196.424 79.1551 196.424C80.7231 196.424 81.5071 195.624 81.5071 194.024ZM93.1891 196.424C94.9491 196.424 95.8291 195.528 95.8291 193.736V188.744H101.877V193.736C101.877 194.664 102.149 195.352 102.693 195.8C103.269 196.216 103.957 196.424 104.757 196.424C105.813 196.424 106.565 196.216 107.013 195.8C107.461 195.352 107.685 194.664 107.685 193.736V188.744H113.781V193.736C113.781 194.664 114.005 195.352 114.453 195.8C114.933 196.216 115.493 196.424 116.133 196.424C117.701 196.424 118.485 195.528 118.485 193.736V188.744H124.581V194.264C124.581 197.176 123.877 199.368 122.469 200.84C121.061 202.28 119.029 203 116.373 203C115.349 203 114.325 202.824 113.301 202.472C112.309 202.088 111.413 201.288 110.613 200.072C109.813 201.288 108.901 202.088 107.877 202.472C106.853 202.824 105.813 203 104.757 203C103.573 203 102.469 202.824 101.445 202.472C100.421 202.088 99.5091 201.288 98.7091 200.072C97.9091 201.288 97.0451 202.088 96.1171 202.472C95.2211 202.824 94.2451 203 93.1891 203H90.7891C90.3731 203 90.1011 202.744 89.9731 202.232C89.8131 201.688 89.7331 200.888 89.7331 199.832C89.7331 198.616 89.8131 197.752 89.9731 197.24C90.1011 196.696 90.3731 196.424 90.7891 196.424H93.1891ZM113.541 176.072H107.685V170.552H113.541V176.072ZM117.189 183.464H111.381V177.896H117.189V183.464ZM109.797 183.464H103.989V177.896H109.797V183.464Z" fill="#FFBF00"/>
<defs>
<filter id="filter0_d_1_3088" x="35.6643" y="-2.83398" width="98.668" height="98.668" filterUnits="userSpaceOnUse" color-interpolation-filters="sRGB">
<feFlood flood-opacity="0" result="BackgroundImageFix"/>
<feColorMatrix in="SourceAlpha" type="matrix" values="0 0 0 0 0 0 0 0 0 0 0 0 0 0 0 0 0 0 127 0" result="hardAlpha"/>
<feOffset dy="3"/>
<feGaussianBlur stdDeviation="3"/>
<feComposite in2="hardAlpha" operator="out"/>
<feColorMatrix type="matrix" values="0 0 0 0 0.0588235 0 0 0 0 0.0666667 0 0 0 0 0.0784314 0 0 0 0.24 0"/>
<feBlend mode="normal" in2="BackgroundImageFix" result="effect1_dropShadow_1_3088"/>
<feBlend mode="normal" in="SourceGraphic" in2="effect1_dropShadow_1_3088" result="shape"/>
</filter>
</defs>
</svg>
