<svg width="1366" height="258" viewBox="0 0 1366 258" fill="none" xmlns="http://www.w3.org/2000/svg">
<g clip-path="url(#clip0_1_4272)">
<rect width="1366" height="258" fill="#FFBF00"/>
<path d="M923.505 107.285C924.79 107.285 925.918 107.081 926.889 106.674C927.861 106.298 928.66 105.781 929.286 105.123C929.944 104.465 930.446 103.697 930.79 102.82C931.135 101.943 931.339 101.003 931.401 100H927.406C925.808 100 924.492 99.8277 923.458 99.483C922.424 99.1383 921.61 98.637 921.014 97.979C920.419 97.321 919.996 96.522 919.745 95.582C919.526 94.6107 919.416 93.5297 919.416 92.339C919.416 91.1483 919.589 90.0203 919.933 88.955C920.278 87.8583 920.779 86.9027 921.437 86.088C922.095 85.2733 922.91 84.631 923.881 84.161C924.884 83.6597 926.043 83.409 927.359 83.409C928.393 83.409 929.38 83.5813 930.32 83.926C931.292 84.2707 932.138 84.819 932.858 85.571C933.579 86.2917 934.143 87.2473 934.55 88.438C934.989 89.6287 935.208 91.07 935.208 92.762V99.248C935.208 100.846 934.942 102.381 934.409 103.854C933.908 105.327 933.156 106.611 932.153 107.708C931.182 108.836 929.991 109.729 928.581 110.387C927.171 111.045 925.573 111.374 923.787 111.374H918.899L918.617 107.285H923.505ZM923.082 92.104C923.082 93.4513 923.396 94.4227 924.022 95.018C924.68 95.582 925.934 95.864 927.782 95.864H931.495V92.95C931.495 90.976 931.104 89.566 930.32 88.72C929.568 87.8427 928.503 87.404 927.124 87.404C925.84 87.404 924.837 87.827 924.116 88.673C923.427 89.4877 923.082 90.6313 923.082 92.104ZM954.981 92.245C955.921 92.245 956.595 92.0413 957.002 91.634C957.41 91.1953 957.613 90.6 957.613 89.848V87.075H955.451C954.355 87.075 953.618 87.357 953.242 87.921C952.898 88.4537 952.725 89.143 952.725 89.989C952.725 90.7097 952.882 91.2737 953.195 91.681C953.509 92.057 954.104 92.245 954.981 92.245ZM963.347 91.211C963.347 92.7777 964.037 93.561 965.415 93.561H966.684C967.092 93.561 967.358 93.8117 967.483 94.313C967.64 94.8143 967.718 95.5977 967.718 96.663C967.718 97.8223 967.64 98.6683 967.483 99.201C967.358 99.7337 967.092 100 966.684 100H965.415C963.723 100 962.392 99.7337 961.42 99.201C960.449 98.6683 959.697 97.8223 959.164 96.663C958.381 97.4463 957.504 97.9477 956.532 98.167C955.592 98.355 954.668 98.449 953.759 98.449C951.566 98.449 949.89 97.7597 948.73 96.381C947.602 95.0023 947.038 93.0127 947.038 90.412C947.038 89.2527 947.195 88.1247 947.508 87.028C947.853 85.9 948.339 84.8973 948.965 84.02C949.623 83.1427 950.438 82.4377 951.409 81.905C952.381 81.3723 953.509 81.106 954.793 81.106H957.613V78.004H963.347V91.211ZM968.46 93.561C969.055 93.561 969.541 93.5767 969.917 93.608C970.324 93.608 970.684 93.6393 970.998 93.702C971.342 93.7647 971.671 93.843 971.985 93.937C972.298 94.031 972.674 94.1563 973.113 94.313C971.828 93.5297 970.982 92.5897 970.575 91.493C970.199 90.3963 970.011 89.0177 970.011 87.357C970.011 86.511 970.167 85.6493 970.481 84.772C970.825 83.8633 971.327 83.0487 971.985 82.328C972.643 81.6073 973.457 81.012 974.429 80.542C975.4 80.072 976.528 79.837 977.813 79.837C979.035 79.837 980.147 79.9937 981.15 80.307C982.184 80.6203 983.061 81.1373 983.782 81.858C984.502 82.5787 985.066 83.5343 985.474 84.725C985.881 85.9157 986.085 87.3883 986.085 89.143V91.728C986.085 94.3287 985.348 96.3653 983.876 97.838C982.434 99.2793 980.147 100 977.014 100H966.674C966.266 100 966 99.7493 965.875 99.248C965.718 98.7153 965.64 97.932 965.64 96.898C965.64 95.7073 965.718 94.8613 965.875 94.36C966 93.8273 966.266 93.561 966.674 93.561H968.46ZM977.672 86.323C976.826 86.323 976.246 86.5737 975.933 87.075C975.619 87.5763 975.463 88.0933 975.463 88.626C975.463 88.9393 975.51 89.2527 975.604 89.566C975.698 89.848 975.901 90.1613 976.215 90.506C976.528 90.8507 976.982 91.2267 977.578 91.634C978.204 92.0413 979.019 92.5113 980.022 93.044C980.178 92.7933 980.272 92.433 980.304 91.963C980.335 91.4617 980.351 91.0387 980.351 90.694V89.66C980.351 89.2213 980.304 88.7983 980.21 88.391C980.147 87.9837 980.006 87.639 979.787 87.357C979.599 87.0437 979.332 86.793 978.988 86.605C978.643 86.417 978.204 86.323 977.672 86.323ZM980.915 76.453H974.711V70.766H980.915V76.453ZM997.736 99.248C997.736 100.846 997.454 102.381 996.89 103.854C996.357 105.327 995.589 106.611 994.587 107.708C993.615 108.836 992.44 109.729 991.062 110.387C989.714 111.045 988.226 111.374 986.597 111.374H983.495L983.26 104.935H985.046C986.362 104.935 987.474 104.763 988.383 104.418C989.26 104.105 989.965 103.682 990.498 103.149C991.062 102.616 991.453 102.005 991.673 101.316C991.923 100.658 992.049 99.9687 992.049 99.248V86.041H998.018V90.929C998.018 91.8377 998.284 92.5113 998.817 92.95C999.381 93.3573 1000.05 93.561 1000.84 93.561H1001.35C1002.04 93.561 1002.39 94.595 1002.39 96.663C1002.39 98.8877 1002.04 100 1001.35 100H1000.84C1000.31 100 999.757 99.9217 999.193 99.765C998.66 99.577 998.174 99.2167 997.736 98.684V99.248ZM1014.82 93.561C1017.01 89.6757 1019.11 86.8087 1021.11 84.96C1023.12 83.08 1025.16 82.14 1027.22 82.14C1028.51 82.14 1029.67 82.375 1030.7 82.845C1031.74 83.2837 1032.6 83.9103 1033.29 84.725C1034.01 85.5397 1034.56 86.511 1034.93 87.639C1035.31 88.7357 1035.5 89.9263 1035.5 91.211C1035.5 92.3077 1035.32 93.3887 1034.98 94.454C1034.66 95.488 1034.15 96.428 1033.43 97.274C1032.74 98.0887 1031.86 98.7467 1030.8 99.248C1029.73 99.7493 1028.45 100 1026.94 100H1014.53C1013.37 100 1012.29 99.8277 1011.29 99.483C1010.29 99.107 1009.39 98.3237 1008.61 97.133C1007.83 98.3237 1006.98 99.107 1006.07 99.483C1005.16 99.8277 1004.19 100 1003.16 100H1001.37C1000.97 100 1000.7 99.7493 1000.57 99.248C1000.42 98.7153 1000.34 97.932 1000.34 96.898C1000.34 95.7073 1000.42 94.8613 1000.57 94.36C1000.7 93.8273 1000.97 93.561 1001.37 93.561H1003.16C1004.91 93.561 1005.79 92.6837 1005.79 90.929V86.041H1011.71V90.929C1011.71 91.8377 1012 92.5113 1012.56 92.95C1013.15 93.3573 1013.91 93.561 1014.82 93.561ZM1029.53 91.211C1029.53 90.9603 1029.48 90.694 1029.39 90.412C1029.29 90.0987 1029.12 89.8167 1028.87 89.566C1028.65 89.284 1028.35 89.0647 1027.98 88.908C1027.63 88.72 1027.21 88.626 1026.71 88.626C1025.92 88.626 1025.06 89.002 1024.12 89.754C1023.18 90.4747 1022.07 91.7437 1020.78 93.561H1027.22C1028.01 93.561 1028.59 93.3417 1028.96 92.903C1029.34 92.433 1029.53 91.869 1029.53 91.211ZM1054.03 92.245C1054.97 92.245 1055.64 92.0413 1056.05 91.634C1056.46 91.1953 1056.66 90.6 1056.66 89.848V87.075H1054.5C1053.4 87.075 1052.67 87.357 1052.29 87.921C1051.95 88.4537 1051.77 89.143 1051.77 89.989C1051.77 90.7097 1051.93 91.2737 1052.24 91.681C1052.56 92.057 1053.15 92.245 1054.03 92.245ZM1062.4 91.211C1062.4 92.7777 1063.09 93.561 1064.46 93.561H1065.73C1066.14 93.561 1066.41 93.8117 1066.53 94.313C1066.69 94.8143 1066.77 95.5977 1066.77 96.663C1066.77 97.8223 1066.69 98.6683 1066.53 99.201C1066.41 99.7337 1066.14 100 1065.73 100H1064.46C1062.77 100 1061.44 99.7337 1060.47 99.201C1059.5 98.6683 1058.75 97.8223 1058.21 96.663C1057.43 97.4463 1056.55 97.9477 1055.58 98.167C1054.64 98.355 1053.72 98.449 1052.81 98.449C1050.61 98.449 1048.94 97.7597 1047.78 96.381C1046.65 95.0023 1046.09 93.0127 1046.09 90.412C1046.09 89.2527 1046.24 88.1247 1046.56 87.028C1046.9 85.9 1047.39 84.8973 1048.01 84.02C1048.67 83.1427 1049.49 82.4377 1050.46 81.905C1051.43 81.3723 1052.56 81.106 1053.84 81.106H1056.66V78.004H1062.4V91.211ZM1070.14 93.561C1071.05 93.561 1071.69 93.3573 1072.07 92.95C1072.47 92.5113 1072.68 91.8377 1072.68 90.929V86.041H1078.65V91.446C1078.65 94.2973 1077.96 96.4437 1076.58 97.885C1075.23 99.295 1073.26 100 1070.66 100H1065.72C1065.32 100 1065.05 99.7493 1064.92 99.248C1064.77 98.7153 1064.69 97.932 1064.69 96.898C1064.69 95.7073 1064.77 94.8613 1064.92 94.36C1065.05 93.8273 1065.32 93.561 1065.72 93.561H1070.14ZM1072.96 110.81H1066.76V105.123H1072.96V110.81ZM1096.3 99.248C1096.3 101.003 1096.01 102.616 1095.41 104.089C1094.85 105.593 1094.06 106.878 1093.06 107.943C1092.06 109.04 1090.87 109.886 1089.49 110.481C1088.11 111.076 1086.62 111.374 1085.02 111.374H1082.16L1081.92 107.285H1084.08C1085.59 107.285 1086.87 107.05 1087.94 106.58C1088.97 106.141 1089.82 105.546 1090.48 104.794C1091.16 104.042 1091.67 103.18 1091.98 102.209C1092.29 101.269 1092.45 100.282 1092.45 99.248V86.417H1096.3V99.248ZM1096.44 80.636H1091.84V76.594H1096.44V80.636ZM1096.78 107.285H1097.63C1099.07 107.285 1100.29 107.05 1101.3 106.58C1102.33 106.141 1103.18 105.546 1103.83 104.794C1104.49 104.042 1104.98 103.18 1105.29 102.209C1105.6 101.269 1105.76 100.282 1105.76 99.248V86.417H1109.61V99.248C1109.61 101.003 1109.32 102.616 1108.72 104.089C1108.16 105.593 1107.36 106.878 1106.32 107.943C1105.32 109.04 1104.13 109.886 1102.75 110.481C1101.4 111.076 1099.93 111.374 1098.33 111.374H1097.11L1096.78 107.285ZM1115.32 70.86H1119.17V100H1115.32V70.86ZM1157.16 98.919C1157.16 100.642 1156.88 102.256 1156.32 103.76C1155.79 105.295 1155.02 106.627 1154.02 107.755C1153.01 108.883 1151.79 109.76 1150.35 110.387C1148.91 111.045 1147.29 111.374 1145.51 111.374H1142.64C1139.13 111.374 1136.41 110.293 1134.46 108.131C1132.52 105.969 1131.55 103.008 1131.55 99.248V90.929H1135.36V99.107C1135.36 101.551 1135.97 103.525 1137.19 105.029C1138.41 106.533 1140.42 107.285 1143.21 107.285H1145.27C1146.68 107.285 1147.89 107.066 1148.89 106.627C1149.93 106.188 1150.77 105.593 1151.43 104.841C1152.09 104.089 1152.57 103.212 1152.89 102.209C1153.2 101.206 1153.36 100.157 1153.36 99.06V70.86H1157.16V98.919ZM1179.87 88.532C1180.69 89.472 1181.28 90.412 1181.66 91.352C1182.03 92.2607 1182.22 93.1537 1182.22 94.031C1182.22 94.877 1182.06 95.6603 1181.75 96.381C1181.44 97.1017 1180.98 97.7283 1180.39 98.261C1179.82 98.7937 1179.1 99.2167 1178.23 99.53C1177.35 99.8433 1176.35 100 1175.22 100H1162.34L1162.11 95.864H1174.65C1175.66 95.864 1176.42 95.6447 1176.96 95.206C1177.49 94.736 1177.76 94.1407 1177.76 93.42C1177.76 92.6053 1177.4 91.8063 1176.68 91.023L1168.31 81.482L1171.32 78.662L1179.87 88.532ZM1194.05 100C1193.2 100 1192.39 99.8903 1191.6 99.671C1190.82 99.4203 1190.13 99.013 1189.54 98.449C1188.97 97.885 1188.52 97.1487 1188.17 96.24C1187.83 95.3 1187.66 94.1407 1187.66 92.762V70.86H1191.51V91.916C1191.51 93.1067 1191.76 94.0623 1192.26 94.783C1192.8 95.5037 1193.63 95.864 1194.75 95.864H1195.69C1196.38 95.864 1196.73 96.5377 1196.73 97.885C1196.73 99.295 1196.38 100 1195.69 100H1194.05ZM1199.14 95.864C1201.58 95.864 1202.8 94.7203 1202.8 92.433V86.417H1206.66V92.433C1206.66 93.0597 1206.75 93.5923 1206.94 94.031C1207.16 94.4697 1207.44 94.83 1207.79 95.112C1208.13 95.3627 1208.52 95.5507 1208.96 95.676C1209.43 95.8013 1209.9 95.864 1210.37 95.864H1211.69C1212.41 95.864 1212.77 96.5377 1212.77 97.885C1212.77 99.295 1212.41 100 1211.69 100H1210.23C1209.1 100 1208.04 99.7963 1207.03 99.389C1206.06 98.9817 1205.25 98.1827 1204.59 96.992C1203.87 98.1827 1203.04 98.9817 1202.1 99.389C1201.19 99.7963 1200.2 100 1199.14 100H1195.71C1195.3 100 1195.03 99.8433 1194.91 99.53C1194.75 99.1853 1194.67 98.684 1194.67 98.026C1194.67 97.274 1194.75 96.7257 1194.91 96.381C1195.03 96.0363 1195.3 95.864 1195.71 95.864H1199.14ZM1205.86 109.4H1201.25V105.358H1205.86V109.4ZM1215.96 95.864C1217.08 95.864 1217.96 95.5663 1218.59 94.971C1219.25 94.3757 1219.58 93.5297 1219.58 92.433V86.417H1223.43V92.621C1223.43 95.0023 1222.79 96.8353 1221.5 98.12C1220.25 99.3733 1218.49 100 1216.24 100H1211.68C1211.27 100 1211.01 99.8433 1210.88 99.53C1210.72 99.1853 1210.65 98.684 1210.65 98.026C1210.65 97.274 1210.72 96.7257 1210.88 96.381C1211.01 96.0363 1211.27 95.864 1211.68 95.864H1215.96ZM1223.76 80.636H1219.48V76.688H1223.76V80.636ZM1217.46 80.636H1213.18V76.688H1217.46V80.636ZM869.414 168.864C870.667 168.864 871.545 168.598 872.046 168.065C872.547 167.532 872.798 167.015 872.798 166.514C872.798 166.232 872.735 165.856 872.61 165.386C872.516 164.916 872.312 164.195 871.999 163.224C871.686 162.253 871.231 160.952 870.636 159.323C870.041 157.662 869.273 155.516 868.333 152.884L871.999 151.38L876.934 165.339C877.373 166.624 877.89 167.532 878.485 168.065C879.08 168.598 879.958 168.864 881.117 168.864H881.728C882.417 168.864 882.762 169.538 882.762 170.885C882.762 172.295 882.417 173 881.728 173H881.117C880.083 173 879.08 172.812 878.109 172.436C877.169 172.06 876.307 171.23 875.524 169.945C874.866 171.136 874.036 171.95 873.033 172.389C872.062 172.796 870.996 173 869.837 173H859.732L859.497 168.864H869.414ZM885.147 168.864C887.591 168.864 888.813 167.72 888.813 165.433V159.417H892.667V165.433C892.667 166.06 892.761 166.592 892.949 167.031C893.168 167.47 893.45 167.83 893.795 168.112C894.139 168.363 894.531 168.551 894.97 168.676C895.44 168.801 895.91 168.864 896.38 168.864H897.696C898.416 168.864 898.777 169.538 898.777 170.885C898.777 172.295 898.416 173 897.696 173H896.239C895.111 173 894.045 172.796 893.043 172.389C892.071 171.982 891.257 171.183 890.599 169.992C889.878 171.183 889.048 171.982 888.108 172.389C887.199 172.796 886.212 173 885.147 173H881.716C881.308 173 881.042 172.843 880.917 172.53C880.76 172.185 880.682 171.684 880.682 171.026C880.682 170.274 880.76 169.726 880.917 169.381C881.042 169.036 881.308 168.864 881.716 168.864H885.147ZM894.876 182.306H890.74V178.358H894.876V182.306ZM888.484 182.306H884.301V178.358H888.484V182.306ZM901.119 168.864C903.563 168.864 904.785 167.72 904.785 165.433V159.417H908.639V165.433C908.639 166.06 908.733 166.592 908.921 167.031C909.141 167.47 909.423 167.83 909.767 168.112C910.112 168.363 910.504 168.551 910.942 168.676C911.412 168.801 911.882 168.864 912.352 168.864H913.668C914.389 168.864 914.749 169.538 914.749 170.885C914.749 172.295 914.389 173 913.668 173H912.211C911.083 173 910.018 172.796 909.015 172.389C908.044 171.982 907.229 171.183 906.571 169.992C905.851 171.183 905.02 171.982 904.08 172.389C903.172 172.796 902.185 173 901.119 173H897.688C897.281 173 897.015 172.843 896.889 172.53C896.733 172.185 896.654 171.684 896.654 171.026C896.654 170.274 896.733 169.726 896.889 169.381C897.015 169.036 897.281 168.864 897.688 168.864H901.119ZM908.639 153.636H904.033V149.594H908.639V153.636ZM925.693 168.864C926.852 168.864 927.651 168.629 928.09 168.159C928.529 167.689 928.748 167.109 928.748 166.42C928.748 165.919 928.654 165.402 928.466 164.869C928.309 164.305 927.871 163.663 927.15 162.942L917.562 153.401V149.124L933.166 143.108L934.059 146.962L921.369 151.803L929.124 159.605C929.876 160.388 930.487 161.093 930.957 161.72C931.458 162.347 931.85 162.958 932.132 163.553C932.414 164.117 932.602 164.681 932.696 165.245C932.821 165.809 932.884 166.389 932.884 166.984C932.884 168.049 932.712 168.958 932.367 169.71C932.022 170.462 931.552 171.089 930.957 171.59C930.362 172.06 929.641 172.42 928.795 172.671C927.98 172.89 927.087 173 926.116 173H913.661C913.254 173 912.987 172.843 912.862 172.53C912.705 172.185 912.627 171.684 912.627 171.026C912.627 170.274 912.705 169.726 912.862 169.381C912.987 169.036 913.254 168.864 913.661 168.864H925.693ZM950.475 170.838C949.88 170.337 949.394 169.788 949.018 169.193C948.642 168.566 948.345 167.94 948.125 167.313C947.906 166.686 947.749 166.091 947.655 165.527C947.561 164.932 947.514 164.399 947.514 163.929C947.514 162.738 947.718 161.626 948.125 160.592C948.533 159.558 949.097 158.665 949.817 157.913C950.538 157.161 951.4 156.566 952.402 156.127C953.436 155.688 954.564 155.469 955.786 155.469C956.883 155.469 957.948 155.641 958.982 155.986C960.016 156.331 961.129 156.895 962.319 157.678L960.674 160.968C959.672 160.467 958.794 160.122 958.042 159.934C957.322 159.715 956.57 159.605 955.786 159.605C955.128 159.605 954.517 159.73 953.953 159.981C953.421 160.232 952.951 160.561 952.543 160.968C952.167 161.344 951.87 161.798 951.65 162.331C951.462 162.864 951.368 163.412 951.368 163.976C951.368 164.634 951.478 165.261 951.697 165.856C951.948 166.42 952.261 166.937 952.637 167.407C953.045 167.846 953.515 168.206 954.047 168.488C954.58 168.739 955.144 168.864 955.739 168.864H963.447L963.165 173H955.833C954.674 173 953.64 173.188 952.731 173.564C951.823 173.971 951.055 174.504 950.428 175.162C949.802 175.82 949.316 176.572 948.971 177.418C948.658 178.264 948.501 179.141 948.501 180.05C948.501 182.181 949.112 183.873 950.334 185.126C951.556 186.379 953.656 187.006 956.632 187.006H964.857L964.622 191.095H956.491C954.329 191.095 952.496 190.813 950.992 190.249C949.488 189.685 948.266 188.917 947.326 187.946C946.418 187.006 945.744 185.878 945.305 184.562C944.898 183.246 944.694 181.836 944.694 180.332C944.694 178.358 945.164 176.525 946.104 174.833C947.044 173.172 948.501 171.841 950.475 170.838ZM973.397 180.285C974.682 180.285 975.81 180.081 976.781 179.674C977.752 179.298 978.551 178.781 979.178 178.123C979.836 177.465 980.337 176.697 980.682 175.82C981.027 174.943 981.23 174.003 981.293 173H977.298C975.7 173 974.384 172.828 973.35 172.483C972.316 172.138 971.501 171.637 970.906 170.979C970.311 170.321 969.888 169.522 969.637 168.582C969.418 167.611 969.308 166.53 969.308 165.339C969.308 164.148 969.48 163.02 969.825 161.955C970.17 160.858 970.671 159.903 971.329 159.088C971.987 158.273 972.802 157.631 973.773 157.161C974.776 156.66 975.935 156.409 977.251 156.409C978.285 156.409 979.272 156.581 980.212 156.926C981.183 157.271 982.029 157.819 982.75 158.571C983.471 159.292 984.035 160.247 984.442 161.438C984.881 162.629 985.1 164.07 985.1 165.762V172.248C985.1 173.846 984.834 175.381 984.301 176.854C983.8 178.327 983.048 179.611 982.045 180.708C981.074 181.836 979.883 182.729 978.473 183.387C977.063 184.045 975.465 184.374 973.679 184.374H968.791L968.509 180.285H973.397ZM972.974 165.104C972.974 166.451 973.287 167.423 973.914 168.018C974.572 168.582 975.825 168.864 977.674 168.864H981.387V165.95C981.387 163.976 980.995 162.566 980.212 161.72C979.46 160.843 978.395 160.404 977.016 160.404C975.731 160.404 974.729 160.827 974.008 161.673C973.319 162.488 972.974 163.631 972.974 165.104ZM998.356 165.574C998.356 166.608 998.685 167.423 999.343 168.018C1000.03 168.582 1000.91 168.864 1001.98 168.864H1002.49C1003.18 168.864 1003.53 169.538 1003.53 170.885C1003.53 172.295 1003.18 173 1002.49 173H1001.98C1001.29 173 1000.6 172.875 999.907 172.624C999.218 172.373 998.638 171.919 998.168 171.261V172.248C998.168 174.003 997.886 175.616 997.322 177.089C996.758 178.593 995.975 179.878 994.972 180.943C994.001 182.04 992.842 182.886 991.494 183.481C990.147 184.076 988.674 184.374 987.076 184.374H985.854L985.525 180.285H986.371C987.813 180.285 989.035 180.05 990.037 179.58C991.071 179.141 991.917 178.546 992.575 177.794C993.233 177.042 993.719 176.18 994.032 175.209C994.346 174.269 994.502 173.282 994.502 172.248V159.417H998.356V165.574ZM1004.35 168.864C1006.83 168.864 1008.07 167.72 1008.07 165.433V159.417H1011.92V165.433C1011.92 166.06 1012.03 166.592 1012.25 167.031C1012.47 167.47 1012.75 167.83 1013.1 168.112C1013.44 168.363 1013.83 168.551 1014.27 168.676C1014.74 168.801 1015.21 168.864 1015.68 168.864C1018.38 168.864 1019.72 167.72 1019.72 165.433V159.417H1023.58V165.433C1023.58 166.718 1023.91 167.611 1024.56 168.112C1025.25 168.613 1026.05 168.864 1026.96 168.864C1028.03 168.864 1028.87 168.566 1029.5 167.971C1030.13 167.376 1030.44 166.53 1030.44 165.433V159.417H1034.29V165.621C1034.29 168.002 1033.65 169.835 1032.37 171.12C1031.08 172.373 1029.33 173 1027.1 173C1026.01 173 1024.96 172.796 1023.95 172.389C1022.98 171.982 1022.17 171.183 1021.51 169.992C1020.79 171.183 1019.91 171.982 1018.88 172.389C1017.84 172.796 1016.78 173 1015.68 173C1014.49 173 1013.38 172.796 1012.34 172.389C1011.34 171.982 1010.51 171.183 1009.85 169.992C1009.13 171.183 1008.29 171.982 1007.32 172.389C1006.34 172.796 1005.31 173 1004.21 173H1002.47C1002.07 173 1001.8 172.843 1001.68 172.53C1001.52 172.185 1001.44 171.684 1001.44 171.026C1001.44 170.274 1001.52 169.726 1001.68 169.381C1001.8 169.036 1002.07 168.864 1002.47 168.864H1004.35ZM1023.81 147.573H1019.49V143.672H1023.81V147.573ZM1026.91 153.636H1022.64V149.688H1026.91V153.636ZM1020.62 153.636H1016.34V149.688H1020.62V153.636ZM1053.32 173C1052.48 173 1051.66 172.89 1050.88 172.671C1050.1 172.42 1049.41 172.013 1048.81 171.449C1048.25 170.885 1047.79 170.149 1047.45 169.24C1047.1 168.3 1046.93 167.141 1046.93 165.762V143.86H1050.79V164.916C1050.79 166.107 1051.04 167.062 1051.54 167.783C1052.07 168.504 1052.9 168.864 1054.03 168.864H1054.97C1055.66 168.864 1056 169.538 1056 170.885C1056 172.295 1055.66 173 1054.97 173H1053.32ZM1055.59 168.864C1057.97 168.864 1059.17 167.861 1059.17 165.856V164.399C1059.17 161.736 1059.85 159.636 1061.23 158.101C1062.64 156.534 1064.59 155.751 1067.06 155.751C1068.35 155.751 1069.47 155.97 1070.45 156.409C1071.42 156.816 1072.23 157.396 1072.89 158.148C1073.55 158.9 1074.03 159.809 1074.35 160.874C1074.69 161.908 1074.86 163.052 1074.86 164.305C1074.86 167.062 1074.16 169.209 1072.75 170.744C1071.34 172.248 1069.4 173 1066.92 173C1065.67 173 1064.46 172.765 1063.3 172.295C1062.17 171.794 1061.3 170.963 1060.67 169.804C1060.39 170.462 1060.04 171.01 1059.64 171.449C1059.23 171.856 1058.81 172.185 1058.37 172.436C1057.93 172.655 1057.46 172.812 1056.96 172.906C1056.49 172.969 1056.03 173 1055.59 173H1054.98C1054.58 173 1054.31 172.843 1054.18 172.53C1054.03 172.185 1053.95 171.684 1053.95 171.026C1053.95 170.274 1054.03 169.726 1054.18 169.381C1054.31 169.036 1054.58 168.864 1054.98 168.864H1055.59ZM1071.1 164.587C1071.1 163.208 1070.79 162.08 1070.16 161.203C1069.57 160.326 1068.5 159.887 1066.97 159.887C1065.56 159.887 1064.51 160.31 1063.82 161.156C1063.16 162.002 1062.83 163.193 1062.83 164.728C1062.83 166.107 1063.21 167.141 1063.96 167.83C1064.74 168.519 1065.73 168.864 1066.92 168.864C1068.33 168.864 1069.38 168.504 1070.07 167.783C1070.76 167.031 1071.1 165.966 1071.1 164.587ZM1093.85 173C1093.01 173 1092.19 172.89 1091.41 172.671C1090.63 172.42 1089.94 172.013 1089.34 171.449C1088.78 170.885 1088.32 170.149 1087.98 169.24C1087.63 168.3 1087.46 167.141 1087.46 165.762V143.86H1091.31V164.916C1091.31 166.107 1091.57 167.062 1092.07 167.783C1092.6 168.504 1093.43 168.864 1094.56 168.864H1095.5C1096.19 168.864 1096.53 169.538 1096.53 170.885C1096.53 172.295 1096.19 173 1095.5 173H1093.85ZM1099.79 168.864C1100.92 168.864 1101.79 168.566 1102.42 167.971C1103.08 167.376 1103.41 166.53 1103.41 165.433V159.417H1107.26V165.621C1107.26 168.002 1106.62 169.835 1105.33 171.12C1104.08 172.373 1102.33 173 1100.07 173H1095.51C1095.1 173 1094.84 172.843 1094.71 172.53C1094.56 172.185 1094.48 171.684 1094.48 171.026C1094.48 170.274 1094.56 169.726 1094.71 169.381C1094.84 169.036 1095.1 168.864 1095.51 168.864H1099.79ZM1101.95 182.4H1097.34V178.358H1101.95V182.4ZM1119.91 143.86H1123.76V173H1119.91V143.86ZM1135.27 172.248C1135.27 174.003 1134.97 175.616 1134.38 177.089C1133.81 178.593 1133.03 179.878 1132.03 180.943C1131.03 182.04 1129.83 182.886 1128.46 183.481C1127.08 184.076 1125.59 184.374 1123.99 184.374H1121.12L1120.89 180.285H1123.05C1124.56 180.285 1125.84 180.05 1126.91 179.58C1127.94 179.141 1128.79 178.546 1129.44 177.794C1130.13 177.042 1130.63 176.18 1130.95 175.209C1131.26 174.269 1131.42 173.282 1131.42 172.248V159.417H1135.27V172.248ZM1175.83 173C1175.29 173 1174.74 172.922 1174.18 172.765C1173.65 172.577 1173.16 172.217 1172.72 171.684V171.966C1172.72 173.721 1172.46 175.35 1171.92 176.854C1171.39 178.358 1170.62 179.658 1169.62 180.755C1168.62 181.883 1167.4 182.76 1165.96 183.387C1164.51 184.045 1162.88 184.374 1161.07 184.374H1157.97C1154.46 184.374 1151.73 183.293 1149.79 181.131C1147.84 178.969 1146.87 176.008 1146.87 172.248V163.694H1152.8V171.966C1152.8 172.875 1152.89 173.689 1153.08 174.41C1153.27 175.162 1153.58 175.789 1154.02 176.29C1154.49 176.823 1155.1 177.23 1155.85 177.512C1156.63 177.794 1157.61 177.935 1158.76 177.935H1160.83C1162.05 177.935 1163.06 177.763 1163.84 177.418C1164.66 177.105 1165.3 176.65 1165.77 176.055C1166.24 175.491 1166.57 174.833 1166.75 174.081C1166.94 173.329 1167.04 172.53 1167.04 171.684V159.041H1172.96V163.929C1172.96 164.838 1173.24 165.511 1173.8 165.95C1174.37 166.357 1175.04 166.561 1175.83 166.561H1176.34C1177.03 166.561 1177.38 167.595 1177.38 169.663C1177.38 171.888 1177.03 173 1176.34 173H1175.83ZM1162.1 158.524H1155.9V152.837H1162.1V158.524ZM1176.57 166.561C1177.51 166.561 1178.26 166.404 1178.83 166.091C1179.39 165.746 1179.67 165.12 1179.67 164.211V163.694C1179.67 162.472 1179.86 161.344 1180.24 160.31C1180.61 159.245 1181.15 158.336 1181.84 157.584C1182.53 156.832 1183.37 156.237 1184.37 155.798C1185.38 155.359 1186.49 155.14 1187.71 155.14C1189 155.14 1190.14 155.359 1191.14 155.798C1192.15 156.237 1192.98 156.832 1193.63 157.584C1194.32 158.336 1194.84 159.245 1195.18 160.31C1195.56 161.344 1195.75 162.472 1195.75 163.694V164.211C1195.75 164.681 1195.84 165.073 1196.03 165.386C1196.22 165.668 1196.45 165.903 1196.74 166.091C1197.02 166.248 1197.32 166.373 1197.63 166.467C1197.97 166.53 1198.29 166.561 1198.57 166.561H1199.09C1199.49 166.561 1199.76 166.812 1199.88 167.313C1200.04 167.814 1200.12 168.598 1200.12 169.663C1200.12 170.822 1200.04 171.668 1199.88 172.201C1199.76 172.734 1199.49 173 1199.09 173H1198.57C1197.66 173 1196.74 172.812 1195.8 172.436C1194.89 172.029 1194.06 171.261 1193.3 170.133C1192.43 171.324 1191.49 172.107 1190.48 172.483C1189.48 172.828 1188.48 173 1187.48 173C1186.25 173 1185.11 172.749 1184.05 172.248C1182.98 171.747 1182.18 171.042 1181.65 170.133C1181.05 171.198 1180.29 171.95 1179.35 172.389C1178.41 172.796 1177.48 173 1176.57 173H1176.34C1175.93 173 1175.66 172.749 1175.54 172.248C1175.38 171.715 1175.3 170.932 1175.3 169.898C1175.3 168.707 1175.38 167.861 1175.54 167.36C1175.66 166.827 1175.93 166.561 1176.34 166.561H1176.57ZM1190.01 164.211C1190.01 163.553 1189.86 162.958 1189.54 162.425C1189.23 161.892 1188.62 161.626 1187.71 161.626C1186.8 161.626 1186.19 161.892 1185.88 162.425C1185.57 162.958 1185.41 163.553 1185.41 164.211C1185.41 165.778 1186.18 166.561 1187.71 166.561C1189.25 166.561 1190.01 165.778 1190.01 164.211ZM1203.52 166.561C1204.43 166.561 1205.07 166.357 1205.45 165.95C1205.86 165.511 1206.06 164.838 1206.06 163.929V159.041H1212.03V164.446C1212.03 167.297 1211.34 169.444 1209.96 170.885C1208.61 172.295 1206.64 173 1204.04 173H1199.1C1198.7 173 1198.43 172.749 1198.3 172.248C1198.15 171.715 1198.07 170.932 1198.07 169.898C1198.07 168.707 1198.15 167.861 1198.3 167.36C1198.43 166.827 1198.7 166.561 1199.1 166.561H1203.52ZM1211.75 183.575H1206.06V178.123H1211.75V183.575ZM1204.51 183.575H1198.82V178.123H1204.51V183.575ZM1217.21 143.86H1223.18V173H1217.21V143.86Z" fill="#2E2EE5"/>
<g style="mix-blend-mode:soft-light" opacity="0.5">
<path d="M511.753 287.18C508.557 300.729 497.433 338.834 483.592 358.567C473.936 372.332 467.54 380.031 453.652 389.508C443.386 396.513 424.998 403.318 424.916 403.348L405.609 358.364C405.609 358.364 425.042 350.59 433.92 341.188C443.67 330.863 453.395 314.869 450.094 308.617C436.679 283.216 361.66 147.058 361.66 147.058L421.689 139.387L473.715 254.757L488.388 130.864L548.417 123.193L511.753 287.18ZM63.0035 116.939C94.8651 112.867 118.954 116.829 135.27 128.823C151.787 140.557 161.579 158.429 164.648 182.441C166.034 193.292 165.746 203.888 163.783 214.229C161.789 224.339 157.485 233.806 150.869 242.629C144.454 251.193 135.409 258.449 123.733 264.4C112.057 270.35 97.2146 274.477 79.2059 276.778L56.6953 279.654L67.9366 367.62L15.6418 374.303L-15.9572 127.03L63.0035 116.939ZM231.602 163.678C243.685 159.084 257.415 154.434 274.529 154.805C296.257 155.277 341.603 166.57 348.422 219.928C355.23 273.206 367.964 329.104 368.003 329.274L317.978 335.667L313.472 315.909C309.017 323.283 300.076 333.387 287.964 339.505C278.516 344.278 272.331 344.893 261.71 346.25C250.628 347.666 242.17 346.763 232.634 343.758C223.3 340.492 215.533 334.797 209.333 326.673C203.103 318.317 199.117 307.329 197.377 293.707C194.81 273.62 199.963 257.944 212.837 246.678C225.682 235.181 239.938 226.906 267.987 222.383L295.166 218.91C295.166 218.91 294.763 208.449 290.927 203.549C286.207 197.522 281.31 196.8 272.973 195.677C263.38 194.384 254.466 196.632 242.959 199.512C228.479 203.137 219.16 208.732 210.888 213.778L196.622 181.707C206.102 175.098 219.748 168.244 231.602 163.678ZM666.615 40.2985C666.644 40.488 680.201 127.504 684.94 183.701C686.788 205.624 690.096 223.466 688.734 239.911C687.386 256.177 682.027 265.047 670.92 277.007C654.227 294.979 636.625 298.275 611.868 301.499C596.029 303.562 574.809 300.395 570.997 299.943L572.011 254.826C575.823 255.277 579.364 255.645 584.096 255.746C596.89 256.018 605.522 257.997 616.6 251.592C623.25 247.747 626.886 244.625 630.877 238.061C637.833 226.62 633.286 203.859 633.286 203.859L613.256 47.1165L666.615 40.2985ZM290.798 250.794C274.234 253.38 263.073 257.857 257.317 264.225C251.56 270.592 249.257 278.278 250.408 287.282C251.411 295.132 254.443 300.494 259.503 303.367C264.533 306.009 270.743 306.857 278.13 305.913C289.213 304.497 292.305 301.459 299.098 294.021C305.862 286.352 307.228 278.068 305.694 266.063L303.563 249.388L290.798 250.794ZM799.894 274.087L744.847 281.121L720.684 92.0289L775.73 84.9947L799.894 274.087ZM878.231 104.777C878.231 104.777 888.691 91.6457 897.261 85.394C912.09 74.5764 923.165 69.4434 941.52 69.5737C964.568 69.7375 1004.83 78.427 1015.06 158.465C1022.3 215.159 993.016 255.896 945.375 258.887C931.694 259.746 923.164 258.948 910.747 253.141C900.679 248.433 888.24 235.749 888.18 235.689L888.255 262.794L841.566 268.76L811.659 8.20853L865.02 1.39142L878.231 104.777ZM945.43 126.693C935.609 118.281 926.47 115.088 913.711 117.189C905.517 118.538 900.408 120.529 894.553 126.417C889.924 131.071 888.53 134.878 886.252 141.035C882.084 152.301 882.851 159.861 884.571 171.75C886.737 186.721 887.792 197.879 899.455 207.511C909.021 215.411 917.592 218.845 929.83 216.812C939.694 215.173 946.089 210.446 951.896 203.824C963.671 190.397 962.603 176.385 959.696 158.765C957.465 145.24 955.84 135.611 945.43 126.693ZM98.3872 165.214C90.9246 160.067 80.0359 158.407 65.7215 160.236L41.8254 163.29L51.2074 236.71L68.5236 234.498C78.4513 233.229 86.8317 230.867 93.6644 227.413C100.497 223.959 105.522 219.21 108.739 213.168C111.956 207.125 113.004 199.717 111.883 190.944C110.319 178.707 105.82 170.13 98.3872 165.214ZM740.263 22.1421C747.882 21.1685 754.698 22.1751 760.711 25.161C766.695 27.9161 770.306 34.1419 771.546 43.8389C772.755 53.305 770.826 60.2392 765.757 64.6414C760.688 69.0436 754.344 71.7314 746.725 72.7051C738.875 73.7083 731.943 72.7169 725.93 69.7311C720.148 66.7156 716.652 60.4745 715.442 51.0083C714.203 41.3116 716.017 34.3926 720.884 30.2507C725.954 25.8485 732.413 23.1453 740.263 22.1421Z" fill="#F5F7FA"/>
</g>
<path d="M775.731 84.9938L799.895 274.087L744.848 281.121L720.684 92.0282L775.731 84.9938ZM740.263 22.1418C747.882 21.1681 754.698 22.1744 760.711 25.1604C766.695 27.9155 770.307 34.1414 771.546 43.8385C772.755 53.3047 770.826 60.2387 765.757 64.6409C760.687 69.0432 754.344 71.731 746.724 72.7047C738.874 73.7079 731.943 72.7164 725.93 69.7304C720.147 66.7149 716.651 60.4742 715.442 51.008C714.203 41.3109 716.017 34.3916 720.885 30.2498C725.954 25.8475 732.413 23.145 740.263 22.1418Z" fill="#2E2EE5"/>
<rect x="139" y="141" width="167" height="61" rx="30.5" fill="#2E2EE5"/>
<path d="M173.078 175C171.958 175 171.054 174.712 170.366 174.136C169.678 173.544 169.334 172.688 169.334 171.568V170.344C169.334 169.896 169.374 169.52 169.454 169.216C169.534 168.912 169.686 168.664 169.91 168.472H169.358C168.59 168.472 168.022 168.632 167.654 168.952C167.286 169.272 167.102 169.736 167.102 170.344V180.808H164.654V170.248C164.654 169.688 164.75 169.152 164.942 168.64C165.15 168.112 165.446 167.648 165.83 167.248C166.214 166.848 166.694 166.528 167.27 166.288C167.846 166.048 168.518 165.928 169.286 165.928H173.63C174.302 165.928 174.862 166.024 175.31 166.216C175.774 166.392 176.15 166.64 176.438 166.96C176.726 167.264 176.926 167.624 177.038 168.04C177.166 168.456 177.23 168.896 177.23 169.36V171.472C177.23 172.096 177.118 172.632 176.894 173.08C176.686 173.512 176.39 173.872 176.006 174.16C175.638 174.448 175.198 174.664 174.686 174.808C174.19 174.936 173.654 175 173.078 175ZM173.27 172.36C173.83 172.36 174.238 172.24 174.494 172C174.766 171.76 174.902 171.432 174.902 171.016V169.984C174.902 169.568 174.79 169.232 174.566 168.976C174.358 168.704 174.006 168.568 173.51 168.568H173.006C172.542 168.568 172.198 168.704 171.974 168.976C171.766 169.248 171.662 169.592 171.662 170.008V170.968C171.662 171.4 171.782 171.744 172.022 172C172.278 172.24 172.694 172.36 173.27 172.36ZM183.372 175C182.924 175 182.492 174.944 182.076 174.832C181.676 174.704 181.324 174.496 181.02 174.208C180.716 173.92 180.476 173.544 180.3 173.08C180.124 172.6 180.036 172.008 180.036 171.304V160.12H182.484V170.704C182.484 171.216 182.596 171.624 182.82 171.928C183.06 172.216 183.412 172.36 183.876 172.36H184.428C184.78 172.36 184.956 172.784 184.956 173.632C184.956 174.544 184.78 175 184.428 175H183.372ZM186.638 172.36C187.71 172.36 188.246 171.84 188.246 170.8V167.968H190.694V170.968C190.694 172.296 190.358 173.304 189.686 173.992C189.014 174.664 188.07 175 186.854 175H184.43C184.222 175 184.086 174.896 184.022 174.688C183.942 174.464 183.902 174.144 183.902 173.728C183.902 173.264 183.942 172.92 184.022 172.696C184.086 172.472 184.222 172.36 184.43 172.36H186.638ZM189.95 165.16H187.238V162.712H189.95V165.16ZM208.336 172.36C209.408 172.36 209.944 171.84 209.944 170.8V167.968H212.392V170.8C212.392 171.36 212.568 171.76 212.92 172C213.272 172.24 213.688 172.36 214.168 172.36H214.648C214.856 172.36 214.992 172.472 215.056 172.696C215.136 172.904 215.176 173.216 215.176 173.632C215.176 174.096 215.136 174.44 215.056 174.664C214.992 174.888 214.856 175 214.648 175H214.072C213.48 175 212.928 174.904 212.416 174.712C211.904 174.504 211.464 174.096 211.096 173.488C210.728 174.096 210.304 174.504 209.824 174.712C209.36 174.904 208.864 175 208.336 175H200.248C199.592 175 199.024 174.904 198.544 174.712C198.08 174.504 197.696 174.232 197.392 173.896C197.104 173.56 196.888 173.168 196.744 172.72C196.616 172.272 196.552 171.8 196.552 171.304V167.896H198.976V170.68C198.976 171.208 199.096 171.624 199.336 171.928C199.576 172.216 200.064 172.36 200.8 172.36H208.336ZM207.424 166.024H204.928V163.672H207.424V166.024ZM203.992 166.024H201.496V163.672H203.992V166.024ZM216.321 172.36C217.393 172.36 217.929 171.84 217.929 170.8V167.968H220.401V170.8C220.401 171.36 220.569 171.76 220.905 172C221.257 172.24 221.665 172.36 222.129 172.36H222.753C223.121 172.36 223.305 172.784 223.305 173.632C223.305 174.544 223.121 175 222.753 175H222.057C221.449 175 220.897 174.904 220.401 174.712C219.905 174.504 219.473 174.096 219.105 173.488C218.705 174.096 218.273 174.504 217.809 174.712C217.345 174.904 216.849 175 216.321 175H214.641C214.433 175 214.297 174.896 214.233 174.688C214.153 174.464 214.113 174.144 214.113 173.728C214.113 173.264 214.153 172.92 214.233 172.696C214.297 172.472 214.433 172.36 214.641 172.36H216.321ZM219.897 180.136H217.185V177.688H219.897V180.136ZM224.958 172.36C226.03 172.36 226.566 171.84 226.566 170.8V167.968H229.014V170.968C229.014 172.296 228.678 173.304 228.006 173.992C227.334 174.664 226.39 175 225.174 175H222.75C222.542 175 222.406 174.896 222.342 174.688C222.262 174.464 222.222 174.144 222.222 173.728C222.222 173.264 222.262 172.92 222.342 172.696C222.406 172.472 222.542 172.36 222.75 172.36H224.958ZM227.406 161.8H224.862V159.472H227.406V161.8ZM229.086 165.16H226.59V162.808H229.086V165.16ZM225.654 165.16H223.158V162.808H225.654V165.16ZM237.488 173.68C236.944 173.184 236.576 172.624 236.384 172C236.208 171.36 236.12 170.8 236.12 170.32C236.12 169.696 236.224 169.112 236.432 168.568C236.64 168.024 236.936 167.552 237.32 167.152C237.704 166.752 238.16 166.44 238.688 166.216C239.232 165.976 239.824 165.856 240.464 165.856C241.04 165.856 241.6 165.952 242.144 166.144C242.688 166.32 243.256 166.608 243.848 167.008L242.792 169.12C242.312 168.896 241.896 168.736 241.544 168.64C241.192 168.544 240.832 168.496 240.464 168.496C239.888 168.496 239.424 168.688 239.072 169.072C238.736 169.44 238.568 169.864 238.568 170.344C238.568 170.952 238.768 171.44 239.168 171.808C239.568 172.176 240.056 172.36 240.632 172.36H244.352L244.208 175H240.776C240.2 175 239.688 175.096 239.24 175.288C238.792 175.48 238.416 175.728 238.112 176.032C237.808 176.352 237.576 176.712 237.416 177.112C237.256 177.528 237.176 177.96 237.176 178.408C237.176 178.872 237.24 179.296 237.368 179.68C237.496 180.08 237.712 180.424 238.016 180.712C238.32 181 238.712 181.224 239.192 181.384C239.672 181.544 240.272 181.624 240.992 181.624H245.096L244.976 184.24H240.968C239.864 184.24 238.912 184.096 238.112 183.808C237.328 183.52 236.68 183.12 236.168 182.608C235.672 182.112 235.304 181.52 235.064 180.832C234.84 180.144 234.728 179.4 234.728 178.6C234.728 177.608 234.944 176.68 235.376 175.816C235.808 174.968 236.512 174.256 237.488 173.68ZM249.292 178.192C249.9 178.192 250.42 178.104 250.852 177.928C251.3 177.768 251.668 177.544 251.956 177.256C252.244 176.968 252.468 176.624 252.628 176.224C252.788 175.84 252.884 175.432 252.916 175H251.284C250.452 175 249.772 174.912 249.244 174.736C248.716 174.56 248.3 174.304 247.996 173.968C247.692 173.616 247.476 173.192 247.348 172.696C247.236 172.2 247.18 171.64 247.18 171.016C247.18 170.392 247.268 169.808 247.444 169.264C247.62 168.704 247.876 168.216 248.212 167.8C248.564 167.384 248.996 167.056 249.508 166.816C250.02 166.56 250.612 166.432 251.284 166.432C251.828 166.432 252.34 166.52 252.82 166.696C253.316 166.872 253.748 167.152 254.116 167.536C254.484 167.92 254.772 168.416 254.98 169.024C255.204 169.632 255.316 170.376 255.316 171.256V174.616C255.316 175.432 255.18 176.216 254.908 176.968C254.636 177.72 254.244 178.376 253.732 178.936C253.236 179.512 252.62 179.968 251.884 180.304C251.148 180.64 250.324 180.808 249.412 180.808H246.988L246.844 178.192H249.292ZM249.532 170.848C249.532 171.408 249.652 171.8 249.892 172.024C250.148 172.248 250.644 172.36 251.38 172.36H252.964V171.232C252.964 170.4 252.804 169.816 252.484 169.48C252.18 169.144 251.748 168.976 251.188 168.976C250.66 168.976 250.252 169.136 249.964 169.456C249.676 169.776 249.532 170.24 249.532 170.848ZM262.302 170.824C262.302 171.336 262.462 171.72 262.782 171.976C263.102 172.232 263.502 172.36 263.982 172.36H264.246C264.598 172.36 264.774 172.784 264.774 173.632C264.774 174.544 264.598 175 264.246 175H263.982C263.662 175 263.334 174.952 262.998 174.856C262.678 174.744 262.406 174.528 262.182 174.208V174.616C262.182 175.48 262.038 176.288 261.75 177.04C261.462 177.792 261.062 178.448 260.55 179.008C260.054 179.568 259.454 180.008 258.75 180.328C258.062 180.648 257.31 180.808 256.494 180.808H255.894L255.702 178.192H256.086C256.758 178.192 257.334 178.088 257.814 177.88C258.294 177.688 258.678 177.424 258.966 177.088C259.27 176.752 259.494 176.368 259.638 175.936C259.782 175.504 259.854 175.064 259.854 174.616V167.968H262.302V170.824ZM265.267 172.36C266.371 172.36 266.923 171.84 266.923 170.8V167.968H269.347V170.8C269.347 171.36 269.515 171.76 269.851 172C270.203 172.24 270.603 172.36 271.051 172.36C272.251 172.36 272.851 171.84 272.851 170.8V167.968H275.299V170.8C275.299 171.36 275.443 171.76 275.731 172C276.035 172.24 276.387 172.36 276.787 172.36C277.267 172.36 277.635 172.232 277.891 171.976C278.163 171.704 278.299 171.312 278.299 170.8V167.968H280.747V170.968C280.747 172.296 280.403 173.304 279.715 173.992C279.043 174.664 278.099 175 276.883 175C276.339 175 275.819 174.904 275.323 174.712C274.827 174.504 274.395 174.096 274.027 173.488C273.643 174.096 273.187 174.504 272.659 174.712C272.147 174.904 271.611 175 271.051 175C270.443 175 269.883 174.904 269.371 174.712C268.875 174.504 268.443 174.096 268.075 173.488C267.691 174.096 267.259 174.504 266.779 174.712C266.299 174.904 265.787 175 265.243 175H264.211C264.003 175 263.867 174.896 263.803 174.688C263.723 174.464 263.683 174.144 263.683 173.728C263.683 173.264 263.723 172.92 263.803 172.696C263.867 172.472 264.003 172.36 264.211 172.36H265.267ZM275.323 161.8H272.779V159.472H275.323V161.8ZM277.003 165.16H274.507V162.808H277.003V165.16ZM273.571 165.16H271.075V162.808H273.571V165.16Z" fill="white"/>
</g>
<defs>
<clipPath id="clip0_1_4272">
<rect width="1366" height="258" fill="white"/>
</clipPath>
</defs>
</svg>
