<svg width="360" height="212" viewBox="0 0 360 212" fill="none" xmlns="http://www.w3.org/2000/svg">
<g clip-path="url(#clip0_1_3054)">
<rect width="360" height="212" fill="#FFBF00"/>
<g style="mix-blend-mode:soft-light" opacity="0.5">
<path d="M220.688 136.846C219.293 142.758 214.439 159.386 208.399 167.996C204.185 174.003 201.394 177.363 195.334 181.499C190.859 184.552 182.849 187.518 182.795 187.538L174.37 167.908C174.37 167.908 182.849 164.516 186.723 160.414C190.978 155.908 195.222 148.928 193.781 146.2C187.928 135.116 155.191 75.7001 155.191 75.7001L181.386 72.3529L204.089 122.697L210.491 68.634L236.686 65.2858L220.688 136.846ZM24.8667 62.5567C38.7699 60.78 49.2815 62.5087 56.4011 67.7424C63.6087 72.8626 67.8821 80.6622 69.221 91.1402C69.8261 95.8753 69.7002 100.499 68.8434 105.011C67.9736 109.423 66.0949 113.554 63.2079 117.405C60.4088 121.141 56.462 124.308 51.3669 126.905C46.2718 129.501 39.7948 131.302 31.9363 132.306L22.1136 133.562L27.0189 171.947L4.19892 174.864L-9.58943 66.9601L24.8667 62.5567ZM98.4364 82.9531C103.709 80.9482 109.701 78.9187 117.169 79.0806C126.651 79.2863 146.438 84.2148 149.413 107.499C152.389 130.783 157.957 155.215 157.957 155.215L136.129 158.003L134.162 149.382C132.218 152.6 128.317 157.009 123.031 159.679C118.908 161.762 116.209 162.03 111.575 162.622C106.739 163.24 103.048 162.846 98.8866 161.534C94.8136 160.109 91.4243 157.624 88.7186 154.079C86 150.433 84.2611 145.638 83.5015 139.694C82.3814 130.928 84.6299 124.087 90.2476 119.171C95.8526 114.155 102.074 110.544 114.314 108.57L126.174 107.055C126.174 107.055 125.998 102.49 124.324 100.352C122.265 97.7216 120.128 97.4065 116.49 96.9163C112.304 96.3523 108.414 97.3332 103.393 98.5899C97.0743 100.171 93.0069 102.613 89.3973 104.815L83.1723 90.8195C87.3091 87.9358 93.2642 84.9452 98.4364 82.9531ZM288.266 29.1136C288.281 29.2148 294.195 67.1737 296.262 91.6903C297.069 101.257 298.512 109.043 297.917 116.219C297.329 123.317 294.991 127.187 290.144 132.406C282.86 140.248 275.179 141.688 264.376 143.094C257.464 143.994 248.204 142.613 246.54 142.416L246.983 122.727C248.646 122.924 250.191 123.084 252.256 123.128C257.839 123.247 261.606 124.111 266.44 121.316C269.342 119.638 270.929 118.276 272.671 115.412C275.7 110.429 273.729 100.525 273.721 100.487L264.981 32.0891L288.266 29.1136ZM124.268 120.968C117.04 122.096 112.169 124.05 109.657 126.829C107.145 129.607 106.141 132.961 106.643 136.89C107.081 140.315 108.403 142.655 110.611 143.909C112.806 145.062 115.516 145.432 118.74 145.02C123.576 144.402 124.925 143.076 127.89 139.83C130.841 136.484 131.438 132.869 130.768 127.63L129.838 120.354L124.268 120.968ZM346.423 131.132L322.402 134.202L311.858 51.6871L335.878 48.6174L346.423 131.132ZM380.607 57.2502C380.607 57.2502 385.172 51.5199 388.911 48.7918C395.382 44.0715 400.215 41.8314 408.224 41.8883C418.282 41.9597 435.851 45.7515 440.315 80.6779C443.476 105.418 430.695 123.194 409.906 124.5C403.936 124.874 400.214 124.525 394.796 121.992C390.392 119.932 384.949 114.376 384.949 114.376L384.981 126.205L364.607 128.807L351.556 15.1102L374.841 12.1356L380.607 57.2502ZM409.93 66.8137C405.644 63.1431 401.657 61.7496 396.089 62.6663C392.514 63.2549 390.285 64.1234 387.73 66.6924C385.71 68.7236 385.102 70.3852 384.108 73.0719C382.288 77.9884 382.623 81.2872 383.373 86.4754C384.318 93.0081 384.779 97.8767 389.868 102.08C394.042 105.527 397.783 107.026 403.123 106.139C407.427 105.423 410.218 103.361 412.752 100.471C417.89 94.6122 417.424 88.4971 416.156 80.8082C415.182 74.9066 414.473 70.7049 409.93 66.8137ZM40.3069 83.6227C37.0504 81.3766 32.2983 80.6531 26.0518 81.4513L15.6249 82.7838L19.7193 114.822L27.275 113.856C31.607 113.303 35.2639 112.272 38.2454 110.765C41.227 109.258 43.4202 107.186 44.8239 104.549C46.2277 101.912 46.6845 98.6791 46.1953 94.8506C45.5129 89.5109 43.5504 85.7681 40.3069 83.6227ZM320.402 21.1905C323.726 20.7658 326.7 21.205 329.324 22.5079C331.935 23.7102 333.511 26.4274 334.052 30.6589C334.579 34.7895 333.738 37.8155 331.526 39.7365C329.314 41.6574 326.546 42.8297 323.221 43.2546C319.795 43.6923 316.771 43.26 314.147 41.957C311.623 40.6411 310.098 37.9179 309.57 33.7872C309.029 29.5557 309.821 26.5358 311.945 24.7284C314.157 22.8074 316.976 21.6283 320.402 21.1905Z" fill="#F5F7FA"/>
</g>
<path d="M335.878 48.6168L346.423 131.131L322.402 134.201L311.857 51.6864L335.878 48.6168ZM320.401 21.19C323.726 20.7652 326.7 21.2043 329.324 22.5073C331.936 23.7095 333.511 26.4263 334.052 30.6579C334.58 34.7886 333.738 37.8144 331.526 39.7354C329.314 41.6565 326.546 42.8293 323.221 43.2542C319.795 43.692 316.771 43.2593 314.147 41.9563C311.623 40.6404 310.098 37.9172 309.57 33.7864C309.029 29.5549 309.821 26.5355 311.945 24.7281C314.157 22.8071 316.976 21.6278 320.401 21.19Z" fill="#2E2EE5"/>
<rect x="116" y="139" width="128" height="41" rx="20.5" fill="#2E2EE5"/>
<path d="M147.386 162C146.639 162 146.036 161.808 145.578 161.424C145.119 161.029 144.89 160.459 144.89 159.712V158.896C144.89 158.597 144.916 158.347 144.97 158.144C145.023 157.941 145.124 157.776 145.274 157.648H144.906C144.394 157.648 144.015 157.755 143.77 157.968C143.524 158.181 143.402 158.491 143.402 158.896V165.872H141.77V158.832C141.77 158.459 141.834 158.101 141.962 157.76C142.1 157.408 142.298 157.099 142.554 156.832C142.81 156.565 143.13 156.352 143.514 156.192C143.898 156.032 144.346 155.952 144.858 155.952H147.754C148.202 155.952 148.575 156.016 148.874 156.144C149.183 156.261 149.434 156.427 149.626 156.64C149.818 156.843 149.951 157.083 150.026 157.36C150.111 157.637 150.154 157.931 150.154 158.24V159.648C150.154 160.064 150.079 160.421 149.93 160.72C149.791 161.008 149.594 161.248 149.338 161.44C149.092 161.632 148.799 161.776 148.458 161.872C148.127 161.957 147.77 162 147.386 162ZM147.514 160.24C147.887 160.24 148.159 160.16 148.33 160C148.511 159.84 148.602 159.621 148.602 159.344V158.656C148.602 158.379 148.527 158.155 148.378 157.984C148.239 157.803 148.004 157.712 147.674 157.712H147.338C147.028 157.712 146.799 157.803 146.65 157.984C146.511 158.165 146.442 158.395 146.442 158.672V159.312C146.442 159.6 146.522 159.829 146.682 160C146.852 160.16 147.13 160.24 147.514 160.24ZM154.248 162C153.949 162 153.661 161.963 153.384 161.888C153.117 161.803 152.883 161.664 152.68 161.472C152.477 161.28 152.317 161.029 152.2 160.72C152.083 160.4 152.024 160.005 152.024 159.536V152.08H153.656V159.136C153.656 159.477 153.731 159.749 153.88 159.952C154.04 160.144 154.275 160.24 154.584 160.24H154.952C155.187 160.24 155.304 160.523 155.304 161.088C155.304 161.696 155.187 162 154.952 162H154.248ZM156.425 160.24C157.14 160.24 157.497 159.893 157.497 159.2V157.312H159.129V159.312C159.129 160.197 158.905 160.869 158.457 161.328C158.009 161.776 157.38 162 156.569 162H154.953C154.814 162 154.724 161.931 154.681 161.792C154.628 161.643 154.601 161.429 154.601 161.152C154.601 160.843 154.628 160.613 154.681 160.464C154.724 160.315 154.814 160.24 154.953 160.24H156.425ZM158.633 155.44H156.825V153.808H158.633V155.44ZM170.891 160.24C171.605 160.24 171.963 159.893 171.963 159.2V157.312H173.595V159.2C173.595 159.573 173.712 159.84 173.947 160C174.181 160.16 174.459 160.24 174.779 160.24H175.099C175.237 160.24 175.328 160.315 175.371 160.464C175.424 160.603 175.451 160.811 175.451 161.088C175.451 161.397 175.424 161.627 175.371 161.776C175.328 161.925 175.237 162 175.099 162H174.715C174.32 162 173.952 161.936 173.611 161.808C173.269 161.669 172.976 161.397 172.731 160.992C172.485 161.397 172.203 161.669 171.883 161.808C171.573 161.936 171.243 162 170.891 162H165.499C165.061 162 164.683 161.936 164.363 161.808C164.053 161.669 163.797 161.488 163.595 161.264C163.403 161.04 163.259 160.779 163.163 160.48C163.077 160.181 163.035 159.867 163.035 159.536V157.264H164.651V159.12C164.651 159.472 164.731 159.749 164.891 159.952C165.051 160.144 165.376 160.24 165.867 160.24H170.891ZM170.283 156.016H168.619V154.448H170.283V156.016ZM167.995 156.016H166.331V154.448H167.995V156.016ZM176.214 160.24C176.928 160.24 177.286 159.893 177.286 159.2V157.312H178.934V159.2C178.934 159.573 179.046 159.84 179.27 160C179.504 160.16 179.776 160.24 180.086 160.24H180.502C180.747 160.24 180.87 160.523 180.87 161.088C180.87 161.696 180.747 162 180.502 162H180.038C179.632 162 179.264 161.936 178.934 161.808C178.603 161.669 178.315 161.397 178.07 160.992C177.803 161.397 177.515 161.669 177.206 161.808C176.896 161.936 176.566 162 176.214 162H175.094C174.955 162 174.864 161.931 174.822 161.792C174.768 161.643 174.742 161.429 174.742 161.152C174.742 160.843 174.768 160.613 174.822 160.464C174.864 160.315 174.955 160.24 175.094 160.24H176.214ZM178.598 165.424H176.79V163.792H178.598V165.424ZM181.972 160.24C182.687 160.24 183.044 159.893 183.044 159.2V157.312H184.676V159.312C184.676 160.197 184.452 160.869 184.004 161.328C183.556 161.776 182.927 162 182.116 162H180.5C180.361 162 180.271 161.931 180.228 161.792C180.175 161.643 180.148 161.429 180.148 161.152C180.148 160.843 180.175 160.613 180.228 160.464C180.271 160.315 180.361 160.24 180.5 160.24H181.972ZM183.604 153.2H181.908V151.648H183.604V153.2ZM184.724 155.44H183.06V153.872H184.724V155.44ZM182.436 155.44H180.772V153.872H182.436V155.44ZM190.326 161.12C189.963 160.789 189.718 160.416 189.59 160C189.472 159.573 189.414 159.2 189.414 158.88C189.414 158.464 189.483 158.075 189.622 157.712C189.76 157.349 189.958 157.035 190.214 156.768C190.47 156.501 190.774 156.293 191.126 156.144C191.488 155.984 191.883 155.904 192.31 155.904C192.694 155.904 193.067 155.968 193.43 156.096C193.792 156.213 194.171 156.405 194.566 156.672L193.862 158.08C193.542 157.931 193.264 157.824 193.03 157.76C192.795 157.696 192.555 157.664 192.31 157.664C191.926 157.664 191.616 157.792 191.382 158.048C191.158 158.293 191.046 158.576 191.046 158.896C191.046 159.301 191.179 159.627 191.446 159.872C191.712 160.117 192.038 160.24 192.422 160.24H194.902L194.806 162H192.518C192.134 162 191.792 162.064 191.494 162.192C191.195 162.32 190.944 162.485 190.742 162.688C190.539 162.901 190.384 163.141 190.278 163.408C190.171 163.685 190.118 163.973 190.118 164.272C190.118 164.581 190.16 164.864 190.246 165.12C190.331 165.387 190.475 165.616 190.678 165.808C190.88 166 191.142 166.149 191.462 166.256C191.782 166.363 192.182 166.416 192.662 166.416H195.398L195.318 168.16H192.646C191.91 168.16 191.275 168.064 190.742 167.872C190.219 167.68 189.787 167.413 189.446 167.072C189.115 166.741 188.87 166.347 188.71 165.888C188.56 165.429 188.486 164.933 188.486 164.4C188.486 163.739 188.63 163.12 188.918 162.544C189.206 161.979 189.675 161.504 190.326 161.12ZM198.195 164.128C198.6 164.128 198.947 164.069 199.235 163.952C199.533 163.845 199.779 163.696 199.971 163.504C200.163 163.312 200.312 163.083 200.419 162.816C200.525 162.56 200.589 162.288 200.611 162H199.523C198.968 162 198.515 161.941 198.163 161.824C197.811 161.707 197.533 161.536 197.331 161.312C197.128 161.077 196.984 160.795 196.899 160.464C196.824 160.133 196.787 159.76 196.787 159.344C196.787 158.928 196.845 158.539 196.963 158.176C197.08 157.803 197.251 157.477 197.475 157.2C197.709 156.923 197.997 156.704 198.339 156.544C198.68 156.373 199.075 156.288 199.523 156.288C199.885 156.288 200.227 156.347 200.547 156.464C200.877 156.581 201.165 156.768 201.411 157.024C201.656 157.28 201.848 157.611 201.987 158.016C202.136 158.421 202.211 158.917 202.211 159.504V161.744C202.211 162.288 202.12 162.811 201.939 163.312C201.757 163.813 201.496 164.251 201.155 164.624C200.824 165.008 200.413 165.312 199.923 165.536C199.432 165.76 198.883 165.872 198.275 165.872H196.659L196.563 164.128H198.195ZM198.355 159.232C198.355 159.605 198.435 159.867 198.595 160.016C198.765 160.165 199.096 160.24 199.587 160.24H200.643V159.488C200.643 158.933 200.536 158.544 200.323 158.32C200.12 158.096 199.832 157.984 199.459 157.984C199.107 157.984 198.835 158.091 198.643 158.304C198.451 158.517 198.355 158.827 198.355 159.232ZM206.868 159.216C206.868 159.557 206.974 159.813 207.188 159.984C207.401 160.155 207.668 160.24 207.988 160.24H208.164C208.398 160.24 208.516 160.523 208.516 161.088C208.516 161.696 208.398 162 208.164 162H207.988C207.774 162 207.556 161.968 207.332 161.904C207.118 161.829 206.937 161.685 206.788 161.472V161.744C206.788 162.32 206.692 162.859 206.5 163.36C206.308 163.861 206.041 164.299 205.7 164.672C205.369 165.045 204.969 165.339 204.5 165.552C204.041 165.765 203.54 165.872 202.996 165.872H202.596L202.468 164.128H202.724C203.172 164.128 203.556 164.059 203.876 163.92C204.196 163.792 204.452 163.616 204.644 163.392C204.846 163.168 204.996 162.912 205.092 162.624C205.188 162.336 205.236 162.043 205.236 161.744V157.312H206.868V159.216ZM208.845 160.24C209.581 160.24 209.949 159.893 209.949 159.2V157.312H211.565V159.2C211.565 159.573 211.677 159.84 211.901 160C212.135 160.16 212.402 160.24 212.701 160.24C213.501 160.24 213.901 159.893 213.901 159.2V157.312H215.533V159.2C215.533 159.573 215.629 159.84 215.821 160C216.023 160.16 216.258 160.24 216.525 160.24C216.845 160.24 217.09 160.155 217.261 159.984C217.442 159.803 217.533 159.541 217.533 159.2V157.312H219.165V159.312C219.165 160.197 218.935 160.869 218.477 161.328C218.029 161.776 217.399 162 216.589 162C216.226 162 215.879 161.936 215.549 161.808C215.218 161.669 214.93 161.397 214.685 160.992C214.429 161.397 214.125 161.669 213.773 161.808C213.431 161.936 213.074 162 212.701 162C212.295 162 211.922 161.936 211.581 161.808C211.25 161.669 210.962 161.397 210.717 160.992C210.461 161.397 210.173 161.669 209.853 161.808C209.533 161.936 209.191 162 208.829 162H208.141C208.002 162 207.911 161.931 207.869 161.792C207.815 161.643 207.789 161.429 207.789 161.152C207.789 160.843 207.815 160.613 207.869 160.464C207.911 160.315 208.002 160.24 208.141 160.24H208.845ZM215.549 153.2H213.853V151.648H215.549V153.2ZM216.669 155.44H215.005V153.872H216.669V155.44ZM214.381 155.44H212.717V153.872H214.381V155.44Z" fill="white"/>
<path d="M105.007 66.72C105.663 66.72 106.239 66.616 106.735 66.408C107.231 66.216 107.639 65.952 107.959 65.616C108.295 65.28 108.551 64.888 108.727 64.44C108.903 63.992 109.007 63.512 109.039 63H106.999C106.183 63 105.511 62.912 104.983 62.736C104.455 62.56 104.039 62.304 103.735 61.968C103.431 61.632 103.215 61.224 103.087 60.744C102.975 60.248 102.919 59.696 102.919 59.088C102.919 58.48 103.007 57.904 103.183 57.36C103.359 56.8 103.615 56.312 103.951 55.896C104.287 55.48 104.703 55.152 105.199 54.912C105.711 54.656 106.303 54.528 106.975 54.528C107.503 54.528 108.007 54.616 108.487 54.792C108.983 54.968 109.415 55.248 109.783 55.632C110.151 56 110.439 56.488 110.647 57.096C110.871 57.704 110.983 58.44 110.983 59.304V62.616C110.983 63.432 110.847 64.216 110.575 64.968C110.319 65.72 109.935 66.376 109.423 66.936C108.927 67.512 108.319 67.968 107.599 68.304C106.879 68.64 106.063 68.808 105.151 68.808H102.655L102.511 66.72H105.007ZM104.791 58.968C104.791 59.656 104.951 60.152 105.271 60.456C105.607 60.744 106.247 60.888 107.191 60.888H109.087V59.4C109.087 58.392 108.887 57.672 108.487 57.24C108.103 56.792 107.559 56.568 106.855 56.568C106.199 56.568 105.687 56.784 105.319 57.216C104.967 57.632 104.791 58.216 104.791 58.968ZM121.08 59.04C121.56 59.04 121.904 58.936 122.112 58.728C122.32 58.504 122.424 58.2 122.424 57.816V56.4H121.32C120.76 56.4 120.384 56.544 120.192 56.832C120.016 57.104 119.928 57.456 119.928 57.888C119.928 58.256 120.008 58.544 120.168 58.752C120.328 58.944 120.632 59.04 121.08 59.04ZM125.352 58.512C125.352 59.312 125.704 59.712 126.408 59.712H127.056C127.264 59.712 127.4 59.84 127.464 60.096C127.544 60.352 127.584 60.752 127.584 61.296C127.584 61.888 127.544 62.32 127.464 62.592C127.4 62.864 127.264 63 127.056 63H126.408C125.544 63 124.864 62.864 124.368 62.592C123.872 62.32 123.488 61.888 123.216 61.296C122.816 61.696 122.368 61.952 121.872 62.064C121.392 62.16 120.92 62.208 120.456 62.208C119.336 62.208 118.48 61.856 117.888 61.152C117.312 60.448 117.024 59.432 117.024 58.104C117.024 57.512 117.104 56.936 117.264 56.376C117.44 55.8 117.688 55.288 118.008 54.84C118.344 54.392 118.76 54.032 119.256 53.76C119.752 53.488 120.328 53.352 120.984 53.352H122.424V51.768H125.352V58.512ZM127.963 59.712C128.267 59.712 128.515 59.72 128.707 59.736C128.915 59.736 129.099 59.752 129.259 59.784C129.435 59.816 129.603 59.856 129.763 59.904C129.923 59.952 130.115 60.016 130.339 60.096C129.683 59.696 129.251 59.216 129.043 58.656C128.851 58.096 128.755 57.392 128.755 56.544C128.755 56.112 128.835 55.672 128.995 55.224C129.171 54.76 129.427 54.344 129.763 53.976C130.099 53.608 130.515 53.304 131.011 53.064C131.507 52.824 132.083 52.704 132.739 52.704C133.363 52.704 133.931 52.784 134.443 52.944C134.971 53.104 135.419 53.368 135.787 53.736C136.155 54.104 136.443 54.592 136.651 55.2C136.859 55.808 136.963 56.56 136.963 57.456V58.776C136.963 60.104 136.587 61.144 135.835 61.896C135.099 62.632 133.931 63 132.331 63H127.051C126.843 63 126.707 62.872 126.643 62.616C126.563 62.344 126.523 61.944 126.523 61.416C126.523 60.808 126.563 60.376 126.643 60.12C126.707 59.848 126.843 59.712 127.051 59.712H127.963ZM132.667 56.016C132.235 56.016 131.939 56.144 131.779 56.4C131.619 56.656 131.539 56.92 131.539 57.192C131.539 57.352 131.563 57.512 131.611 57.672C131.659 57.816 131.763 57.976 131.923 58.152C132.083 58.328 132.315 58.52 132.619 58.728C132.939 58.936 133.355 59.176 133.867 59.448C133.947 59.32 133.995 59.136 134.011 58.896C134.027 58.64 134.035 58.424 134.035 58.248V57.72C134.035 57.496 134.011 57.28 133.963 57.072C133.931 56.864 133.859 56.688 133.747 56.544C133.651 56.384 133.515 56.256 133.339 56.16C133.163 56.064 132.939 56.016 132.667 56.016ZM134.323 50.976H131.155V48.072H134.323V50.976ZM142.912 62.616C142.912 63.432 142.768 64.216 142.48 64.968C142.208 65.72 141.816 66.376 141.304 66.936C140.808 67.512 140.208 67.968 139.504 68.304C138.816 68.64 138.056 68.808 137.224 68.808H135.64L135.52 65.52H136.432C137.104 65.52 137.672 65.432 138.136 65.256C138.584 65.096 138.944 64.88 139.216 64.608C139.504 64.336 139.704 64.024 139.816 63.672C139.944 63.336 140.008 62.984 140.008 62.616V55.872H143.056V58.368C143.056 58.832 143.192 59.176 143.464 59.4C143.752 59.608 144.096 59.712 144.496 59.712H144.76C145.112 59.712 145.288 60.24 145.288 61.296C145.288 62.432 145.112 63 144.76 63H144.496C144.224 63 143.944 62.96 143.656 62.88C143.384 62.784 143.136 62.6 142.912 62.328V62.616ZM151.634 59.712C152.754 57.728 153.826 56.264 154.85 55.32C155.874 54.36 156.914 53.88 157.97 53.88C158.626 53.88 159.218 54 159.746 54.24C160.274 54.464 160.714 54.784 161.066 55.2C161.434 55.616 161.714 56.112 161.906 56.688C162.098 57.248 162.194 57.856 162.194 58.512C162.194 59.072 162.106 59.624 161.93 60.168C161.77 60.696 161.506 61.176 161.138 61.608C160.786 62.024 160.338 62.36 159.794 62.616C159.25 62.872 158.594 63 157.826 63H151.49C150.898 63 150.346 62.912 149.834 62.736C149.322 62.544 148.866 62.144 148.466 61.536C148.066 62.144 147.634 62.544 147.17 62.736C146.706 62.912 146.21 63 145.682 63H144.77C144.562 63 144.426 62.872 144.362 62.616C144.282 62.344 144.242 61.944 144.242 61.416C144.242 60.808 144.282 60.376 144.362 60.12C144.426 59.848 144.562 59.712 144.77 59.712H145.682C146.578 59.712 147.026 59.264 147.026 58.368V55.872H150.05V58.368C150.05 58.832 150.194 59.176 150.482 59.4C150.786 59.608 151.17 59.712 151.634 59.712ZM159.146 58.512C159.146 58.384 159.122 58.248 159.074 58.104C159.026 57.944 158.938 57.8 158.81 57.672C158.698 57.528 158.546 57.416 158.354 57.336C158.178 57.24 157.962 57.192 157.706 57.192C157.306 57.192 156.866 57.384 156.386 57.768C155.906 58.136 155.338 58.784 154.682 59.712H157.97C158.37 59.712 158.666 59.6 158.858 59.376C159.05 59.136 159.146 58.848 159.146 58.512ZM171.658 59.04C172.138 59.04 172.482 58.936 172.69 58.728C172.898 58.504 173.002 58.2 173.002 57.816V56.4H171.898C171.338 56.4 170.962 56.544 170.77 56.832C170.594 57.104 170.506 57.456 170.506 57.888C170.506 58.256 170.586 58.544 170.746 58.752C170.906 58.944 171.21 59.04 171.658 59.04ZM175.93 58.512C175.93 59.312 176.282 59.712 176.986 59.712H177.634C177.842 59.712 177.978 59.84 178.042 60.096C178.122 60.352 178.162 60.752 178.162 61.296C178.162 61.888 178.122 62.32 178.042 62.592C177.978 62.864 177.842 63 177.634 63H176.986C176.122 63 175.442 62.864 174.946 62.592C174.45 62.32 174.066 61.888 173.794 61.296C173.394 61.696 172.946 61.952 172.45 62.064C171.97 62.16 171.498 62.208 171.034 62.208C169.914 62.208 169.058 61.856 168.466 61.152C167.89 60.448 167.602 59.432 167.602 58.104C167.602 57.512 167.682 56.936 167.842 56.376C168.018 55.8 168.266 55.288 168.586 54.84C168.922 54.392 169.338 54.032 169.834 53.76C170.33 53.488 170.906 53.352 171.562 53.352H173.002V51.768H175.93V58.512ZM179.885 59.712C180.349 59.712 180.677 59.608 180.869 59.4C181.077 59.176 181.181 58.832 181.181 58.368V55.872H184.229V58.632C184.229 60.088 183.877 61.184 183.173 61.92C182.485 62.64 181.477 63 180.149 63H177.629C177.421 63 177.285 62.872 177.221 62.616C177.141 62.344 177.101 61.944 177.101 61.416C177.101 60.808 177.141 60.376 177.221 60.12C177.285 59.848 177.421 59.712 177.629 59.712H179.885ZM181.325 68.52H178.157V65.616H181.325V68.52ZM193.245 62.616C193.245 63.512 193.093 64.336 192.789 65.088C192.501 65.856 192.101 66.512 191.589 67.056C191.077 67.616 190.469 68.048 189.765 68.352C189.061 68.656 188.301 68.808 187.485 68.808H186.021L185.901 66.72H187.005C187.773 66.72 188.429 66.6 188.973 66.36C189.501 66.136 189.933 65.832 190.269 65.448C190.621 65.064 190.877 64.624 191.037 64.128C191.197 63.648 191.277 63.144 191.277 62.616V56.064H193.245V62.616ZM193.317 53.112H190.965V51.048H193.317V53.112ZM193.49 66.72H193.922C194.658 66.72 195.282 66.6 195.794 66.36C196.322 66.136 196.754 65.832 197.09 65.448C197.426 65.064 197.674 64.624 197.834 64.128C197.994 63.648 198.074 63.144 198.074 62.616V56.064H200.042V62.616C200.042 63.512 199.89 64.336 199.586 65.088C199.298 65.856 198.89 66.512 198.362 67.056C197.85 67.616 197.242 68.048 196.538 68.352C195.85 68.656 195.098 68.808 194.282 68.808H193.658L193.49 66.72ZM202.956 48.12H204.924V63H202.956V48.12ZM224.322 62.448C224.322 63.328 224.178 64.152 223.89 64.92C223.618 65.704 223.226 66.384 222.714 66.96C222.202 67.536 221.578 67.984 220.842 68.304C220.106 68.64 219.282 68.808 218.37 68.808H216.906C215.114 68.808 213.722 68.256 212.73 67.152C211.738 66.048 211.242 64.536 211.242 62.616V58.368H213.186V62.544C213.186 63.792 213.498 64.8 214.122 65.568C214.746 66.336 215.77 66.72 217.194 66.72H218.25C218.97 66.72 219.586 66.608 220.098 66.384C220.626 66.16 221.058 65.856 221.394 65.472C221.73 65.088 221.978 64.64 222.138 64.128C222.298 63.616 222.378 63.08 222.378 62.52V48.12H224.322V62.448ZM235.918 57.144C236.334 57.624 236.638 58.104 236.83 58.584C237.022 59.048 237.118 59.504 237.118 59.952C237.118 60.384 237.038 60.784 236.878 61.152C236.718 61.52 236.486 61.84 236.182 62.112C235.894 62.384 235.526 62.6 235.078 62.76C234.63 62.92 234.118 63 233.542 63H226.966L226.846 60.888H233.254C233.766 60.888 234.158 60.776 234.43 60.552C234.702 60.312 234.838 60.008 234.838 59.64C234.838 59.224 234.654 58.816 234.286 58.416L230.014 53.544L231.55 52.104L235.918 57.144ZM243.157 63C242.725 63 242.309 62.944 241.909 62.832C241.509 62.704 241.157 62.496 240.853 62.208C240.565 61.92 240.333 61.544 240.157 61.08C239.981 60.6 239.893 60.008 239.893 59.304V48.12H241.861V58.872C241.861 59.48 241.989 59.968 242.245 60.336C242.517 60.704 242.941 60.888 243.517 60.888H243.997C244.349 60.888 244.525 61.232 244.525 61.92C244.525 62.64 244.349 63 243.997 63H243.157ZM245.756 60.888C247.004 60.888 247.628 60.304 247.628 59.136V56.064H249.596V59.136C249.596 59.456 249.644 59.728 249.74 59.952C249.852 60.176 249.996 60.36 250.172 60.504C250.348 60.632 250.548 60.728 250.772 60.792C251.012 60.856 251.252 60.888 251.492 60.888H252.164C252.532 60.888 252.716 61.232 252.716 61.92C252.716 62.64 252.532 63 252.164 63H251.42C250.844 63 250.3 62.896 249.788 62.688C249.292 62.48 248.876 62.072 248.54 61.464C248.172 62.072 247.748 62.48 247.268 62.688C246.804 62.896 246.3 63 245.756 63H244.004C243.796 63 243.66 62.92 243.596 62.76C243.516 62.584 243.476 62.328 243.476 61.992C243.476 61.608 243.516 61.328 243.596 61.152C243.66 60.976 243.796 60.888 244.004 60.888H245.756ZM249.188 67.8H246.836V65.736H249.188V67.8ZM254.344 60.888C254.92 60.888 255.368 60.736 255.688 60.432C256.024 60.128 256.192 59.696 256.192 59.136V56.064H258.16V59.232C258.16 60.448 257.832 61.384 257.176 62.04C256.536 62.68 255.64 63 254.488 63H252.16C251.952 63 251.816 62.92 251.752 62.76C251.672 62.584 251.632 62.328 251.632 61.992C251.632 61.608 251.672 61.328 251.752 61.152C251.816 60.976 251.952 60.888 252.16 60.888H254.344ZM258.328 53.112H256.144V51.096H258.328V53.112ZM255.112 53.112H252.928V51.096H255.112V53.112ZM92.4448 97.888C93.0848 97.888 93.5328 97.752 93.7888 97.48C94.0448 97.208 94.1728 96.944 94.1728 96.688C94.1728 96.544 94.1408 96.352 94.0768 96.112C94.0288 95.872 93.9248 95.504 93.7648 95.008C93.6048 94.512 93.3728 93.848 93.0688 93.016C92.7648 92.168 92.3728 91.072 91.8928 89.728L93.7648 88.96L96.2848 96.088C96.5088 96.744 96.7728 97.208 97.0768 97.48C97.3808 97.752 97.8288 97.888 98.4208 97.888H98.7328C99.0848 97.888 99.2608 98.232 99.2608 98.92C99.2608 99.64 99.0848 100 98.7328 100H98.4208C97.8928 100 97.3808 99.904 96.8848 99.712C96.4048 99.52 95.9648 99.096 95.5648 98.44C95.2288 99.048 94.8048 99.464 94.2928 99.688C93.7968 99.896 93.2528 100 92.6608 100H87.5008L87.3808 97.888H92.4448ZM100.479 97.888C101.727 97.888 102.351 97.304 102.351 96.136V93.064H104.319V96.136C104.319 96.456 104.367 96.728 104.463 96.952C104.575 97.176 104.719 97.36 104.895 97.504C105.071 97.632 105.271 97.728 105.495 97.792C105.735 97.856 105.975 97.888 106.215 97.888H106.887C107.255 97.888 107.439 98.232 107.439 98.92C107.439 99.64 107.255 100 106.887 100H106.143C105.567 100 105.023 99.896 104.511 99.688C104.015 99.48 103.599 99.072 103.263 98.464C102.895 99.072 102.471 99.48 101.991 99.688C101.527 99.896 101.023 100 100.479 100H98.7266C98.5186 100 98.3826 99.92 98.3186 99.76C98.2386 99.584 98.1986 99.328 98.1986 98.992C98.1986 98.608 98.2386 98.328 98.3186 98.152C98.3826 97.976 98.5186 97.888 98.7266 97.888H100.479ZM105.447 104.752H103.335V102.736H105.447V104.752ZM102.183 104.752H100.047V102.736H102.183V104.752ZM108.635 97.888C109.883 97.888 110.507 97.304 110.507 96.136V93.064H112.475V96.136C112.475 96.456 112.523 96.728 112.619 96.952C112.731 97.176 112.875 97.36 113.051 97.504C113.227 97.632 113.427 97.728 113.651 97.792C113.891 97.856 114.131 97.888 114.371 97.888H115.043C115.411 97.888 115.595 98.232 115.595 98.92C115.595 99.64 115.411 100 115.043 100H114.299C113.723 100 113.179 99.896 112.667 99.688C112.171 99.48 111.755 99.072 111.419 98.464C111.051 99.072 110.627 99.48 110.147 99.688C109.683 99.896 109.179 100 108.635 100H106.883C106.675 100 106.539 99.92 106.475 99.76C106.395 99.584 106.355 99.328 106.355 98.992C106.355 98.608 106.395 98.328 106.475 98.152C106.539 97.976 106.675 97.888 106.883 97.888H108.635ZM112.475 90.112H110.123V88.048H112.475V90.112ZM121.183 97.888C121.775 97.888 122.183 97.768 122.407 97.528C122.631 97.288 122.743 96.992 122.743 96.64C122.743 96.384 122.695 96.12 122.599 95.848C122.519 95.56 122.295 95.232 121.927 94.864L117.031 89.992V87.808L124.999 84.736L125.455 86.704L118.975 89.176L122.935 93.16C123.319 93.56 123.631 93.92 123.871 94.24C124.127 94.56 124.327 94.872 124.471 95.176C124.615 95.464 124.711 95.752 124.759 96.04C124.823 96.328 124.855 96.624 124.855 96.928C124.855 97.472 124.767 97.936 124.591 98.32C124.415 98.704 124.175 99.024 123.871 99.28C123.567 99.52 123.199 99.704 122.767 99.832C122.351 99.944 121.895 100 121.399 100H115.039C114.831 100 114.695 99.92 114.631 99.76C114.551 99.584 114.511 99.328 114.511 98.992C114.511 98.608 114.551 98.328 114.631 98.152C114.695 97.976 114.831 97.888 115.039 97.888H121.183ZM133.838 98.896C133.534 98.64 133.286 98.36 133.094 98.056C132.902 97.736 132.75 97.416 132.638 97.096C132.526 96.776 132.446 96.472 132.398 96.184C132.35 95.88 132.326 95.608 132.326 95.368C132.326 94.76 132.43 94.192 132.638 93.664C132.846 93.136 133.134 92.68 133.502 92.296C133.87 91.912 134.31 91.608 134.822 91.384C135.35 91.16 135.926 91.048 136.55 91.048C137.11 91.048 137.654 91.136 138.182 91.312C138.71 91.488 139.278 91.776 139.886 92.176L139.046 93.856C138.534 93.6 138.086 93.424 137.702 93.328C137.334 93.216 136.95 93.16 136.55 93.16C136.214 93.16 135.902 93.224 135.614 93.352C135.342 93.48 135.102 93.648 134.894 93.856C134.702 94.048 134.55 94.28 134.438 94.552C134.342 94.824 134.294 95.104 134.294 95.392C134.294 95.728 134.35 96.048 134.462 96.352C134.59 96.64 134.75 96.904 134.942 97.144C135.15 97.368 135.39 97.552 135.662 97.696C135.934 97.824 136.222 97.888 136.526 97.888H140.462L140.318 100H136.574C135.982 100 135.454 100.096 134.99 100.288C134.526 100.496 134.134 100.768 133.814 101.104C133.494 101.44 133.246 101.824 133.07 102.256C132.91 102.688 132.83 103.136 132.83 103.6C132.83 104.688 133.142 105.552 133.766 106.192C134.39 106.832 135.462 107.152 136.982 107.152H141.182L141.062 109.24H136.91C135.806 109.24 134.87 109.096 134.102 108.808C133.334 108.52 132.71 108.128 132.23 107.632C131.766 107.152 131.422 106.576 131.198 105.904C130.99 105.232 130.886 104.512 130.886 103.744C130.886 102.736 131.126 101.8 131.606 100.936C132.086 100.088 132.83 99.408 133.838 98.896ZM145.543 103.72C146.199 103.72 146.775 103.616 147.271 103.408C147.767 103.216 148.175 102.952 148.495 102.616C148.831 102.28 149.087 101.888 149.263 101.44C149.439 100.992 149.543 100.512 149.575 100H147.535C146.719 100 146.047 99.912 145.519 99.736C144.991 99.56 144.575 99.304 144.271 98.968C143.967 98.632 143.751 98.224 143.623 97.744C143.511 97.248 143.455 96.696 143.455 96.088C143.455 95.48 143.543 94.904 143.719 94.36C143.895 93.8 144.151 93.312 144.487 92.896C144.823 92.48 145.239 92.152 145.735 91.912C146.247 91.656 146.839 91.528 147.511 91.528C148.039 91.528 148.543 91.616 149.023 91.792C149.519 91.968 149.951 92.248 150.319 92.632C150.687 93 150.975 93.488 151.183 94.096C151.407 94.704 151.519 95.44 151.519 96.304V99.616C151.519 100.432 151.383 101.216 151.111 101.968C150.855 102.72 150.471 103.376 149.959 103.936C149.463 104.512 148.855 104.968 148.135 105.304C147.415 105.64 146.599 105.808 145.687 105.808H143.191L143.047 103.72H145.543ZM145.327 95.968C145.327 96.656 145.487 97.152 145.807 97.456C146.143 97.744 146.783 97.888 147.727 97.888H149.623V96.4C149.623 95.392 149.423 94.672 149.023 94.24C148.639 93.792 148.095 93.568 147.391 93.568C146.735 93.568 146.223 93.784 145.855 94.216C145.503 94.632 145.327 95.216 145.327 95.968ZM158.288 96.208C158.288 96.736 158.456 97.152 158.792 97.456C159.144 97.744 159.592 97.888 160.136 97.888H160.4C160.752 97.888 160.928 98.232 160.928 98.92C160.928 99.64 160.752 100 160.4 100H160.136C159.784 100 159.432 99.936 159.08 99.808C158.728 99.68 158.432 99.448 158.192 99.112V99.616C158.192 100.512 158.048 101.336 157.76 102.088C157.472 102.856 157.072 103.512 156.56 104.056C156.064 104.616 155.472 105.048 154.784 105.352C154.096 105.656 153.344 105.808 152.528 105.808H151.904L151.736 103.72H152.168C152.904 103.72 153.528 103.6 154.04 103.36C154.568 103.136 155 102.832 155.336 102.448C155.672 102.064 155.92 101.624 156.08 101.128C156.24 100.648 156.32 100.144 156.32 99.616V93.064H158.288V96.208ZM161.351 97.888C162.615 97.888 163.247 97.304 163.247 96.136V93.064H165.215V96.136C165.215 96.456 165.271 96.728 165.383 96.952C165.495 97.176 165.639 97.36 165.815 97.504C165.991 97.632 166.191 97.728 166.415 97.792C166.655 97.856 166.895 97.888 167.135 97.888C168.511 97.888 169.199 97.304 169.199 96.136V93.064H171.167V96.136C171.167 96.792 171.335 97.248 171.671 97.504C172.023 97.76 172.431 97.888 172.895 97.888C173.439 97.888 173.871 97.736 174.191 97.432C174.511 97.128 174.671 96.696 174.671 96.136V93.064H176.639V96.232C176.639 97.448 176.311 98.384 175.655 99.04C174.999 99.68 174.103 100 172.967 100C172.407 100 171.871 99.896 171.359 99.688C170.863 99.48 170.447 99.072 170.111 98.464C169.743 99.072 169.295 99.48 168.767 99.688C168.239 99.896 167.695 100 167.135 100C166.527 100 165.959 99.896 165.431 99.688C164.919 99.48 164.495 99.072 164.159 98.464C163.791 99.072 163.359 99.48 162.863 99.688C162.367 99.896 161.839 100 161.279 100H160.391C160.183 100 160.047 99.92 159.983 99.76C159.903 99.584 159.863 99.328 159.863 98.992C159.863 98.608 159.903 98.328 159.983 98.152C160.047 97.976 160.183 97.888 160.391 97.888H161.351ZM171.287 87.016H169.079V85.024H171.287V87.016ZM172.871 90.112H170.687V88.096H172.871V90.112ZM169.655 90.112H167.471V88.096H169.655V90.112ZM186.356 100C185.924 100 185.508 99.944 185.108 99.832C184.708 99.704 184.356 99.496 184.052 99.208C183.764 98.92 183.532 98.544 183.356 98.08C183.18 97.6 183.092 97.008 183.092 96.304V85.12H185.06V95.872C185.06 96.48 185.188 96.968 185.444 97.336C185.716 97.704 186.14 97.888 186.716 97.888H187.196C187.548 97.888 187.724 98.232 187.724 98.92C187.724 99.64 187.548 100 187.196 100H186.356ZM187.515 97.888C188.731 97.888 189.339 97.376 189.339 96.352V95.608C189.339 94.248 189.691 93.176 190.395 92.392C191.115 91.592 192.107 91.192 193.371 91.192C194.027 91.192 194.603 91.304 195.099 91.528C195.595 91.736 196.011 92.032 196.347 92.416C196.683 92.8 196.931 93.264 197.091 93.808C197.267 94.336 197.355 94.92 197.355 95.56C197.355 96.968 196.995 98.064 196.275 98.848C195.555 99.616 194.563 100 193.299 100C192.659 100 192.043 99.88 191.451 99.64C190.875 99.384 190.427 98.96 190.107 98.368C189.963 98.704 189.787 98.984 189.579 99.208C189.371 99.416 189.155 99.584 188.931 99.712C188.707 99.824 188.467 99.904 188.211 99.952C187.971 99.984 187.739 100 187.515 100H187.203C186.995 100 186.859 99.92 186.795 99.76C186.715 99.584 186.675 99.328 186.675 98.992C186.675 98.608 186.715 98.328 186.795 98.152C186.859 97.976 186.995 97.888 187.203 97.888H187.515ZM195.435 95.704C195.435 95 195.275 94.424 194.955 93.976C194.651 93.528 194.107 93.304 193.323 93.304C192.603 93.304 192.067 93.52 191.715 93.952C191.379 94.384 191.211 94.992 191.211 95.776C191.211 96.48 191.403 97.008 191.787 97.36C192.187 97.712 192.691 97.888 193.299 97.888C194.019 97.888 194.555 97.704 194.907 97.336C195.259 96.952 195.435 96.408 195.435 95.704ZM207.052 100C206.62 100 206.204 99.944 205.804 99.832C205.404 99.704 205.052 99.496 204.748 99.208C204.46 98.92 204.228 98.544 204.052 98.08C203.876 97.6 203.788 97.008 203.788 96.304V85.12H205.756V95.872C205.756 96.48 205.884 96.968 206.14 97.336C206.412 97.704 206.836 97.888 207.412 97.888H207.892C208.244 97.888 208.42 98.232 208.42 98.92C208.42 99.64 208.244 100 207.892 100H207.052ZM210.082 97.888C210.658 97.888 211.106 97.736 211.426 97.432C211.762 97.128 211.93 96.696 211.93 96.136V93.064H213.898V96.232C213.898 97.448 213.57 98.384 212.914 99.04C212.274 99.68 211.378 100 210.226 100H207.898C207.69 100 207.554 99.92 207.49 99.76C207.41 99.584 207.37 99.328 207.37 98.992C207.37 98.608 207.41 98.328 207.49 98.152C207.554 97.976 207.69 97.888 207.898 97.888H210.082ZM211.186 104.8H208.834V102.736H211.186V104.8ZM220.358 85.12H222.326V100H220.358V85.12ZM228.202 99.616C228.202 100.512 228.05 101.336 227.746 102.088C227.458 102.856 227.058 103.512 226.546 104.056C226.034 104.616 225.426 105.048 224.722 105.352C224.018 105.656 223.258 105.808 222.442 105.808H220.978L220.858 103.72H221.962C222.73 103.72 223.386 103.6 223.93 103.36C224.458 103.136 224.89 102.832 225.226 102.448C225.578 102.064 225.834 101.624 225.994 101.128C226.154 100.648 226.234 100.144 226.234 99.616V93.064H228.202V99.616ZM248.91 100C248.638 100 248.358 99.96 248.07 99.88C247.798 99.784 247.55 99.6 247.326 99.328V99.472C247.326 100.368 247.19 101.2 246.918 101.968C246.646 102.736 246.254 103.4 245.742 103.96C245.23 104.536 244.606 104.984 243.87 105.304C243.134 105.64 242.302 105.808 241.374 105.808H239.79C237.998 105.808 236.606 105.256 235.614 104.152C234.622 103.048 234.126 101.536 234.126 99.616V95.248H237.15V99.472C237.15 99.936 237.198 100.352 237.294 100.72C237.39 101.104 237.55 101.424 237.774 101.68C238.014 101.952 238.326 102.16 238.71 102.304C239.11 102.448 239.606 102.52 240.198 102.52H241.254C241.878 102.52 242.39 102.432 242.79 102.256C243.206 102.096 243.534 101.864 243.774 101.56C244.014 101.272 244.182 100.936 244.278 100.552C244.374 100.168 244.422 99.76 244.422 99.328V92.872H247.446V95.368C247.446 95.832 247.59 96.176 247.878 96.4C248.166 96.608 248.51 96.712 248.91 96.712H249.174C249.526 96.712 249.702 97.24 249.702 98.296C249.702 99.432 249.526 100 249.174 100H248.91ZM241.902 92.608H238.734V89.704H241.902V92.608ZM249.292 96.712C249.772 96.712 250.156 96.632 250.444 96.472C250.732 96.296 250.876 95.976 250.876 95.512V95.248C250.876 94.624 250.972 94.048 251.164 93.52C251.356 92.976 251.628 92.512 251.98 92.128C252.332 91.744 252.764 91.44 253.276 91.216C253.788 90.992 254.356 90.88 254.98 90.88C255.636 90.88 256.22 90.992 256.732 91.216C257.244 91.44 257.668 91.744 258.004 92.128C258.356 92.512 258.62 92.976 258.796 93.52C258.988 94.048 259.084 94.624 259.084 95.248V95.512C259.084 95.752 259.132 95.952 259.228 96.112C259.324 96.256 259.444 96.376 259.588 96.472C259.732 96.552 259.884 96.616 260.044 96.664C260.22 96.696 260.38 96.712 260.524 96.712H260.788C260.996 96.712 261.132 96.84 261.196 97.096C261.276 97.352 261.316 97.752 261.316 98.296C261.316 98.888 261.276 99.32 261.196 99.592C261.132 99.864 260.996 100 260.788 100H260.524C260.06 100 259.588 99.904 259.108 99.712C258.644 99.504 258.22 99.112 257.836 98.536C257.388 99.144 256.908 99.544 256.396 99.736C255.884 99.912 255.372 100 254.86 100C254.236 100 253.652 99.872 253.108 99.616C252.564 99.36 252.156 99 251.884 98.536C251.58 99.08 251.188 99.464 250.708 99.688C250.228 99.896 249.756 100 249.292 100H249.172C248.964 100 248.828 99.872 248.764 99.616C248.684 99.344 248.644 98.944 248.644 98.416C248.644 97.808 248.684 97.376 248.764 97.12C248.828 96.848 248.964 96.712 249.172 96.712H249.292ZM256.156 95.512C256.156 95.176 256.076 94.872 255.916 94.6C255.756 94.328 255.444 94.192 254.98 94.192C254.516 94.192 254.204 94.328 254.044 94.6C253.884 94.872 253.804 95.176 253.804 95.512C253.804 96.312 254.196 96.712 254.98 96.712C255.764 96.712 256.156 96.312 256.156 95.512ZM263.053 96.712C263.517 96.712 263.845 96.608 264.037 96.4C264.245 96.176 264.349 95.832 264.349 95.368V92.872H267.397V95.632C267.397 97.088 267.045 98.184 266.341 98.92C265.653 99.64 264.645 100 263.317 100H260.797C260.589 100 260.453 99.872 260.389 99.616C260.309 99.344 260.269 98.944 260.269 98.416C260.269 97.808 260.309 97.376 260.389 97.12C260.453 96.848 260.589 96.712 260.797 96.712H263.053ZM267.253 105.4H264.349V102.616H267.253V105.4ZM263.557 105.4H260.653V102.616H263.557V105.4ZM270.042 85.12H273.09V100H270.042V85.12Z" fill="#2E2EE5"/>
</g>
<defs>
<clipPath id="clip0_1_3054">
<rect width="360" height="212" fill="white"/>
</clipPath>
</defs>
</svg>
