<svg width="32" height="33" viewBox="0 0 32 33" fill="none" xmlns="http://www.w3.org/2000/svg">
<path fill-rule="evenodd" clip-rule="evenodd" d="M22.3351 16.5C22.3351 15.9477 21.8874 15.5 21.3351 15.5H14.3322C13.7799 15.5 13.3322 15.9477 13.3322 16.5C13.3322 17.0523 13.7799 17.5 14.3322 17.5H21.3351C21.8874 17.5 22.3351 17.0523 22.3351 16.5Z" fill="white"/>
<path fill-rule="evenodd" clip-rule="evenodd" d="M13.3325 22.1667C13.3325 21.6144 13.7802 21.1667 14.3325 21.1667H21.3354C21.8877 21.1667 22.3354 21.6144 22.3354 22.1667C22.3354 22.7189 21.8877 23.1667 21.3354 23.1667H14.3325C13.7802 23.1667 13.3325 22.7189 13.3325 22.1667Z" fill="white"/>
<path fill-rule="evenodd" clip-rule="evenodd" d="M13.3326 10.8333C13.3326 10.2811 13.7804 9.83334 14.3326 9.83334H21.3356C21.8878 9.83334 22.3356 10.2811 22.3356 10.8333C22.3356 11.3856 21.8878 11.8333 21.3356 11.8333H14.3326C13.7804 11.8333 13.3326 11.3856 13.3326 10.8333Z" fill="white"/>
<rect x="3.995" y="4.495" width="24.01" height="24.01" rx="6.66667" stroke="white" stroke-width="2" stroke-linecap="round" stroke-linejoin="round"/>
</svg>
