<svg width="70" height="77" viewBox="0 0 70 77" fill="none" xmlns="http://www.w3.org/2000/svg">
<rect x="2.99994" y="13" width="64" height="64" rx="32" fill="#E6E6F2"/>
<g filter="url(#filter0_d_1_4101)">
<path d="M37.3233 8.43466C30.3632 7.82573 24.2098 12.9891 23.6009 19.9492C23.0036 26.7764 27.8597 32.7691 34.7989 33.6171C35.0137 33.6092 35.2263 33.6278 35.3833 33.6683C35.4365 33.6729 35.463 33.6752 35.5162 33.6799C35.5427 33.6822 35.5427 33.6822 35.5693 33.6845C42.3909 34.0404 48.2139 28.982 48.8378 22.1571C49.4467 15.197 44.2834 9.04359 37.3233 8.43466Z" fill="#2626BF"/>
<path d="M47.9943 41.892C41.0149 36.3024 28.9278 35.2449 21.0306 39.533C17.4593 41.4958 15.3325 44.3881 15.0466 47.6557C14.7607 50.9232 16.3553 54.1143 19.5073 56.6386C23.008 59.4611 27.7867 61.1373 32.6747 61.565C37.5627 61.9926 42.56 61.1717 46.4976 59C50.0423 57.0348 52.1668 54.169 52.455 50.8749C52.7143 47.6051 51.1463 44.4163 47.9943 41.892ZM38.8872 51.7491L35.5666 51.4586L35.2761 54.7792C35.1808 55.8684 34.1985 56.6926 33.1094 56.5973C32.0202 56.502 31.196 55.5198 31.2913 54.4306L31.5818 51.1099L28.2611 50.8194C27.172 50.7241 26.3478 49.7419 26.4431 48.6527C26.5384 47.5636 27.5206 46.7394 28.6098 46.8346L31.9304 47.1252L32.2209 43.8045C32.3162 42.7153 33.2985 41.8912 34.3876 41.9864C35.4768 42.0817 36.301 43.064 36.2057 44.1531L35.9152 47.4738L39.2358 47.7643C40.325 47.8596 41.1492 48.8418 41.0539 49.931C40.9586 51.0202 39.9764 51.8444 38.8872 51.7491Z" fill="#2626BF"/>
</g>
<defs>
<filter id="filter0_d_1_4101" x="-5.66803" y="-2.66736" width="81.3344" height="81.3345" filterUnits="userSpaceOnUse" color-interpolation-filters="sRGB">
<feFlood flood-opacity="0" result="BackgroundImageFix"/>
<feColorMatrix in="SourceAlpha" type="matrix" values="0 0 0 0 0 0 0 0 0 0 0 0 0 0 0 0 0 0 127 0" result="hardAlpha"/>
<feOffset dy="3"/>
<feGaussianBlur stdDeviation="3"/>
<feComposite in2="hardAlpha" operator="out"/>
<feColorMatrix type="matrix" values="0 0 0 0 0.0588235 0 0 0 0 0.0666667 0 0 0 0 0.0784314 0 0 0 0.24 0"/>
<feBlend mode="normal" in2="BackgroundImageFix" result="effect1_dropShadow_1_4101"/>
<feBlend mode="normal" in="SourceGraphic" in2="effect1_dropShadow_1_4101" result="shape"/>
</filter>
</defs>
</svg>
