<svg width="44" height="44" viewBox="0 0 44 44" fill="none" xmlns="http://www.w3.org/2000/svg">
<g clip-path="url(#clip0_1_5230)">
<path d="M22.0026 41.9999C33.0476 41.9999 42.0014 33.0462 42.0014 22.0012C42.0014 10.9562 33.0476 2.00244 22.0026 2.00244C10.9576 2.00244 2.00391 10.9562 2.00391 22.0012C2.00391 33.0462 10.9576 41.9999 22.0026 41.9999Z" fill="white"/>
<path d="M40.8571 15.3315C40.8553 15.3251 40.8533 15.3198 40.8508 15.3141C38.2914 8.09685 31.7073 2.78688 23.7969 2.08203C26.8578 3.76009 26.8707 40.2316 23.7969 41.9167C31.7218 41.2106 38.3151 35.8824 40.8647 28.6465C40.8713 28.6266 40.8771 28.6076 40.884 28.589C41.6043 26.5254 42.0003 24.3091 42.0003 22.0001C42 19.6606 41.5948 17.4172 40.8571 15.3315Z" fill="#D02027"/>
<path d="M29.5639 15.3314C28.7808 9.07669 26.857 3.76014 23.7958 2.08208C23.2271 2.03217 22.6517 2.00439 22.0707 2.00186C22.0467 2.00186 22.0233 2 21.999 2C13.2988 2 5.90028 7.55655 3.14886 15.3141C3.147 15.3198 3.14506 15.3252 3.14253 15.3315C2.40492 17.4172 1.99976 19.6606 1.99976 21.9998C1.99976 24.3092 2.39639 26.525 3.11601 28.5887C3.12268 28.6074 3.12893 28.6263 3.13527 28.6462C5.87571 36.423 13.2849 41.9992 21.999 41.9992C22.023 41.9992 22.0464 41.9979 22.0707 41.9973C22.6517 41.9954 23.2271 41.9676 23.7958 41.9165C26.8696 40.2315 28.7972 34.8774 29.5737 28.5888C30.1024 24.3108 30.0989 19.6037 29.5639 15.3314Z" fill="#DB2727"/>
<path d="M16.3809 22.1099C16.3809 19.3986 18.579 17.2003 21.291 17.2003C22.2033 17.2003 23.0569 17.4495 23.7888 17.8831C22.7152 16.8224 21.2398 16.1665 19.611 16.1665C16.3284 16.1665 13.668 18.8273 13.668 22.1095C13.668 25.3918 16.3288 28.0526 19.611 28.0526C21.2398 28.0526 22.7152 27.3964 23.7888 26.3353C23.0569 26.7689 22.2033 27.0187 21.291 27.0187C18.579 27.0192 16.3809 24.8211 16.3809 22.1099Z" fill="#F3F4F5"/>
<path d="M26.8883 18.8989L28.1094 20.8887L30.3793 20.3418L28.8644 22.1187L30.0856 24.1075L27.9288 23.2163L26.4134 24.9927L26.5943 22.665L24.4375 21.7739L26.707 21.2273L26.8883 18.8989Z" fill="#F3F4F5"/>
</g>
<path d="M22 1C33.598 1 43 10.402 43 22C43 33.598 33.598 43 22 43C10.402 43 1 33.598 1 22C1 10.402 10.402 1 22 1Z" stroke="white" stroke-width="2"/>
<defs>
<clipPath id="clip0_1_5230">
<path d="M2 22C2 10.9543 10.9543 2 22 2C33.0457 2 42 10.9543 42 22C42 33.0457 33.0457 42 22 42C10.9543 42 2 33.0457 2 22Z" fill="white"/>
</clipPath>
</defs>
</svg>
