<svg width="44" height="44" viewBox="0 0 44 44" fill="none" xmlns="http://www.w3.org/2000/svg">
<g clip-path="url(#clip0_1_5253)">
<path d="M41.9113 23.8706H2.09009V23.8712H41.9113V23.8706Z" fill="#C42126"/>
<path d="M39.8356 12.9526H4.16406V12.9532H39.8356V12.9526Z" fill="#C42126"/>
<path d="M41.2533 16.5913H2.74609V16.5919H41.2533V16.5913Z" fill="#C42126"/>
<path d="M10.5951 38.4266H33.4035L33.4047 38.4253H10.5939L10.5951 38.4266Z" fill="#C42126"/>
<path d="M21.9975 2C21.6047 2 21.215 2.01419 20.8281 2.03631H23.1672C22.78 2.01419 22.3904 2 21.9975 2Z" fill="#C42126"/>
<path d="M41.9159 20.231H2.08203V20.2316H41.9159V20.231Z" fill="#C42126"/>
<path d="M27.9095 9.31355H37.4596C36.3252 7.93261 35.0069 6.71018 33.5463 5.67529H26.375C26.9684 6.7193 27.4787 7.95119 27.9095 9.31355Z" fill="#E7E7E7"/>
<path d="M26.3776 5.67532H33.5489C30.5843 3.5744 27.025 2.25873 23.1705 2.03613H22.5547C24.3689 2.26447 25.2022 3.60716 26.3776 5.67532Z" fill="#DC3027"/>
<path d="M41.2532 16.5919C40.8976 15.3237 40.4208 14.1069 39.8347 12.9536H28.8477C29.0703 14.1218 29.2459 15.3419 29.3759 16.5919H41.2532Z" fill="#E7E7E7"/>
<path d="M28.2308 12.9528H39.8355C39.1742 11.6521 38.3798 10.4315 37.4614 9.31396H27.3242C27.6817 10.4455 27.9852 11.666 28.2308 12.9528Z" fill="#DC3027"/>
<path d="M29.7966 23.8698H41.9088C41.9663 23.2544 41.9988 22.6307 41.9988 22.0004C41.9988 21.4039 41.9675 20.8149 41.9164 20.2313H29.7995C29.8389 21.4414 29.8383 22.6604 29.7966 23.8698Z" fill="#E7E7E7"/>
<path d="M41.9182 20.2305C41.8086 18.9809 41.5834 17.7652 41.2547 16.5923H28.8672C28.9916 17.7837 29.0737 19.0027 29.1139 20.2305H41.9182Z" fill="#DC3027"/>
<path d="M28.6406 31.1476H39.7843C40.3786 29.9956 40.863 28.7779 41.2262 27.5088H29.1794C29.0467 28.7606 28.8667 29.9805 28.6406 31.1476Z" fill="#E7E7E7"/>
<path d="M41.2235 27.5089C41.5592 26.3363 41.7922 25.1206 41.9081 23.8706H29.4182C29.3756 25.0994 29.291 26.318 29.1641 27.5089H41.2235Z" fill="#DC3027"/>
<path d="M33.4058 38.4254C34.8875 37.3946 36.2245 36.1709 37.3769 34.7871H27.9932C27.5546 36.1551 27.0338 37.3851 26.4297 38.4254H33.4058Z" fill="#E7E7E7"/>
<path d="M27.6406 34.7868H37.3774C38.3065 33.6705 39.113 32.4499 39.784 31.1479H28.5586C28.3095 32.4357 28.0029 33.6568 27.6406 34.7868Z" fill="#DC3027"/>
<path d="M21.2736 41.9858C21.2332 41.9846 21.1928 41.9827 21.1523 41.9814C21.1928 41.9826 21.2332 41.9846 21.2736 41.9858Z" fill="#DC3027"/>
<path d="M22 42.0002C26.2401 42.0002 30.1689 40.6767 33.4045 38.4268H26.1662C24.8815 40.6401 24.034 42.0002 22 42.0002Z" fill="#DC3027"/>
<path d="M21.9982 42C21.7553 42 21.514 41.9944 21.2734 41.9858C21.5166 41.994 21.7581 42 21.9982 42Z" fill="#C42126"/>
<path d="M27.0393 5.67529H10.4527C8.99187 6.71018 7.67376 7.93253 6.53906 9.31355H28.5734C28.1426 7.95119 27.6327 6.7193 27.0393 5.67529Z" fill="#F3F4F5"/>
<path d="M10.4531 5.67532H27.0397C25.864 3.60716 24.3688 2.26447 22.5545 2.03613H20.8313C16.9767 2.25873 13.4174 3.5744 10.4531 5.67532Z" fill="#E73625"/>
<path d="M2.74609 16.5919H30.0077C29.8776 15.3417 29.702 14.1218 29.4794 12.9536H4.16461C3.57848 14.107 3.10169 15.3237 2.74609 16.5919Z" fill="#F3F4F5"/>
<path d="M6.53771 9.31378C5.62004 10.4313 4.8249 11.6518 4.16394 12.9526H29.4784C29.233 11.6661 28.9296 10.4456 28.5721 9.31378H6.53771Z" fill="#E73625"/>
<path d="M2 22.0002C2 22.6305 2.03285 23.2543 2.09002 23.8697H30.2519C30.2936 22.6602 30.2942 21.4416 30.2548 20.2314H2.08242C2.03124 20.8148 2 21.4037 2 22.0002Z" fill="#F3F4F5"/>
<path d="M2.08203 20.2305H30.2541C30.2139 19.0025 30.1315 17.7838 30.0074 16.5923H2.74518C2.41644 17.7654 2.1913 18.9809 2.08203 20.2305Z" fill="#E73625"/>
<path d="M29.9965 27.5088H2.77344C3.13664 28.7783 3.62136 29.9956 4.21535 31.1476H29.4578C29.6839 29.9808 29.8635 28.7609 29.9965 27.5088Z" fill="#F3F4F5"/>
<path d="M2.77445 27.5089H29.9976C30.1242 26.318 30.2091 25.099 30.2517 23.8706H2.08984C2.2057 25.1208 2.43911 26.3363 2.77445 27.5089Z" fill="#E73625"/>
<path d="M10.5922 38.4254H26.9754C27.5795 37.3848 28.1005 36.1551 28.5389 34.7871H6.62109C7.77344 36.1709 9.11013 37.3946 10.5922 38.4254Z" fill="#F3F4F5"/>
<path d="M4.21484 31.1479C4.88593 32.4499 5.69239 33.6705 6.62146 34.7868H28.5393C28.9012 33.6569 29.2078 32.4357 29.4569 31.1479H4.21484Z" fill="#E73625"/>
<path d="M21.1516 41.9817C21.192 41.9829 21.2324 41.9848 21.2728 41.9861C21.5135 41.9946 21.7548 42.0002 21.9976 42.0002C24.0316 42.0002 25.6901 40.6402 26.975 38.4268H10.5938C13.6124 40.5262 17.2358 41.8184 21.1516 41.9817Z" fill="#E73625"/>
<path d="M21.5872 2.01025C11.3383 2.21875 2.98495 10.1321 2.08594 20.1979H21.5876V2.01025H21.5872Z" fill="#283991"/>
<path d="M6.00299 13.3318L6.30768 14.27H7.29485L6.49624 14.8501L6.80126 15.789L6.00299 15.2085L5.20498 15.789L5.50941 14.8501L4.71106 14.27H5.69823L6.00299 13.3318Z" fill="#EFEFEF"/>
<path d="M6.00299 16.6462L6.30768 17.585H7.29485L6.49624 18.1652L6.80126 19.104L6.00299 18.5236L5.20498 19.104L5.50941 18.1652L4.71106 17.585H5.69823L6.00299 16.6462Z" fill="#EFEFEF"/>
<path d="M9.31595 8.35834L9.62072 9.29687H10.6076L9.8092 9.87735L10.114 10.8155L9.31595 10.2357L8.5176 10.8155L8.82237 9.87735L8.02368 9.29687H9.01085L9.31595 8.35834Z" fill="#EFEFEF"/>
<path d="M9.31595 11.6736L9.62072 12.6121H10.6076L9.8092 13.1919L10.114 14.1308L9.31595 13.551L8.5176 14.1308L8.82237 13.1919L8.02368 12.6121H9.01085L9.31595 11.6736Z" fill="#EFEFEF"/>
<path d="M9.31595 14.9888L9.62072 15.9276H10.6076L9.8092 16.5071L10.114 17.446L9.31595 16.8656L8.5176 17.446L8.82237 16.5071L8.02368 15.9276H9.01085L9.31595 14.9888Z" fill="#EFEFEF"/>
<path d="M3.48386 17.4459L3.17884 16.5071L3.97719 15.9272H2.99061L2.96849 15.8588C2.86014 16.1938 2.76227 16.533 2.672 16.8759L2.68593 16.8655L3.48386 17.4459Z" fill="#EFEFEF"/>
<path d="M5.20247 12.4736L6.00048 11.8932L6.79883 12.4736L6.49382 11.5348L7.29217 10.9544H6.30499L6.00023 10.0162L5.69547 10.9544H5.33167C5.26412 11.0567 5.19876 11.1597 5.13306 11.2635L5.50698 11.5348L5.20247 12.4736Z" fill="#EFEFEF"/>
<path d="M9.31477 6.92047L10.1128 7.50028L9.80802 6.56209L10.606 5.98169H10.036C9.5519 6.34362 9.08483 6.72667 8.63608 7.13083L8.51575 7.50028L9.31477 6.92047Z" fill="#EFEFEF"/>
<path d="M11.8322 5.843L12.6305 5.26261L13.4285 5.843L13.1237 4.90413L13.9218 4.32433H12.9349L12.8936 4.198C12.5591 4.36883 12.2282 4.54659 11.9048 4.73575L12.1366 4.90405L11.8322 5.843Z" fill="#EFEFEF"/>
<path d="M12.6322 6.70093L12.9369 7.63887H13.9238L13.1254 8.21926L13.4302 9.15813L12.6322 8.57765L11.8338 9.15813L12.1386 8.21926L11.34 7.63887H12.3271L12.6322 6.70093Z" fill="#EFEFEF"/>
<path d="M12.6322 10.0164L12.9369 10.9543H13.9238L13.1254 11.5347L13.4302 12.4736L12.6322 11.8931L11.8338 12.4736L12.1386 11.5347L11.34 10.9543H12.3271L12.6322 10.0164Z" fill="#EFEFEF"/>
<path d="M12.6322 13.3318L12.9369 14.27H13.9238L13.1254 14.8501L13.4302 15.789L12.6322 15.2085L11.8338 15.789L12.1386 14.8501L11.34 14.27H12.3271L12.6322 13.3318Z" fill="#EFEFEF"/>
<path d="M12.6322 16.6462L12.9369 17.585H13.9238L13.1254 18.1652L13.4302 19.104L12.6322 18.5236L11.8338 19.104L12.1386 18.1652L11.34 17.585H12.3271L12.6322 16.6462Z" fill="#EFEFEF"/>
<path d="M15.9486 5.04321L16.2533 5.98174H17.2402L16.4421 6.56222L16.7466 7.50042L15.9486 6.92061L15.15 7.50042L15.455 6.56222L14.6564 5.98174H15.6435L15.9486 5.04321Z" fill="#EFEFEF"/>
<path d="M15.9486 8.35815L16.2533 9.29668H17.2402L16.4421 9.87716L16.7466 10.8154L15.9486 10.2356L15.15 10.8154L15.455 9.87716L14.6564 9.29668H15.6435L15.9486 8.35815Z" fill="#EFEFEF"/>
<path d="M15.9486 11.6736L16.2533 12.6121H17.2402L16.4421 13.1919L16.7466 14.1308L15.9486 13.551L15.15 14.1308L15.455 13.1919L14.6564 12.6121H15.6435L15.9486 11.6736Z" fill="#EFEFEF"/>
<path d="M15.9486 14.9885L16.2533 15.9274H17.2402L16.4421 16.5069L16.7466 17.4457L15.9486 16.8653L15.15 17.4457L15.455 16.5069L14.6564 15.9274H15.6435L15.9486 14.9885Z" fill="#EFEFEF"/>
<path d="M19.2611 3.38599L19.5658 4.32452H20.5527L19.7543 4.90432L20.0591 5.84319L19.2611 5.26271L18.4625 5.84319L18.7675 4.90432L17.9689 4.32452H18.9557L19.2611 3.38599Z" fill="#EFEFEF"/>
<path d="M19.2611 6.70111L19.5658 7.63905H20.5527L19.7543 8.21945L20.0591 9.15831L19.2611 8.57783L18.4625 9.15831L18.7675 8.21945L17.9689 7.63905H18.9557L19.2611 6.70111Z" fill="#EFEFEF"/>
<path d="M19.2611 10.0163L19.5658 10.9542H20.5527L19.7543 11.5346L20.0591 12.4735L19.2611 11.893L18.4625 12.4735L18.7675 11.5346L17.9689 10.9542H18.9557L19.2611 10.0163Z" fill="#EFEFEF"/>
<path d="M19.2611 13.3315L19.5658 14.2697H20.5527L19.7543 14.8499L20.0591 15.7887L19.2611 15.2083L18.4625 15.7887L18.7675 14.8499L17.9689 14.2697H18.9557L19.2611 13.3315Z" fill="#EFEFEF"/>
<path d="M19.2611 16.6461L19.5658 17.5848H20.5527L19.7543 18.165L20.0591 19.1038L19.2611 18.5234L18.4625 19.1038L18.7675 18.165L17.9689 17.5848H18.9557L19.2611 16.6461Z" fill="#EFEFEF"/>
</g>
<path d="M22 1C33.598 1 43 10.402 43 22C43 33.598 33.598 43 22 43C10.402 43 1 33.598 1 22C1 10.402 10.402 1 22 1Z" stroke="white" stroke-width="2"/>
<defs>
<clipPath id="clip0_1_5253">
<path d="M2 22C2 10.9543 10.9543 2 22 2C33.0457 2 42 10.9543 42 22C42 33.0457 33.0457 42 22 42C10.9543 42 2 33.0457 2 22Z" fill="white"/>
</clipPath>
</defs>
</svg>
