<svg width="44" height="44" viewBox="0 0 44 44" fill="none" xmlns="http://www.w3.org/2000/svg">
<g clip-path="url(#clip0_1_5311)">
<path d="M22.003 42.0002C33.0482 42.0002 42.0021 33.0463 42.0021 22.0011C42.0021 10.9559 33.0482 2.00195 22.003 2.00195C10.9578 2.00195 2.00391 10.9559 2.00391 22.0011C2.00391 33.0463 10.9578 42.0002 22.003 42.0002Z" fill="white"/>
<path d="M2.00024 22.0001C2.00024 29.5175 6.15004 36.0628 12.2813 39.4793V4.51996C6.15004 7.93677 2.00024 14.4818 2.00024 22.0001Z" fill="#D32027"/>
<path d="M22.0016 41.9994C21.7714 41.9994 21.5499 41.9916 21.3242 41.9878C21.5486 41.9953 21.7743 41.9994 22.0016 41.9994Z" fill="white"/>
<path d="M21.9985 2C21.9921 2 21.9868 2.00034 21.9805 2.00034C21.9866 2.00034 21.9923 2 21.9985 2C33.0445 2 33.0445 42 21.9985 42C25.5202 42 28.8268 41.0864 31.701 39.4885V4.51114C28.8267 2.91327 25.5201 2 21.9985 2Z" fill="#E7E7E7"/>
<path d="M31.7031 4.51123V39.4883C37.8436 36.0742 42.0007 29.5238 42.0007 22.0002C42.0007 14.4757 37.8437 7.92526 31.7031 4.51123Z" fill="#B52025"/>
<path d="M21.9999 2C21.9936 2 21.9883 2 21.982 2C18.4609 2.00312 15.1543 2.91961 12.2812 4.52001V39.4791C14.9739 40.9794 18.0482 41.8787 21.3226 41.9877C21.5484 41.9915 21.7697 41.9993 21.9999 41.9993C33.0459 41.9997 33.0459 2 21.9999 2Z" fill="#F3F1F2"/>
<path d="M29.7597 21.6383C29.4847 21.3756 28.9203 21.4047 28.8196 20.9679C28.6863 19.8952 29.1799 19.2706 29.4912 18.5537C27.9155 18.9222 26.6731 19.5289 26.6744 17.7491C25.7697 18.8554 24.797 19.9615 24.3953 19.7607C23.8247 19.4254 24.9429 16.5782 25.0651 15.0674C24.5131 15.3194 23.4559 15.872 23.4559 15.872C23.4559 15.872 22.4949 13.9924 21.9862 13.0653V13.0552C21.9843 13.057 21.9843 13.0586 21.9837 13.0602C21.9824 13.059 21.9824 13.0571 21.9811 13.0552V13.0653C21.4718 13.9924 20.5114 15.872 20.5114 15.872C20.5114 15.872 19.4535 15.3194 18.9022 15.0674C19.0238 16.5785 20.142 19.4256 19.5713 19.7607C19.1694 19.9618 18.197 18.8554 17.2929 17.7491C17.2929 19.5289 16.0512 18.9223 14.4761 18.5537C14.7868 19.2702 15.2804 19.8949 15.1459 20.9679C15.0468 21.4047 14.4821 21.3756 14.207 21.6383C16.0351 23.4658 19.2035 24.8231 17.6943 26.3319L21.7632 25.9523C21.8964 27.3272 21.466 29.0145 21.8396 29.9533C21.9271 29.9533 21.8984 29.9533 21.9808 29.9533C21.9821 29.9533 21.9839 29.9533 21.9859 29.9533C22.0679 29.9533 22.0376 29.9533 22.1245 29.9533C22.5057 28.9807 22.0702 27.3275 22.2035 25.9523L26.2718 26.3319C24.764 24.8231 27.9323 23.4658 29.7597 21.6383Z" fill="#D32027"/>
</g>
<rect x="1" y="1" width="42" height="42" rx="21" stroke="white" stroke-width="2"/>
<defs>
<clipPath id="clip0_1_5311">
<rect x="2" y="2" width="40" height="40" rx="20" fill="white"/>
</clipPath>
</defs>
</svg>
