<svg width="65" height="64" viewBox="0 0 65 64" fill="none" xmlns="http://www.w3.org/2000/svg">
<g clip-path="url(#clip0_244_1741)">
<path d="M41.9058 5.74158C38.8725 4.61611 35.5917 4 32.1667 4C28.7418 4 25.461 4.61611 22.4277 5.74158L19.9929 32L22.4277 58.2584C25.461 59.384 28.7418 60 32.1667 60C35.5917 60 38.8725 59.384 41.9058 58.2584L44.3406 32L41.9058 5.74158Z" fill="#FFDA44"/>
<path d="M60.1667 32C60.1667 19.9611 52.5682 9.69779 41.9058 5.7417V58.2587C52.5682 54.3022 60.1667 44.0391 60.1667 32Z" fill="#D80027"/>
<path d="M4.16675 32C4.16675 44.0391 11.7652 54.3022 22.4277 58.2585V5.7417C11.7652 9.69779 4.16675 19.9611 4.16675 32Z" fill="black"/>
</g>
<rect x="2.16675" y="2" width="60" height="60" rx="30" stroke="white" stroke-width="4"/>
<defs>
<clipPath id="clip0_244_1741">
<rect x="4.16675" y="4" width="56" height="56" rx="28" fill="white"/>
</clipPath>
</defs>
</svg>
