<svg width="48" height="48" viewBox="0 0 48 48" fill="none" xmlns="http://www.w3.org/2000/svg">
<path d="M46 31.9399C46 39.6799 39.74 45.9399 32 45.9399L34.1 42.4399" stroke="#2E2EE5" stroke-width="3" stroke-linecap="round" stroke-linejoin="round"/>
<path d="M2 15.9399C2 8.19994 8.26 1.93994 16 1.93994L13.9 5.43994" stroke="#2E2EE5" stroke-width="3" stroke-linecap="round" stroke-linejoin="round"/>
<path d="M13.24 26.1396H18.86C20.1 26.1396 21.12 27.2597 21.12 28.3997C21.12 29.6397 20.12 30.6597 18.86 30.6597H13.24V26.1396Z" stroke="#FFBF00" stroke-width="3" stroke-miterlimit="10" stroke-linecap="round" stroke-linejoin="round"/>
<path d="M13.24 30.6602H19.68C21.1 30.6602 22.26 31.6602 22.26 32.9202C22.26 34.1602 21.1 35.1802 19.68 35.1802H13.24V30.6602Z" stroke="#FFBF00" stroke-width="3" stroke-miterlimit="10" stroke-linecap="round" stroke-linejoin="round"/>
<path d="M16.84 35.1602V37.4001" stroke="#FFBF00" stroke-width="3" stroke-miterlimit="10" stroke-linecap="round" stroke-linejoin="round"/>
<path d="M16.84 23.8999V26.1399" stroke="#FFBF00" stroke-width="3" stroke-miterlimit="10" stroke-linecap="round" stroke-linejoin="round"/>
<path d="M29.7 30.6599C29.7 37.4799 24.18 42.9999 17.36 42.9999C10.54 42.9999 5.02002 37.4799 5.02002 30.6599C5.02002 23.8399 10.54 18.3198 17.36 18.3198C17.68 18.3198 17.98 18.3399 18.32 18.3599C24.38 18.8199 29.22 23.6598 29.68 29.7198C29.68 30.0198 29.7 30.3199 29.7 30.6599Z" stroke="#FFBF00" stroke-width="3" stroke-miterlimit="10" stroke-linecap="round" stroke-linejoin="round"/>
<path d="M43.0001 17.34C43.0001 24.16 37.4801 29.6801 30.6601 29.6801H29.6801C29.2201 23.6201 24.3801 18.7799 18.3201 18.3199V17.34C18.3201 10.52 23.8401 5 30.6601 5C37.4801 5 43.0001 10.52 43.0001 17.34Z" stroke="#2E2EE5" stroke-width="3" stroke-miterlimit="10" stroke-linecap="round" stroke-linejoin="round"/>
</svg>
