<svg width="16" height="17" viewBox="0 0 16 17" fill="none" xmlns="http://www.w3.org/2000/svg">
<path d="M8.00098 16.001C6.51762 16.001 5.06757 15.5611 3.8342 14.737C2.60084 13.9129 1.63954 12.7416 1.07188 11.3711C0.504226 10.0007 0.355701 8.49266 0.64509 7.0378C0.93448 5.58294 1.64879 4.24657 2.69768 3.19768C3.74657 2.14878 5.08294 1.43448 6.5378 1.14509C7.99266 0.855701 9.50066 1.00423 10.8711 1.57188C12.2416 2.13954 13.4129 3.10083 14.237 4.3342C15.0611 5.56757 15.501 7.01762 15.501 8.50098C15.4986 10.4894 14.7077 12.3956 13.3017 13.8016C11.8956 15.2077 9.98937 15.9986 8.00098 16.001ZM8.00098 2.00098C6.7154 2.00098 5.45869 2.3822 4.38977 3.09643C3.32085 3.81066 2.48773 4.82582 1.99576 6.01354C1.50379 7.20126 1.37507 8.50819 1.62588 9.76907C1.87668 11.0299 2.49574 12.1881 3.40479 13.0972C4.31383 14.0062 5.47202 14.6253 6.73289 14.8761C7.99377 15.1269 9.3007 14.9982 10.4884 14.5062C11.6761 14.0142 12.6913 13.1811 13.4055 12.1122C14.1198 11.0433 14.501 9.78656 14.501 8.50098C14.4989 6.77772 13.8134 5.12565 12.5948 3.90712C11.3763 2.6886 9.72424 2.0031 8.00098 2.00098Z" fill="#2626BF"/>
<path d="M8.00098 12.68C7.86837 12.68 7.74119 12.6273 7.64742 12.5336C7.55365 12.4398 7.50098 12.3126 7.50098 12.18V7.49701C7.50098 7.3644 7.55365 7.23722 7.64742 7.14346C7.74119 7.04969 7.86837 6.99701 8.00098 6.99701C8.13358 6.99701 8.26076 7.04969 8.35453 7.14346C8.4483 7.23722 8.50098 7.3644 8.50098 7.49701V12.18C8.50098 12.3126 8.4483 12.4398 8.35453 12.5336C8.26076 12.6273 8.13358 12.68 8.00098 12.68Z" fill="#2626BF"/>
<path d="M8.00092 6.00497C7.93562 6.00119 7.87125 5.9877 7.80992 5.96497C7.74976 5.93992 7.69557 5.90244 7.65092 5.85497C7.60167 5.81148 7.56389 5.75652 7.54092 5.69497C7.51338 5.63548 7.4997 5.57051 7.50092 5.50497C7.49902 5.43776 7.51141 5.37092 7.53727 5.30886C7.56313 5.2468 7.60187 5.19094 7.65092 5.14497C7.69821 5.10066 7.75179 5.06359 7.80992 5.03497C7.93194 4.98468 8.0689 4.98468 8.19092 5.03497C8.2492 5.06334 8.30282 5.10043 8.34992 5.14497C8.39926 5.19077 8.43825 5.24658 8.46429 5.30866C8.49033 5.37074 8.50282 5.43767 8.50092 5.50497C8.50214 5.57051 8.48847 5.63548 8.46092 5.69497C8.43329 5.75422 8.39575 5.80833 8.34992 5.85497C8.30545 5.90265 8.25122 5.94017 8.19092 5.96497C8.12994 5.98771 8.0659 6.00119 8.00092 6.00497Z" fill="#2626BF"/>
</svg>
