<svg width="100%" height="258" viewBox="0 0 100% 258" fill="none" xmlns="http://www.w3.org/2000/svg">
<g clip-path="url(#clip0_244_1644)">
<rect width="100%" height="258" fill="#FFBF00"/>
<path d="M864.975 92.245C865.915 92.245 866.588 92.0413 866.996 91.634C867.403 91.1953 867.607 90.6 867.607 89.848V87.075H865.445C864.348 87.075 863.612 87.357 863.236 87.921C862.891 88.4537 862.719 89.143 862.719 89.989C862.719 90.7097 862.875 91.2737 863.189 91.681C863.502 92.057 864.097 92.245 864.975 92.245ZM873.341 91.211C873.341 92.7777 874.03 93.561 875.409 93.561H876.678C877.085 93.561 877.351 93.8117 877.477 94.313C877.633 94.8143 877.712 95.5977 877.712 96.663C877.712 97.8223 877.633 98.6683 877.477 99.201C877.351 99.7337 877.085 100 876.678 100H875.409C873.717 100 872.385 99.7337 871.414 99.201C870.442 98.6683 869.69 97.8223 869.158 96.663C868.374 97.4463 867.497 97.9477 866.526 98.167C865.586 98.355 864.661 98.449 863.753 98.449C861.559 98.449 859.883 97.7597 858.724 96.381C857.596 95.0023 857.032 93.0127 857.032 90.412C857.032 89.2527 857.188 88.1247 857.502 87.028C857.846 85.9 858.332 84.8973 858.959 84.02C859.617 83.1427 860.431 82.4377 861.403 81.905C862.374 81.3723 863.502 81.106 864.787 81.106H867.607V78.004H873.341V91.211ZM878.453 93.561C879.048 93.561 879.534 93.5767 879.91 93.608C880.317 93.608 880.678 93.6393 880.991 93.702C881.336 93.7647 881.665 93.843 881.978 93.937C882.291 94.031 882.667 94.1563 883.106 94.313C881.821 93.5297 880.975 92.5897 880.568 91.493C880.192 90.3963 880.004 89.0177 880.004 87.357C880.004 86.511 880.161 85.6493 880.474 84.772C880.819 83.8633 881.32 83.0487 881.978 82.328C882.636 81.6073 883.451 81.012 884.422 80.542C885.393 80.072 886.521 79.837 887.806 79.837C889.028 79.837 890.14 79.9937 891.143 80.307C892.177 80.6203 893.054 81.1373 893.775 81.858C894.496 82.5787 895.06 83.5343 895.467 84.725C895.874 85.9157 896.078 87.3883 896.078 89.143V91.728C896.078 94.3287 895.342 96.3653 893.869 97.838C892.428 99.2793 890.14 100 887.007 100H876.667C876.26 100 875.993 99.7493 875.868 99.248C875.711 98.7153 875.633 97.932 875.633 96.898C875.633 95.7073 875.711 94.8613 875.868 94.36C875.993 93.8273 876.26 93.561 876.667 93.561H878.453ZM887.665 86.323C886.819 86.323 886.239 86.5737 885.926 87.075C885.613 87.5763 885.456 88.0933 885.456 88.626C885.456 88.9393 885.503 89.2527 885.597 89.566C885.691 89.848 885.895 90.1613 886.208 90.506C886.521 90.8507 886.976 91.2267 887.571 91.634C888.198 92.0413 889.012 92.5113 890.015 93.044C890.172 92.7933 890.266 92.433 890.297 91.963C890.328 91.4617 890.344 91.0387 890.344 90.694V89.66C890.344 89.2213 890.297 88.7983 890.203 88.391C890.14 87.9837 889.999 87.639 889.78 87.357C889.592 87.0437 889.326 86.793 888.981 86.605C888.636 86.417 888.198 86.323 887.665 86.323ZM890.908 76.453H884.704V70.766H890.908V76.453ZM907.729 99.248C907.729 100.846 907.447 102.381 906.883 103.854C906.35 105.327 905.583 106.611 904.58 107.708C903.609 108.836 902.434 109.729 901.055 110.387C899.708 111.045 898.219 111.374 896.59 111.374H893.488L893.253 104.935H895.039C896.355 104.935 897.467 104.763 898.376 104.418C899.253 104.105 899.958 103.682 900.491 103.149C901.055 102.616 901.447 102.005 901.666 101.316C901.917 100.658 902.042 99.9687 902.042 99.248V86.041H908.011V90.929C908.011 91.8377 908.277 92.5113 908.81 92.95C909.374 93.3573 910.048 93.561 910.831 93.561H911.348C912.037 93.561 912.382 94.595 912.382 96.663C912.382 98.8877 912.037 100 911.348 100H910.831C910.298 100 909.75 99.9217 909.186 99.765C908.653 99.577 908.168 99.2167 907.729 98.684V99.248ZM924.808 93.561C927.002 89.6757 929.101 86.8087 931.106 84.96C933.112 83.08 935.148 82.14 937.216 82.14C938.501 82.14 939.66 82.375 940.694 82.845C941.728 83.2837 942.59 83.9103 943.279 84.725C944 85.5397 944.548 86.511 944.924 87.639C945.3 88.7357 945.488 89.9263 945.488 91.211C945.488 92.3077 945.316 93.3887 944.971 94.454C944.658 95.488 944.141 96.428 943.42 97.274C942.731 98.0887 941.854 98.7467 940.788 99.248C939.723 99.7493 938.438 100 936.934 100H924.526C923.367 100 922.286 99.8277 921.283 99.483C920.281 99.107 919.388 98.3237 918.604 97.133C917.821 98.3237 916.975 99.107 916.066 99.483C915.158 99.8277 914.186 100 913.152 100H911.366C910.959 100 910.693 99.7493 910.567 99.248C910.411 98.7153 910.332 97.932 910.332 96.898C910.332 95.7073 910.411 94.8613 910.567 94.36C910.693 93.8273 910.959 93.561 911.366 93.561H913.152C914.907 93.561 915.784 92.6837 915.784 90.929V86.041H921.706V90.929C921.706 91.8377 921.988 92.5113 922.552 92.95C923.148 93.3573 923.9 93.561 924.808 93.561ZM939.519 91.211C939.519 90.9603 939.472 90.694 939.378 90.412C939.284 90.0987 939.112 89.8167 938.861 89.566C938.642 89.284 938.344 89.0647 937.968 88.908C937.624 88.72 937.201 88.626 936.699 88.626C935.916 88.626 935.054 89.002 934.114 89.754C933.174 90.4747 932.062 91.7437 930.777 93.561H937.216C938 93.561 938.579 93.3417 938.955 92.903C939.331 92.433 939.519 91.869 939.519 91.211ZM957.827 92.245C958.767 92.245 959.441 92.0413 959.848 91.634C960.256 91.1953 960.459 90.6 960.459 89.848V87.075H958.297C957.201 87.075 956.464 87.357 956.088 87.921C955.744 88.4537 955.571 89.143 955.571 89.989C955.571 90.7097 955.728 91.2737 956.041 91.681C956.355 92.057 956.95 92.245 957.827 92.245ZM966.193 91.211C966.193 92.7777 966.883 93.561 968.261 93.561H969.53C969.938 93.561 970.204 93.8117 970.329 94.313C970.486 94.8143 970.564 95.5977 970.564 96.663C970.564 97.8223 970.486 98.6683 970.329 99.201C970.204 99.7337 969.938 100 969.53 100H968.261C966.569 100 965.238 99.7337 964.266 99.201C963.295 98.6683 962.543 97.8223 962.01 96.663C961.227 97.4463 960.35 97.9477 959.378 98.167C958.438 98.355 957.514 98.449 956.605 98.449C954.412 98.449 952.736 97.7597 951.576 96.381C950.448 95.0023 949.884 93.0127 949.884 90.412C949.884 89.2527 950.041 88.1247 950.354 87.028C950.699 85.9 951.185 84.8973 951.811 84.02C952.469 83.1427 953.284 82.4377 954.255 81.905C955.227 81.3723 956.355 81.106 957.639 81.106H960.459V78.004H966.193V91.211ZM973.938 93.561C974.846 93.561 975.489 93.3573 975.865 92.95C976.272 92.5113 976.476 91.8377 976.476 90.929V86.041H982.445V91.446C982.445 94.2973 981.755 96.4437 980.377 97.885C979.029 99.295 977.055 100 974.455 100H969.52C969.112 100 968.846 99.7493 968.721 99.248C968.564 98.7153 968.486 97.932 968.486 96.898C968.486 95.7073 968.564 94.8613 968.721 94.36C968.846 93.8273 969.112 93.561 969.52 93.561H973.938ZM976.758 110.81H970.554V105.123H976.758V110.81ZM998.549 107.285C999.834 107.285 1000.96 107.081 1001.93 106.674C1002.9 106.298 1003.7 105.781 1004.33 105.123C1004.99 104.465 1005.49 103.697 1005.83 102.82C1006.18 101.943 1006.38 101.003 1006.45 100H1002.45C1000.85 100 999.536 99.8277 998.502 99.483C997.468 99.1383 996.654 98.637 996.058 97.979C995.463 97.321 995.04 96.522 994.789 95.582C994.57 94.6107 994.46 93.5297 994.46 92.339C994.46 91.1483 994.633 90.0203 994.977 88.955C995.322 87.8583 995.823 86.9027 996.481 86.088C997.139 85.2733 997.954 84.631 998.925 84.161C999.928 83.6597 1001.09 83.409 1002.4 83.409C1003.44 83.409 1004.42 83.5813 1005.36 83.926C1006.34 84.2707 1007.18 84.819 1007.9 85.571C1008.62 86.2917 1009.19 87.2473 1009.59 88.438C1010.03 89.6287 1010.25 91.07 1010.25 92.762V99.248C1010.25 100.846 1009.99 102.381 1009.45 103.854C1008.95 105.327 1008.2 106.611 1007.2 107.708C1006.23 108.836 1005.04 109.729 1003.63 110.387C1002.22 111.045 1000.62 111.374 998.831 111.374H993.943L993.661 107.285H998.549ZM998.126 92.104C998.126 93.4513 998.44 94.4227 999.066 95.018C999.724 95.582 1000.98 95.864 1002.83 95.864H1006.54V92.95C1006.54 90.976 1006.15 89.566 1005.36 88.72C1004.61 87.8427 1003.55 87.404 1002.17 87.404C1000.88 87.404 999.881 87.827 999.16 88.673C998.471 89.4877 998.126 90.6313 998.126 92.104ZM1050.75 100C1050.22 100 1049.67 99.9217 1049.11 99.765C1048.57 99.577 1048.09 99.2167 1047.65 98.684V98.966C1047.65 100.721 1047.38 102.35 1046.85 103.854C1046.32 105.358 1045.55 106.658 1044.55 107.755C1043.55 108.883 1042.32 109.76 1040.88 110.387C1039.44 111.045 1037.81 111.374 1035.99 111.374H1032.89C1029.38 111.374 1026.66 110.293 1024.71 108.131C1022.77 105.969 1021.8 103.008 1021.8 99.248V90.694H1027.72V98.966C1027.72 99.8747 1027.82 100.689 1028 101.41C1028.19 102.162 1028.51 102.789 1028.94 103.29C1029.41 103.823 1030.03 104.23 1030.78 104.512C1031.56 104.794 1032.53 104.935 1033.69 104.935H1035.76C1036.98 104.935 1037.98 104.763 1038.77 104.418C1039.58 104.105 1040.22 103.65 1040.69 103.055C1041.16 102.491 1041.49 101.833 1041.68 101.081C1041.87 100.329 1041.96 99.53 1041.96 98.684V86.041H1047.89V90.929C1047.89 91.8377 1048.17 92.5113 1048.73 92.95C1049.3 93.3573 1049.97 93.561 1050.75 93.561H1051.27C1051.96 93.561 1052.3 94.595 1052.3 96.663C1052.3 98.8877 1051.96 100 1051.27 100H1050.75ZM1037.03 85.524H1030.82V79.837H1037.03V85.524ZM1051.5 93.561C1052.44 93.561 1053.19 93.4043 1053.76 93.091C1054.32 92.7463 1054.6 92.1197 1054.6 91.211V90.694C1054.6 89.472 1054.79 88.344 1055.17 87.31C1055.54 86.2447 1056.07 85.336 1056.76 84.584C1057.45 83.832 1058.3 83.2367 1059.3 82.798C1060.3 82.3593 1061.42 82.14 1062.64 82.14C1063.92 82.14 1065.07 82.3593 1066.07 82.798C1067.07 83.2367 1067.9 83.8477 1068.56 84.631C1069.25 85.383 1069.77 86.3073 1070.11 87.404C1070.49 88.4693 1070.68 89.6443 1070.68 90.929C1070.68 93.8117 1069.94 96.052 1068.47 97.65C1067.03 99.2167 1065.08 100 1062.64 100C1061.42 100 1060.23 99.7493 1059.07 99.248C1057.94 98.7467 1057.11 98.0417 1056.58 97.133C1055.98 98.1983 1055.21 98.9503 1054.27 99.389C1053.33 99.7963 1052.41 100 1051.5 100H1051.26C1050.86 100 1050.59 99.7493 1050.47 99.248C1050.31 98.7153 1050.23 97.932 1050.23 96.898C1050.23 95.7073 1050.31 94.8613 1050.47 94.36C1050.59 93.8273 1050.86 93.561 1051.26 93.561H1051.5ZM1064.94 91.211C1064.94 90.553 1064.78 89.9577 1064.47 89.425C1064.16 88.8923 1063.55 88.626 1062.64 88.626C1061.73 88.626 1061.12 88.8923 1060.81 89.425C1060.49 89.9577 1060.34 90.553 1060.34 91.211C1060.34 92.7777 1061.1 93.561 1062.64 93.561C1064.17 93.561 1064.94 92.7777 1064.94 91.211ZM1075.84 70.86H1081.81V100H1075.84V70.86ZM1099.93 99.248C1099.93 101.003 1099.63 102.616 1099.04 104.089C1098.47 105.593 1097.69 106.878 1096.69 107.943C1095.68 109.04 1094.49 109.886 1093.11 110.481C1091.74 111.076 1090.25 111.374 1088.65 111.374H1085.78L1085.55 107.285H1087.71C1089.21 107.285 1090.5 107.05 1091.56 106.58C1092.6 106.141 1093.44 105.546 1094.1 104.794C1094.79 104.042 1095.29 103.18 1095.61 102.209C1095.92 101.269 1096.08 100.282 1096.08 99.248V86.417H1099.93V99.248ZM1100.07 80.636H1095.46V76.594H1100.07V80.636ZM1100.41 107.285H1101.26C1102.7 107.285 1103.92 107.05 1104.92 106.58C1105.96 106.141 1106.8 105.546 1107.46 104.794C1108.12 104.042 1108.6 103.18 1108.92 102.209C1109.23 101.269 1109.39 100.282 1109.39 99.248V86.417H1113.24V99.248C1113.24 101.003 1112.94 102.616 1112.35 104.089C1111.78 105.593 1110.98 106.878 1109.95 107.943C1108.95 109.04 1107.76 109.886 1106.38 110.481C1105.03 111.076 1103.56 111.374 1101.96 111.374H1100.74L1100.41 107.285ZM1118.95 70.86H1122.8V100H1118.95V70.86ZM1143.17 94.219C1144.64 94.219 1145.77 93.9213 1146.55 93.326C1147.36 92.7307 1147.77 91.9787 1147.77 91.07V85.195H1143.54C1142.07 85.195 1140.96 85.665 1140.2 86.605C1139.48 87.545 1139.12 88.7827 1139.12 90.318C1139.12 91.7593 1139.45 92.7777 1140.11 93.373C1140.8 93.937 1141.82 94.219 1143.17 94.219ZM1151.53 91.916C1151.53 93.1067 1151.77 94.0623 1152.24 94.783C1152.71 95.5037 1153.54 95.864 1154.73 95.864H1155.67C1156.07 95.864 1156.34 96.0363 1156.47 96.381C1156.62 96.6943 1156.7 97.1957 1156.7 97.885C1156.7 98.6057 1156.62 99.1383 1156.47 99.483C1156.34 99.8277 1156.07 100 1155.67 100H1154.73C1153.22 100 1151.95 99.718 1150.92 99.154C1149.92 98.5587 1149.18 97.509 1148.71 96.005C1148.34 96.475 1147.88 96.851 1147.35 97.133C1146.85 97.415 1146.31 97.6343 1145.75 97.791C1145.19 97.9477 1144.61 98.0573 1144.01 98.12C1143.42 98.1827 1142.87 98.214 1142.37 98.214C1140.11 98.214 1138.39 97.5873 1137.2 96.334C1136.01 95.0807 1135.41 93.185 1135.41 90.647C1135.41 89.4877 1135.57 88.3597 1135.88 87.263C1136.22 86.135 1136.73 85.1323 1137.38 84.255C1138.04 83.3777 1138.86 82.6727 1139.83 82.14C1140.83 81.6073 1141.99 81.341 1143.31 81.341H1147.77V78.145H1151.53V91.916ZM1156.86 95.864C1157.99 95.864 1158.86 95.5663 1159.49 94.971C1160.15 94.3757 1160.48 93.5297 1160.48 92.433V70.86H1164.33V92.621C1164.33 95.0023 1163.69 96.8353 1162.4 98.12C1161.15 99.3733 1159.4 100 1157.14 100H1155.68C1155.28 100 1155.01 99.8433 1154.88 99.53C1154.73 99.1853 1154.65 98.684 1154.65 98.026C1154.65 97.274 1154.73 96.7257 1154.88 96.381C1155.01 96.0363 1155.28 95.864 1155.68 95.864H1156.86ZM1170.58 70.86H1174.44V100H1170.58V70.86ZM1184.39 107.285C1185.68 107.285 1186.8 107.081 1187.78 106.674C1188.75 106.298 1189.55 105.781 1190.17 105.123C1190.83 104.465 1191.33 103.697 1191.68 102.82C1192.02 101.943 1192.23 101.003 1192.29 100H1188.29C1186.7 100 1185.38 99.8277 1184.35 99.483C1183.31 99.1383 1182.5 98.637 1181.9 97.979C1181.31 97.321 1180.88 96.522 1180.63 95.582C1180.41 94.6107 1180.3 93.5297 1180.3 92.339C1180.3 91.1483 1180.48 90.0203 1180.82 88.955C1181.16 87.8583 1181.67 86.9027 1182.32 86.088C1182.98 85.2733 1183.8 84.631 1184.77 84.161C1185.77 83.6597 1186.93 83.409 1188.25 83.409C1189.28 83.409 1190.27 83.5813 1191.21 83.926C1192.18 84.2707 1193.02 84.819 1193.75 85.571C1194.47 86.2917 1195.03 87.2473 1195.44 88.438C1195.88 89.6287 1196.1 91.07 1196.1 92.762V95.864H1200.28C1200.65 95.864 1200.9 96.0363 1201.03 96.381C1201.19 96.6943 1201.27 97.1957 1201.27 97.885C1201.27 98.6057 1201.19 99.1383 1201.03 99.483C1200.9 99.8277 1200.65 100 1200.28 100H1196C1195.94 101.535 1195.63 102.992 1195.06 104.371C1194.53 105.75 1193.78 106.956 1192.81 107.99C1191.83 109.024 1190.66 109.839 1189.28 110.434C1187.9 111.061 1186.37 111.374 1184.67 111.374H1179.79L1179.5 107.285H1184.39ZM1183.97 92.104C1183.97 93.4513 1184.28 94.4227 1184.91 95.018C1185.57 95.582 1186.82 95.864 1188.67 95.864H1192.38V92.95C1192.38 90.976 1191.99 89.566 1191.21 88.72C1190.46 87.8427 1189.39 87.404 1188.01 87.404C1186.73 87.404 1185.72 87.827 1185 88.673C1184.31 89.4877 1183.97 90.6313 1183.97 92.104ZM1213.83 97.274C1213.02 97.7753 1212.22 98.1983 1211.44 98.543C1210.65 98.8877 1209.81 99.1697 1208.9 99.389C1208.02 99.6083 1207.05 99.765 1205.98 99.859C1204.92 99.953 1203.7 100 1202.32 100H1200.3C1199.89 100 1199.62 99.8433 1199.5 99.53C1199.34 99.1853 1199.26 98.684 1199.26 98.026C1199.26 97.274 1199.34 96.7257 1199.5 96.381C1199.62 96.0363 1199.89 95.864 1200.3 95.864H1202.46C1203.65 95.864 1204.7 95.8327 1205.61 95.77C1206.55 95.7073 1207.41 95.5977 1208.19 95.441C1208.98 95.2843 1209.71 95.0807 1210.4 94.83C1211.09 94.548 1211.8 94.2033 1212.52 93.796L1219.52 89.754C1219.27 89.19 1219.02 88.7043 1218.77 88.297C1218.55 87.8583 1218.25 87.4823 1217.87 87.169C1217.5 86.8557 1217.04 86.6207 1216.51 86.464C1215.98 86.3073 1215.31 86.229 1214.49 86.229H1204.24L1204.53 82.093H1215.05C1215.9 82.093 1216.75 82.2027 1217.59 82.422C1218.47 82.6413 1219.28 83.08 1220.04 83.738C1220.82 84.396 1221.54 85.336 1222.2 86.558C1222.86 87.78 1223.41 89.3937 1223.84 91.399L1213.83 97.274ZM953.959 168.864C955.212 168.864 956.09 168.598 956.591 168.065C957.092 167.532 957.343 167.015 957.343 166.514C957.343 166.232 957.28 165.856 957.155 165.386C957.061 164.916 956.857 164.195 956.544 163.224C956.231 162.253 955.776 160.952 955.181 159.323C954.586 157.662 953.818 155.516 952.878 152.884L956.544 151.38L961.479 165.339C961.918 166.624 962.435 167.532 963.03 168.065C963.625 168.598 964.503 168.864 965.662 168.864H966.273C966.962 168.864 967.307 169.538 967.307 170.885C967.307 172.295 966.962 173 966.273 173H965.662C964.628 173 963.625 172.812 962.654 172.436C961.714 172.06 960.852 171.23 960.069 169.945C959.411 171.136 958.581 171.95 957.578 172.389C956.607 172.796 955.541 173 954.382 173H944.277L944.042 168.864H953.959ZM969.692 168.864C972.136 168.864 973.358 167.72 973.358 165.433V159.417H977.212V165.433C977.212 166.06 977.306 166.592 977.494 167.031C977.713 167.47 977.995 167.83 978.34 168.112C978.684 168.363 979.076 168.551 979.515 168.676C979.985 168.801 980.455 168.864 980.925 168.864H982.241C982.961 168.864 983.322 169.538 983.322 170.885C983.322 172.295 982.961 173 982.241 173H980.784C979.656 173 978.59 172.796 977.588 172.389C976.616 171.982 975.802 171.183 975.144 169.992C974.423 171.183 973.593 171.982 972.653 172.389C971.744 172.796 970.757 173 969.692 173H966.261C965.853 173 965.587 172.843 965.462 172.53C965.305 172.185 965.227 171.684 965.227 171.026C965.227 170.274 965.305 169.726 965.462 169.381C965.587 169.036 965.853 168.864 966.261 168.864H969.692ZM979.421 182.306H975.285V178.358H979.421V182.306ZM973.029 182.306H968.846V178.358H973.029V182.306ZM985.664 168.864C988.108 168.864 989.33 167.72 989.33 165.433V159.417H993.184V165.433C993.184 166.06 993.278 166.592 993.466 167.031C993.686 167.47 993.968 167.83 994.312 168.112C994.657 168.363 995.049 168.551 995.487 168.676C995.957 168.801 996.427 168.864 996.897 168.864H998.213C998.934 168.864 999.294 169.538 999.294 170.885C999.294 172.295 998.934 173 998.213 173H996.756C995.628 173 994.563 172.796 993.56 172.389C992.589 171.982 991.774 171.183 991.116 169.992C990.396 171.183 989.565 171.982 988.625 172.389C987.717 172.796 986.73 173 985.664 173H982.233C981.826 173 981.56 172.843 981.434 172.53C981.278 172.185 981.199 171.684 981.199 171.026C981.199 170.274 981.278 169.726 981.434 169.381C981.56 169.036 981.826 168.864 982.233 168.864H985.664ZM993.184 153.636H988.578V149.594H993.184V153.636ZM1010.24 168.864C1011.4 168.864 1012.2 168.629 1012.64 168.159C1013.07 167.689 1013.29 167.109 1013.29 166.42C1013.29 165.919 1013.2 165.402 1013.01 164.869C1012.85 164.305 1012.42 163.663 1011.7 162.942L1002.11 153.401V149.124L1017.71 143.108L1018.6 146.962L1005.91 151.803L1013.67 159.605C1014.42 160.388 1015.03 161.093 1015.5 161.72C1016 162.347 1016.4 162.958 1016.68 163.553C1016.96 164.117 1017.15 164.681 1017.24 165.245C1017.37 165.809 1017.43 166.389 1017.43 166.984C1017.43 168.049 1017.26 168.958 1016.91 169.71C1016.57 170.462 1016.1 171.089 1015.5 171.59C1014.91 172.06 1014.19 172.42 1013.34 172.671C1012.53 172.89 1011.63 173 1010.66 173H998.206C997.799 173 997.532 172.843 997.407 172.53C997.25 172.185 997.172 171.684 997.172 171.026C997.172 170.274 997.25 169.726 997.407 169.381C997.532 169.036 997.799 168.864 998.206 168.864H1010.24ZM1037.32 167.219C1038.8 167.219 1039.92 166.921 1040.71 166.326C1041.52 165.731 1041.93 164.979 1041.93 164.07V158.195H1037.7C1036.23 158.195 1035.11 158.665 1034.36 159.605C1033.64 160.545 1033.28 161.783 1033.28 163.318C1033.28 164.759 1033.61 165.778 1034.27 166.373C1034.96 166.937 1035.98 167.219 1037.32 167.219ZM1045.69 164.916C1045.69 166.107 1045.92 167.062 1046.39 167.783C1046.86 168.504 1047.69 168.864 1048.89 168.864H1049.83C1050.23 168.864 1050.5 169.036 1050.62 169.381C1050.78 169.694 1050.86 170.196 1050.86 170.885C1050.86 171.606 1050.78 172.138 1050.62 172.483C1050.5 172.828 1050.23 173 1049.83 173H1048.89C1047.38 173 1046.11 172.718 1045.08 172.154C1044.08 171.559 1043.34 170.509 1042.87 169.005C1042.49 169.475 1042.04 169.851 1041.51 170.133C1041 170.415 1040.47 170.634 1039.91 170.791C1039.34 170.948 1038.76 171.057 1038.17 171.12C1037.57 171.183 1037.03 171.214 1036.52 171.214C1034.27 171.214 1032.54 170.587 1031.35 169.334C1030.16 168.081 1029.57 166.185 1029.57 163.647C1029.57 162.488 1029.72 161.36 1030.04 160.263C1030.38 159.135 1030.88 158.132 1031.54 157.255C1032.2 156.378 1033.01 155.673 1033.99 155.14C1034.99 154.607 1036.15 154.341 1037.46 154.341H1041.93V151.145H1045.69V164.916ZM1049.84 173C1049.43 173 1049.17 172.843 1049.04 172.53C1048.89 172.185 1048.81 171.684 1048.81 171.026C1048.81 170.274 1048.89 169.726 1049.04 169.381C1049.17 169.036 1049.43 168.864 1049.84 168.864H1060.6C1061.73 168.864 1062.61 168.566 1063.24 167.971C1063.89 167.376 1064.22 166.53 1064.22 165.433V159.417H1068.08V165.621C1068.08 168.002 1067.44 169.835 1066.15 171.12C1064.87 172.373 1063.11 173 1060.89 173H1049.84ZM1058.3 182.4H1053.7V178.358H1058.3V182.4ZM1079.05 165.574C1079.05 166.608 1079.37 167.423 1080.03 168.018C1080.72 168.582 1081.6 168.864 1082.66 168.864H1083.18C1083.87 168.864 1084.22 169.538 1084.22 170.885C1084.22 172.295 1083.87 173 1083.18 173H1082.66C1081.98 173 1081.29 172.875 1080.6 172.624C1079.91 172.373 1079.33 171.919 1078.86 171.261V172.248C1078.86 174.003 1078.58 175.616 1078.01 177.089C1077.45 178.593 1076.66 179.878 1075.66 180.943C1074.69 182.04 1073.53 182.886 1072.18 183.481C1070.84 184.076 1069.36 184.374 1067.77 184.374H1066.54L1066.21 180.285H1067.06C1068.5 180.285 1069.72 180.05 1070.73 179.58C1071.76 179.141 1072.61 178.546 1073.26 177.794C1073.92 177.042 1074.41 176.18 1074.72 175.209C1075.04 174.269 1075.19 173.282 1075.19 172.248V159.417H1079.05V165.574ZM1103.66 166.232C1104.16 167.235 1104.71 167.924 1105.3 168.3C1105.93 168.676 1106.74 168.864 1107.75 168.864H1110.66C1111.07 168.864 1111.33 169.036 1111.46 169.381C1111.61 169.694 1111.69 170.196 1111.69 170.885C1111.69 171.606 1111.61 172.138 1111.46 172.483C1111.33 172.828 1111.07 173 1110.66 173H1107.51C1106.48 173 1105.6 172.875 1104.88 172.624C1104.16 172.342 1103.55 171.982 1103.05 171.543C1102.54 171.073 1102.12 170.525 1101.78 169.898C1101.46 169.271 1101.18 168.582 1100.93 167.83L1096.7 170.274C1095.89 170.775 1095.09 171.198 1094.3 171.543C1093.52 171.888 1092.67 172.17 1091.77 172.389C1090.89 172.608 1089.92 172.765 1088.85 172.859C1087.79 172.953 1086.56 173 1085.19 173H1083.16C1082.76 173 1082.49 172.843 1082.37 172.53C1082.21 172.185 1082.13 171.684 1082.13 171.026C1082.13 170.274 1082.21 169.726 1082.37 169.381C1082.49 169.036 1082.76 168.864 1083.16 168.864H1085.33C1086.52 168.864 1087.57 168.833 1088.48 168.77C1089.42 168.707 1090.28 168.598 1091.06 168.441C1091.84 168.284 1092.58 168.081 1093.27 167.83C1093.96 167.548 1094.66 167.203 1095.38 166.796L1102.39 162.754C1102.14 162.19 1101.89 161.704 1101.64 161.297C1101.42 160.858 1101.12 160.482 1100.74 160.169C1100.37 159.856 1099.91 159.621 1099.38 159.464C1098.85 159.307 1098.17 159.229 1097.36 159.229H1087.11L1087.39 155.093H1097.92C1098.77 155.093 1099.61 155.203 1100.46 155.422C1101.34 155.641 1102.15 156.08 1102.9 156.738C1103.69 157.396 1104.41 158.336 1105.07 159.558C1105.72 160.78 1106.27 162.394 1106.71 164.399L1103.66 166.232ZM1096.98 182.4H1092.38V178.358H1096.98V182.4ZM1114.93 168.864C1116.06 168.864 1116.94 168.566 1117.57 167.971C1118.22 167.376 1118.55 166.53 1118.55 165.433V159.417H1122.41V165.621C1122.41 168.002 1121.76 169.835 1120.48 171.12C1119.23 172.373 1117.47 173 1115.22 173H1110.66C1110.25 173 1109.98 172.843 1109.86 172.53C1109.7 172.185 1109.62 171.684 1109.62 171.026C1109.62 170.274 1109.7 169.726 1109.86 169.381C1109.98 169.036 1110.25 168.864 1110.66 168.864H1114.93ZM1122.74 153.636H1118.46V149.688H1122.74V153.636ZM1116.44 153.636H1112.16V149.688H1116.44V153.636ZM1141.45 173C1140.6 173 1139.79 172.89 1139.01 172.671C1138.22 172.42 1137.53 172.013 1136.94 171.449C1136.37 170.885 1135.92 170.149 1135.57 169.24C1135.23 168.3 1135.06 167.141 1135.06 165.762V143.86H1138.91V164.916C1138.91 166.107 1139.16 167.062 1139.66 167.783C1140.2 168.504 1141.03 168.864 1142.15 168.864H1143.09C1143.78 168.864 1144.13 169.538 1144.13 170.885C1144.13 172.295 1143.78 173 1143.09 173H1141.45ZM1143.72 168.864C1146.1 168.864 1147.29 167.861 1147.29 165.856V164.399C1147.29 161.736 1147.98 159.636 1149.36 158.101C1150.77 156.534 1152.71 155.751 1155.19 155.751C1156.47 155.751 1157.6 155.97 1158.57 156.409C1159.54 156.816 1160.36 157.396 1161.01 158.148C1161.67 158.9 1162.16 159.809 1162.47 160.874C1162.82 161.908 1162.99 163.052 1162.99 164.305C1162.99 167.062 1162.28 169.209 1160.87 170.744C1159.46 172.248 1157.52 173 1155.05 173C1153.79 173 1152.59 172.765 1151.43 172.295C1150.3 171.794 1149.42 170.963 1148.79 169.804C1148.51 170.462 1148.17 171.01 1147.76 171.449C1147.35 171.856 1146.93 172.185 1146.49 172.436C1146.05 172.655 1145.58 172.812 1145.08 172.906C1144.61 172.969 1144.16 173 1143.72 173H1143.11C1142.7 173 1142.43 172.843 1142.31 172.53C1142.15 172.185 1142.07 171.684 1142.07 171.026C1142.07 170.274 1142.15 169.726 1142.31 169.381C1142.43 169.036 1142.7 168.864 1143.11 168.864H1143.72ZM1159.23 164.587C1159.23 163.208 1158.92 162.08 1158.29 161.203C1157.69 160.326 1156.63 159.887 1155.09 159.887C1153.68 159.887 1152.63 160.31 1151.94 161.156C1151.29 162.002 1150.96 163.193 1150.96 164.728C1150.96 166.107 1151.33 167.141 1152.08 167.83C1152.87 168.519 1153.85 168.864 1155.05 168.864C1156.46 168.864 1157.51 168.504 1158.19 167.783C1158.88 167.031 1159.23 165.966 1159.23 164.587ZM1181.98 173C1181.13 173 1180.32 172.89 1179.53 172.671C1178.75 172.42 1178.06 172.013 1177.47 171.449C1176.9 170.885 1176.45 170.149 1176.1 169.24C1175.76 168.3 1175.59 167.141 1175.59 165.762V143.86H1179.44V164.916C1179.44 166.107 1179.69 167.062 1180.19 167.783C1180.72 168.504 1181.55 168.864 1182.68 168.864H1183.62C1184.31 168.864 1184.66 169.538 1184.66 170.885C1184.66 172.295 1184.31 173 1183.62 173H1181.98ZM1187.91 168.864C1189.04 168.864 1189.92 168.566 1190.54 167.971C1191.2 167.376 1191.53 166.53 1191.53 165.433V159.417H1195.39V165.621C1195.39 168.002 1194.74 169.835 1193.46 171.12C1192.21 172.373 1190.45 173 1188.19 173H1183.64C1183.23 173 1182.96 172.843 1182.84 172.53C1182.68 172.185 1182.6 171.684 1182.6 171.026C1182.6 170.274 1182.68 169.726 1182.84 169.381C1182.96 169.036 1183.23 168.864 1183.64 168.864H1187.91ZM1190.07 182.4H1185.47V178.358H1190.07V182.4ZM1208.04 143.86H1211.89V173H1208.04V143.86ZM1223.4 172.248C1223.4 174.003 1223.1 175.616 1222.5 177.089C1221.94 178.593 1221.16 179.878 1220.15 180.943C1219.15 182.04 1217.96 182.886 1216.58 183.481C1215.2 184.076 1213.71 184.374 1212.12 184.374H1209.25L1209.01 180.285H1211.18C1212.68 180.285 1213.96 180.05 1215.03 179.58C1216.06 179.141 1216.91 178.546 1217.57 177.794C1218.26 177.042 1218.76 176.18 1219.07 175.209C1219.39 174.269 1219.54 173.282 1219.54 172.248V159.417H1223.4V172.248Z" fill="#2E2EE5"/>
<g style="mix-blend-mode:soft-light" opacity="0.5">
<path d="M511.753 287.18C508.557 300.729 497.433 338.834 483.592 358.567C473.936 372.332 467.54 380.031 453.652 389.508C443.386 396.513 424.998 403.318 424.916 403.348L405.609 358.364C405.609 358.364 425.042 350.59 433.92 341.188C443.67 330.863 453.395 314.869 450.094 308.617C436.679 283.216 361.66 147.058 361.66 147.058L421.689 139.387L473.715 254.757L488.388 130.864L548.417 123.193L511.753 287.18ZM63.0035 116.939C94.8651 112.867 118.954 116.829 135.27 128.823C151.787 140.557 161.579 158.429 164.648 182.441C166.034 193.292 165.746 203.888 163.783 214.229C161.789 224.339 157.485 233.806 150.869 242.629C144.454 251.193 135.409 258.449 123.733 264.4C112.057 270.35 97.2146 274.477 79.2059 276.778L56.6953 279.654L67.9366 367.62L15.6418 374.303L-15.9572 127.03L63.0035 116.939ZM231.602 163.678C243.685 159.084 257.415 154.434 274.529 154.805C296.257 155.277 341.603 166.57 348.422 219.928C355.23 273.206 367.964 329.104 368.003 329.274L317.978 335.667L313.472 315.909C309.017 323.283 300.076 333.387 287.964 339.505C278.516 344.278 272.331 344.893 261.71 346.25C250.628 347.666 242.17 346.763 232.634 343.758C223.3 340.492 215.533 334.797 209.333 326.673C203.103 318.317 199.117 307.329 197.377 293.707C194.81 273.62 199.963 257.944 212.837 246.678C225.682 235.181 239.938 226.906 267.987 222.383L295.166 218.91C295.166 218.91 294.763 208.449 290.927 203.549C286.207 197.522 281.31 196.8 272.973 195.677C263.38 194.384 254.466 196.632 242.959 199.512C228.479 203.137 219.16 208.732 210.888 213.778L196.622 181.707C206.102 175.098 219.748 168.244 231.602 163.678ZM666.615 40.2985C666.644 40.488 680.201 127.504 684.94 183.701C686.788 205.624 690.096 223.466 688.734 239.911C687.386 256.177 682.027 265.047 670.92 277.007C654.227 294.979 636.625 298.275 611.868 301.499C596.029 303.562 574.809 300.395 570.997 299.943L572.011 254.826C575.823 255.277 579.364 255.645 584.096 255.746C596.89 256.018 605.522 257.997 616.6 251.592C623.25 247.747 626.886 244.625 630.877 238.061C637.833 226.62 633.286 203.859 633.286 203.859L613.256 47.1165L666.615 40.2985ZM290.798 250.794C274.234 253.38 263.073 257.857 257.317 264.225C251.56 270.592 249.257 278.278 250.408 287.282C251.411 295.132 254.443 300.494 259.503 303.367C264.533 306.009 270.743 306.857 278.13 305.913C289.213 304.497 292.305 301.459 299.098 294.021C305.862 286.352 307.228 278.068 305.694 266.063L303.563 249.388L290.798 250.794ZM799.894 274.087L744.847 281.121L720.684 92.0289L775.73 84.9947L799.894 274.087ZM878.231 104.777C878.231 104.777 888.691 91.6457 897.261 85.394C912.09 74.5764 923.165 69.4434 941.52 69.5737C964.568 69.7375 1004.83 78.427 1015.06 158.465C1022.3 215.159 993.016 255.896 945.375 258.887C931.694 259.746 923.164 258.948 910.747 253.141C900.679 248.433 888.24 235.749 888.18 235.689L888.255 262.794L841.566 268.76L811.659 8.20853L865.02 1.39142L878.231 104.777ZM945.43 126.693C935.609 118.281 926.47 115.088 913.711 117.189C905.517 118.538 900.408 120.529 894.553 126.417C889.924 131.071 888.53 134.878 886.252 141.035C882.084 152.301 882.851 159.861 884.571 171.75C886.737 186.721 887.792 197.879 899.455 207.511C909.021 215.411 917.592 218.845 929.83 216.812C939.694 215.173 946.089 210.446 951.896 203.824C963.671 190.397 962.603 176.385 959.696 158.765C957.465 145.24 955.84 135.611 945.43 126.693ZM98.3872 165.214C90.9246 160.067 80.0359 158.407 65.7215 160.236L41.8254 163.29L51.2074 236.71L68.5236 234.498C78.4513 233.229 86.8317 230.867 93.6644 227.413C100.497 223.959 105.522 219.21 108.739 213.168C111.956 207.125 113.004 199.717 111.883 190.944C110.319 178.707 105.82 170.13 98.3872 165.214ZM740.263 22.1421C747.882 21.1685 754.698 22.1751 760.711 25.161C766.695 27.9161 770.306 34.1419 771.546 43.8389C772.755 53.305 770.826 60.2392 765.757 64.6414C760.688 69.0436 754.344 71.7314 746.725 72.7051C738.875 73.7083 731.943 72.7169 725.93 69.7311C720.148 66.7156 716.652 60.4745 715.442 51.0083C714.203 41.3116 716.017 34.3926 720.884 30.2507C725.954 25.8485 732.413 23.1453 740.263 22.1421Z" fill="#F5F7FA"/>
</g>
<path d="M775.731 84.9938L799.895 274.087L744.848 281.121L720.684 92.0282L775.731 84.9938ZM740.263 22.1418C747.882 21.1681 754.698 22.1744 760.711 25.1604C766.695 27.9155 770.307 34.1414 771.546 43.8385C772.755 53.3047 770.826 60.2387 765.757 64.6409C760.687 69.0432 754.344 71.731 746.724 72.7047C738.874 73.7079 731.943 72.7164 725.93 69.7304C720.147 66.7149 716.651 60.4742 715.442 51.008C714.203 41.3109 716.017 34.3916 720.885 30.2498C725.954 25.8475 732.413 23.145 740.263 22.1418Z" fill="#2E2EE5"/>
<rect x="139" y="141" width="167" height="61" rx="30.5" fill="#2E2EE5"/>
<path d="M173.078 175C171.958 175 171.054 174.712 170.366 174.136C169.678 173.544 169.334 172.688 169.334 171.568V170.344C169.334 169.896 169.374 169.52 169.454 169.216C169.534 168.912 169.686 168.664 169.91 168.472H169.358C168.59 168.472 168.022 168.632 167.654 168.952C167.286 169.272 167.102 169.736 167.102 170.344V180.808H164.654V170.248C164.654 169.688 164.75 169.152 164.942 168.64C165.15 168.112 165.446 167.648 165.83 167.248C166.214 166.848 166.694 166.528 167.27 166.288C167.846 166.048 168.518 165.928 169.286 165.928H173.63C174.302 165.928 174.862 166.024 175.31 166.216C175.774 166.392 176.15 166.64 176.438 166.96C176.726 167.264 176.926 167.624 177.038 168.04C177.166 168.456 177.23 168.896 177.23 169.36V171.472C177.23 172.096 177.118 172.632 176.894 173.08C176.686 173.512 176.39 173.872 176.006 174.16C175.638 174.448 175.198 174.664 174.686 174.808C174.19 174.936 173.654 175 173.078 175ZM173.27 172.36C173.83 172.36 174.238 172.24 174.494 172C174.766 171.76 174.902 171.432 174.902 171.016V169.984C174.902 169.568 174.79 169.232 174.566 168.976C174.358 168.704 174.006 168.568 173.51 168.568H173.006C172.542 168.568 172.198 168.704 171.974 168.976C171.766 169.248 171.662 169.592 171.662 170.008V170.968C171.662 171.4 171.782 171.744 172.022 172C172.278 172.24 172.694 172.36 173.27 172.36ZM183.372 175C182.924 175 182.492 174.944 182.076 174.832C181.676 174.704 181.324 174.496 181.02 174.208C180.716 173.92 180.476 173.544 180.3 173.08C180.124 172.6 180.036 172.008 180.036 171.304V160.12H182.484V170.704C182.484 171.216 182.596 171.624 182.82 171.928C183.06 172.216 183.412 172.36 183.876 172.36H184.428C184.78 172.36 184.956 172.784 184.956 173.632C184.956 174.544 184.78 175 184.428 175H183.372ZM186.638 172.36C187.71 172.36 188.246 171.84 188.246 170.8V167.968H190.694V170.968C190.694 172.296 190.358 173.304 189.686 173.992C189.014 174.664 188.07 175 186.854 175H184.43C184.222 175 184.086 174.896 184.022 174.688C183.942 174.464 183.902 174.144 183.902 173.728C183.902 173.264 183.942 172.92 184.022 172.696C184.086 172.472 184.222 172.36 184.43 172.36H186.638ZM189.95 165.16H187.238V162.712H189.95V165.16ZM208.336 172.36C209.408 172.36 209.944 171.84 209.944 170.8V167.968H212.392V170.8C212.392 171.36 212.568 171.76 212.92 172C213.272 172.24 213.688 172.36 214.168 172.36H214.648C214.856 172.36 214.992 172.472 215.056 172.696C215.136 172.904 215.176 173.216 215.176 173.632C215.176 174.096 215.136 174.44 215.056 174.664C214.992 174.888 214.856 175 214.648 175H214.072C213.48 175 212.928 174.904 212.416 174.712C211.904 174.504 211.464 174.096 211.096 173.488C210.728 174.096 210.304 174.504 209.824 174.712C209.36 174.904 208.864 175 208.336 175H200.248C199.592 175 199.024 174.904 198.544 174.712C198.08 174.504 197.696 174.232 197.392 173.896C197.104 173.56 196.888 173.168 196.744 172.72C196.616 172.272 196.552 171.8 196.552 171.304V167.896H198.976V170.68C198.976 171.208 199.096 171.624 199.336 171.928C199.576 172.216 200.064 172.36 200.8 172.36H208.336ZM207.424 166.024H204.928V163.672H207.424V166.024ZM203.992 166.024H201.496V163.672H203.992V166.024ZM216.321 172.36C217.393 172.36 217.929 171.84 217.929 170.8V167.968H220.401V170.8C220.401 171.36 220.569 171.76 220.905 172C221.257 172.24 221.665 172.36 222.129 172.36H222.753C223.121 172.36 223.305 172.784 223.305 173.632C223.305 174.544 223.121 175 222.753 175H222.057C221.449 175 220.897 174.904 220.401 174.712C219.905 174.504 219.473 174.096 219.105 173.488C218.705 174.096 218.273 174.504 217.809 174.712C217.345 174.904 216.849 175 216.321 175H214.641C214.433 175 214.297 174.896 214.233 174.688C214.153 174.464 214.113 174.144 214.113 173.728C214.113 173.264 214.153 172.92 214.233 172.696C214.297 172.472 214.433 172.36 214.641 172.36H216.321ZM219.897 180.136H217.185V177.688H219.897V180.136ZM224.958 172.36C226.03 172.36 226.566 171.84 226.566 170.8V167.968H229.014V170.968C229.014 172.296 228.678 173.304 228.006 173.992C227.334 174.664 226.39 175 225.174 175H222.75C222.542 175 222.406 174.896 222.342 174.688C222.262 174.464 222.222 174.144 222.222 173.728C222.222 173.264 222.262 172.92 222.342 172.696C222.406 172.472 222.542 172.36 222.75 172.36H224.958ZM227.406 161.8H224.862V159.472H227.406V161.8ZM229.086 165.16H226.59V162.808H229.086V165.16ZM225.654 165.16H223.158V162.808H225.654V165.16ZM237.488 173.68C236.944 173.184 236.576 172.624 236.384 172C236.208 171.36 236.12 170.8 236.12 170.32C236.12 169.696 236.224 169.112 236.432 168.568C236.64 168.024 236.936 167.552 237.32 167.152C237.704 166.752 238.16 166.44 238.688 166.216C239.232 165.976 239.824 165.856 240.464 165.856C241.04 165.856 241.6 165.952 242.144 166.144C242.688 166.32 243.256 166.608 243.848 167.008L242.792 169.12C242.312 168.896 241.896 168.736 241.544 168.64C241.192 168.544 240.832 168.496 240.464 168.496C239.888 168.496 239.424 168.688 239.072 169.072C238.736 169.44 238.568 169.864 238.568 170.344C238.568 170.952 238.768 171.44 239.168 171.808C239.568 172.176 240.056 172.36 240.632 172.36H244.352L244.208 175H240.776C240.2 175 239.688 175.096 239.24 175.288C238.792 175.48 238.416 175.728 238.112 176.032C237.808 176.352 237.576 176.712 237.416 177.112C237.256 177.528 237.176 177.96 237.176 178.408C237.176 178.872 237.24 179.296 237.368 179.68C237.496 180.08 237.712 180.424 238.016 180.712C238.32 181 238.712 181.224 239.192 181.384C239.672 181.544 240.272 181.624 240.992 181.624H245.096L244.976 184.24H240.968C239.864 184.24 238.912 184.096 238.112 183.808C237.328 183.52 236.68 183.12 236.168 182.608C235.672 182.112 235.304 181.52 235.064 180.832C234.84 180.144 234.728 179.4 234.728 178.6C234.728 177.608 234.944 176.68 235.376 175.816C235.808 174.968 236.512 174.256 237.488 173.68ZM249.292 178.192C249.9 178.192 250.42 178.104 250.852 177.928C251.3 177.768 251.668 177.544 251.956 177.256C252.244 176.968 252.468 176.624 252.628 176.224C252.788 175.84 252.884 175.432 252.916 175H251.284C250.452 175 249.772 174.912 249.244 174.736C248.716 174.56 248.3 174.304 247.996 173.968C247.692 173.616 247.476 173.192 247.348 172.696C247.236 172.2 247.18 171.64 247.18 171.016C247.18 170.392 247.268 169.808 247.444 169.264C247.62 168.704 247.876 168.216 248.212 167.8C248.564 167.384 248.996 167.056 249.508 166.816C250.02 166.56 250.612 166.432 251.284 166.432C251.828 166.432 252.34 166.52 252.82 166.696C253.316 166.872 253.748 167.152 254.116 167.536C254.484 167.92 254.772 168.416 254.98 169.024C255.204 169.632 255.316 170.376 255.316 171.256V174.616C255.316 175.432 255.18 176.216 254.908 176.968C254.636 177.72 254.244 178.376 253.732 178.936C253.236 179.512 252.62 179.968 251.884 180.304C251.148 180.64 250.324 180.808 249.412 180.808H246.988L246.844 178.192H249.292ZM249.532 170.848C249.532 171.408 249.652 171.8 249.892 172.024C250.148 172.248 250.644 172.36 251.38 172.36H252.964V171.232C252.964 170.4 252.804 169.816 252.484 169.48C252.18 169.144 251.748 168.976 251.188 168.976C250.66 168.976 250.252 169.136 249.964 169.456C249.676 169.776 249.532 170.24 249.532 170.848ZM262.302 170.824C262.302 171.336 262.462 171.72 262.782 171.976C263.102 172.232 263.502 172.36 263.982 172.36H264.246C264.598 172.36 264.774 172.784 264.774 173.632C264.774 174.544 264.598 175 264.246 175H263.982C263.662 175 263.334 174.952 262.998 174.856C262.678 174.744 262.406 174.528 262.182 174.208V174.616C262.182 175.48 262.038 176.288 261.75 177.04C261.462 177.792 261.062 178.448 260.55 179.008C260.054 179.568 259.454 180.008 258.75 180.328C258.062 180.648 257.31 180.808 256.494 180.808H255.894L255.702 178.192H256.086C256.758 178.192 257.334 178.088 257.814 177.88C258.294 177.688 258.678 177.424 258.966 177.088C259.27 176.752 259.494 176.368 259.638 175.936C259.782 175.504 259.854 175.064 259.854 174.616V167.968H262.302V170.824ZM265.267 172.36C266.371 172.36 266.923 171.84 266.923 170.8V167.968H269.347V170.8C269.347 171.36 269.515 171.76 269.851 172C270.203 172.24 270.603 172.36 271.051 172.36C272.251 172.36 272.851 171.84 272.851 170.8V167.968H275.299V170.8C275.299 171.36 275.443 171.76 275.731 172C276.035 172.24 276.387 172.36 276.787 172.36C277.267 172.36 277.635 172.232 277.891 171.976C278.163 171.704 278.299 171.312 278.299 170.8V167.968H280.747V170.968C280.747 172.296 280.403 173.304 279.715 173.992C279.043 174.664 278.099 175 276.883 175C276.339 175 275.819 174.904 275.323 174.712C274.827 174.504 274.395 174.096 274.027 173.488C273.643 174.096 273.187 174.504 272.659 174.712C272.147 174.904 271.611 175 271.051 175C270.443 175 269.883 174.904 269.371 174.712C268.875 174.504 268.443 174.096 268.075 173.488C267.691 174.096 267.259 174.504 266.779 174.712C266.299 174.904 265.787 175 265.243 175H264.211C264.003 175 263.867 174.896 263.803 174.688C263.723 174.464 263.683 174.144 263.683 173.728C263.683 173.264 263.723 172.92 263.803 172.696C263.867 172.472 264.003 172.36 264.211 172.36H265.267ZM275.323 161.8H272.779V159.472H275.323V161.8ZM277.003 165.16H274.507V162.808H277.003V165.16ZM273.571 165.16H271.075V162.808H273.571V165.16Z" fill="white"/>
</g>
<defs>
<clipPath id="clip0_244_1644">
<rect width="100%" height="258" fill="white"/>
</clipPath>
</defs>
</svg>
