<svg width="64" height="64" viewBox="0 0 64 64" fill="none" xmlns="http://www.w3.org/2000/svg">
<g clip-path="url(#clip0_244_1751)">
<path d="M32 60C47.464 60 60 47.464 60 32C60 16.536 47.464 4 32 4C16.536 4 4 16.536 4 32C4 47.464 16.536 60 32 60Z" fill="#F0F0F0"/>
<path d="M59.763 28.3478H25.9132L25.9131 4.66553C23.3255 5.23931 20.8723 6.16932 18.6087 7.4045V28.3476V28.3477H4.23702C4.08116 29.5433 4 30.7622 4 32C4 33.2378 4.08116 34.4567 4.23702 35.6521H18.6086H18.6087V56.5954C20.8723 57.8304 23.3255 58.7607 25.9131 59.3343V35.6525V35.6522H59.763C59.9186 34.4567 60 33.2378 60 32C60 30.7622 59.9186 29.5433 59.763 28.3478Z" fill="#0052B4"/>
</g>
<rect x="2" y="2" width="60" height="60" rx="30" stroke="white" stroke-width="4"/>
<defs>
<clipPath id="clip0_244_1751">
<rect x="4" y="4" width="56" height="56" rx="28" fill="white"/>
</clipPath>
</defs>
</svg>
