<svg width="65" height="64" viewBox="0 0 65 64" fill="none" xmlns="http://www.w3.org/2000/svg">
<g clip-path="url(#clip0_244_1732)">
<path d="M32.6667 60C48.1306 60 60.6667 47.464 60.6667 32C60.6667 16.536 48.1306 4 32.6667 4C17.2027 4 4.66666 16.536 4.66666 32C4.66666 47.464 17.2027 60 32.6667 60Z" fill="#F0F0F0"/>
<path d="M60.6667 32.0001C60.6667 19.9611 53.0682 9.6979 42.4057 5.7417V58.2587C53.0682 54.3023 60.6667 44.0391 60.6667 32.0001Z" fill="#D80027"/>
<path d="M4.66666 32.0001C4.66666 44.0391 12.2653 54.3023 22.9276 58.2585V5.7417C12.2653 9.6979 4.66666 19.9611 4.66666 32.0001Z" fill="#0052B4"/>
</g>
<rect x="2.66666" y="2" width="60" height="60" rx="30" stroke="white" stroke-width="4"/>
<defs>
<clipPath id="clip0_244_1732">
<rect x="4.66666" y="4" width="56" height="56" rx="28" fill="white"/>
</clipPath>
</defs>
</svg>
