<svg width="70" height="77" viewBox="0 0 70 77" fill="none" xmlns="http://www.w3.org/2000/svg">
<rect x="2.83337" y="13" width="64" height="64" rx="32" fill="#E6E6F2" fill-opacity="0.2"/>
<g filter="url(#filter0_d_1_4148)">
<path d="M23.8743 7.27292L21.2178 7.0405C13.2482 6.34326 10.1757 10.866 9.66201 16.7369L9.4296 19.3934L6.17578 56.5847C5.98288 58.7896 8.37077 60.2566 10.2403 59.0818L15.0804 56.0789C16.2128 55.3749 17.6911 55.6113 18.5638 56.6513L22.5855 61.4735C23.5309 62.6002 25.231 62.7489 26.3577 61.8035L31.2111 57.731C32.2223 56.8826 33.7192 56.9065 34.6855 57.7941L38.9307 61.5919C40.5701 63.047 43.1765 62.0169 43.3671 59.8385L47.3181 14.6777C47.5738 11.7555 50.1738 9.57383 53.096 9.82949L23.8743 7.27292ZM18.3467 38.9383C16.8857 38.8105 15.7948 37.5105 15.9226 36.0494C16.0505 34.5883 17.3505 33.4975 18.8116 33.6253C20.2727 33.7531 21.3635 35.0531 21.2357 36.5142C21.1079 37.9753 19.8078 39.0662 18.3467 38.9383ZM19.2764 28.3122C17.8153 28.1844 16.7245 26.8844 16.8523 25.4233C16.9801 23.9622 18.2802 22.8714 19.7412 22.9992C21.2023 23.127 22.2932 24.4271 22.1653 25.8881C22.0375 27.3492 20.7375 28.4401 19.2764 28.3122ZM34.4237 39.6757L26.4541 38.9784C25.3649 38.8831 24.5407 37.9009 24.636 36.8117C24.7313 35.7225 25.7136 34.8983 26.8027 34.9936L34.7723 35.6909C35.8615 35.7862 36.6857 36.7684 36.5904 37.8576C36.4951 38.9468 35.5128 39.771 34.4237 39.6757ZM35.3533 29.0496L27.3838 28.3523C26.2946 28.257 25.4704 27.2748 25.5657 26.1856C25.661 25.0965 26.6432 24.2723 27.7324 24.3676L35.7019 25.0648C36.7911 25.1601 37.6153 26.1423 37.52 27.2315C37.4247 28.3207 36.4425 29.1449 35.3533 29.0496Z" fill="#FFBF00"/>
<path d="M53.1224 9.8319L52.7738 13.8167C54.5271 13.9701 56.138 14.8338 57.2554 16.1361C58.4166 17.5494 58.9609 19.2834 58.8075 21.0367L58.2451 27.4655C58.0731 29.4313 57.1174 30.2578 55.125 30.0835L50.0245 29.6373L51.3005 15.053C51.3655 14.3091 52.03 13.7516 52.7738 13.8167L53.1224 9.8319ZM53.1224 9.8319C50.1737 9.57392 47.5737 11.7556 47.3157 14.7044L45.6911 33.2734L54.7764 34.0683C58.9737 34.4355 61.8626 32.0114 62.2298 27.8141L62.7923 21.3853C63.0479 18.4631 62.0849 15.702 60.3419 13.5954C58.57 11.5131 56.0423 10.1141 53.1224 9.8319C53.149 9.83423 53.1224 9.8319 53.1224 9.8319Z" fill="#FFBF00"/>
</g>
<defs>
<filter id="filter0_d_1_4148" x="-5.83459" y="-2.66724" width="81.3345" height="81.3345" filterUnits="userSpaceOnUse" color-interpolation-filters="sRGB">
<feFlood flood-opacity="0" result="BackgroundImageFix"/>
<feColorMatrix in="SourceAlpha" type="matrix" values="0 0 0 0 0 0 0 0 0 0 0 0 0 0 0 0 0 0 127 0" result="hardAlpha"/>
<feOffset dy="3"/>
<feGaussianBlur stdDeviation="3"/>
<feComposite in2="hardAlpha" operator="out"/>
<feColorMatrix type="matrix" values="0 0 0 0 0.0588235 0 0 0 0 0.0666667 0 0 0 0 0.0784314 0 0 0 0.24 0"/>
<feBlend mode="normal" in2="BackgroundImageFix" result="effect1_dropShadow_1_4148"/>
<feBlend mode="normal" in="SourceGraphic" in2="effect1_dropShadow_1_4148" result="shape"/>
</filter>
</defs>
</svg>
