<svg width="65" height="64" viewBox="0 0 65 64" fill="none" xmlns="http://www.w3.org/2000/svg">
<g clip-path="url(#clip0_244_1738)">
<path d="M32.3334 60C47.7973 60 60.3334 47.464 60.3334 32C60.3334 16.536 47.7973 4 32.3334 4C16.8694 4 4.33337 16.536 4.33337 32C4.33337 47.464 16.8694 60 32.3334 60Z" fill="#F0F0F0"/>
<path d="M60.3334 32.0001C60.3334 19.9611 52.7349 9.6979 42.0724 5.7417V58.2587C52.7349 54.3023 60.3334 44.0391 60.3334 32.0001Z" fill="#D80027"/>
<path d="M4.33337 32.0001C4.33337 44.0391 11.9319 54.3023 22.5943 58.2585V5.7417C11.9319 9.6979 4.33337 19.9611 4.33337 32.0001Z" fill="#6DA544"/>
</g>
<rect x="2.33337" y="2" width="60" height="60" rx="30" stroke="white" stroke-width="4"/>
<defs>
<clipPath id="clip0_244_1738">
<rect x="4.33337" y="4" width="56" height="56" rx="28" fill="white"/>
</clipPath>
</defs>
</svg>
