<svg width="69" height="33" viewBox="0 0 69 33" fill="none" xmlns="http://www.w3.org/2000/svg">
<path d="M61.7871 0.406835V6.23816C61.7871 6.23816 62.4607 5.58363 62.9807 5.29745C63.8803 4.80226 64.5314 4.59592 65.5491 4.73332C66.8271 4.90586 69 5.67366 69 10.1882C69 13.3859 67.0856 15.439 64.4205 15.2672C63.6551 15.2178 63.1874 15.113 62.5394 14.7027C62.0128 14.3692 61.4108 13.574 61.4108 13.574L61.2227 15.0789H58.5892L58.7773 0.406738L61.7871 0.406835ZM63.6681 7.17868C63.2038 7.19544 62.9062 7.26965 62.5394 7.55489C62.2495 7.78039 62.1452 7.98177 61.9751 8.30731C61.6639 8.90303 61.6528 9.32802 61.6639 10.0001C61.6779 10.8463 61.6574 11.4729 62.2364 12.0902C62.7112 12.5965 63.1626 12.8479 63.8562 12.8218C64.4152 12.8008 64.8036 12.5838 65.1729 12.2575C65.9216 11.5959 65.9617 10.8106 65.9253 9.81214C65.8974 9.04571 65.8755 8.49983 65.361 7.9311C64.8756 7.39459 64.3911 7.15259 63.6681 7.17868Z" fill="#EBEDF0"/>
<path d="M56.2405 4.41363V15.0792H53.1356V4.41363H56.2405ZM54.7179 0.673943C55.1476 0.673943 55.5187 0.778122 55.8313 0.986486C56.1439 1.18183 56.3001 1.55297 56.3001 2.09992C56.3001 2.63385 56.1439 3.00499 55.8313 3.21335C55.5187 3.42172 55.1476 3.5259 54.7179 3.5259C54.2751 3.5259 53.8975 3.42172 53.5849 3.21335C53.2854 3.00499 53.1356 2.63385 53.1356 2.09992C53.1356 1.55297 53.2854 1.18183 53.5849 0.986486C53.8975 0.778122 54.2751 0.673943 54.7179 0.673943Z" fill="#FFBF00"/>
<path d="M45.6111 15.267C44.7175 15.2692 43.5622 14.9429 43.3539 14.8908L43.7301 12.3941C43.9385 12.4462 44.1323 12.4917 44.3942 12.5308C45.1024 12.6367 45.5674 12.8078 46.2276 12.5308C46.624 12.3646 46.8479 12.2171 47.116 11.8812C47.5831 11.2955 47.4922 10.0001 47.4922 10.0001V1.15921H50.5018C50.5018 1.15921 50.6375 6.09186 50.5018 9.2477C50.449 10.4775 50.506 11.4911 50.3137 12.3941C50.1236 13.2873 49.7633 13.7416 49.062 14.3265C48.0082 15.2056 47.0079 15.2637 45.6111 15.267Z" fill="#EBEDF0"/>
<path d="M32.8185 4.92114H36.2044L38.2735 11.6929L39.9664 4.92114H43.3523L40.1546 13.7621C39.8811 14.4913 38.9935 16.5272 38.0854 17.5241C37.4519 18.2196 37.0424 18.6015 36.2044 19.029C35.5836 19.3456 34.5114 19.5933 34.5114 19.5933L33.759 16.9598C33.759 16.9598 34.8925 16.6662 35.4519 16.2074C36.0663 15.7035 36.7195 14.8849 36.5806 14.5145C36.0163 13.0096 32.8185 4.92114 32.8185 4.92114Z" fill="#EBEDF0"/>
<path d="M27.9285 4.73327C29.1311 4.91352 31.5676 5.86186 31.5676 8.87154C31.5676 11.8812 31.8787 15.0789 31.8787 15.0789H29.0572L28.9472 13.9504C28.6477 14.328 28.0798 14.8254 27.3642 15.079C26.806 15.2769 26.4584 15.2671 25.8594 15.2671C25.2343 15.2671 24.7713 15.157 24.2634 14.9226C23.7685 14.6751 23.3779 14.304 23.0914 13.8091C22.8049 13.3013 22.6616 12.6632 22.6616 11.8948C22.6616 10.7619 23.0588 9.92841 23.8532 9.39448C24.6476 8.84753 25.4975 8.48941 27.0862 8.43732H28.6192C28.6192 8.43732 28.671 7.85388 28.4929 7.55476C28.2737 7.18678 28.0071 7.11199 27.5523 6.99053C27.0291 6.85075 26.5184 6.9123 25.8594 6.99053C25.0301 7.08896 24.4732 7.33337 23.9784 7.55476L23.414 5.67372C23.987 5.37419 24.793 5.09059 25.4832 4.9213C26.1864 4.752 26.9813 4.5913 27.9285 4.73327ZM28.1507 10.1758C27.213 10.2019 26.5619 10.3712 26.1973 10.6837C25.8326 10.9963 25.6503 11.4065 25.6503 11.9144C25.6503 12.3571 25.7805 12.6762 26.041 12.8715C26.3014 13.0538 26.64 13.145 27.0568 13.145C27.6818 13.145 27.875 12.9983 28.3048 12.6337C28.7345 12.256 28.8691 11.806 28.8691 11.1288V10.1883L28.1507 10.1758Z" fill="#EBEDF0"/>
<path d="M16.4593 1.13156C18.2565 1.13156 19.5652 1.52224 20.3857 2.3036C21.2191 3.07193 21.6358 4.13327 21.6358 5.48763C21.6358 6.09969 21.5447 6.68571 21.3624 7.24568C21.18 7.79263 20.874 8.28749 20.4443 8.73026C20.0275 9.16 19.4741 9.49859 18.7839 9.74602C18.0937 9.99345 17.2407 10.1172 16.2249 10.1172H14.9552V15.0788H12.0056V1.13156H16.4593ZM16.3031 3.55377H14.9552V7.69496H15.9319C16.4919 7.69496 16.9737 7.62333 17.3774 7.48009C17.7811 7.33684 18.0937 7.10894 18.3151 6.7964C18.5365 6.48386 18.6471 6.08016 18.6471 5.5853C18.6471 4.8951 18.4583 4.38722 18.0807 4.06165C17.703 3.72306 17.1105 3.55377 16.3031 3.55377Z" fill="#EBEDF0"/>
<path d="M10.4024 27.5933C10.1889 27.5933 10.0158 27.5356 9.88315 27.4202C9.75622 27.299 9.69276 27.1202 9.69276 26.8836C9.69276 26.6413 9.75622 26.4625 9.88315 26.3471C10.0158 26.226 10.1889 26.1654 10.4024 26.1654C10.6216 26.1654 10.7947 26.226 10.9216 26.3471C11.0543 26.4625 11.1206 26.6413 11.1206 26.8836C11.1206 27.1202 11.0543 27.299 10.9216 27.4202C10.7947 27.5356 10.6216 27.5933 10.4024 27.5933ZM16.126 26.4077C16.2933 26.4077 16.4144 26.3702 16.4894 26.2952C16.5644 26.2144 16.6019 26.0904 16.6019 25.9231V25.0231H17.701V25.9231C17.701 26.0904 17.7529 26.2144 17.8567 26.2952C17.9663 26.3702 18.1048 26.4077 18.2721 26.4077H18.4625C18.5375 26.4077 18.5865 26.4538 18.6096 26.5461C18.6385 26.6385 18.6529 26.7827 18.6529 26.9788C18.6529 27.1923 18.6385 27.3481 18.6096 27.4461C18.5865 27.5442 18.5375 27.5933 18.4625 27.5933H18.2288C18.0096 27.5933 17.8077 27.5615 17.6231 27.4981C17.4385 27.4288 17.274 27.2846 17.1298 27.0654C16.9856 27.2846 16.8298 27.4288 16.6625 27.4981C16.4952 27.5615 16.3163 27.5933 16.126 27.5933H13.3221C13.0856 27.5933 12.8808 27.5586 12.7077 27.4894C12.5404 27.4144 12.4019 27.3163 12.2923 27.1952C12.1885 27.074 12.1106 26.9327 12.0586 26.7711C12.0125 26.6096 11.9894 26.4394 11.9894 26.2606V24.9798H13.0798V25.975C13.0798 26.0442 13.0827 26.1077 13.0885 26.1654C13.1 26.2173 13.1231 26.2635 13.1577 26.3038C13.1923 26.3385 13.2413 26.3644 13.3048 26.3817C13.3683 26.399 13.4548 26.4077 13.5644 26.4077H16.126ZM16.0308 24.3567H14.9836V23.3529H16.0308V24.3567ZM14.6981 24.3567H13.651V23.3529H14.6981V24.3567ZM18.8506 26.4077C19.1679 26.4077 19.3266 26.2461 19.3266 25.9231V25.0231H20.417V25.9231C20.417 26.0904 20.466 26.2144 20.5641 26.2952C20.6679 26.3702 20.792 26.4077 20.9362 26.4077C21.1266 26.4077 21.2622 26.3702 21.3429 26.2952C21.4237 26.2144 21.4641 26.0904 21.4641 25.9231V25.0231H22.5631V25.9231C22.5631 26.0904 22.6035 26.2144 22.6843 26.2952C22.7708 26.3702 22.8718 26.4077 22.9872 26.4077C23.2699 26.4077 23.4112 26.2461 23.4112 25.9231V25.0231H24.5102V26.0183C24.5102 26.5433 24.3833 26.9385 24.1295 27.2038C23.8756 27.4635 23.5093 27.5933 23.0304 27.5933C22.8458 27.5933 22.6612 27.5615 22.4766 27.4981C22.2977 27.4288 22.1362 27.2846 21.992 27.0654C21.8477 27.2846 21.6833 27.4288 21.4987 27.4981C21.3141 27.5615 21.1266 27.5933 20.9362 27.5933C20.7227 27.5933 20.5237 27.5615 20.3391 27.4981C20.1545 27.4288 19.99 27.2846 19.8458 27.0654C19.7016 27.2846 19.5458 27.4288 19.3785 27.4981C19.217 27.5615 19.041 27.5933 18.8506 27.5933H18.4179C18.3429 27.5933 18.2939 27.5471 18.2708 27.4548C18.242 27.3567 18.2275 27.2125 18.2275 27.0221C18.2275 26.8029 18.242 26.6471 18.2708 26.5548C18.2939 26.4567 18.3429 26.4077 18.4179 26.4077H18.8506ZM26.6556 27.5933C26.4883 27.5933 26.3296 27.5731 26.1796 27.5327C26.0296 27.4865 25.8969 27.4115 25.7815 27.3077C25.6719 27.2038 25.5825 27.0683 25.5133 26.901C25.4498 26.7279 25.4181 26.5144 25.4181 26.2606V22.2279H26.5171V25.975C26.5171 26.2635 26.644 26.4077 26.8979 26.4077H27.1315C27.2585 26.4077 27.3219 26.5981 27.3219 26.9788C27.3219 27.3885 27.2585 27.5933 27.1315 27.5933H26.6556ZM27.1299 26.4077C27.303 26.4077 27.4415 26.3788 27.5453 26.3211C27.6492 26.2577 27.7011 26.1423 27.7011 25.975V25.8798C27.7011 25.6548 27.7357 25.4471 27.8049 25.2567C27.8742 25.0606 27.9722 24.8933 28.0992 24.7548C28.2261 24.6163 28.3818 24.5067 28.5665 24.426C28.7511 24.3452 28.9559 24.3048 29.1809 24.3048C29.4174 24.3048 29.628 24.3452 29.8126 24.426C29.9972 24.5067 30.1501 24.6192 30.2713 24.7635C30.3982 24.9019 30.4934 25.0721 30.5568 25.274C30.6261 25.4702 30.6607 25.6865 30.6607 25.9231C30.6607 26.4538 30.5251 26.8663 30.254 27.1606C29.9886 27.449 29.6309 27.5933 29.1809 27.5933C28.9559 27.5933 28.7367 27.5471 28.5232 27.4548C28.3155 27.3625 28.1626 27.2327 28.0645 27.0654C27.9549 27.2615 27.8136 27.4 27.6405 27.4808C27.4674 27.5558 27.2972 27.5933 27.1299 27.5933H27.0867C27.0117 27.5933 26.9626 27.5471 26.9395 27.4548C26.9107 27.3567 26.8963 27.2125 26.8963 27.0221C26.8963 26.8029 26.9107 26.6471 26.9395 26.5548C26.9626 26.4567 27.0117 26.4077 27.0867 26.4077H27.1299ZM29.6049 25.975C29.6049 25.8538 29.5761 25.7442 29.5184 25.6461C29.4607 25.5481 29.3482 25.499 29.1809 25.499C29.0136 25.499 28.9011 25.5481 28.8434 25.6461C28.7857 25.7442 28.7568 25.8538 28.7568 25.975C28.7568 26.2635 28.8982 26.4077 29.1809 26.4077C29.4636 26.4077 29.6049 26.2635 29.6049 25.975ZM33.9122 27.4548C33.9122 27.749 33.8574 28.0317 33.7478 28.3029C33.6439 28.574 33.4968 28.8106 33.3064 29.0125C33.1218 29.2202 32.8997 29.3846 32.6401 29.5058C32.3862 29.6269 32.1093 29.6875 31.8093 29.6875H31.2381L31.1949 28.5019H31.5237C31.766 28.5019 31.9708 28.4702 32.1381 28.4067C32.2997 28.349 32.4295 28.2711 32.5276 28.1731C32.6314 28.075 32.7035 27.9625 32.7439 27.8356C32.7901 27.7144 32.8131 27.5875 32.8131 27.4548V25.0231H33.9122V27.4548ZM33.9122 24.0711H32.7699V23.024H33.9122V24.0711ZM34.0828 28.5019H34.1953C34.4087 28.5019 34.5904 28.4702 34.7404 28.4067C34.8962 28.349 35.0203 28.2711 35.1126 28.1731C35.2106 28.075 35.2799 27.9625 35.3203 27.8356C35.3664 27.7144 35.3895 27.5875 35.3895 27.4548V25.0231H36.4885V27.4548C36.4885 27.749 36.4337 28.0317 36.3241 28.3029C36.2203 28.574 36.0731 28.8106 35.8828 29.0125C35.6981 29.2202 35.476 29.3846 35.2164 29.5058C34.9626 29.6269 34.6856 29.6875 34.3856 29.6875H34.1693L34.0828 28.5019ZM37.3966 22.2279H38.4956V27.5933H37.3966V22.2279ZM41.2554 27.5933C41.0419 27.5933 40.8688 27.5298 40.7361 27.4029C40.6092 27.276 40.5458 27.0683 40.5458 26.7798C40.5458 26.4336 40.5602 26.151 40.589 25.9317C40.6236 25.7125 40.6871 25.5365 40.7794 25.4038C40.8775 25.2654 41.0131 25.1673 41.1861 25.1096C41.3592 25.0461 41.59 25.0029 41.8784 24.9798V25.5942C41.7342 25.6173 41.6217 25.6404 41.5409 25.6635C41.4602 25.6865 41.3967 25.7183 41.3506 25.7586C41.3102 25.799 41.2842 25.851 41.2727 25.9144C41.2611 25.9779 41.2554 26.0615 41.2554 26.1654C41.4746 26.1654 41.6477 26.2202 41.7746 26.3298C41.9073 26.4336 41.9736 26.6183 41.9736 26.8836C41.9736 27.1202 41.9073 27.299 41.7746 27.4202C41.6477 27.5356 41.4746 27.5933 41.2554 27.5933ZM46.9789 26.4077C47.1462 26.4077 47.2674 26.3702 47.3424 26.2952C47.4174 26.2144 47.4549 26.0904 47.4549 25.9231V25.0231H48.5539V25.9231C48.5539 26.0904 48.6059 26.2144 48.7097 26.2952C48.8193 26.3702 48.9578 26.4077 49.1251 26.4077H49.3155C49.3905 26.4077 49.4395 26.4538 49.4626 26.5461C49.4914 26.6385 49.5059 26.7827 49.5059 26.9788C49.5059 27.1923 49.4914 27.3481 49.4626 27.4461C49.4395 27.5442 49.3905 27.5933 49.3155 27.5933H49.0818C48.8626 27.5933 48.6607 27.5615 48.4761 27.4981C48.2914 27.4288 48.127 27.2846 47.9828 27.0654C47.8386 27.2846 47.6828 27.4288 47.5155 27.4981C47.3482 27.5615 47.1693 27.5933 46.9789 27.5933H44.1751C43.9386 27.5933 43.7337 27.5586 43.5607 27.4894C43.3934 27.4144 43.2549 27.3163 43.1453 27.1952C43.0414 27.074 42.9636 26.9327 42.9116 26.7711C42.8655 26.6096 42.8424 26.4394 42.8424 26.2606V24.9798H43.9328V25.975C43.9328 26.0442 43.9357 26.1077 43.9414 26.1654C43.953 26.2173 43.9761 26.2635 44.0107 26.3038C44.0453 26.3385 44.0943 26.3644 44.1578 26.3817C44.2212 26.399 44.3078 26.4077 44.4174 26.4077H46.9789ZM46.8837 24.3567H45.8366V23.3529H46.8837V24.3567ZM45.5511 24.3567H44.5039V23.3529H45.5511V24.3567ZM49.8421 26.4077C50.0094 26.4077 50.1305 26.3702 50.2055 26.2952C50.2805 26.2144 50.318 26.0904 50.318 25.9231V25.0231H51.4171V25.9231C51.4171 26.0904 51.469 26.2144 51.5728 26.2952C51.6767 26.3702 51.8123 26.4077 51.9796 26.4077H52.17C52.3027 26.4077 52.369 26.5981 52.369 26.9788C52.369 27.3885 52.3027 27.5933 52.17 27.5933H51.9363C51.7171 27.5933 51.5152 27.5615 51.3305 27.4981C51.1517 27.4288 50.9902 27.2846 50.8459 27.0654C50.6959 27.2846 50.5373 27.4288 50.37 27.4981C50.2084 27.5615 50.0325 27.5933 49.8421 27.5933H49.2709C49.1959 27.5933 49.1469 27.5471 49.1238 27.4548C49.095 27.3567 49.0805 27.2125 49.0805 27.0221C49.0805 26.8029 49.095 26.6471 49.1238 26.5548C49.1469 26.4567 49.1959 26.4077 49.2709 26.4077H49.8421ZM51.9277 29.5404H50.8805V28.5365H51.9277V29.5404ZM50.595 29.5404H49.5478V28.5365H50.595V29.5404ZM52.4552 26.4077C52.5648 26.4077 52.6542 26.4106 52.7235 26.4163C52.7985 26.4163 52.8648 26.4221 52.9225 26.4336C52.986 26.4452 53.0465 26.4596 53.1042 26.4769C53.1619 26.4942 53.2312 26.5173 53.3119 26.5461C53.0754 26.4019 52.9196 26.2288 52.8446 26.0269C52.7754 25.825 52.7408 25.5711 52.7408 25.2654C52.7408 25.1096 52.7696 24.951 52.8273 24.7894C52.8908 24.6221 52.9831 24.4721 53.1042 24.3394C53.2254 24.2067 53.3754 24.0971 53.5542 24.0106C53.7331 23.924 53.9408 23.8808 54.1773 23.8808C54.4023 23.8808 54.6071 23.9096 54.7917 23.9673C54.9821 24.025 55.1437 24.1202 55.2764 24.2529C55.409 24.3856 55.5129 24.5615 55.5879 24.7808C55.6629 25 55.7004 25.2711 55.7004 25.5942V26.0702C55.7004 26.549 55.5648 26.924 55.2937 27.1952C55.0283 27.4606 54.6071 27.5933 54.0302 27.5933H52.1264C52.0514 27.5933 52.0023 27.5471 51.9792 27.4548C51.9504 27.3567 51.936 27.2125 51.936 27.0221C51.936 26.8029 51.9504 26.6471 51.9792 26.5548C52.0023 26.4567 52.0514 26.4077 52.1264 26.4077H52.4552ZM54.1514 25.075C53.9956 25.075 53.8889 25.1211 53.8312 25.2135C53.7735 25.3058 53.7446 25.401 53.7446 25.499C53.7446 25.5567 53.7533 25.6144 53.7706 25.6721C53.7879 25.724 53.8254 25.7817 53.8831 25.8452C53.9408 25.9086 54.0244 25.9779 54.134 26.0529C54.2494 26.1279 54.3994 26.2144 54.584 26.3125C54.6129 26.2663 54.6302 26.2 54.636 26.1135C54.6417 26.0211 54.6446 25.9433 54.6446 25.8798V25.6894C54.6446 25.6086 54.636 25.5308 54.6187 25.4558C54.6071 25.3808 54.5812 25.3173 54.5408 25.2654C54.5062 25.2077 54.4571 25.1615 54.3937 25.1269C54.3302 25.0923 54.2494 25.075 54.1514 25.075ZM54.7485 23.2577H53.6062V22.2106H54.7485V23.2577ZM57.8456 27.5933C57.6783 27.5933 57.5196 27.5731 57.3696 27.5327C57.2196 27.4865 57.0869 27.4115 56.9716 27.3077C56.8619 27.2038 56.7725 27.0683 56.7033 26.901C56.6398 26.7279 56.6081 26.5144 56.6081 26.2606V22.2279H57.7071V25.975C57.7071 26.2635 57.8341 26.4077 58.0879 26.4077H58.3216C58.4485 26.4077 58.5119 26.5981 58.5119 26.9788C58.5119 27.3885 58.4485 27.5933 58.3216 27.5933H57.8456ZM59.2286 26.4077C59.0844 26.2115 58.9921 26.0385 58.9517 25.8885C58.9113 25.7327 58.8911 25.5711 58.8911 25.4038C58.8911 25.2135 58.9286 25.0288 59.0036 24.85C59.0786 24.6711 59.1853 24.5154 59.3238 24.3827C59.4622 24.2442 59.6267 24.1346 59.8171 24.0538C60.0132 23.9673 60.2296 23.924 60.4661 23.924C60.7026 23.924 60.9103 23.9673 61.0892 24.0538C61.268 24.1404 61.4151 24.2529 61.5305 24.3913C61.6517 24.5298 61.7411 24.6856 61.7988 24.8586C61.8622 25.026 61.894 25.1933 61.894 25.3606C61.894 25.5971 61.8622 25.7961 61.7988 25.9577C61.7411 26.1135 61.6632 26.2635 61.5651 26.4077H62.5171C62.644 26.4077 62.7074 26.5981 62.7074 26.9788C62.7074 27.3885 62.644 27.5933 62.5171 27.5933H61.7036C61.4382 27.5933 61.2017 27.5817 60.994 27.5586C60.7863 27.5298 60.6247 27.4779 60.5094 27.4029C60.4286 27.449 60.3276 27.4865 60.2065 27.5154C60.0911 27.5385 59.9699 27.5558 59.843 27.5673C59.7219 27.5788 59.6007 27.5875 59.4796 27.5933C59.3642 27.5933 59.2661 27.5933 59.1853 27.5933H58.2767C58.2017 27.5933 58.1526 27.5471 58.1296 27.4548C58.1007 27.3567 58.0863 27.2125 58.0863 27.0221C58.0863 26.8029 58.1007 26.6471 58.1296 26.5548C58.1526 26.4567 58.2017 26.4077 58.2767 26.4077H59.2286ZM60.3969 25.1183C60.2642 25.1183 60.1546 25.1615 60.068 25.2481C59.9872 25.3346 59.9469 25.45 59.9469 25.5942C59.9469 25.7096 59.9844 25.825 60.0594 25.9404C60.1344 26.0558 60.2555 26.1625 60.4228 26.2606C60.5901 26.1625 60.7026 26.0558 60.7603 25.9404C60.818 25.825 60.8469 25.7096 60.8469 25.5942C60.8469 25.45 60.8036 25.3346 60.7171 25.2481C60.6363 25.1615 60.5296 25.1183 60.3969 25.1183ZM60.994 23.3529H59.8517V22.3058H60.994V23.3529ZM62.9085 26.4077C63.2258 26.4077 63.3845 26.2461 63.3845 25.9231V25.0231H64.4748V25.9231C64.4748 26.0904 64.5239 26.2144 64.622 26.2952C64.7258 26.3702 64.8498 26.4077 64.9941 26.4077C65.1845 26.4077 65.32 26.3702 65.4008 26.2952C65.4816 26.2144 65.522 26.0904 65.522 25.9231V25.0231H66.621V25.9231C66.621 26.0904 66.6614 26.2144 66.7422 26.2952C66.8287 26.3702 66.9297 26.4077 67.045 26.4077C67.3277 26.4077 67.4691 26.2461 67.4691 25.9231V25.0231H68.5681V26.0183C68.5681 26.5433 68.4412 26.9385 68.1873 27.2038C67.9335 27.4635 67.5672 27.5933 67.0883 27.5933C66.9037 27.5933 66.7191 27.5615 66.5345 27.4981C66.3556 27.4288 66.1941 27.2846 66.0498 27.0654C65.9056 27.2846 65.7412 27.4288 65.5566 27.4981C65.372 27.5615 65.1845 27.5933 64.9941 27.5933C64.7806 27.5933 64.5816 27.5615 64.397 27.4981C64.2123 27.4288 64.0479 27.2846 63.9037 27.0654C63.7595 27.2846 63.6037 27.4288 63.4364 27.4981C63.2748 27.5615 63.0989 27.5933 62.9085 27.5933H62.4758C62.4008 27.5933 62.3518 27.5471 62.3287 27.4548C62.2998 27.3567 62.2854 27.2125 62.2854 27.0221C62.2854 26.8029 62.2998 26.6471 62.3287 26.5548C62.3518 26.4567 62.4008 26.4077 62.4758 26.4077H62.9085ZM66.5777 22.7385H65.522V21.7433H66.5777V22.7385ZM67.2354 24.0711H66.1883V23.0673H67.2354V24.0711ZM65.9027 24.0711H64.8556V23.0673H65.9027V24.0711Z" fill="#EBEDF0"/>
</svg>
