<svg width="76" height="36" viewBox="0 0 76 36" fill="none" xmlns="http://www.w3.org/2000/svg">
<path d="M67.5892 0.000112227V6.79991C67.5892 6.79991 68.3747 6.03668 68.981 5.70297C70.0301 5.12554 70.7893 4.88493 71.976 5.04515C73.4662 5.24635 76 6.14166 76 11.4059C76 15.1348 73.7677 17.5289 70.6599 17.3285C69.7674 17.2709 69.2221 17.1487 68.4665 16.6702C67.8524 16.2814 67.1504 15.3541 67.1504 15.3541L66.9311 17.1089H63.8602L64.0796 0L67.5892 0.000112227ZM69.7825 7.89663C69.2411 7.91618 68.8941 8.00272 68.4665 8.33532C68.1284 8.59827 68.0068 8.8331 67.8084 9.2127C67.4455 9.90737 67.4326 10.4029 67.4456 11.1866C67.4619 12.1733 67.4379 12.9041 68.1131 13.6239C68.6668 14.2142 69.1931 14.5074 70.0019 14.477C70.6538 14.4525 71.1067 14.1995 71.5373 13.8189C72.4103 13.0474 72.4571 12.1318 72.4147 10.9675C72.3821 10.0737 72.3566 9.4372 71.7566 8.77401C71.1907 8.1484 70.6256 7.8662 69.7825 7.89663Z" fill="#71757A"/>
<path d="M61.1214 4.67236V17.1093H57.5009V4.67236H61.1214ZM59.3459 0.311586C59.847 0.311586 60.2798 0.433068 60.6442 0.676037C61.0087 0.90382 61.1909 1.3366 61.1909 1.97439C61.1909 2.597 61.0087 3.02978 60.6442 3.27274C60.2798 3.51571 59.847 3.63719 59.3459 3.63719C58.8296 3.63719 58.3892 3.51571 58.0248 3.27274C57.6755 3.02978 57.5009 2.597 57.5009 1.97439C57.5009 1.3366 57.6755 0.90382 58.0248 0.676037C58.3892 0.433068 58.8296 0.311586 59.3459 0.311586Z" fill="#71757A"/>
<path d="M48.7267 17.3283C47.6847 17.3308 46.3376 16.9504 46.0946 16.8896L46.5333 13.9782C46.7763 14.039 47.0024 14.0921 47.3078 14.1377C48.1335 14.2611 48.6757 14.4606 49.4456 14.1377C49.9078 13.9438 50.169 13.7719 50.4815 13.3801C51.0263 12.6972 50.9202 11.1867 50.9202 11.1867V0.877441H54.4297C54.4297 0.877441 54.5879 6.62932 54.4297 10.3093C54.3681 11.7433 54.4345 12.9253 54.2104 13.9782C53.9886 15.0198 53.5685 15.5495 52.7508 16.2316C51.5219 17.2566 50.3555 17.3244 48.7267 17.3283Z" fill="#71757A"/>
<path d="M33.8094 5.26416H37.7577L40.1705 13.1606L42.1446 5.26416H46.0928L42.3639 15.5734C42.045 16.4238 41.01 18.7978 39.9511 19.9603C39.2124 20.7712 38.7348 21.2166 37.7577 21.715C37.0338 22.0843 35.7836 22.3731 35.7836 22.3731L34.9062 19.3022C34.9062 19.3022 36.228 18.9599 36.8803 18.4249C37.5967 17.8373 38.3583 16.8827 38.1963 16.4508C37.5383 14.696 33.8094 5.26416 33.8094 5.26416Z" fill="#71757A"/>
<path d="M28.1074 5.0451C29.5096 5.25528 32.3507 6.36113 32.3507 9.87065C32.3507 13.3802 32.7136 17.1089 32.7136 17.1089H29.4234L29.2952 15.793C28.9459 16.2334 28.2838 16.8133 27.4493 17.1091C26.7984 17.3398 26.3931 17.3284 25.6946 17.3284C24.9657 17.3284 24.4257 17.2 23.8335 16.9267C23.2565 16.6381 22.8009 16.2054 22.4668 15.6283C22.1327 15.0361 21.9657 14.292 21.9657 13.3961C21.9657 12.0749 22.4289 11.1031 23.3552 10.4804C24.2815 9.84266 25.2725 9.42506 27.1251 9.36432H28.9127C28.9127 9.36432 28.9732 8.68399 28.7654 8.33519C28.5098 7.90609 28.1989 7.81888 27.6687 7.67724C27.0585 7.51425 26.4631 7.58602 25.6946 7.67724C24.7276 7.79203 24.0782 8.07703 23.5011 8.33519L22.8431 6.14174C23.5112 5.79247 24.451 5.46177 25.2559 5.26436C26.0759 5.06695 27.0028 4.87955 28.1074 5.0451ZM28.3664 11.3916C27.273 11.4219 26.5137 11.6194 26.0885 11.9838C25.6633 12.3483 25.4508 12.8266 25.4508 13.4188C25.4508 13.9351 25.6026 14.3072 25.9063 14.535C26.21 14.7476 26.6048 14.8539 27.0908 14.8539C27.8197 14.8539 28.0449 14.6828 28.546 14.2576C29.0472 13.8172 29.2041 13.2925 29.2041 12.5028V11.4061L28.3664 11.3916Z" fill="#71757A"/>
<path d="M14.7333 0.845215C16.8289 0.845215 18.3551 1.30078 19.3117 2.2119C20.2836 3.10784 20.7695 4.34546 20.7695 5.92474C20.7695 6.63845 20.6632 7.3218 20.4506 7.97477C20.238 8.61256 19.8812 9.18961 19.3801 9.70591C18.8941 10.207 18.2488 10.6019 17.4439 10.8904C16.6391 11.1789 15.6445 11.3232 14.46 11.3232H12.9794V17.1088H9.53992V0.845215H14.7333ZM14.5511 3.6697H12.9794V8.49867H14.1183C14.7713 8.49867 15.3332 8.41515 15.8039 8.24811C16.2747 8.08107 16.6391 7.81533 16.8973 7.45087C17.1554 7.08642 17.2845 6.61568 17.2845 6.03863C17.2845 5.2338 17.0643 4.64157 16.6239 4.26194C16.1835 3.86711 15.4926 3.6697 14.5511 3.6697Z" fill="#71757A"/>
<path d="M17.4024 30.373C17.1889 30.373 17.0158 30.3154 16.8831 30.2C16.7562 30.0788 16.6928 29.9 16.6928 29.6634C16.6928 29.4211 16.7562 29.2423 16.8831 29.1269C17.0158 29.0057 17.1889 28.9452 17.4024 28.9452C17.6216 28.9452 17.7947 29.0057 17.9216 29.1269C18.0543 29.2423 18.1206 29.4211 18.1206 29.6634C18.1206 29.9 18.0543 30.0788 17.9216 30.2C17.7947 30.3154 17.6216 30.373 17.4024 30.373ZM23.1259 29.1875C23.2933 29.1875 23.4144 29.15 23.4894 29.075C23.5644 28.9942 23.6019 28.8702 23.6019 28.7029V27.8029H24.7009V28.7029C24.7009 28.8702 24.7529 28.9942 24.8567 29.075C24.9663 29.15 25.1048 29.1875 25.2721 29.1875H25.4625C25.5375 29.1875 25.5865 29.2336 25.6096 29.3259C25.6384 29.4182 25.6529 29.5625 25.6529 29.7586C25.6529 29.9721 25.6384 30.1279 25.6096 30.2259C25.5865 30.324 25.5375 30.373 25.4625 30.373H25.2288C25.0096 30.373 24.8077 30.3413 24.6231 30.2779C24.4384 30.2086 24.274 30.0644 24.1298 29.8452C23.9856 30.0644 23.8298 30.2086 23.6625 30.2779C23.4952 30.3413 23.3163 30.373 23.1259 30.373H20.3221C20.0856 30.373 19.8808 30.3384 19.7077 30.2692C19.5404 30.1942 19.4019 30.0961 19.2923 29.975C19.1884 29.8538 19.1106 29.7125 19.0586 29.5509C19.0125 29.3894 18.9894 29.2192 18.9894 29.0404V27.7596H20.0798V28.7548C20.0798 28.824 20.0827 28.8875 20.0884 28.9452C20.1 28.9971 20.1231 29.0432 20.1577 29.0836C20.1923 29.1182 20.2413 29.1442 20.3048 29.1615C20.3683 29.1788 20.4548 29.1875 20.5644 29.1875H23.1259ZM23.0308 27.1365H21.9836V26.1327H23.0308V27.1365ZM21.6981 27.1365H20.6509V26.1327H21.6981V27.1365ZM25.8506 29.1875C26.1679 29.1875 26.3266 29.0259 26.3266 28.7029V27.8029H27.417V28.7029C27.417 28.8702 27.466 28.9942 27.5641 29.075C27.6679 29.15 27.792 29.1875 27.9362 29.1875C28.1266 29.1875 28.2622 29.15 28.3429 29.075C28.4237 28.9942 28.4641 28.8702 28.4641 28.7029V27.8029H29.5631V28.7029C29.5631 28.8702 29.6035 28.9942 29.6843 29.075C29.7708 29.15 29.8718 29.1875 29.9872 29.1875C30.2699 29.1875 30.4112 29.0259 30.4112 28.7029V27.8029H31.5102V28.798C31.5102 29.323 31.3833 29.7182 31.1295 29.9836C30.8756 30.2432 30.5093 30.373 30.0304 30.373C29.8458 30.373 29.6612 30.3413 29.4766 30.2779C29.2977 30.2086 29.1362 30.0644 28.992 29.8452C28.8477 30.0644 28.6833 30.2086 28.4987 30.2779C28.3141 30.3413 28.1266 30.373 27.9362 30.373C27.7227 30.373 27.5237 30.3413 27.3391 30.2779C27.1545 30.2086 26.99 30.0644 26.8458 29.8452C26.7016 30.0644 26.5458 30.2086 26.3785 30.2779C26.217 30.3413 26.041 30.373 25.8506 30.373H25.4179C25.3429 30.373 25.2939 30.3269 25.2708 30.2346C25.242 30.1365 25.2275 29.9923 25.2275 29.8019C25.2275 29.5827 25.242 29.4269 25.2708 29.3346C25.2939 29.2365 25.3429 29.1875 25.4179 29.1875H25.8506ZM33.6556 30.373C33.4883 30.373 33.3296 30.3529 33.1796 30.3125C33.0296 30.2663 32.8969 30.1913 32.7815 30.0875C32.6719 29.9836 32.5825 29.848 32.5133 29.6807C32.4498 29.5077 32.4181 29.2942 32.4181 29.0404V25.0077H33.5171V28.7548C33.5171 29.0432 33.644 29.1875 33.8979 29.1875H34.1315C34.2585 29.1875 34.3219 29.3779 34.3219 29.7586C34.3219 30.1682 34.2585 30.373 34.1315 30.373H33.6556ZM34.1299 29.1875C34.303 29.1875 34.4415 29.1586 34.5453 29.1009C34.6492 29.0375 34.7011 28.9221 34.7011 28.7548V28.6596C34.7011 28.4346 34.7357 28.2269 34.8049 28.0365C34.8742 27.8404 34.9722 27.673 35.0992 27.5346C35.2261 27.3961 35.3818 27.2865 35.5665 27.2057C35.7511 27.125 35.9559 27.0846 36.1809 27.0846C36.4174 27.0846 36.628 27.125 36.8126 27.2057C36.9972 27.2865 37.1501 27.399 37.2713 27.5432C37.3982 27.6817 37.4934 27.8519 37.5568 28.0538C37.6261 28.25 37.6607 28.4663 37.6607 28.7029C37.6607 29.2336 37.5251 29.6461 37.254 29.9404C36.9886 30.2288 36.6309 30.373 36.1809 30.373C35.9559 30.373 35.7367 30.3269 35.5232 30.2346C35.3155 30.1423 35.1626 30.0125 35.0645 29.8452C34.9549 30.0413 34.8136 30.1798 34.6405 30.2605C34.4674 30.3355 34.2972 30.373 34.1299 30.373H34.0867C34.0117 30.373 33.9626 30.3269 33.9395 30.2346C33.9107 30.1365 33.8963 29.9923 33.8963 29.8019C33.8963 29.5827 33.9107 29.4269 33.9395 29.3346C33.9626 29.2365 34.0117 29.1875 34.0867 29.1875H34.1299ZM36.6049 28.7548C36.6049 28.6336 36.5761 28.524 36.5184 28.4259C36.4607 28.3279 36.3482 28.2788 36.1809 28.2788C36.0136 28.2788 35.9011 28.3279 35.8434 28.4259C35.7857 28.524 35.7568 28.6336 35.7568 28.7548C35.7568 29.0432 35.8982 29.1875 36.1809 29.1875C36.4636 29.1875 36.6049 29.0432 36.6049 28.7548ZM40.9122 30.2346C40.9122 30.5288 40.8574 30.8115 40.7478 31.0827C40.6439 31.3538 40.4968 31.5904 40.3064 31.7923C40.1218 32 39.8997 32.1644 39.6401 32.2855C39.3862 32.4067 39.1093 32.4673 38.8093 32.4673H38.2381L38.1949 31.2817H38.5237C38.766 31.2817 38.9708 31.25 39.1381 31.1865C39.2997 31.1288 39.4295 31.0509 39.5276 30.9529C39.6314 30.8548 39.7035 30.7423 39.7439 30.6154C39.7901 30.4942 39.8131 30.3673 39.8131 30.2346V27.8029H40.9122V30.2346ZM40.9122 26.8509H39.7699V25.8038H40.9122V26.8509ZM41.0828 31.2817H41.1953C41.4087 31.2817 41.5904 31.25 41.7404 31.1865C41.8962 31.1288 42.0203 31.0509 42.1126 30.9529C42.2106 30.8548 42.2799 30.7423 42.3203 30.6154C42.3664 30.4942 42.3895 30.3673 42.3895 30.2346V27.8029H43.4885V30.2346C43.4885 30.5288 43.4337 30.8115 43.3241 31.0827C43.2203 31.3538 43.0731 31.5904 42.8828 31.7923C42.6981 32 42.476 32.1644 42.2164 32.2855C41.9626 32.4067 41.6856 32.4673 41.3856 32.4673H41.1693L41.0828 31.2817ZM44.3966 25.0077H45.4956V30.373H44.3966V25.0077ZM48.2554 30.373C48.0419 30.373 47.8688 30.3096 47.7361 30.1827C47.6092 30.0557 47.5458 29.848 47.5458 29.5596C47.5458 29.2134 47.5602 28.9307 47.589 28.7115C47.6236 28.4923 47.6871 28.3163 47.7794 28.1836C47.8775 28.0452 48.0131 27.9471 48.1861 27.8894C48.3592 27.8259 48.59 27.7827 48.8784 27.7596V28.374C48.7342 28.3971 48.6217 28.4202 48.5409 28.4432C48.4602 28.4663 48.3967 28.498 48.3506 28.5384C48.3102 28.5788 48.2842 28.6307 48.2727 28.6942C48.2611 28.7577 48.2554 28.8413 48.2554 28.9452C48.4746 28.9452 48.6477 29 48.7746 29.1096C48.9073 29.2134 48.9736 29.398 48.9736 29.6634C48.9736 29.9 48.9073 30.0788 48.7746 30.2C48.6477 30.3154 48.4746 30.373 48.2554 30.373ZM53.9789 29.1875C54.1462 29.1875 54.2674 29.15 54.3424 29.075C54.4174 28.9942 54.4549 28.8702 54.4549 28.7029V27.8029H55.5539V28.7029C55.5539 28.8702 55.6059 28.9942 55.7097 29.075C55.8193 29.15 55.9578 29.1875 56.1251 29.1875H56.3155C56.3905 29.1875 56.4395 29.2336 56.4626 29.3259C56.4914 29.4182 56.5059 29.5625 56.5059 29.7586C56.5059 29.9721 56.4914 30.1279 56.4626 30.2259C56.4395 30.324 56.3905 30.373 56.3155 30.373H56.0818C55.8626 30.373 55.6607 30.3413 55.4761 30.2779C55.2914 30.2086 55.127 30.0644 54.9828 29.8452C54.8386 30.0644 54.6828 30.2086 54.5155 30.2779C54.3482 30.3413 54.1693 30.373 53.9789 30.373H51.1751C50.9386 30.373 50.7337 30.3384 50.5607 30.2692C50.3934 30.1942 50.2549 30.0961 50.1453 29.975C50.0414 29.8538 49.9636 29.7125 49.9116 29.5509C49.8655 29.3894 49.8424 29.2192 49.8424 29.0404V27.7596H50.9328V28.7548C50.9328 28.824 50.9357 28.8875 50.9414 28.9452C50.953 28.9971 50.9761 29.0432 51.0107 29.0836C51.0453 29.1182 51.0943 29.1442 51.1578 29.1615C51.2212 29.1788 51.3078 29.1875 51.4174 29.1875H53.9789ZM53.8837 27.1365H52.8366V26.1327H53.8837V27.1365ZM52.5511 27.1365H51.5039V26.1327H52.5511V27.1365ZM56.8421 29.1875C57.0094 29.1875 57.1305 29.15 57.2055 29.075C57.2805 28.9942 57.318 28.8702 57.318 28.7029V27.8029H58.4171V28.7029C58.4171 28.8702 58.469 28.9942 58.5728 29.075C58.6767 29.15 58.8123 29.1875 58.9796 29.1875H59.17C59.3027 29.1875 59.369 29.3779 59.369 29.7586C59.369 30.1682 59.3027 30.373 59.17 30.373H58.9363C58.7171 30.373 58.5152 30.3413 58.3305 30.2779C58.1517 30.2086 57.9902 30.0644 57.8459 29.8452C57.6959 30.0644 57.5373 30.2086 57.37 30.2779C57.2084 30.3413 57.0325 30.373 56.8421 30.373H56.2709C56.1959 30.373 56.1469 30.3269 56.1238 30.2346C56.095 30.1365 56.0805 29.9923 56.0805 29.8019C56.0805 29.5827 56.095 29.4269 56.1238 29.3346C56.1469 29.2365 56.1959 29.1875 56.2709 29.1875H56.8421ZM58.9277 32.3202H57.8805V31.3163H58.9277V32.3202ZM57.595 32.3202H56.5478V31.3163H57.595V32.3202ZM59.4552 29.1875C59.5648 29.1875 59.6542 29.1904 59.7235 29.1961C59.7985 29.1961 59.8648 29.2019 59.9225 29.2134C59.986 29.225 60.0465 29.2394 60.1042 29.2567C60.1619 29.274 60.2312 29.2971 60.3119 29.3259C60.0754 29.1817 59.9196 29.0086 59.8446 28.8067C59.7754 28.6048 59.7408 28.3509 59.7408 28.0452C59.7408 27.8894 59.7696 27.7307 59.8273 27.5692C59.8908 27.4019 59.9831 27.2519 60.1042 27.1192C60.2254 26.9865 60.3754 26.8769 60.5542 26.7904C60.7331 26.7038 60.9408 26.6605 61.1773 26.6605C61.4023 26.6605 61.6071 26.6894 61.7917 26.7471C61.9821 26.8048 62.1437 26.9 62.2764 27.0327C62.409 27.1654 62.5129 27.3413 62.5879 27.5605C62.6629 27.7798 62.7004 28.0509 62.7004 28.374V28.85C62.7004 29.3288 62.5648 29.7038 62.2937 29.975C62.0283 30.2404 61.6071 30.373 61.0302 30.373H59.1264C59.0514 30.373 59.0023 30.3269 58.9792 30.2346C58.9504 30.1365 58.936 29.9923 58.936 29.8019C58.936 29.5827 58.9504 29.4269 58.9792 29.3346C59.0023 29.2365 59.0514 29.1875 59.1264 29.1875H59.4552ZM61.1514 27.8548C60.9956 27.8548 60.8889 27.9009 60.8312 27.9932C60.7735 28.0855 60.7446 28.1807 60.7446 28.2788C60.7446 28.3365 60.7533 28.3942 60.7706 28.4519C60.7879 28.5038 60.8254 28.5615 60.8831 28.625C60.9408 28.6884 61.0244 28.7577 61.134 28.8327C61.2494 28.9077 61.3994 28.9942 61.584 29.0923C61.6129 29.0461 61.6302 28.9798 61.636 28.8932C61.6417 28.8009 61.6446 28.723 61.6446 28.6596V28.4692C61.6446 28.3884 61.636 28.3105 61.6187 28.2355C61.6071 28.1605 61.5812 28.0971 61.5408 28.0452C61.5062 27.9875 61.4571 27.9413 61.3937 27.9067C61.3302 27.8721 61.2494 27.8548 61.1514 27.8548ZM61.7485 26.0375H60.6062V24.9904H61.7485V26.0375ZM64.8456 30.373C64.6783 30.373 64.5196 30.3529 64.3696 30.3125C64.2196 30.2663 64.0869 30.1913 63.9716 30.0875C63.8619 29.9836 63.7725 29.848 63.7033 29.6807C63.6398 29.5077 63.6081 29.2942 63.6081 29.0404V25.0077H64.7071V28.7548C64.7071 29.0432 64.8341 29.1875 65.0879 29.1875H65.3216C65.4485 29.1875 65.5119 29.3779 65.5119 29.7586C65.5119 30.1682 65.4485 30.373 65.3216 30.373H64.8456ZM66.2286 29.1875C66.0844 28.9913 65.9921 28.8182 65.9517 28.6682C65.9113 28.5125 65.8911 28.3509 65.8911 28.1836C65.8911 27.9932 65.9286 27.8086 66.0036 27.6298C66.0786 27.4509 66.1853 27.2952 66.3238 27.1625C66.4622 27.024 66.6267 26.9144 66.8171 26.8336C67.0132 26.7471 67.2296 26.7038 67.4661 26.7038C67.7026 26.7038 67.9103 26.7471 68.0892 26.8336C68.268 26.9202 68.4151 27.0327 68.5305 27.1711C68.6517 27.3096 68.7411 27.4654 68.7988 27.6384C68.8622 27.8057 68.894 27.973 68.894 28.1404C68.894 28.3769 68.8622 28.5759 68.7988 28.7375C68.7411 28.8932 68.6632 29.0432 68.5651 29.1875H69.5171C69.644 29.1875 69.7074 29.3779 69.7074 29.7586C69.7074 30.1682 69.644 30.373 69.5171 30.373H68.7036C68.4382 30.373 68.2017 30.3615 67.994 30.3384C67.7863 30.3096 67.6247 30.2577 67.5094 30.1827C67.4286 30.2288 67.3276 30.2663 67.2065 30.2952C67.0911 30.3182 66.9699 30.3355 66.843 30.3471C66.7219 30.3586 66.6007 30.3673 66.4796 30.373C66.3642 30.373 66.2661 30.373 66.1853 30.373H65.2767C65.2017 30.373 65.1526 30.3269 65.1296 30.2346C65.1007 30.1365 65.0863 29.9923 65.0863 29.8019C65.0863 29.5827 65.1007 29.4269 65.1296 29.3346C65.1526 29.2365 65.2017 29.1875 65.2767 29.1875H66.2286ZM67.3969 27.898C67.2642 27.898 67.1546 27.9413 67.068 28.0279C66.9872 28.1144 66.9469 28.2298 66.9469 28.374C66.9469 28.4894 66.9844 28.6048 67.0594 28.7202C67.1344 28.8355 67.2555 28.9423 67.4228 29.0404C67.5901 28.9423 67.7026 28.8355 67.7603 28.7202C67.818 28.6048 67.8469 28.4894 67.8469 28.374C67.8469 28.2298 67.8036 28.1144 67.7171 28.0279C67.6363 27.9413 67.5296 27.898 67.3969 27.898ZM67.994 26.1327H66.8517V25.0855H67.994V26.1327ZM69.9085 29.1875C70.2258 29.1875 70.3845 29.0259 70.3845 28.7029V27.8029H71.4749V28.7029C71.4749 28.8702 71.5239 28.9942 71.622 29.075C71.7258 29.15 71.8499 29.1875 71.9941 29.1875C72.1845 29.1875 72.32 29.15 72.4008 29.075C72.4816 28.9942 72.522 28.8702 72.522 28.7029V27.8029H73.621V28.7029C73.621 28.8702 73.6614 28.9942 73.7422 29.075C73.8287 29.15 73.9297 29.1875 74.045 29.1875C74.3277 29.1875 74.4691 29.0259 74.4691 28.7029V27.8029H75.5681V28.798C75.5681 29.323 75.4412 29.7182 75.1874 29.9836C74.9335 30.2432 74.5672 30.373 74.0883 30.373C73.9037 30.373 73.7191 30.3413 73.5345 30.2779C73.3556 30.2086 73.1941 30.0644 73.0499 29.8452C72.9056 30.0644 72.7412 30.2086 72.5566 30.2779C72.372 30.3413 72.1845 30.373 71.9941 30.373C71.7806 30.373 71.5816 30.3413 71.397 30.2779C71.2124 30.2086 71.0479 30.0644 70.9037 29.8452C70.7595 30.0644 70.6037 30.2086 70.4364 30.2779C70.2749 30.3413 70.0989 30.373 69.9085 30.373H69.4758C69.4008 30.373 69.3518 30.3269 69.3287 30.2346C69.2999 30.1365 69.2854 29.9923 69.2854 29.8019C69.2854 29.5827 69.2999 29.4269 69.3287 29.3346C69.3518 29.2365 69.4008 29.1875 69.4758 29.1875H69.9085ZM73.5777 25.5182H72.522V24.523H73.5777V25.5182ZM74.2354 26.8509H73.1883V25.8471H74.2354V26.8509ZM72.9027 26.8509H71.8556V25.8471H72.9027V26.8509Z" fill="#71757A"/>
</svg>
