<svg width="32" height="33" viewBox="0 0 32 33" fill="none" xmlns="http://www.w3.org/2000/svg">
<path fill-rule="evenodd" clip-rule="evenodd" d="M22.3352 16.5C22.3352 15.9477 21.8875 15.5 21.3352 15.5H14.3323C13.78 15.5 13.3323 15.9477 13.3323 16.5C13.3323 17.0523 13.78 17.5 14.3323 17.5H21.3352C21.8875 17.5 22.3352 17.0523 22.3352 16.5Z" fill="white"/>
<path fill-rule="evenodd" clip-rule="evenodd" d="M13.3328 22.1667C13.3328 21.6144 13.7805 21.1667 14.3328 21.1667H21.3357C21.888 21.1667 22.3357 21.6144 22.3357 22.1667C22.3357 22.719 21.888 23.1667 21.3357 23.1667H14.3328C13.7805 23.1667 13.3328 22.719 13.3328 22.1667Z" fill="white"/>
<path fill-rule="evenodd" clip-rule="evenodd" d="M13.3328 10.8333C13.3328 10.2811 13.7805 9.83334 14.3328 9.83334H21.3357C21.888 9.83334 22.3357 10.2811 22.3357 10.8333C22.3357 11.3856 21.888 11.8333 21.3357 11.8333H14.3328C13.7805 11.8333 13.3328 11.3856 13.3328 10.8333Z" fill="white"/>
<rect x="3.99512" y="4.495" width="24.01" height="24.01" rx="6.66667" stroke="white" stroke-width="2" stroke-linecap="round" stroke-linejoin="round"/>
<path d="M10 22.1667C10 22.7189 10.4477 23.1667 11 23.1667C11.5523 23.1667 12 22.7189 12 22.1667C12 21.6144 11.5523 21.1667 11 21.1667C10.4477 21.1667 10 21.6144 10 22.1667Z" fill="white"/>
<path d="M10 16.5C10 17.0523 10.4477 17.5 11 17.5C11.5523 17.5 12 17.0523 12 16.5C12 15.9477 11.5523 15.5 11 15.5C10.4477 15.5 10 15.9477 10 16.5Z" fill="white"/>
<path d="M10 10.8333C10 11.3856 10.4477 11.8333 11 11.8333C11.5523 11.8333 12 11.3856 12 10.8333C12 10.281 11.5523 9.83333 11 9.83333C10.4477 9.83333 10 10.281 10 10.8333Z" fill="white"/>
</svg>
