<svg width="48" height="48" viewBox="0 0 48 48" fill="none" xmlns="http://www.w3.org/2000/svg">
<path d="M4 22V18C4 11 8 8 14 8H34C40 8 44 11 44 18V30C44 37 40 40 34 40H24" stroke="#2E2EE5" stroke-width="3" stroke-miterlimit="10" stroke-linecap="round" stroke-linejoin="round"/>
<path d="M24 29C26.7614 29 29 26.7614 29 24C29 21.2386 26.7614 19 24 19C21.2386 19 19 21.2386 19 24C19 26.7614 21.2386 29 24 29Z" stroke="#2E2EE5" stroke-width="3" stroke-miterlimit="10" stroke-linecap="round" stroke-linejoin="round"/>
<path d="M37 19V29" stroke="#2E2EE5" stroke-width="3" stroke-miterlimit="10" stroke-linecap="round" stroke-linejoin="round"/>
<path d="M4 31H14.6801C15.9601 31 17 32.0399 17 33.3199V35.88" stroke="#FFBF00" stroke-width="3" stroke-miterlimit="10" stroke-linecap="round" stroke-linejoin="round"/>
<path d="M6.43994 28.5601L4 31L6.43994 33.4399" stroke="#FFBF00" stroke-width="3" stroke-miterlimit="10" stroke-linecap="round" stroke-linejoin="round"/>
<path d="M17 41.5602H6.31995C5.03995 41.5602 4 40.5201 4 39.2401V36.6802" stroke="#FFBF00" stroke-width="3" stroke-miterlimit="10" stroke-linecap="round" stroke-linejoin="round"/>
<path d="M14.5625 44.0006L17.0024 41.5607L14.5625 39.1206" stroke="#FFBF00" stroke-width="3" stroke-miterlimit="10" stroke-linecap="round" stroke-linejoin="round"/>
</svg>
