<svg width="65" height="64" viewBox="0 0 65 64" fill="none" xmlns="http://www.w3.org/2000/svg">
<g clip-path="url(#clip0_244_1729)">
<path d="M32.8333 60C48.2973 60 60.8333 47.464 60.8333 32C60.8333 16.536 48.2973 4 32.8333 4C17.3694 4 4.83333 16.536 4.83333 32C4.83333 47.464 17.3694 60 32.8333 60Z" fill="#F0F0F0"/>
<path d="M32.8333 4C20.7943 4 10.5311 11.5985 6.57491 22.2609H59.0919C55.1355 11.5985 44.8723 4 32.8333 4Z" fill="#A2001D"/>
<path d="M32.8333 60.0002C44.8723 60.0002 55.1355 52.4017 59.0917 41.7393H6.57491C10.5311 52.4017 20.7943 60.0002 32.8333 60.0002Z" fill="#0052B4"/>
</g>
<rect x="2.83333" y="2" width="60" height="60" rx="30" stroke="white" stroke-width="4"/>
<defs>
<clipPath id="clip0_244_1729">
<rect x="4.83333" y="4" width="56" height="56" rx="28" fill="white"/>
</clipPath>
</defs>
</svg>
