<svg width="381" height="109" viewBox="0 0 381 109" fill="none" xmlns="http://www.w3.org/2000/svg">
<path d="M133.675 19.14C133.675 20.3933 133.649 21.5667 133.595 22.66C133.542 23.7267 133.475 24.74 133.395 25.7C133.315 26.66 133.222 27.58 133.115 28.46C133.009 29.34 132.902 30.1933 132.795 31.02H129.715C129.609 30.1933 129.489 29.3533 129.355 28.5C129.222 27.62 129.102 26.7 128.995 25.74C128.889 24.78 128.795 23.7533 128.715 22.66C128.662 21.5667 128.635 20.3933 128.635 19.14V14.1H133.675V19.14ZM131.275 38.5C130.422 38.5 129.729 38.2867 129.195 37.86C128.662 37.4067 128.395 36.7133 128.395 35.78C128.395 34.7933 128.662 34.0867 129.195 33.66C129.729 33.2333 130.422 33.02 131.275 33.02C132.102 33.02 132.782 33.2333 133.315 33.66C133.849 34.0867 134.115 34.7933 134.115 35.78C134.115 36.7133 133.849 37.4067 133.315 37.86C132.782 38.2867 132.102 38.5 131.275 38.5ZM152.153 23.54V17.82L165.393 12.98L166.473 18.02L157.033 21.34L162.073 26.42C163.726 28.0733 165.059 29.3533 166.073 30.26C167.086 31.14 167.966 31.7933 168.713 32.22C169.459 32.62 170.153 32.86 170.793 32.94C171.433 32.9933 172.193 33.02 173.073 33.02C173.419 33.02 173.646 33.2333 173.753 33.66C173.886 34.0867 173.953 34.7533 173.953 35.66C173.953 36.6467 173.886 37.3667 173.753 37.82C173.646 38.2733 173.419 38.5 173.073 38.5C172.219 38.5 171.446 38.4867 170.753 38.46C170.086 38.4333 169.433 38.3267 168.793 38.14C168.153 37.9267 167.513 37.6067 166.873 37.18C166.233 36.7533 165.526 36.14 164.753 35.34C164.353 36.5133 163.659 37.34 162.673 37.82C161.713 38.2733 160.633 38.5 159.433 38.5H144.473C143.379 38.5 142.433 38.34 141.633 38.02C140.859 37.6733 140.219 37.22 139.713 36.66C139.233 36.1 138.873 35.4467 138.633 34.7C138.419 33.9533 138.313 33.1667 138.313 32.34V26.42H143.353V31.02C143.353 31.34 143.366 31.6333 143.393 31.9C143.446 32.14 143.553 32.3533 143.713 32.54C143.873 32.7 144.099 32.82 144.393 32.9C144.686 32.98 145.086 33.02 145.593 33.02H158.753C159.206 33.02 159.499 32.9267 159.633 32.74C159.793 32.5533 159.873 32.3533 159.873 32.14C159.873 31.7933 159.806 31.5 159.673 31.26C159.539 30.9933 159.313 30.6867 158.993 30.34L152.153 23.54ZM175.71 33.02C176.484 33.02 177.044 32.8467 177.39 32.5C177.737 32.1267 177.91 31.5533 177.91 30.78V26.62H182.99V30.78C182.99 31.5533 183.23 32.1267 183.71 32.5C184.19 32.8467 184.817 33.02 185.59 33.02H186.47C187.084 33.02 187.39 33.9 187.39 35.66C187.39 37.5533 187.084 38.5 186.47 38.5H185.39C184.377 38.5 183.444 38.3533 182.59 38.06C181.764 37.74 181.017 37.0733 180.35 36.06C179.657 37.0733 178.924 37.74 178.15 38.06C177.404 38.3533 176.59 38.5 175.71 38.5H173.07C172.724 38.5 172.497 38.2867 172.39 37.86C172.257 37.4067 172.19 36.74 172.19 35.86C172.19 34.8467 172.257 34.1267 172.39 33.7C172.497 33.2467 172.724 33.02 173.07 33.02H175.71ZM185.35 47.5H180.51V42.86H185.35V47.5ZM179.19 47.5H174.35V42.86H179.19V47.5ZM187.349 33.02C188.122 33.02 188.682 32.8467 189.029 32.5C189.375 32.1267 189.549 31.5533 189.549 30.78V13.7H194.629V30.78C194.629 31.5533 194.869 32.1267 195.349 32.5C195.829 32.8467 196.455 33.02 197.229 33.02H197.909C198.495 33.02 198.789 33.9 198.789 35.66C198.789 37.5533 198.495 38.5 197.909 38.5H197.029C196.042 38.5 195.109 38.3533 194.229 38.06C193.375 37.74 192.615 37.0733 191.949 36.06C191.309 37.0733 190.602 37.74 189.829 38.06C189.055 38.3533 188.229 38.5 187.349 38.5H186.469C186.122 38.5 185.895 38.2867 185.789 37.86C185.655 37.4067 185.589 36.74 185.589 35.86C185.589 34.8467 185.655 34.1267 185.789 33.7C185.895 33.2467 186.122 33.02 186.469 33.02H187.349ZM207.394 33.02C207.821 33.02 208.101 32.9267 208.234 32.74C208.394 32.5533 208.474 32.3533 208.474 32.14C208.474 31.7933 208.407 31.4867 208.274 31.22C208.167 30.9533 207.941 30.66 207.594 30.34L200.754 23.54V17.82L213.994 12.98L215.074 18.02L205.634 21.34L210.674 26.42C211.314 27.0867 211.847 27.7 212.274 28.26C212.701 28.82 213.034 29.3667 213.274 29.9C213.541 30.4067 213.727 30.9133 213.834 31.42C213.941 31.9267 213.994 32.46 213.994 33.02C213.994 34.0067 213.834 34.8467 213.514 35.54C213.194 36.2333 212.767 36.8067 212.234 37.26C211.701 37.6867 211.074 38.0067 210.354 38.22C209.634 38.4067 208.861 38.5 208.034 38.5H197.914C197.567 38.5 197.341 38.2867 197.234 37.86C197.101 37.4067 197.034 36.74 197.034 35.86C197.034 34.8467 197.101 34.1267 197.234 33.7C197.341 33.2467 197.567 33.02 197.914 33.02H207.394ZM237.074 23.54V17.82L250.314 12.98L251.394 18.02L241.954 21.34L246.994 26.42C248.648 28.0733 249.981 29.3533 250.994 30.26C252.008 31.14 252.888 31.7933 253.634 32.22C254.381 32.62 255.074 32.86 255.714 32.94C256.354 32.9933 257.114 33.02 257.994 33.02C258.341 33.02 258.568 33.2333 258.674 33.66C258.808 34.0867 258.874 34.7533 258.874 35.66C258.874 36.6467 258.808 37.3667 258.674 37.82C258.568 38.2733 258.341 38.5 257.994 38.5C257.141 38.5 256.368 38.4867 255.674 38.46C255.008 38.4333 254.354 38.3267 253.714 38.14C253.074 37.9267 252.434 37.6067 251.794 37.18C251.154 36.7533 250.448 36.14 249.674 35.34C249.274 36.5133 248.581 37.34 247.594 37.82C246.634 38.2733 245.554 38.5 244.354 38.5H229.394C228.301 38.5 227.354 38.34 226.554 38.02C225.781 37.6733 225.141 37.22 224.634 36.66C224.154 36.1 223.794 35.4467 223.554 34.7C223.341 33.9533 223.234 33.1667 223.234 32.34V26.42H228.274V31.02C228.274 31.34 228.288 31.6333 228.314 31.9C228.368 32.14 228.474 32.3533 228.634 32.54C228.794 32.7 229.021 32.82 229.314 32.9C229.608 32.98 230.008 33.02 230.514 33.02H243.674C244.128 33.02 244.421 32.9267 244.554 32.74C244.714 32.5533 244.794 32.3533 244.794 32.14C244.794 31.7933 244.728 31.5 244.594 31.26C244.461 30.9933 244.234 30.6867 243.914 30.34L237.074 23.54ZM261.752 33.02C262.526 33.02 263.072 32.8467 263.392 32.5C263.739 32.1267 263.912 31.5533 263.912 30.78V26.62H268.992V31.22C268.992 33.6467 268.406 35.4733 267.232 36.7C266.086 37.9 264.406 38.5 262.192 38.5H257.992C257.646 38.5 257.419 38.2867 257.312 37.86C257.179 37.4067 257.112 36.74 257.112 35.86C257.112 34.8467 257.179 34.1267 257.312 33.7C257.419 33.2467 257.646 33.02 257.992 33.02H261.752ZM268.752 47.5H263.912V42.86H268.752V47.5ZM262.592 47.5H257.752V42.86H262.592V47.5ZM23.6466 80.54C23.6466 81.9533 23.9532 82.9533 24.5666 83.54C25.2066 84.1 25.9799 84.38 26.8866 84.38H27.6866C28.0332 84.38 28.2599 84.4733 28.3666 84.66C28.4999 84.8467 28.5666 85.1 28.5666 85.42C28.5666 85.7933 28.4999 86.0733 28.3666 86.26C28.2599 86.42 28.0332 86.5 27.6866 86.5H26.8866C26.4599 86.5 26.0466 86.4733 25.6466 86.42C25.2466 86.34 24.8599 86.2067 24.4866 86.02C24.1399 85.8333 23.8066 85.5667 23.4866 85.22C23.1666 84.8467 22.8866 84.38 22.6466 83.82C22.3266 84.38 21.9266 84.8333 21.4466 85.18C20.9932 85.5267 20.5132 85.8067 20.0066 86.02C19.4999 86.2067 18.9799 86.34 18.4466 86.42C17.9399 86.4733 17.4466 86.5 16.9666 86.5C15.1532 86.5 13.6866 86.02 12.5666 85.06C11.4732 84.0733 10.9266 82.6467 10.9266 80.78V78.14C10.9266 77.2333 11.0332 76.46 11.2466 75.82C11.4866 75.1533 11.9266 74.54 12.5666 73.98H10.6066C8.76656 73.98 7.36656 74.4733 6.40656 75.46C5.47323 76.42 5.00656 77.62 5.00656 79.06V96.18H3.04656V79.02C3.04656 78.0867 3.20656 77.1933 3.52656 76.34C3.87323 75.4867 4.36656 74.74 5.00656 74.1C5.64656 73.4333 6.44656 72.9133 7.40656 72.54C8.36656 72.14 9.48656 71.94 10.7666 71.94H18.0066C19.0466 71.94 19.9266 72.1 20.6466 72.42C21.3666 72.7133 21.9399 73.1133 22.3666 73.62C22.8199 74.1 23.1399 74.66 23.3266 75.3C23.5399 75.94 23.6466 76.58 23.6466 77.22V80.54ZM17.2066 84.38C18.5666 84.38 19.6466 84.0867 20.4466 83.5C21.2732 82.8867 21.6866 81.94 21.6866 80.66V77.66C21.6866 76.7 21.3932 75.86 20.8066 75.14C20.2466 74.3933 19.3399 74.02 18.0866 74.02H16.4466C15.1932 74.02 14.2732 74.3933 13.6866 75.14C13.1266 75.8867 12.8466 76.7933 12.8466 77.86V80.5C12.8466 81.78 13.2332 82.7533 14.0066 83.42C14.7799 84.06 15.8466 84.38 17.2066 84.38ZM27.6797 86.5C27.333 86.5 27.1064 86.42 26.9997 86.26C26.8664 86.0733 26.7997 85.82 26.7997 85.5C26.7997 85.1267 26.8664 84.8467 26.9997 84.66C27.1064 84.4733 27.333 84.38 27.6797 84.38H36.7597C37.8797 84.38 38.773 84.0733 39.4397 83.46C40.133 82.8467 40.4797 82.0333 40.4797 81.02V75.14H42.4797V80.94C42.4797 82.7 41.9597 84.0733 40.9197 85.06C39.9064 86.02 38.5597 86.5 36.8797 86.5H27.6797ZM37.6397 93.62H35.0397V91.22H37.6397V93.62ZM32.7197 93.62H30.0797V91.22H32.7197V93.62ZM40.3891 94.1H41.2691C42.6557 94.1 43.8424 93.8733 44.8291 93.42C45.8424 92.9667 46.6691 92.3533 47.3091 91.58C47.9491 90.8333 48.4157 89.9533 48.7091 88.94C49.0291 87.9533 49.1891 86.9267 49.1891 85.86V75.14H51.1891V85.86C51.1891 87.46 50.9357 88.8867 50.4291 90.14C49.9491 91.42 49.2691 92.5 48.3891 93.38C47.5357 94.2867 46.5224 94.98 45.3491 95.46C44.2024 95.94 42.9624 96.18 41.6291 96.18H40.6291L40.3891 94.1ZM56.3409 61.7H58.3409V86.5H56.3409V61.7ZM78.4344 77.18C79.101 77.9533 79.581 78.7133 79.8744 79.46C80.1677 80.18 80.3144 80.8867 80.3144 81.58C80.3144 83.02 79.7944 84.2067 78.7544 85.14C77.741 86.0467 76.3144 86.5 74.4744 86.5H63.1144L62.9144 84.38H74.2744C75.4744 84.38 76.4077 84.1 77.0744 83.54C77.7677 82.98 78.1144 82.2467 78.1144 81.34C78.1144 80.8867 77.9944 80.4067 77.7544 79.9C77.541 79.3667 77.221 78.8733 76.7944 78.42L69.1144 69.74L70.6744 68.26L78.4344 77.18ZM97.5344 82.82C99.0544 82.82 100.281 82.5133 101.214 81.9C102.148 81.2867 102.614 80.5267 102.614 79.62V72.78H97.7744C96.2544 72.78 95.0677 73.3 94.2144 74.34C93.3877 75.38 92.9744 76.7533 92.9744 78.46C92.9744 80.1133 93.361 81.26 94.1344 81.9C94.9344 82.5133 96.0677 82.82 97.5344 82.82ZM104.574 80.06C104.574 81.3133 104.814 82.3533 105.294 83.18C105.801 83.98 106.721 84.38 108.054 84.38H108.614C108.961 84.38 109.188 84.4733 109.294 84.66C109.428 84.8467 109.494 85.1 109.494 85.42C109.494 85.7933 109.428 86.0733 109.294 86.26C109.188 86.42 108.961 86.5 108.614 86.5H108.054C106.854 86.5 105.814 86.2333 104.934 85.7C104.054 85.1667 103.428 84.1667 103.054 82.7C102.734 83.1533 102.321 83.5133 101.814 83.78C101.334 84.0467 100.814 84.26 100.254 84.42C99.721 84.58 99.1744 84.6867 98.6144 84.74C98.081 84.7933 97.5744 84.82 97.0944 84.82C95.1477 84.82 93.6544 84.34 92.6144 83.38C91.5744 82.3933 91.0544 80.8333 91.0544 78.7C91.0544 77.7133 91.1877 76.7533 91.4544 75.82C91.7477 74.86 92.1744 74.0067 92.7344 73.26C93.2944 72.5133 93.9877 71.9133 94.8144 71.46C95.6677 71.0067 96.6677 70.78 97.8144 70.78H102.614V67.98H104.574V80.06ZM109.697 84.38C110.897 84.38 111.817 84.0733 112.457 83.46C113.097 82.8467 113.417 82.0333 113.417 81.02V61.7H115.377V81.02C115.377 81.66 115.484 82.1933 115.697 82.62C115.911 83.0467 116.191 83.3933 116.537 83.66C116.884 83.9267 117.271 84.1133 117.697 84.22C118.124 84.3267 118.551 84.38 118.977 84.38H119.537C119.884 84.38 120.111 84.4733 120.217 84.66C120.351 84.8467 120.417 85.1 120.417 85.42C120.417 85.7933 120.351 86.0733 120.217 86.26C120.111 86.42 119.884 86.5 119.537 86.5H118.937C117.977 86.5 117.084 86.3133 116.257 85.94C115.431 85.5667 114.777 84.8733 114.297 83.86C113.737 84.8733 113.044 85.5667 112.217 85.94C111.391 86.3133 110.551 86.5 109.697 86.5H108.617C108.271 86.5 108.044 86.42 107.937 86.26C107.804 86.0733 107.737 85.82 107.737 85.5C107.737 85.1267 107.804 84.8467 107.937 84.66C108.044 84.4733 108.271 84.38 108.617 84.38H109.697ZM129.275 84.26C130.555 81.9133 131.741 79.94 132.835 78.34C133.955 76.7133 135.021 75.3933 136.035 74.38C137.075 73.3667 138.075 72.6333 139.035 72.18C139.995 71.7267 140.955 71.5 141.915 71.5C142.928 71.5 143.848 71.7 144.675 72.1C145.528 72.5 146.261 73.06 146.875 73.78C147.488 74.4733 147.955 75.2867 148.275 76.22C148.621 77.1533 148.795 78.14 148.795 79.18C148.795 80.06 148.648 80.94 148.355 81.82C148.088 82.7 147.661 83.4867 147.075 84.18C146.488 84.8733 145.741 85.4333 144.835 85.86C143.955 86.2867 142.901 86.5 141.675 86.5H130.395C129.355 86.5 128.408 86.3133 127.555 85.94C126.701 85.5667 126.021 84.8733 125.515 83.86C124.955 84.8733 124.221 85.5667 123.315 85.94C122.435 86.3133 121.528 86.5 120.595 86.5H119.555C119.208 86.5 118.981 86.42 118.875 86.26C118.741 86.0733 118.675 85.82 118.675 85.5C118.675 85.1267 118.741 84.8467 118.875 84.66C118.981 84.4733 119.208 84.38 119.555 84.38H120.755C121.955 84.38 122.901 84.0733 123.595 83.46C124.288 82.8467 124.635 82.0333 124.635 81.02V75.14H126.635V81.02C126.635 81.8733 126.875 82.5933 127.355 83.18C127.861 83.74 128.501 84.1 129.275 84.26ZM146.755 79.18C146.755 78.38 146.621 77.6333 146.355 76.94C146.115 76.2467 145.768 75.66 145.315 75.18C144.888 74.6733 144.368 74.2867 143.755 74.02C143.141 73.7267 142.488 73.58 141.795 73.58C140.221 73.58 138.581 74.4467 136.875 76.18C135.168 77.8867 133.275 80.62 131.195 84.38H141.715C142.355 84.38 142.968 84.2867 143.555 84.1C144.168 83.8867 144.701 83.58 145.155 83.18C145.635 82.7533 146.021 82.22 146.315 81.58C146.608 80.9133 146.755 80.1133 146.755 79.18ZM158.963 86.5C158.269 86.5 157.603 86.4067 156.963 86.22C156.349 86.0067 155.803 85.66 155.323 85.18C154.843 84.7 154.456 84.0733 154.163 83.3C153.896 82.5 153.763 81.5133 153.763 80.34V61.7H155.763V80.06C155.763 81.2867 156.029 82.3133 156.563 83.14C157.096 83.9667 157.989 84.38 159.243 84.38H159.803C160.389 84.38 160.683 84.7267 160.683 85.42C160.683 86.14 160.389 86.5 159.803 86.5H158.963ZM167.829 84.38C168.442 84.38 168.989 84.3667 169.469 84.34C169.949 84.3133 170.456 84.2733 170.989 84.22C169.256 83.66 167.882 83.1267 166.869 82.62C165.882 82.0867 165.136 81.54 164.629 80.98C164.149 80.42 163.842 79.8333 163.709 79.22C163.576 78.58 163.509 77.86 163.509 77.06C163.509 76.3133 163.656 75.5533 163.949 74.78C164.242 74.0067 164.669 73.3 165.229 72.66C165.816 72.02 166.522 71.5 167.349 71.1C168.202 70.7 169.176 70.5 170.269 70.5C171.282 70.5 172.202 70.6467 173.029 70.94C173.856 71.2067 174.562 71.66 175.149 72.3C175.736 72.9133 176.189 73.7133 176.509 74.7C176.829 75.6867 176.989 76.8867 176.989 78.3V79.98C176.989 82.0067 176.362 83.6067 175.109 84.78C173.882 85.9267 171.936 86.5 169.269 86.5H159.789C159.442 86.5 159.216 86.42 159.109 86.26C158.976 86.0733 158.909 85.82 158.909 85.5C158.909 85.1267 158.976 84.8467 159.109 84.66C159.216 84.4733 159.442 84.38 159.789 84.38H167.829ZM170.069 72.62C169.349 72.62 168.696 72.7533 168.109 73.02C167.549 73.2867 167.069 73.6333 166.669 74.06C166.269 74.4867 165.949 74.98 165.709 75.54C165.496 76.0733 165.389 76.62 165.389 77.18C165.389 77.74 165.442 78.26 165.549 78.74C165.656 79.22 165.962 79.7 166.469 80.18C167.002 80.66 167.816 81.1667 168.909 81.7C170.002 82.2067 171.522 82.78 173.469 83.42C173.922 83.0467 174.296 82.58 174.589 82.02C174.882 81.4333 175.029 80.74 175.029 79.94V78.54C175.029 76.6733 174.642 75.22 173.869 74.18C173.096 73.14 171.829 72.62 170.069 72.62ZM171.749 66.3H168.789V63.86H171.749V66.3ZM193.572 86.5C192.879 86.5 192.212 86.4067 191.572 86.22C190.959 86.0067 190.412 85.66 189.932 85.18C189.452 84.7 189.066 84.0733 188.772 83.3C188.506 82.5 188.372 81.5133 188.372 80.34V61.7H190.372V80.06C190.372 81.2867 190.639 82.3133 191.172 83.14C191.706 83.9667 192.599 84.38 193.852 84.38H194.412C194.999 84.38 195.292 84.7267 195.292 85.42C195.292 86.14 194.999 86.5 194.412 86.5H193.572ZM195.118 84.38C196.238 84.38 197.065 84.1 197.598 83.54C198.158 82.98 198.438 82.2733 198.438 81.42V79.62C198.438 77.2467 199.025 75.42 200.198 74.14C201.372 72.8333 203.012 72.18 205.118 72.18C207.305 72.18 208.932 72.8467 209.998 74.18C211.065 75.4867 211.598 77.18 211.598 79.26V80.74C211.598 82.1 211.892 83.0467 212.478 83.58C213.092 84.1133 213.878 84.38 214.838 84.38H215.598C215.945 84.38 216.172 84.4733 216.278 84.66C216.412 84.8467 216.478 85.1 216.478 85.42C216.478 85.7933 216.412 86.0733 216.278 86.26C216.172 86.42 215.945 86.5 215.598 86.5H214.838C214.412 86.5 213.985 86.4733 213.558 86.42C213.158 86.34 212.772 86.1933 212.398 85.98C212.025 85.74 211.678 85.42 211.358 85.02C211.038 84.62 210.758 84.0867 210.518 83.42C210.145 84.0333 209.745 84.54 209.318 84.94C208.892 85.34 208.425 85.66 207.918 85.9C207.438 86.1133 206.932 86.2733 206.398 86.38C205.892 86.46 205.385 86.5 204.878 86.5C203.785 86.5 202.758 86.3 201.798 85.9C200.838 85.4733 200.052 84.7 199.438 83.58C199.198 84.2467 198.905 84.78 198.558 85.18C198.212 85.5533 197.852 85.8467 197.478 86.06C197.105 86.2467 196.718 86.3667 196.318 86.42C195.918 86.4733 195.518 86.5 195.118 86.5H194.398C194.052 86.5 193.825 86.42 193.718 86.26C193.585 86.0733 193.518 85.82 193.518 85.5C193.518 85.1267 193.585 84.8467 193.718 84.66C193.825 84.4733 194.052 84.38 194.398 84.38H195.118ZM209.638 79.58C209.638 77.98 209.292 76.7 208.598 75.74C207.905 74.7533 206.705 74.26 204.998 74.26C203.478 74.26 202.318 74.7267 201.518 75.66C200.718 76.5667 200.318 77.94 200.318 79.78C200.318 81.3 200.758 82.4467 201.638 83.22C202.518 83.9933 203.612 84.38 204.918 84.38C206.465 84.38 207.638 83.9667 208.438 83.14C209.238 82.2867 209.638 81.1 209.638 79.58ZM216.929 84.38C218.129 84.38 219.076 84.0733 219.769 83.46C220.463 82.8467 220.809 82.0333 220.809 81.02V75.14H222.809V81.02C222.809 81.66 222.916 82.1933 223.129 82.62C223.369 83.0467 223.663 83.3933 224.009 83.66C224.383 83.9267 224.783 84.1133 225.209 84.22C225.663 84.3267 226.116 84.38 226.569 84.38C227.903 84.38 228.929 84.0733 229.649 83.46C230.369 82.8467 230.729 82.0333 230.729 81.02V75.14H232.729V81.02C232.729 81.66 232.823 82.1933 233.009 82.62C233.223 83.0467 233.489 83.3933 233.809 83.66C234.129 83.9267 234.503 84.1133 234.929 84.22C235.356 84.3267 235.796 84.38 236.249 84.38C237.343 84.38 238.223 84.0733 238.889 83.46C239.556 82.8467 239.889 82.0333 239.889 81.02V75.14H241.889V80.94C241.889 82.7 241.369 84.0733 240.329 85.06C239.316 86.02 237.969 86.5 236.289 86.5C235.303 86.5 234.396 86.3133 233.569 85.94C232.743 85.5667 232.089 84.8733 231.609 83.86C231.023 84.8733 230.276 85.5667 229.369 85.94C228.489 86.3133 227.556 86.5 226.569 86.5C225.503 86.5 224.543 86.3133 223.689 85.94C222.836 85.5667 222.169 84.8733 221.689 83.86C221.103 84.8733 220.369 85.5667 219.489 85.94C218.609 86.3133 217.689 86.5 216.729 86.5H215.609C215.263 86.5 215.036 86.42 214.929 86.26C214.796 86.0733 214.729 85.82 214.729 85.5C214.729 85.1267 214.796 84.8467 214.929 84.66C215.036 84.4733 215.263 84.38 215.609 84.38H216.929ZM233.169 65.42H230.369V63.02H233.169V65.42ZM235.529 69.86H232.769V67.46H235.529V69.86ZM230.729 69.86H227.969V67.46H230.729V69.86ZM258.572 86.5C257.879 86.5 257.212 86.4067 256.572 86.22C255.959 86.0067 255.412 85.66 254.932 85.18C254.452 84.7 254.066 84.0733 253.772 83.3C253.506 82.5 253.372 81.5133 253.372 80.34V61.7H255.372V80.06C255.372 81.2867 255.639 82.3133 256.172 83.14C256.706 83.9667 257.599 84.38 258.852 84.38H259.412C259.999 84.38 260.292 84.7267 260.292 85.42C260.292 86.14 259.999 86.5 259.412 86.5H258.572ZM262.958 84.38C264.078 84.38 264.985 84.0733 265.678 83.46C266.372 82.8467 266.718 82.0333 266.718 81.02V75.14H268.678V80.94C268.678 82.7 268.158 84.0733 267.118 85.06C266.105 86.02 264.758 86.5 263.078 86.5H259.398C259.052 86.5 258.825 86.42 258.718 86.26C258.585 86.0733 258.518 85.82 258.518 85.5C258.518 85.1267 258.585 84.8467 258.718 84.66C258.825 84.4733 259.052 84.38 259.398 84.38H262.958ZM264.398 93.66H261.438V91.22H264.398V93.66Z" fill="#FFBF00"/>
<rect x="287" y="16.5" width="80" height="80" rx="40" fill="#E6E6F2" fill-opacity="0.2"/>
<g filter="url(#filter0_d_244_1476)">
<path d="M294.351 63.3949C292.989 63.2758 291.959 62.048 292.078 60.6865L293.734 41.7588C294.355 32.7453 298.453 24.5379 305.253 18.7084C312.051 12.9122 320.724 10.1576 329.723 10.9449C348.119 12.5544 361.785 28.8407 360.176 47.2371L358.52 66.1648C358.401 67.5263 357.173 68.5565 355.812 68.4374C354.45 68.3183 353.42 67.0905 353.539 65.7291L355.195 46.8014C356.563 31.1611 344.961 17.2971 329.287 15.9259C321.617 15.2548 314.252 17.5884 308.501 22.506C302.715 27.4538 299.262 34.4127 298.721 42.1282L297.062 61.0891C296.94 62.4838 295.745 63.5169 294.351 63.3949Z" fill="#FFBF00"/>
<path d="M306.744 43.7345L306.313 43.6967C299.339 43.0866 293.164 48.2682 292.554 55.2415L292.008 61.4843C291.398 68.4577 296.58 74.6328 303.553 75.2429L303.985 75.2807C310.958 75.8908 317.133 70.7092 317.743 63.7359L318.289 57.493C318.899 50.5197 313.718 44.3446 306.744 43.7345Z" fill="#FFBF00"/>
<path d="M347.422 47.2926L346.991 47.2548C340.017 46.6447 333.842 51.8263 333.232 58.7996L332.686 65.0424C332.076 72.0158 337.257 78.1909 344.231 78.801L344.663 78.8388C351.636 79.4489 357.811 74.2673 358.421 67.294L358.967 61.0511C359.577 54.0778 354.396 47.9027 347.422 47.2926Z" fill="#FFBF00"/>
</g>
<defs>
<filter id="filter0_d_244_1476" x="263.664" y="-9.33398" width="126.668" height="126.668" filterUnits="userSpaceOnUse" color-interpolation-filters="sRGB">
<feFlood flood-opacity="0" result="BackgroundImageFix"/>
<feColorMatrix in="SourceAlpha" type="matrix" values="0 0 0 0 0 0 0 0 0 0 0 0 0 0 0 0 0 0 127 0" result="hardAlpha"/>
<feOffset dy="10"/>
<feGaussianBlur stdDeviation="10"/>
<feComposite in2="hardAlpha" operator="out"/>
<feColorMatrix type="matrix" values="0 0 0 0 0.0588235 0 0 0 0 0.0666667 0 0 0 0 0.0784314 0 0 0 0.24 0"/>
<feBlend mode="normal" in2="BackgroundImageFix" result="effect1_dropShadow_244_1476"/>
<feBlend mode="normal" in="SourceGraphic" in2="effect1_dropShadow_244_1476" result="shape"/>
</filter>
</defs>
</svg>
