<svg width="1366" height="258" viewBox="0 0 1366 258" fill="none" xmlns="http://www.w3.org/2000/svg">
<g clip-path="url(#clip0_14_3803)">
<rect width="1366" height="258" fill="#FFBF00"/>
<g style="mix-blend-mode:soft-light" opacity="0.5">
<path d="M511.753 287.18C508.557 300.729 497.433 338.834 483.592 358.567C473.936 372.332 467.54 380.031 453.652 389.508C443.386 396.513 424.998 403.318 424.916 403.348L405.609 358.364C405.609 358.364 425.042 350.59 433.92 341.188C443.67 330.863 453.395 314.869 450.094 308.617C436.679 283.216 361.66 147.058 361.66 147.058L421.689 139.387L473.715 254.757L488.388 130.864L548.417 123.193L511.753 287.18ZM63.0035 116.939C94.8651 112.867 118.954 116.829 135.27 128.823C151.787 140.557 161.579 158.429 164.648 182.441C166.034 193.292 165.746 203.888 163.783 214.229C161.789 224.339 157.485 233.806 150.869 242.629C144.454 251.193 135.409 258.449 123.733 264.4C112.057 270.35 97.2146 274.477 79.2059 276.778L56.6953 279.654L67.9366 367.62L15.6418 374.303L-15.9572 127.03L63.0035 116.939ZM231.602 163.678C243.685 159.084 257.415 154.434 274.529 154.805C296.257 155.277 341.603 166.57 348.422 219.928C355.23 273.206 367.964 329.104 368.003 329.274L317.978 335.667L313.472 315.909C309.017 323.283 300.076 333.387 287.964 339.505C278.516 344.278 272.331 344.893 261.71 346.25C250.628 347.666 242.17 346.763 232.634 343.758C223.3 340.492 215.533 334.797 209.333 326.673C203.103 318.317 199.117 307.329 197.377 293.707C194.81 273.62 199.963 257.944 212.837 246.678C225.682 235.181 239.938 226.906 267.987 222.383L295.166 218.91C295.166 218.91 294.763 208.449 290.927 203.549C286.207 197.522 281.31 196.8 272.973 195.677C263.38 194.384 254.466 196.632 242.959 199.512C228.479 203.136 219.16 208.732 210.888 213.778L196.622 181.707C206.102 175.098 219.748 168.244 231.602 163.678ZM666.615 40.2985C666.644 40.488 680.201 127.504 684.94 183.701C686.788 205.624 690.096 223.466 688.734 239.911C687.386 256.177 682.027 265.047 670.92 277.007C654.227 294.979 636.625 298.275 611.868 301.499C596.029 303.562 574.809 300.395 570.997 299.943L572.011 254.826C575.823 255.277 579.364 255.645 584.096 255.746C596.89 256.018 605.522 257.997 616.6 251.592C623.25 247.747 626.886 244.625 630.877 238.061C637.833 226.62 633.286 203.859 633.286 203.859L613.256 47.1165L666.615 40.2985ZM290.798 250.794C274.234 253.38 263.073 257.857 257.317 264.225C251.56 270.592 249.257 278.278 250.408 287.282C251.411 295.132 254.443 300.494 259.503 303.367C264.533 306.009 270.743 306.857 278.13 305.913C289.213 304.497 292.305 301.459 299.098 294.021C305.862 286.352 307.228 278.068 305.694 266.063L303.563 249.388L290.798 250.794ZM799.894 274.087L744.847 281.121L720.684 92.0289L775.73 84.9947L799.894 274.087ZM878.231 104.777C878.231 104.777 888.691 91.6457 897.261 85.394C912.09 74.5764 923.165 69.4434 941.52 69.5737C964.568 69.7375 1004.83 78.427 1015.06 158.465C1022.3 215.159 993.016 255.896 945.375 258.887C931.694 259.746 923.164 258.948 910.747 253.141C900.679 248.433 888.24 235.749 888.18 235.689L888.255 262.794L841.566 268.76L811.659 8.20853L865.02 1.39142L878.231 104.777ZM945.43 126.693C935.609 118.281 926.47 115.088 913.711 117.189C905.517 118.538 900.408 120.529 894.553 126.417C889.924 131.071 888.53 134.878 886.252 141.035C882.084 152.301 882.851 159.861 884.571 171.75C886.737 186.721 887.792 197.879 899.455 207.511C909.021 215.411 917.592 218.845 929.83 216.812C939.694 215.173 946.089 210.446 951.896 203.824C963.671 190.397 962.603 176.385 959.696 158.765C957.465 145.24 955.84 135.611 945.43 126.693ZM98.3872 165.214C90.9246 160.067 80.0359 158.407 65.7215 160.236L41.8254 163.29L51.2074 236.71L68.5236 234.498C78.4513 233.229 86.8317 230.867 93.6644 227.413C100.497 223.959 105.522 219.21 108.739 213.168C111.956 207.125 113.004 199.717 111.883 190.944C110.319 178.707 105.82 170.13 98.3872 165.214ZM740.263 22.1421C747.882 21.1685 754.698 22.1751 760.711 25.161C766.695 27.9161 770.306 34.1419 771.546 43.8389C772.755 53.305 770.826 60.2392 765.757 64.6414C760.688 69.0436 754.344 71.7314 746.725 72.7051C738.875 73.7083 731.943 72.7169 725.93 69.7311C720.148 66.7156 716.652 60.4745 715.442 51.0083C714.203 41.3116 716.017 34.3926 720.884 30.2507C725.954 25.8485 732.413 23.1453 740.263 22.1421Z" fill="#F5F7FA"/>
</g>
<path d="M775.731 84.9938L799.895 274.087L744.848 281.121L720.684 92.0282L775.731 84.9938ZM740.263 22.1418C747.882 21.1681 754.698 22.1744 760.711 25.1604C766.695 27.9155 770.307 34.1414 771.546 43.8385C772.755 53.3047 770.826 60.2387 765.757 64.6409C760.687 69.0432 754.344 71.731 746.724 72.7047C738.874 73.7079 731.943 72.7164 725.93 69.7304C720.147 66.7149 716.651 60.4742 715.442 51.008C714.203 41.3109 716.017 34.3916 720.885 30.2498C725.954 25.8475 732.413 23.145 740.263 22.1418Z" fill="#2E2EE5"/>
</g>
<defs>
<clipPath id="clip0_14_3803">
<rect width="1366" height="258" fill="white"/>
</clipPath>
</defs>
</svg>
