<svg width="85" height="87" viewBox="0 0 85 87" fill="none" xmlns="http://www.w3.org/2000/svg">
<rect x="11" y="13" width="64" height="64" rx="32" fill="#E6E6F2"/>
<g filter="url(#filter0_d_244_1490)">
<path d="M65.4443 52.5965L60.9863 53.6788C59.756 53.9727 58.7184 54.8188 58.213 56.0059L56.373 60.2082C54.7968 63.8447 49.5438 63.3048 48.7027 59.4568L45.171 43.2206C44.4889 40.0022 47.6402 37.3334 50.6623 38.5882L66.0652 44.888C69.682 46.3822 69.2727 51.6733 65.4443 52.5965Z" fill="#2626BF"/>
<path d="M67.0241 35.7634C66.9242 36.9057 66.7445 38.041 66.5141 39.1451C66.3381 39.9328 65.4728 40.3389 64.7233 40.0324L52.1901 34.8939C49.3978 33.7662 46.2777 34.2428 43.9689 36.1555C41.6577 38.0948 40.6154 41.1355 41.2676 44.0835L44.1298 57.2632C44.3015 58.0545 43.7247 58.8338 42.9185 58.8704C41.7911 58.9056 40.695 58.89 39.5792 58.7924C25.3934 57.5513 14.9907 44.8898 16.613 30.6302C18.1377 17.4864 30.069 7.47488 43.2779 8.25575C57.6025 9.13423 68.2652 21.5776 67.0241 35.7634Z" fill="#2626BF"/>
</g>
<defs>
<filter id="filter0_d_244_1490" x="-7.66797" y="-7.6673" width="101.334" height="101.334" filterUnits="userSpaceOnUse" color-interpolation-filters="sRGB">
<feFlood flood-opacity="0" result="BackgroundImageFix"/>
<feColorMatrix in="SourceAlpha" type="matrix" values="0 0 0 0 0 0 0 0 0 0 0 0 0 0 0 0 0 0 127 0" result="hardAlpha"/>
<feOffset dy="8"/>
<feGaussianBlur stdDeviation="8"/>
<feComposite in2="hardAlpha" operator="out"/>
<feColorMatrix type="matrix" values="0 0 0 0 0.0588235 0 0 0 0 0.0666667 0 0 0 0 0.0784314 0 0 0 0.24 0"/>
<feBlend mode="normal" in2="BackgroundImageFix" result="effect1_dropShadow_244_1490"/>
<feBlend mode="normal" in="SourceGraphic" in2="effect1_dropShadow_244_1490" result="shape"/>
</filter>
</defs>
</svg>
