<svg width="65" height="64" viewBox="0 0 65 64" fill="none" xmlns="http://www.w3.org/2000/svg">
<g clip-path="url(#clip0_244_1710)">
<path d="M4.83333 32.0001C4.83333 44.039 12.4318 54.3022 23.094 58.2584L25.5289 32L23.094 5.7417C12.4318 9.69801 4.83333 19.9611 4.83333 32.0001Z" fill="#6DA544"/>
<path d="M60.8333 32C60.8333 16.5361 48.2972 4 32.8333 4C29.4084 4 26.1274 4.61611 23.094 5.74158V58.2584C26.1274 59.384 29.4084 60 32.8333 60C48.2972 60 60.8333 47.4639 60.8333 32Z" fill="#D80027"/>
<path d="M23.0942 41.7389C28.473 41.7389 32.8333 37.3786 32.8333 31.9998C32.8333 26.6211 28.473 22.2607 23.0942 22.2607C17.7155 22.2607 13.3552 26.6211 13.3552 31.9998C13.3552 37.3786 17.7155 41.7389 23.0942 41.7389Z" fill="#FFDA44"/>
<path d="M17.616 27.1304V33.2173C17.616 36.2428 20.0686 38.6956 23.0943 38.6956C26.1199 38.6956 28.5725 36.243 28.5725 33.2173V27.1304H17.616Z" fill="#D80027"/>
<path d="M23.0943 35.0435C22.0873 35.0435 21.2681 34.2243 21.2681 33.2174V30.7827H24.9203V33.2175C24.9203 34.2243 24.101 35.0435 23.0943 35.0435Z" fill="#F0F0F0"/>
</g>
<rect x="2.83333" y="2" width="60" height="60" rx="30" stroke="white" stroke-width="4"/>
<defs>
<clipPath id="clip0_244_1710">
<rect x="4.83333" y="4" width="56" height="56" rx="28" fill="white"/>
</clipPath>
</defs>
</svg>
