<svg width="48" height="48" viewBox="0 0 48 48" fill="none" xmlns="http://www.w3.org/2000/svg">
<path d="M20.9801 4.46012L11.0001 8.22012C8.70007 9.08012 6.82007 11.8001 6.82007 14.2401V29.1001C6.82007 31.4601 8.38007 34.5601 10.2801 35.9801L18.8801 42.4001C21.7001 44.5201 26.3401 44.5201 29.1601 42.4001L37.7601 35.9801C39.6601 34.5601 41.2201 31.4601 41.2201 29.1001V14.2401C41.2201 11.7801 39.3401 9.06012 37.0401 8.20012L27.0601 4.46012C25.3601 3.84012 22.6401 3.84012 20.9801 4.46012Z" stroke="#2E2EE5" stroke-width="3" stroke-linecap="round" stroke-linejoin="round"/>
<path d="M24 25C26.2091 25 28 23.2091 28 21C28 18.7909 26.2091 17 24 17C21.7909 17 20 18.7909 20 21C20 23.2091 21.7909 25 24 25Z" stroke="#FFBF00" stroke-width="3" stroke-miterlimit="10" stroke-linecap="round" stroke-linejoin="round"/>
<path d="M24 25V31" stroke="#FFBF00" stroke-width="3" stroke-miterlimit="10" stroke-linecap="round" stroke-linejoin="round"/>
</svg>
