<svg width="100%" height="212" viewBox="0 0 100% 212" fill="none" xmlns="http://www.w3.org/2000/svg">
<g clip-path="url(#clip0_244_1077)">
<rect width="100%" height="212" fill="#FFBF00"/>
<g style="mix-blend-mode:soft-light" opacity="0.5">
<path d="M220.688 136.845C219.293 142.758 214.439 159.386 208.399 167.997C204.186 174.003 201.394 177.363 195.334 181.498C190.862 184.549 182.86 187.513 182.795 187.537L174.37 167.908C174.408 167.892 182.857 164.506 186.723 160.413C190.978 155.907 195.222 148.928 193.781 146.199C187.934 135.126 155.261 75.8266 155.191 75.7006L181.386 72.3524L204.089 122.697L210.491 68.6335L236.686 65.2862L220.688 136.845ZM24.8668 62.5571C38.7701 60.7805 49.2815 62.509 56.4012 67.7429C63.6087 72.8631 67.8821 80.6619 69.221 91.1397C69.8262 95.8749 69.7003 100.499 68.8434 105.012C67.9736 109.423 66.0948 113.555 63.2079 117.405C60.4088 121.142 56.4618 124.309 51.3669 126.905C46.2719 129.502 39.7947 131.302 31.9363 132.306L22.1136 133.561L27.0189 171.947L4.19892 174.863L-9.58943 66.9597L24.8668 62.5571ZM98.4364 82.9526C103.709 80.9477 109.701 78.9191 117.169 79.0811C126.651 79.2868 146.438 84.2152 149.413 107.499C152.386 130.758 157.945 155.161 157.957 155.214L136.129 158.004L134.162 149.382C132.218 152.599 128.317 157.008 123.031 159.678C118.908 161.761 116.209 162.029 111.575 162.622C106.739 163.24 103.048 162.845 98.8866 161.534C94.8137 160.109 91.4242 157.623 88.7186 154.078C86.0001 150.432 84.2611 145.637 83.5015 139.693C82.3815 130.928 84.6298 124.087 90.2476 119.171C95.8526 114.154 102.074 110.544 114.314 108.57L126.174 107.054C126.174 107.054 125.999 102.489 124.324 100.351C122.265 97.7211 120.128 97.406 116.49 96.9158C112.304 96.3518 108.414 97.3327 103.393 98.5895C97.0743 100.171 93.0069 102.612 89.3973 104.814L83.1723 90.8199C87.3092 87.9362 93.2641 84.9447 98.4364 82.9526ZM288.266 29.1131C288.266 29.1131 294.192 67.1404 296.262 91.6898C297.069 101.256 298.512 109.042 297.917 116.218C297.329 123.316 294.991 127.187 290.144 132.405C282.86 140.248 275.179 141.687 264.376 143.094C257.464 143.994 248.204 142.612 246.54 142.415L246.983 122.727C248.646 122.924 250.191 123.085 252.256 123.129C257.839 123.247 261.606 124.111 266.44 121.316C269.342 119.638 270.929 118.275 272.671 115.411C275.706 110.418 273.721 100.486 273.721 100.486L264.981 32.0886L288.266 29.1131ZM124.268 120.967C117.04 122.096 112.169 124.05 109.657 126.828C107.145 129.606 106.141 132.96 106.643 136.889C107.081 140.315 108.403 142.654 110.611 143.908C112.806 145.061 115.516 145.432 118.74 145.02C123.576 144.402 124.926 143.076 127.89 139.831C130.841 136.484 131.438 132.869 130.768 127.63L129.838 120.353L124.268 120.967ZM346.423 131.132L322.402 134.201L311.858 51.6866L335.878 48.6169L346.423 131.132ZM380.607 57.2497C380.607 57.2497 385.172 51.5194 388.911 48.7913C395.382 44.0711 400.215 41.8309 408.224 41.8878C418.281 41.9592 435.851 45.7513 440.315 80.6774C443.476 105.417 430.695 123.194 409.906 124.499C403.936 124.874 400.214 124.525 394.796 121.991C390.412 119.941 384.999 114.427 384.949 114.376L384.981 126.204L364.607 128.808L351.556 15.1107L374.841 12.1351L380.607 57.2497ZM409.93 66.8132C405.645 63.1426 401.657 61.7492 396.089 62.6658C392.514 63.2545 390.285 64.1236 387.73 66.6929C385.71 68.724 385.102 70.3849 384.108 73.0714C382.288 77.9879 382.623 81.2868 383.373 86.4749C384.318 93.0077 384.779 97.8771 389.868 102.08C394.042 105.527 397.783 107.025 403.123 106.138C407.427 105.423 410.218 103.36 412.752 100.471C417.89 94.6118 417.424 88.4975 416.156 80.8087C415.182 74.9068 414.473 70.7045 409.93 66.8132ZM40.3069 83.6222C37.0504 81.3761 32.2982 80.6526 26.0518 81.4508L15.6249 82.7833L19.7193 114.822L27.275 113.856C31.6071 113.302 35.2639 112.272 38.2454 110.765C41.2271 109.257 43.4202 107.185 44.8239 104.548C46.2277 101.911 46.6845 98.6786 46.1953 94.8501C45.5129 89.5105 43.5504 85.7675 40.3069 83.6222ZM320.402 21.191C323.726 20.7663 326.7 21.2046 329.324 22.5074C331.935 23.7097 333.511 26.4269 334.052 30.6584C334.58 34.7892 333.738 37.815 331.526 39.736C329.314 41.657 326.546 42.8302 323.221 43.2551C319.795 43.6928 316.771 43.2595 314.147 41.9565C311.623 40.6406 310.098 37.9174 309.57 33.7867C309.029 29.5555 309.821 26.5363 311.945 24.7289C314.157 22.8079 316.976 21.6288 320.402 21.191Z" fill="#F5F7FA"/>
</g>
<path d="M335.878 48.6171L346.423 131.132L322.402 134.201L311.857 51.6867L335.878 48.6171ZM320.401 21.1903C323.726 20.7654 326.7 21.2045 329.324 22.5075C331.936 23.7097 333.511 26.4266 334.052 30.6581C334.58 34.7889 333.738 37.8147 331.526 39.7357C329.314 41.6567 326.546 42.8296 323.221 43.2545C319.795 43.6922 316.771 43.2596 314.147 41.9566C311.623 40.6407 310.098 37.9174 309.57 33.7866C309.029 29.5551 309.821 26.5358 311.945 24.7284C314.157 22.8074 316.976 21.628 320.401 21.1903Z" fill="#2E2EE5"/>
<rect x="116" y="139" width="128" height="41" rx="20.5" fill="#2E2EE5"/>
<path d="M147.386 162C146.639 162 146.036 161.808 145.578 161.424C145.119 161.029 144.89 160.459 144.89 159.712V158.896C144.89 158.597 144.916 158.347 144.97 158.144C145.023 157.941 145.124 157.776 145.274 157.648H144.906C144.394 157.648 144.015 157.755 143.77 157.968C143.524 158.181 143.402 158.491 143.402 158.896V165.872H141.77V158.832C141.77 158.459 141.834 158.101 141.962 157.76C142.1 157.408 142.298 157.099 142.554 156.832C142.81 156.565 143.13 156.352 143.514 156.192C143.898 156.032 144.346 155.952 144.858 155.952H147.754C148.202 155.952 148.575 156.016 148.874 156.144C149.183 156.261 149.434 156.427 149.626 156.64C149.818 156.843 149.951 157.083 150.026 157.36C150.111 157.637 150.154 157.931 150.154 158.24V159.648C150.154 160.064 150.079 160.421 149.93 160.72C149.791 161.008 149.594 161.248 149.338 161.44C149.092 161.632 148.799 161.776 148.458 161.872C148.127 161.957 147.77 162 147.386 162ZM147.514 160.24C147.887 160.24 148.159 160.16 148.33 160C148.511 159.84 148.602 159.621 148.602 159.344V158.656C148.602 158.379 148.527 158.155 148.378 157.984C148.239 157.803 148.004 157.712 147.674 157.712H147.338C147.028 157.712 146.799 157.803 146.65 157.984C146.511 158.165 146.442 158.395 146.442 158.672V159.312C146.442 159.6 146.522 159.829 146.682 160C146.852 160.16 147.13 160.24 147.514 160.24ZM154.248 162C153.949 162 153.661 161.963 153.384 161.888C153.117 161.803 152.883 161.664 152.68 161.472C152.477 161.28 152.317 161.029 152.2 160.72C152.083 160.4 152.024 160.005 152.024 159.536V152.08H153.656V159.136C153.656 159.477 153.731 159.749 153.88 159.952C154.04 160.144 154.275 160.24 154.584 160.24H154.952C155.187 160.24 155.304 160.523 155.304 161.088C155.304 161.696 155.187 162 154.952 162H154.248ZM156.425 160.24C157.14 160.24 157.497 159.893 157.497 159.2V157.312H159.129V159.312C159.129 160.197 158.905 160.869 158.457 161.328C158.009 161.776 157.38 162 156.569 162H154.953C154.814 162 154.724 161.931 154.681 161.792C154.628 161.643 154.601 161.429 154.601 161.152C154.601 160.843 154.628 160.613 154.681 160.464C154.724 160.315 154.814 160.24 154.953 160.24H156.425ZM158.633 155.44H156.825V153.808H158.633V155.44ZM170.891 160.24C171.605 160.24 171.963 159.893 171.963 159.2V157.312H173.595V159.2C173.595 159.573 173.712 159.84 173.947 160C174.181 160.16 174.459 160.24 174.779 160.24H175.099C175.237 160.24 175.328 160.315 175.371 160.464C175.424 160.603 175.451 160.811 175.451 161.088C175.451 161.397 175.424 161.627 175.371 161.776C175.328 161.925 175.237 162 175.099 162H174.715C174.32 162 173.952 161.936 173.611 161.808C173.269 161.669 172.976 161.397 172.731 160.992C172.485 161.397 172.203 161.669 171.883 161.808C171.573 161.936 171.243 162 170.891 162H165.499C165.061 162 164.683 161.936 164.363 161.808C164.053 161.669 163.797 161.488 163.595 161.264C163.403 161.04 163.259 160.779 163.163 160.48C163.077 160.181 163.035 159.867 163.035 159.536V157.264H164.651V159.12C164.651 159.472 164.731 159.749 164.891 159.952C165.051 160.144 165.376 160.24 165.867 160.24H170.891ZM170.283 156.016H168.619V154.448H170.283V156.016ZM167.995 156.016H166.331V154.448H167.995V156.016ZM176.214 160.24C176.928 160.24 177.286 159.893 177.286 159.2V157.312H178.934V159.2C178.934 159.573 179.046 159.84 179.27 160C179.504 160.16 179.776 160.24 180.086 160.24H180.502C180.747 160.24 180.87 160.523 180.87 161.088C180.87 161.696 180.747 162 180.502 162H180.038C179.632 162 179.264 161.936 178.934 161.808C178.603 161.669 178.315 161.397 178.07 160.992C177.803 161.397 177.515 161.669 177.206 161.808C176.896 161.936 176.566 162 176.214 162H175.094C174.955 162 174.864 161.931 174.822 161.792C174.768 161.643 174.742 161.429 174.742 161.152C174.742 160.843 174.768 160.613 174.822 160.464C174.864 160.315 174.955 160.24 175.094 160.24H176.214ZM178.598 165.424H176.79V163.792H178.598V165.424ZM181.972 160.24C182.687 160.24 183.044 159.893 183.044 159.2V157.312H184.676V159.312C184.676 160.197 184.452 160.869 184.004 161.328C183.556 161.776 182.927 162 182.116 162H180.5C180.361 162 180.271 161.931 180.228 161.792C180.175 161.643 180.148 161.429 180.148 161.152C180.148 160.843 180.175 160.613 180.228 160.464C180.271 160.315 180.361 160.24 180.5 160.24H181.972ZM183.604 153.2H181.908V151.648H183.604V153.2ZM184.724 155.44H183.06V153.872H184.724V155.44ZM182.436 155.44H180.772V153.872H182.436V155.44ZM190.326 161.12C189.963 160.789 189.718 160.416 189.59 160C189.472 159.573 189.414 159.2 189.414 158.88C189.414 158.464 189.483 158.075 189.622 157.712C189.76 157.349 189.958 157.035 190.214 156.768C190.47 156.501 190.774 156.293 191.126 156.144C191.488 155.984 191.883 155.904 192.31 155.904C192.694 155.904 193.067 155.968 193.43 156.096C193.792 156.213 194.171 156.405 194.566 156.672L193.862 158.08C193.542 157.931 193.264 157.824 193.03 157.76C192.795 157.696 192.555 157.664 192.31 157.664C191.926 157.664 191.616 157.792 191.382 158.048C191.158 158.293 191.046 158.576 191.046 158.896C191.046 159.301 191.179 159.627 191.446 159.872C191.712 160.117 192.038 160.24 192.422 160.24H194.902L194.806 162H192.518C192.134 162 191.792 162.064 191.494 162.192C191.195 162.32 190.944 162.485 190.742 162.688C190.539 162.901 190.384 163.141 190.278 163.408C190.171 163.685 190.118 163.973 190.118 164.272C190.118 164.581 190.16 164.864 190.246 165.12C190.331 165.387 190.475 165.616 190.678 165.808C190.88 166 191.142 166.149 191.462 166.256C191.782 166.363 192.182 166.416 192.662 166.416H195.398L195.318 168.16H192.646C191.91 168.16 191.275 168.064 190.742 167.872C190.219 167.68 189.787 167.413 189.446 167.072C189.115 166.741 188.87 166.347 188.71 165.888C188.56 165.429 188.486 164.933 188.486 164.4C188.486 163.739 188.63 163.12 188.918 162.544C189.206 161.979 189.675 161.504 190.326 161.12ZM198.195 164.128C198.6 164.128 198.947 164.069 199.235 163.952C199.533 163.845 199.779 163.696 199.971 163.504C200.163 163.312 200.312 163.083 200.419 162.816C200.525 162.56 200.589 162.288 200.611 162H199.523C198.968 162 198.515 161.941 198.163 161.824C197.811 161.707 197.533 161.536 197.331 161.312C197.128 161.077 196.984 160.795 196.899 160.464C196.824 160.133 196.787 159.76 196.787 159.344C196.787 158.928 196.845 158.539 196.963 158.176C197.08 157.803 197.251 157.477 197.475 157.2C197.709 156.923 197.997 156.704 198.339 156.544C198.68 156.373 199.075 156.288 199.523 156.288C199.885 156.288 200.227 156.347 200.547 156.464C200.877 156.581 201.165 156.768 201.411 157.024C201.656 157.28 201.848 157.611 201.987 158.016C202.136 158.421 202.211 158.917 202.211 159.504V161.744C202.211 162.288 202.12 162.811 201.939 163.312C201.757 163.813 201.496 164.251 201.155 164.624C200.824 165.008 200.413 165.312 199.923 165.536C199.432 165.76 198.883 165.872 198.275 165.872H196.659L196.563 164.128H198.195ZM198.355 159.232C198.355 159.605 198.435 159.867 198.595 160.016C198.765 160.165 199.096 160.24 199.587 160.24H200.643V159.488C200.643 158.933 200.536 158.544 200.323 158.32C200.12 158.096 199.832 157.984 199.459 157.984C199.107 157.984 198.835 158.091 198.643 158.304C198.451 158.517 198.355 158.827 198.355 159.232ZM206.868 159.216C206.868 159.557 206.974 159.813 207.188 159.984C207.401 160.155 207.668 160.24 207.988 160.24H208.164C208.398 160.24 208.516 160.523 208.516 161.088C208.516 161.696 208.398 162 208.164 162H207.988C207.774 162 207.556 161.968 207.332 161.904C207.118 161.829 206.937 161.685 206.788 161.472V161.744C206.788 162.32 206.692 162.859 206.5 163.36C206.308 163.861 206.041 164.299 205.7 164.672C205.369 165.045 204.969 165.339 204.5 165.552C204.041 165.765 203.54 165.872 202.996 165.872H202.596L202.468 164.128H202.724C203.172 164.128 203.556 164.059 203.876 163.92C204.196 163.792 204.452 163.616 204.644 163.392C204.846 163.168 204.996 162.912 205.092 162.624C205.188 162.336 205.236 162.043 205.236 161.744V157.312H206.868V159.216ZM208.845 160.24C209.581 160.24 209.949 159.893 209.949 159.2V157.312H211.565V159.2C211.565 159.573 211.677 159.84 211.901 160C212.135 160.16 212.402 160.24 212.701 160.24C213.501 160.24 213.901 159.893 213.901 159.2V157.312H215.533V159.2C215.533 159.573 215.629 159.84 215.821 160C216.023 160.16 216.258 160.24 216.525 160.24C216.845 160.24 217.09 160.155 217.261 159.984C217.442 159.803 217.533 159.541 217.533 159.2V157.312H219.165V159.312C219.165 160.197 218.935 160.869 218.477 161.328C218.029 161.776 217.399 162 216.589 162C216.226 162 215.879 161.936 215.549 161.808C215.218 161.669 214.93 161.397 214.685 160.992C214.429 161.397 214.125 161.669 213.773 161.808C213.431 161.936 213.074 162 212.701 162C212.295 162 211.922 161.936 211.581 161.808C211.25 161.669 210.962 161.397 210.717 160.992C210.461 161.397 210.173 161.669 209.853 161.808C209.533 161.936 209.191 162 208.829 162H208.141C208.002 162 207.911 161.931 207.869 161.792C207.815 161.643 207.789 161.429 207.789 161.152C207.789 160.843 207.815 160.613 207.869 160.464C207.911 160.315 208.002 160.24 208.141 160.24H208.845ZM215.549 153.2H213.853V151.648H215.549V153.2ZM216.669 155.44H215.005V153.872H216.669V155.44ZM214.381 155.44H212.717V153.872H214.381V155.44Z" fill="white"/>
<path d="M90.4513 59.04C90.9313 59.04 91.2753 58.936 91.4833 58.728C91.6913 58.504 91.7953 58.2 91.7953 57.816V56.4H90.6913C90.1313 56.4 89.7553 56.544 89.5633 56.832C89.3873 57.104 89.2993 57.456 89.2993 57.888C89.2993 58.256 89.3793 58.544 89.5393 58.752C89.6993 58.944 90.0033 59.04 90.4513 59.04ZM94.7233 58.512C94.7233 59.312 95.0753 59.712 95.7793 59.712H96.4273C96.6353 59.712 96.7713 59.84 96.8353 60.096C96.9153 60.352 96.9553 60.752 96.9553 61.296C96.9553 61.888 96.9153 62.32 96.8353 62.592C96.7713 62.864 96.6353 63 96.4273 63H95.7793C94.9153 63 94.2353 62.864 93.7393 62.592C93.2433 62.32 92.8593 61.888 92.5873 61.296C92.1873 61.696 91.7393 61.952 91.2433 62.064C90.7633 62.16 90.2913 62.208 89.8273 62.208C88.7073 62.208 87.8513 61.856 87.2593 61.152C86.6833 60.448 86.3953 59.432 86.3953 58.104C86.3953 57.512 86.4753 56.936 86.6353 56.376C86.8113 55.8 87.0593 55.288 87.3793 54.84C87.7153 54.392 88.1313 54.032 88.6273 53.76C89.1233 53.488 89.6993 53.352 90.3553 53.352H91.7953V51.768H94.7233V58.512ZM97.3339 59.712C97.6379 59.712 97.8859 59.72 98.0779 59.736C98.2859 59.736 98.4699 59.752 98.6299 59.784C98.8059 59.816 98.9739 59.856 99.1339 59.904C99.2939 59.952 99.4859 60.016 99.7099 60.096C99.0539 59.696 98.6219 59.216 98.4139 58.656C98.2219 58.096 98.1259 57.392 98.1259 56.544C98.1259 56.112 98.2059 55.672 98.3659 55.224C98.5419 54.76 98.7979 54.344 99.1339 53.976C99.4699 53.608 99.8859 53.304 100.382 53.064C100.878 52.824 101.454 52.704 102.11 52.704C102.734 52.704 103.302 52.784 103.814 52.944C104.342 53.104 104.79 53.368 105.158 53.736C105.526 54.104 105.814 54.592 106.022 55.2C106.23 55.808 106.334 56.56 106.334 57.456V58.776C106.334 60.104 105.958 61.144 105.206 61.896C104.47 62.632 103.302 63 101.702 63H96.4219C96.2139 63 96.0779 62.872 96.0139 62.616C95.9339 62.344 95.8939 61.944 95.8939 61.416C95.8939 60.808 95.9339 60.376 96.0139 60.12C96.0779 59.848 96.2139 59.712 96.4219 59.712H97.3339ZM102.038 56.016C101.606 56.016 101.31 56.144 101.15 56.4C100.99 56.656 100.91 56.92 100.91 57.192C100.91 57.352 100.934 57.512 100.982 57.672C101.03 57.816 101.134 57.976 101.294 58.152C101.454 58.328 101.686 58.52 101.99 58.728C102.31 58.936 102.726 59.176 103.238 59.448C103.318 59.32 103.366 59.136 103.382 58.896C103.398 58.64 103.406 58.424 103.406 58.248V57.72C103.406 57.496 103.382 57.28 103.334 57.072C103.302 56.864 103.23 56.688 103.118 56.544C103.022 56.384 102.886 56.256 102.71 56.16C102.534 56.064 102.31 56.016 102.038 56.016ZM103.694 50.976H100.526V48.072H103.694V50.976ZM112.283 62.616C112.283 63.432 112.139 64.216 111.851 64.968C111.579 65.72 111.187 66.376 110.675 66.936C110.179 67.512 109.579 67.968 108.875 68.304C108.187 68.64 107.427 68.808 106.595 68.808H105.011L104.891 65.52H105.803C106.475 65.52 107.043 65.432 107.507 65.256C107.955 65.096 108.315 64.88 108.587 64.608C108.875 64.336 109.075 64.024 109.187 63.672C109.315 63.336 109.379 62.984 109.379 62.616V55.872H112.427V58.368C112.427 58.832 112.563 59.176 112.835 59.4C113.123 59.608 113.467 59.712 113.867 59.712H114.131C114.483 59.712 114.659 60.24 114.659 61.296C114.659 62.432 114.483 63 114.131 63H113.867C113.595 63 113.315 62.96 113.027 62.88C112.755 62.784 112.507 62.6 112.283 62.328V62.616ZM121.005 59.712C122.125 57.728 123.197 56.264 124.221 55.32C125.245 54.36 126.285 53.88 127.341 53.88C127.997 53.88 128.589 54 129.117 54.24C129.645 54.464 130.085 54.784 130.437 55.2C130.805 55.616 131.085 56.112 131.277 56.688C131.469 57.248 131.565 57.856 131.565 58.512C131.565 59.072 131.477 59.624 131.301 60.168C131.141 60.696 130.877 61.176 130.509 61.608C130.157 62.024 129.709 62.36 129.165 62.616C128.621 62.872 127.965 63 127.197 63H120.861C120.269 63 119.717 62.912 119.205 62.736C118.693 62.544 118.237 62.144 117.837 61.536C117.437 62.144 117.005 62.544 116.541 62.736C116.077 62.912 115.581 63 115.053 63H114.141C113.933 63 113.797 62.872 113.733 62.616C113.653 62.344 113.613 61.944 113.613 61.416C113.613 60.808 113.653 60.376 113.733 60.12C113.797 59.848 113.933 59.712 114.141 59.712H115.053C115.949 59.712 116.397 59.264 116.397 58.368V55.872H119.421V58.368C119.421 58.832 119.565 59.176 119.853 59.4C120.157 59.608 120.541 59.712 121.005 59.712ZM128.517 58.512C128.517 58.384 128.493 58.248 128.445 58.104C128.397 57.944 128.309 57.8 128.181 57.672C128.069 57.528 127.917 57.416 127.725 57.336C127.549 57.24 127.333 57.192 127.077 57.192C126.677 57.192 126.237 57.384 125.757 57.768C125.277 58.136 124.709 58.784 124.053 59.712H127.341C127.741 59.712 128.037 59.6 128.229 59.376C128.421 59.136 128.517 58.848 128.517 58.512ZM137.865 59.04C138.345 59.04 138.689 58.936 138.897 58.728C139.105 58.504 139.209 58.2 139.209 57.816V56.4H138.105C137.545 56.4 137.169 56.544 136.977 56.832C136.801 57.104 136.713 57.456 136.713 57.888C136.713 58.256 136.793 58.544 136.953 58.752C137.113 58.944 137.417 59.04 137.865 59.04ZM142.137 58.512C142.137 59.312 142.489 59.712 143.193 59.712H143.841C144.049 59.712 144.185 59.84 144.249 60.096C144.329 60.352 144.369 60.752 144.369 61.296C144.369 61.888 144.329 62.32 144.249 62.592C144.185 62.864 144.049 63 143.841 63H143.193C142.329 63 141.649 62.864 141.153 62.592C140.657 62.32 140.273 61.888 140.001 61.296C139.601 61.696 139.153 61.952 138.657 62.064C138.177 62.16 137.705 62.208 137.241 62.208C136.121 62.208 135.265 61.856 134.673 61.152C134.097 60.448 133.809 59.432 133.809 58.104C133.809 57.512 133.889 56.936 134.049 56.376C134.225 55.8 134.473 55.288 134.793 54.84C135.129 54.392 135.545 54.032 136.041 53.76C136.537 53.488 137.113 53.352 137.769 53.352H139.209V51.768H142.137V58.512ZM146.092 59.712C146.556 59.712 146.884 59.608 147.076 59.4C147.284 59.176 147.388 58.832 147.388 58.368V55.872H150.436V58.632C150.436 60.088 150.084 61.184 149.38 61.92C148.692 62.64 147.684 63 146.356 63H143.836C143.628 63 143.492 62.872 143.428 62.616C143.348 62.344 143.308 61.944 143.308 61.416C143.308 60.808 143.348 60.376 143.428 60.12C143.492 59.848 143.628 59.712 143.836 59.712H146.092ZM147.532 68.52H144.364V65.616H147.532V68.52ZM158.66 66.72C159.316 66.72 159.892 66.616 160.388 66.408C160.884 66.216 161.292 65.952 161.612 65.616C161.948 65.28 162.204 64.888 162.38 64.44C162.556 63.992 162.66 63.512 162.692 63H160.652C159.836 63 159.164 62.912 158.636 62.736C158.108 62.56 157.692 62.304 157.388 61.968C157.084 61.632 156.868 61.224 156.74 60.744C156.628 60.248 156.572 59.696 156.572 59.088C156.572 58.48 156.66 57.904 156.836 57.36C157.012 56.8 157.268 56.312 157.604 55.896C157.94 55.48 158.356 55.152 158.852 54.912C159.364 54.656 159.956 54.528 160.628 54.528C161.156 54.528 161.66 54.616 162.14 54.792C162.636 54.968 163.068 55.248 163.436 55.632C163.804 56 164.092 56.488 164.3 57.096C164.524 57.704 164.636 58.44 164.636 59.304V62.616C164.636 63.432 164.5 64.216 164.228 64.968C163.972 65.72 163.588 66.376 163.076 66.936C162.58 67.512 161.972 67.968 161.252 68.304C160.532 68.64 159.716 68.808 158.804 68.808H156.308L156.164 66.72H158.66ZM158.444 58.968C158.444 59.656 158.604 60.152 158.924 60.456C159.26 60.744 159.9 60.888 160.844 60.888H162.74V59.4C162.74 58.392 162.54 57.672 162.14 57.24C161.756 56.792 161.212 56.568 160.508 56.568C159.852 56.568 159.34 56.784 158.972 57.216C158.62 57.632 158.444 58.216 158.444 58.968ZM185.317 63C185.045 63 184.765 62.96 184.477 62.88C184.205 62.784 183.957 62.6 183.733 62.328V62.472C183.733 63.368 183.597 64.2 183.325 64.968C183.053 65.736 182.661 66.4 182.149 66.96C181.637 67.536 181.013 67.984 180.277 68.304C179.541 68.64 178.709 68.808 177.781 68.808H176.197C174.405 68.808 173.013 68.256 172.021 67.152C171.029 66.048 170.533 64.536 170.533 62.616V58.248H173.557V62.472C173.557 62.936 173.605 63.352 173.701 63.72C173.797 64.104 173.957 64.424 174.181 64.68C174.421 64.952 174.733 65.16 175.117 65.304C175.517 65.448 176.013 65.52 176.605 65.52H177.661C178.285 65.52 178.797 65.432 179.197 65.256C179.613 65.096 179.941 64.864 180.181 64.56C180.421 64.272 180.589 63.936 180.685 63.552C180.781 63.168 180.829 62.76 180.829 62.328V55.872H183.853V58.368C183.853 58.832 183.997 59.176 184.285 59.4C184.573 59.608 184.917 59.712 185.317 59.712H185.581C185.933 59.712 186.109 60.24 186.109 61.296C186.109 62.432 185.933 63 185.581 63H185.317ZM178.309 55.608H175.141V52.704H178.309V55.608ZM185.698 59.712C186.178 59.712 186.562 59.632 186.85 59.472C187.138 59.296 187.282 58.976 187.282 58.512V58.248C187.282 57.624 187.378 57.048 187.57 56.52C187.762 55.976 188.034 55.512 188.386 55.128C188.738 54.744 189.17 54.44 189.682 54.216C190.194 53.992 190.762 53.88 191.386 53.88C192.042 53.88 192.626 53.992 193.138 54.216C193.65 54.44 194.074 54.752 194.41 55.152C194.762 55.536 195.026 56.008 195.202 56.568C195.394 57.112 195.49 57.712 195.49 58.368C195.49 59.84 195.114 60.984 194.362 61.8C193.626 62.6 192.634 63 191.386 63C190.762 63 190.154 62.872 189.562 62.616C188.986 62.36 188.562 62 188.29 61.536C187.986 62.08 187.594 62.464 187.114 62.688C186.634 62.896 186.162 63 185.698 63H185.578C185.37 63 185.234 62.872 185.17 62.616C185.09 62.344 185.05 61.944 185.05 61.416C185.05 60.808 185.09 60.376 185.17 60.12C185.234 59.848 185.37 59.712 185.578 59.712H185.698ZM192.562 58.512C192.562 58.176 192.482 57.872 192.322 57.6C192.162 57.328 191.85 57.192 191.386 57.192C190.922 57.192 190.61 57.328 190.45 57.6C190.29 57.872 190.21 58.176 190.21 58.512C190.21 59.312 190.602 59.712 191.386 59.712C192.17 59.712 192.562 59.312 192.562 58.512ZM198.128 48.12H201.176V63H198.128V48.12ZM210.428 62.616C210.428 63.512 210.276 64.336 209.972 65.088C209.684 65.856 209.284 66.512 208.772 67.056C208.26 67.616 207.652 68.048 206.948 68.352C206.244 68.656 205.484 68.808 204.668 68.808H203.204L203.084 66.72H204.188C204.956 66.72 205.612 66.6 206.156 66.36C206.684 66.136 207.116 65.832 207.452 65.448C207.804 65.064 208.06 64.624 208.22 64.128C208.38 63.648 208.46 63.144 208.46 62.616V56.064H210.428V62.616ZM210.5 53.112H208.148V51.048H210.5V53.112ZM210.673 66.72H211.105C211.841 66.72 212.465 66.6 212.977 66.36C213.505 66.136 213.937 65.832 214.273 65.448C214.609 65.064 214.857 64.624 215.017 64.128C215.177 63.648 215.257 63.144 215.257 62.616V56.064H217.225V62.616C217.225 63.512 217.073 64.336 216.769 65.088C216.481 65.856 216.073 66.512 215.545 67.056C215.033 67.616 214.425 68.048 213.721 68.352C213.033 68.656 212.281 68.808 211.465 68.808H210.841L210.673 66.72ZM220.139 48.12H222.107V63H220.139V48.12ZM232.506 60.048C233.258 60.048 233.834 59.896 234.234 59.592C234.65 59.288 234.858 58.904 234.858 58.44V55.44H232.698C231.946 55.44 231.378 55.68 230.994 56.16C230.626 56.64 230.442 57.272 230.442 58.056C230.442 58.792 230.61 59.312 230.946 59.616C231.298 59.904 231.818 60.048 232.506 60.048ZM236.778 58.872C236.778 59.48 236.898 59.968 237.138 60.336C237.378 60.704 237.802 60.888 238.41 60.888H238.89C239.098 60.888 239.234 60.976 239.298 61.152C239.378 61.312 239.418 61.568 239.418 61.92C239.418 62.288 239.378 62.56 239.298 62.736C239.234 62.912 239.098 63 238.89 63H238.41C237.642 63 236.994 62.856 236.466 62.568C235.954 62.264 235.578 61.728 235.338 60.96C235.146 61.2 234.914 61.392 234.642 61.536C234.386 61.68 234.114 61.792 233.826 61.872C233.538 61.952 233.242 62.008 232.938 62.04C232.634 62.072 232.354 62.088 232.098 62.088C230.946 62.088 230.066 61.768 229.458 61.128C228.85 60.488 228.546 59.52 228.546 58.224C228.546 57.632 228.626 57.056 228.786 56.496C228.962 55.92 229.218 55.408 229.554 54.96C229.89 54.512 230.306 54.152 230.802 53.88C231.314 53.608 231.906 53.472 232.578 53.472H234.858V51.84H236.778V58.872ZM239.498 60.888C240.074 60.888 240.522 60.736 240.842 60.432C241.178 60.128 241.346 59.696 241.346 59.136V48.12H243.314V59.232C243.314 60.448 242.986 61.384 242.33 62.04C241.69 62.68 240.794 63 239.642 63H238.898C238.69 63 238.554 62.92 238.49 62.76C238.41 62.584 238.37 62.328 238.37 61.992C238.37 61.608 238.41 61.328 238.49 61.152C238.554 60.976 238.69 60.888 238.898 60.888H239.498ZM246.506 48.12H248.474V63H246.506V48.12ZM253.558 66.72C254.214 66.72 254.79 66.616 255.286 66.408C255.782 66.216 256.19 65.952 256.51 65.616C256.846 65.28 257.102 64.888 257.278 64.44C257.454 63.992 257.558 63.512 257.59 63H255.55C254.734 63 254.062 62.912 253.534 62.736C253.006 62.56 252.59 62.304 252.286 61.968C251.982 61.632 251.766 61.224 251.638 60.744C251.526 60.248 251.47 59.696 251.47 59.088C251.47 58.48 251.558 57.904 251.734 57.36C251.91 56.8 252.166 56.312 252.502 55.896C252.838 55.48 253.254 55.152 253.75 54.912C254.262 54.656 254.854 54.528 255.526 54.528C256.054 54.528 256.558 54.616 257.038 54.792C257.534 54.968 257.966 55.248 258.334 55.632C258.702 56 258.99 56.488 259.198 57.096C259.422 57.704 259.534 58.44 259.534 59.304V60.888H261.67C261.862 60.888 261.99 60.976 262.054 61.152C262.134 61.312 262.174 61.568 262.174 61.92C262.174 62.288 262.134 62.56 262.054 62.736C261.99 62.912 261.862 63 261.67 63H259.486C259.454 63.784 259.294 64.528 259.006 65.232C258.734 65.936 258.35 66.552 257.854 67.08C257.358 67.608 256.758 68.024 256.054 68.328C255.35 68.648 254.566 68.808 253.702 68.808H251.206L251.062 66.72H253.558ZM253.342 58.968C253.342 59.656 253.502 60.152 253.822 60.456C254.158 60.744 254.798 60.888 255.742 60.888H257.638V59.4C257.638 58.392 257.438 57.672 257.038 57.24C256.654 56.792 256.11 56.568 255.406 56.568C254.75 56.568 254.238 56.784 253.87 57.216C253.518 57.632 253.342 58.216 253.342 58.968ZM268.592 61.608C268.176 61.864 267.768 62.08 267.368 62.256C266.968 62.432 266.536 62.576 266.072 62.688C265.624 62.8 265.128 62.88 264.584 62.928C264.04 62.976 263.416 63 262.712 63H261.68C261.472 63 261.336 62.92 261.272 62.76C261.192 62.584 261.152 62.328 261.152 61.992C261.152 61.608 261.192 61.328 261.272 61.152C261.336 60.976 261.472 60.888 261.68 60.888H262.784C263.392 60.888 263.928 60.872 264.392 60.84C264.872 60.808 265.312 60.752 265.712 60.672C266.112 60.592 266.488 60.488 266.84 60.36C267.192 60.216 267.552 60.04 267.92 59.832L271.496 57.768C271.368 57.48 271.24 57.232 271.112 57.024C271 56.8 270.848 56.608 270.656 56.448C270.464 56.288 270.232 56.168 269.96 56.088C269.688 56.008 269.344 55.968 268.928 55.968H263.696L263.84 53.856H269.216C269.648 53.856 270.08 53.912 270.512 54.024C270.96 54.136 271.376 54.36 271.76 54.696C272.16 55.032 272.528 55.512 272.864 56.136C273.2 56.76 273.48 57.584 273.704 58.608L268.592 61.608ZM113.531 97.888C114.171 97.888 114.619 97.752 114.875 97.48C115.131 97.208 115.259 96.944 115.259 96.688C115.259 96.544 115.227 96.352 115.163 96.112C115.115 95.872 115.011 95.504 114.851 95.008C114.691 94.512 114.459 93.848 114.155 93.016C113.851 92.168 113.459 91.072 112.979 89.728L114.851 88.96L117.371 96.088C117.595 96.744 117.859 97.208 118.163 97.48C118.467 97.752 118.915 97.888 119.507 97.888H119.819C120.171 97.888 120.347 98.232 120.347 98.92C120.347 99.64 120.171 100 119.819 100H119.507C118.979 100 118.467 99.904 117.971 99.712C117.491 99.52 117.051 99.096 116.651 98.44C116.315 99.048 115.891 99.464 115.379 99.688C114.883 99.896 114.339 100 113.747 100H108.587L108.467 97.888H113.531ZM121.565 97.888C122.813 97.888 123.437 97.304 123.437 96.136V93.064H125.405V96.136C125.405 96.456 125.453 96.728 125.549 96.952C125.661 97.176 125.805 97.36 125.98 97.504C126.157 97.632 126.357 97.728 126.581 97.792C126.821 97.856 127.061 97.888 127.301 97.888H127.973C128.341 97.888 128.525 98.232 128.525 98.92C128.525 99.64 128.341 100 127.973 100H127.229C126.653 100 126.109 99.896 125.597 99.688C125.101 99.48 124.685 99.072 124.349 98.464C123.981 99.072 123.557 99.48 123.077 99.688C122.613 99.896 122.109 100 121.565 100H119.812C119.604 100 119.468 99.92 119.404 99.76C119.324 99.584 119.284 99.328 119.284 98.992C119.284 98.608 119.324 98.328 119.404 98.152C119.468 97.976 119.604 97.888 119.812 97.888H121.565ZM126.533 104.752H124.421V102.736H126.533V104.752ZM123.269 104.752H121.133V102.736H123.269V104.752ZM129.721 97.888C130.969 97.888 131.593 97.304 131.593 96.136V93.064H133.561V96.136C133.561 96.456 133.609 96.728 133.705 96.952C133.817 97.176 133.961 97.36 134.137 97.504C134.313 97.632 134.513 97.728 134.737 97.792C134.977 97.856 135.217 97.888 135.457 97.888H136.129C136.497 97.888 136.681 98.232 136.681 98.92C136.681 99.64 136.497 100 136.129 100H135.385C134.809 100 134.265 99.896 133.753 99.688C133.257 99.48 132.841 99.072 132.505 98.464C132.137 99.072 131.713 99.48 131.233 99.688C130.769 99.896 130.265 100 129.721 100H127.969C127.761 100 127.625 99.92 127.561 99.76C127.481 99.584 127.441 99.328 127.441 98.992C127.441 98.608 127.481 98.328 127.561 98.152C127.625 97.976 127.761 97.888 127.969 97.888H129.721ZM133.561 90.112H131.209V88.048H133.561V90.112ZM142.269 97.888C142.861 97.888 143.269 97.768 143.493 97.528C143.717 97.288 143.829 96.992 143.829 96.64C143.829 96.384 143.781 96.12 143.685 95.848C143.605 95.56 143.381 95.232 143.013 94.864L138.117 89.992V87.808L146.085 84.736L146.541 86.704L140.061 89.176L144.021 93.16C144.405 93.56 144.717 93.92 144.957 94.24C145.213 94.56 145.413 94.872 145.557 95.176C145.701 95.464 145.797 95.752 145.845 96.04C145.909 96.328 145.941 96.624 145.941 96.928C145.941 97.472 145.853 97.936 145.677 98.32C145.501 98.704 145.261 99.024 144.957 99.28C144.653 99.52 144.285 99.704 143.853 99.832C143.437 99.944 142.981 100 142.485 100H136.125C135.917 100 135.781 99.92 135.717 99.76C135.637 99.584 135.597 99.328 135.597 98.992C135.597 98.608 135.637 98.328 135.717 98.152C135.781 97.976 135.917 97.888 136.125 97.888H142.269ZM156.1 97.048C156.852 97.048 157.428 96.896 157.828 96.592C158.244 96.288 158.452 95.904 158.452 95.44V92.44H156.292C155.54 92.44 154.972 92.68 154.588 93.16C154.22 93.64 154.036 94.272 154.036 95.056C154.036 95.792 154.204 96.312 154.54 96.616C154.892 96.904 155.412 97.048 156.1 97.048ZM160.372 95.872C160.372 96.48 160.492 96.968 160.732 97.336C160.972 97.704 161.396 97.888 162.004 97.888H162.484C162.692 97.888 162.828 97.976 162.892 98.152C162.972 98.312 163.012 98.568 163.012 98.92C163.012 99.288 162.972 99.56 162.892 99.736C162.828 99.912 162.692 100 162.484 100H162.004C161.236 100 160.588 99.856 160.06 99.568C159.548 99.264 159.172 98.728 158.932 97.96C158.74 98.2 158.508 98.392 158.236 98.536C157.98 98.68 157.708 98.792 157.42 98.872C157.132 98.952 156.836 99.008 156.532 99.04C156.228 99.072 155.948 99.088 155.692 99.088C154.54 99.088 153.66 98.768 153.052 98.128C152.444 97.488 152.14 96.52 152.14 95.224C152.14 94.632 152.22 94.056 152.38 93.496C152.556 92.92 152.812 92.408 153.148 91.96C153.484 91.512 153.9 91.152 154.396 90.88C154.908 90.608 155.5 90.472 156.172 90.472H158.452V88.84H160.372V95.872ZM162.492 100C162.284 100 162.148 99.92 162.084 99.76C162.004 99.584 161.964 99.328 161.964 98.992C161.964 98.608 162.004 98.328 162.084 98.152C162.148 97.976 162.284 97.888 162.492 97.888H167.988C168.564 97.888 169.012 97.736 169.332 97.432C169.668 97.128 169.836 96.696 169.836 96.136V93.064H171.804V96.232C171.804 97.448 171.476 98.384 170.82 99.04C170.164 99.68 169.268 100 168.132 100H162.492ZM166.812 104.8H164.46V102.736H166.812V104.8ZM177.405 96.208C177.405 96.736 177.573 97.152 177.909 97.456C178.261 97.744 178.709 97.888 179.253 97.888H179.517C179.869 97.888 180.045 98.232 180.045 98.92C180.045 99.64 179.869 100 179.517 100H179.253C178.901 100 178.549 99.936 178.197 99.808C177.845 99.68 177.549 99.448 177.309 99.112V99.616C177.309 100.512 177.165 101.336 176.877 102.088C176.589 102.856 176.189 103.512 175.677 104.056C175.181 104.616 174.589 105.048 173.901 105.352C173.213 105.656 172.461 105.808 171.645 105.808H171.021L170.853 103.72H171.285C172.021 103.72 172.645 103.6 173.157 103.36C173.685 103.136 174.117 102.832 174.453 102.448C174.789 102.064 175.037 101.624 175.197 101.128C175.357 100.648 175.437 100.144 175.437 99.616V93.064H177.405V96.208ZM189.972 96.544C190.228 97.056 190.508 97.408 190.812 97.6C191.132 97.792 191.548 97.888 192.06 97.888H193.548C193.756 97.888 193.892 97.976 193.956 98.152C194.036 98.312 194.076 98.568 194.076 98.92C194.076 99.288 194.036 99.56 193.956 99.736C193.892 99.912 193.756 100 193.548 100H191.94C191.412 100 190.964 99.936 190.596 99.808C190.228 99.664 189.916 99.48 189.66 99.256C189.404 99.016 189.188 98.736 189.012 98.416C188.852 98.096 188.708 97.744 188.58 97.36L186.42 98.608C186.004 98.864 185.596 99.08 185.196 99.256C184.796 99.432 184.364 99.576 183.9 99.688C183.452 99.8 182.956 99.88 182.412 99.928C181.868 99.976 181.244 100 180.54 100H179.508C179.3 100 179.164 99.92 179.1 99.76C179.02 99.584 178.98 99.328 178.98 98.992C178.98 98.608 179.02 98.328 179.1 98.152C179.164 97.976 179.3 97.888 179.508 97.888H180.612C181.22 97.888 181.756 97.872 182.22 97.84C182.7 97.808 183.14 97.752 183.54 97.672C183.94 97.592 184.316 97.488 184.668 97.36C185.02 97.216 185.38 97.04 185.748 96.832L189.324 94.768C189.196 94.48 189.068 94.232 188.94 94.024C188.828 93.8 188.676 93.608 188.484 93.448C188.292 93.288 188.06 93.168 187.788 93.088C187.516 93.008 187.172 92.968 186.756 92.968H181.524L181.668 90.856H187.044C187.476 90.856 187.908 90.912 188.34 91.024C188.788 91.136 189.204 91.36 189.588 91.696C189.988 92.032 190.356 92.512 190.692 93.136C191.028 93.76 191.308 94.584 191.532 95.608L189.972 96.544ZM186.564 104.8H184.212V102.736H186.564V104.8ZM195.731 97.888C196.307 97.888 196.755 97.736 197.075 97.432C197.411 97.128 197.579 96.696 197.579 96.136V93.064H199.547V96.232C199.547 97.448 199.219 98.384 198.563 99.04C197.923 99.68 197.027 100 195.875 100H193.547C193.339 100 193.203 99.92 193.139 99.76C193.059 99.584 193.019 99.328 193.019 98.992C193.019 98.608 193.059 98.328 193.139 98.152C193.203 97.976 193.339 97.888 193.547 97.888H195.731ZM199.715 90.112H197.531V88.096H199.715V90.112ZM196.499 90.112H194.315V88.096H196.499V90.112ZM209.27 100C208.838 100 208.422 99.944 208.022 99.832C207.622 99.704 207.27 99.496 206.966 99.208C206.678 98.92 206.446 98.544 206.27 98.08C206.094 97.6 206.006 97.008 206.006 96.304V85.12H207.974V95.872C207.974 96.48 208.102 96.968 208.358 97.336C208.63 97.704 209.054 97.888 209.63 97.888H210.11C210.462 97.888 210.638 98.232 210.638 98.92C210.638 99.64 210.462 100 210.11 100H209.27ZM210.429 97.888C211.645 97.888 212.253 97.376 212.253 96.352V95.608C212.253 94.248 212.605 93.176 213.309 92.392C214.029 91.592 215.021 91.192 216.285 91.192C216.941 91.192 217.517 91.304 218.013 91.528C218.509 91.736 218.925 92.032 219.261 92.416C219.597 92.8 219.845 93.264 220.005 93.808C220.181 94.336 220.269 94.92 220.269 95.56C220.269 96.968 219.909 98.064 219.189 98.848C218.469 99.616 217.477 100 216.213 100C215.573 100 214.957 99.88 214.365 99.64C213.789 99.384 213.341 98.96 213.021 98.368C212.877 98.704 212.701 98.984 212.493 99.208C212.285 99.416 212.069 99.584 211.845 99.712C211.621 99.824 211.381 99.904 211.125 99.952C210.885 99.984 210.653 100 210.429 100H210.117C209.909 100 209.773 99.92 209.709 99.76C209.629 99.584 209.589 99.328 209.589 98.992C209.589 98.608 209.629 98.328 209.709 98.152C209.773 97.976 209.909 97.888 210.117 97.888H210.429ZM218.349 95.704C218.349 95 218.189 94.424 217.869 93.976C217.565 93.528 217.021 93.304 216.237 93.304C215.517 93.304 214.981 93.52 214.629 93.952C214.293 94.384 214.125 94.992 214.125 95.776C214.125 96.48 214.317 97.008 214.701 97.36C215.101 97.712 215.605 97.888 216.213 97.888C216.933 97.888 217.469 97.704 217.821 97.336C218.173 96.952 218.349 96.408 218.349 95.704ZM229.966 100C229.534 100 229.118 99.944 228.718 99.832C228.318 99.704 227.966 99.496 227.662 99.208C227.374 98.92 227.142 98.544 226.966 98.08C226.79 97.6 226.702 97.008 226.702 96.304V85.12H228.67V95.872C228.67 96.48 228.798 96.968 229.054 97.336C229.326 97.704 229.75 97.888 230.326 97.888H230.806C231.158 97.888 231.334 98.232 231.334 98.92C231.334 99.64 231.158 100 230.806 100H229.966ZM232.997 97.888C233.573 97.888 234.021 97.736 234.34 97.432C234.677 97.128 234.845 96.696 234.845 96.136V93.064H236.812V96.232C236.812 97.448 236.485 98.384 235.829 99.04C235.189 99.68 234.293 100 233.141 100H230.812C230.604 100 230.468 99.92 230.404 99.76C230.324 99.584 230.284 99.328 230.284 98.992C230.284 98.608 230.324 98.328 230.404 98.152C230.468 97.976 230.604 97.888 230.812 97.888H232.997ZM234.101 104.8H231.749V102.736H234.101V104.8ZM243.272 85.12H245.24V100H243.272V85.12ZM251.116 99.616C251.116 100.512 250.964 101.336 250.66 102.088C250.372 102.856 249.972 103.512 249.46 104.056C248.948 104.616 248.34 105.048 247.636 105.352C246.932 105.656 246.172 105.808 245.356 105.808H243.892L243.772 103.72H244.876C245.644 103.72 246.3 103.6 246.844 103.36C247.372 103.136 247.804 102.832 248.14 102.448C248.492 102.064 248.748 101.624 248.908 101.128C249.068 100.648 249.148 100.144 249.148 99.616V93.064H251.116V99.616Z" fill="#2E2EE5"/>
</g>
<defs>
<clipPath id="clip0_244_1077">
<rect width="100%" height="212" fill="white"/>
</clipPath>
</defs>
</svg>
