<svg width="65" height="64" viewBox="0 0 65 64" fill="none" xmlns="http://www.w3.org/2000/svg">
<g clip-path="url(#clip0_244_1722)">
<path d="M32.1667 60C47.6307 60 60.1667 47.464 60.1667 32C60.1667 16.536 47.6307 4 32.1667 4C16.7028 4 4.16675 16.536 4.16675 32C4.16675 47.464 16.7028 60 32.1667 60Z" fill="#FFDA44"/>
<path d="M26.0799 28.3479H59.9298C58.1401 14.6096 46.3929 4 32.1668 4C30.0762 4 28.0397 4.23111 26.0798 4.66555L26.0799 28.3479Z" fill="#0052B4"/>
<path d="M18.7754 28.3475V7.4043C11.087 11.5993 5.58314 19.2939 4.40375 28.3476L18.7754 28.3475Z" fill="#0052B4"/>
<path d="M18.7753 35.6523H4.40375C5.58314 44.7061 11.087 52.4007 18.7754 56.5956L18.7753 35.6523Z" fill="#0052B4"/>
<path d="M26.0798 35.6525V59.3347C28.0397 59.7691 30.0762 60.0002 32.1668 60.0002C46.3929 60.0002 58.1401 49.3906 59.9298 35.6523H26.0798V35.6525Z" fill="#0052B4"/>
</g>
<rect x="2.16675" y="2" width="60" height="60" rx="30" stroke="white" stroke-width="4"/>
<defs>
<clipPath id="clip0_244_1722">
<rect x="4.16675" y="4" width="56" height="56" rx="28" fill="white"/>
</clipPath>
</defs>
</svg>
