<svg width="65" height="64" viewBox="0 0 65 64" fill="none" xmlns="http://www.w3.org/2000/svg">
<g clip-path="url(#clip0_244_1719)">
<path d="M32.3334 60C47.7973 60 60.3334 47.464 60.3334 32C60.3334 16.536 47.7973 4 32.3334 4C16.8694 4 4.33337 16.536 4.33337 32C4.33337 47.464 16.8694 60 32.3334 60Z" fill="#F0F0F0"/>
<path d="M10.1215 14.9531C7.9221 17.8147 6.26365 21.1129 5.29797 24.6959H19.8643L10.1215 14.9531Z" fill="#0052B4"/>
<path d="M59.3688 24.6958C58.4031 21.1129 56.7446 17.8147 54.5452 14.9531L44.8027 24.6958H59.3688Z" fill="#0052B4"/>
<path d="M5.29797 39.3047C6.26375 42.8876 7.92221 46.1858 10.1215 49.0473L19.864 39.3047H5.29797Z" fill="#0052B4"/>
<path d="M49.3803 9.78801C46.5187 7.58859 43.2206 5.93014 39.6376 4.96436V19.5306L49.3803 9.78801Z" fill="#0052B4"/>
<path d="M15.2864 54.2117C18.148 56.4111 21.4462 58.0696 25.0291 59.0354V44.4692L15.2864 54.2117Z" fill="#0052B4"/>
<path d="M25.029 4.96436C21.446 5.93014 18.1478 7.58859 15.2864 9.7879L25.029 19.5305V4.96436Z" fill="#0052B4"/>
<path d="M39.6378 59.0354C43.2207 58.0696 46.5189 56.4111 49.3803 54.2118L39.6378 44.4692V59.0354Z" fill="#0052B4"/>
<path d="M44.8027 39.3047L54.5452 49.0474C56.7446 46.1859 58.4031 42.8876 59.3688 39.3047H44.8027Z" fill="#0052B4"/>
<path d="M60.0964 28.3479H35.9857H35.9856V4.23702C34.79 4.08138 33.5712 4 32.3334 4C31.0954 4 29.8767 4.08138 28.6812 4.23702V28.3476V28.3477H4.57039C4.41475 29.5433 4.33337 30.7622 4.33337 32C4.33337 33.238 4.41475 34.4567 4.57039 35.6521H28.681H28.6811V59.763C29.8767 59.9186 31.0954 60 32.3334 60C33.5712 60 34.79 59.9187 35.9855 59.763V35.6524V35.6523H60.0964C60.252 34.4567 60.3334 33.238 60.3334 32C60.3334 30.7622 60.252 29.5433 60.0964 28.3479Z" fill="#D80027"/>
<path d="M39.6378 39.3043L52.1323 51.7989C52.707 51.2244 53.2552 50.6239 53.7782 50.0013L43.0811 39.3042H39.6378V39.3043Z" fill="#D80027"/>
<path d="M25.029 39.3047H25.0288L12.5343 51.7991C13.1087 52.3738 13.7093 52.922 14.3319 53.445L25.029 42.7477V39.3047Z" fill="#D80027"/>
<path d="M25.029 24.6961V24.6958L12.5344 12.2012C11.9598 12.7756 11.4116 13.3762 10.8885 13.9987L21.5858 24.696L25.029 24.6961Z" fill="#D80027"/>
<path d="M39.6378 24.6957L52.1324 12.2009C51.558 11.6263 50.9574 11.0781 50.3349 10.5552L39.6378 21.2524V24.6957Z" fill="#D80027"/>
</g>
<rect x="2.33337" y="2" width="60" height="60" rx="30" stroke="white" stroke-width="4"/>
<defs>
<clipPath id="clip0_244_1719">
<rect x="4.33337" y="4" width="56" height="56" rx="28" fill="white"/>
</clipPath>
</defs>
</svg>
