<svg width="40" height="40" viewBox="0 0 40 40" fill="none" xmlns="http://www.w3.org/2000/svg">
<rect width="40" height="40" rx="20" fill="#2ED06E"/>
<path d="M14.9 28.6C16.4 29.5 18.2 30 20 30C25.5 30 30 25.5 30 20C30 14.5 25.5 10 20 10C14.5 10 10 14.5 10 20C10 21.8 10.5 23.5 11.3 25L10.5873 27.7413C10.3276 28.7399 11.2519 29.6423 12.244 29.3589L14.9 28.6Z" stroke="#DDEFE8" stroke-width="1.5" stroke-miterlimit="10" stroke-linecap="round" stroke-linejoin="round"/>
<path d="M24.5 22.8485C24.5 23.0105 24.4639 23.177 24.3873 23.339C24.3107 23.501 24.2116 23.654 24.0809 23.798C23.86 24.041 23.6167 24.2165 23.3418 24.329C23.0714 24.4415 22.7784 24.5 22.4629 24.5C22.0033 24.5 21.512 24.392 20.9937 24.1715C20.4755 23.951 19.9572 23.654 19.4434 23.2805C18.9251 22.9025 18.4339 22.484 17.9652 22.0205C17.501 21.5525 17.0819 21.062 16.7078 20.549C16.3383 20.036 16.0408 19.523 15.8245 19.0145C15.6082 18.5015 15.5 18.011 15.5 17.543C15.5 17.237 15.5541 16.9445 15.6622 16.6745C15.7704 16.4 15.9417 16.148 16.1805 15.923C16.469 15.6395 16.7844 15.5 17.1179 15.5C17.2441 15.5 17.3703 15.527 17.483 15.581C17.6002 15.635 17.7038 15.716 17.7849 15.833L18.8305 17.3045C18.9116 17.417 18.9702 17.5205 19.0108 17.6195C19.0513 17.714 19.0739 17.8085 19.0739 17.894C19.0739 18.002 19.0423 18.11 18.9792 18.2135C18.9206 18.317 18.835 18.425 18.7268 18.533L18.3843 18.8885C18.3348 18.938 18.3122 18.9965 18.3122 19.0685C18.3122 19.1045 18.3167 19.136 18.3257 19.172C18.3393 19.208 18.3528 19.235 18.3618 19.262C18.4429 19.4105 18.5826 19.604 18.7809 19.838C18.9837 20.072 19.2 20.3105 19.4344 20.549C19.6778 20.7875 19.9121 21.008 20.151 21.2105C20.3853 21.4085 20.5791 21.5435 20.7323 21.6245C20.7549 21.6335 20.7819 21.647 20.8135 21.6605C20.8495 21.674 20.8856 21.6785 20.9261 21.6785C21.0028 21.6785 21.0613 21.6515 21.1109 21.602L21.4534 21.2645C21.5661 21.152 21.6743 21.0665 21.7779 21.0125C21.8816 20.9495 21.9852 20.918 22.0979 20.918C22.1835 20.918 22.2737 20.936 22.3728 20.9765C22.472 21.017 22.5756 21.0755 22.6883 21.152L24.18 22.2095C24.2972 22.2905 24.3783 22.385 24.4279 22.4975C24.473 22.61 24.5 22.7225 24.5 22.8485Z" stroke="#DDEFE8" stroke-width="1.5" stroke-miterlimit="10"/>
</svg>
