<svg width="18" height="19" viewBox="0 0 18 19" fill="none" xmlns="http://www.w3.org/2000/svg">
<path d="M5.175 15.6365C6.3 16.3115 7.65 16.6865 9 16.6865C13.125 16.6865 16.5 13.3115 16.5 9.18652C16.5 5.06152 13.125 1.68652 9 1.68652C4.875 1.68652 1.5 5.06152 1.5 9.18652C1.5 10.5365 1.875 11.8115 2.475 12.9365L1.94044 14.9925C1.74572 15.7414 2.43892 16.4183 3.18299 16.2057L5.175 15.6365Z" stroke="#71757A" stroke-width="1.125" stroke-miterlimit="10" stroke-linecap="round" stroke-linejoin="round"/>
<path d="M12.375 11.3229C12.375 11.4444 12.348 11.5693 12.2905 11.6908C12.233 11.8123 12.1587 11.927 12.0607 12.035C11.895 12.2173 11.7125 12.3489 11.5063 12.4333C11.3035 12.5176 11.0838 12.5615 10.8472 12.5615C10.5024 12.5615 10.134 12.4805 9.74531 12.3151C9.3566 12.1498 8.96789 11.927 8.58256 11.6469C8.19385 11.3634 7.82543 11.0495 7.4739 10.7019C7.12575 10.3509 6.8114 9.98302 6.53086 9.59827C6.25369 9.21352 6.03061 8.82877 5.86837 8.4474C5.70612 8.06265 5.625 7.69477 5.625 7.34377C5.625 7.11427 5.66556 6.8949 5.74668 6.6924C5.8278 6.48652 5.95625 6.29752 6.13539 6.12877C6.35172 5.91615 6.58832 5.81152 6.83845 5.81152C6.93309 5.81152 7.02773 5.83177 7.11223 5.87227C7.20011 5.91277 7.27785 5.97352 7.3387 6.06127L8.12287 7.1649C8.18371 7.24927 8.22765 7.3269 8.25807 7.40115C8.2885 7.47202 8.3054 7.5429 8.3054 7.60702C8.3054 7.68802 8.28174 7.76902 8.23441 7.84665C8.19047 7.92427 8.12625 8.00527 8.04513 8.08627L7.78824 8.3529C7.75106 8.39002 7.73416 8.4339 7.73416 8.4879C7.73416 8.5149 7.73754 8.53852 7.7443 8.56552C7.75444 8.59252 7.76458 8.61277 7.77134 8.63302C7.83219 8.7444 7.93697 8.88952 8.08569 9.06502C8.23779 9.24052 8.40004 9.4194 8.5758 9.59827C8.75832 9.77715 8.93409 9.94252 9.11323 10.0944C9.289 10.2429 9.43434 10.3441 9.54926 10.4049C9.56616 10.4116 9.58644 10.4218 9.6101 10.4319C9.63714 10.442 9.66418 10.4454 9.6946 10.4454C9.75207 10.4454 9.79601 10.4251 9.83319 10.388L10.0901 10.1349C10.1746 10.0505 10.2557 9.9864 10.3334 9.9459C10.4112 9.89865 10.4889 9.87502 10.5734 9.87502C10.6376 9.87502 10.7052 9.88852 10.7796 9.9189C10.854 9.94927 10.9317 9.99315 11.0162 10.0505L12.135 10.8436C12.2229 10.9044 12.2837 10.9753 12.3209 11.0596C12.3547 11.144 12.375 11.2284 12.375 11.3229Z" stroke="#71757A" stroke-width="1.125" stroke-miterlimit="10"/>
</svg>
