<svg width="80" height="86" viewBox="0 0 80 86" fill="none" xmlns="http://www.w3.org/2000/svg">
<rect x="7.66675" y="13" width="64" height="64" rx="32" fill="#E6E6F2"/>
<g filter="url(#filter0_d_244_2262)">
<path d="M40.5373 25.0381C35.7821 24.622 31.5642 28.1612 31.1482 32.9164C30.7322 37.6716 34.2714 41.8894 39.0266 42.3054C43.7817 42.7215 47.9996 39.1823 48.4156 34.4271C48.8316 29.6719 45.2924 25.4541 40.5373 25.0381ZM42.5128 33.0541C42.371 34.6746 41.3596 36.1386 39.9061 36.8413L37.7537 37.8843C37.4186 38.0424 37.064 38.1185 36.6921 38.0859C36.028 38.0278 35.394 37.6244 35.0756 36.9808C34.6014 35.9757 35.0005 34.7792 36.0057 34.305L38.1315 33.2597C38.3557 33.1454 38.4805 32.9422 38.4991 32.7297L38.7153 30.2591C38.8106 29.17 39.7928 28.3458 40.882 28.4411C41.9711 28.5363 42.8242 29.4943 42.7289 30.5835L42.5128 33.0541Z" fill="#2626BF"/>
<path d="M58.8591 15.7192L44.727 8.96851C43.2616 8.27816 40.791 8.06201 39.228 8.48741L24.1384 12.6816C21.2295 13.4978 18.6567 16.592 18.3941 19.5939L16.5115 41.1117C16.3232 43.2635 17.4825 46.2291 19.0977 47.6553L32.7533 59.8519C35.1605 62.0166 39.3843 62.3861 42.1308 60.6723L57.6969 51.0323C59.5375 49.8817 61.1918 47.189 61.3801 45.0372L63.2627 23.5194C63.5519 20.5198 61.5554 17.0259 58.8591 15.7192ZM38.6779 46.29C31.7178 45.681 26.5544 39.5276 27.1634 32.5675C27.7723 25.6075 33.9257 20.4441 40.8858 21.053C47.8459 21.662 53.0092 27.8154 52.4003 34.7755C51.7914 41.7356 45.6379 46.8989 38.6779 46.29Z" fill="#2626BF"/>
</g>
<defs>
<filter id="filter0_d_244_2262" x="-11.0012" y="-7.66724" width="101.334" height="101.334" filterUnits="userSpaceOnUse" color-interpolation-filters="sRGB">
<feFlood flood-opacity="0" result="BackgroundImageFix"/>
<feColorMatrix in="SourceAlpha" type="matrix" values="0 0 0 0 0 0 0 0 0 0 0 0 0 0 0 0 0 0 127 0" result="hardAlpha"/>
<feOffset dy="8"/>
<feGaussianBlur stdDeviation="8"/>
<feComposite in2="hardAlpha" operator="out"/>
<feColorMatrix type="matrix" values="0 0 0 0 0.0588235 0 0 0 0 0.0666667 0 0 0 0 0.0784314 0 0 0 0.24 0"/>
<feBlend mode="normal" in2="BackgroundImageFix" result="effect1_dropShadow_244_2262"/>
<feBlend mode="normal" in="SourceGraphic" in2="effect1_dropShadow_244_2262" result="shape"/>
</filter>
</defs>
</svg>
