<svg width="86" height="87" viewBox="0 0 86 87" fill="none" xmlns="http://www.w3.org/2000/svg">
<rect x="12.3334" y="13" width="64" height="64" rx="32" fill="#E6E6F2"/>
<g filter="url(#filter0_d_244_2249)">
<path d="M55.5091 60.8459L46.6688 55.4148C44.2035 53.9142 41.2017 53.6516 38.5133 54.7013L28.8642 58.5148C20.5749 61.7781 12.9529 52.5186 17.7827 45.0444L20.319 41.1439C20.66 40.6116 21.1777 40.2018 21.7854 39.9873L56.6885 27.7829C58.1234 27.2928 59.6951 27.9924 60.2695 29.3811L68.7082 49.4998C72.1667 57.6991 63.0792 65.4967 55.5091 60.8459Z" fill="#2626BF"/>
<path d="M54.8978 24.3868L32.0349 32.3713C29.4668 33.2709 27.202 30.3959 28.6863 28.1166L38.1032 13.495C42.0995 7.28633 51.3973 8.09978 54.2548 14.9081L56.6232 20.5761C57.2392 22.1022 56.4436 23.8529 54.8978 24.3868Z" fill="#2626BF"/>
</g>
<defs>
<filter id="filter0_d_244_2249" x="-6.33459" y="-7.66724" width="101.334" height="101.334" filterUnits="userSpaceOnUse" color-interpolation-filters="sRGB">
<feFlood flood-opacity="0" result="BackgroundImageFix"/>
<feColorMatrix in="SourceAlpha" type="matrix" values="0 0 0 0 0 0 0 0 0 0 0 0 0 0 0 0 0 0 127 0" result="hardAlpha"/>
<feOffset dy="8"/>
<feGaussianBlur stdDeviation="8"/>
<feComposite in2="hardAlpha" operator="out"/>
<feColorMatrix type="matrix" values="0 0 0 0 0.0588235 0 0 0 0 0.0666667 0 0 0 0 0.0784314 0 0 0 0.24 0"/>
<feBlend mode="normal" in2="BackgroundImageFix" result="effect1_dropShadow_244_2249"/>
<feBlend mode="normal" in="SourceGraphic" in2="effect1_dropShadow_244_2249" result="shape"/>
</filter>
</defs>
</svg>
