<svg width="76" height="37" viewBox="0 0 76 37" fill="none" xmlns="http://www.w3.org/2000/svg">
<path d="M67.5892 0.813589V7.61339C67.5892 7.61339 68.3747 6.85015 68.981 6.51645C70.0301 5.93901 70.7893 5.6984 71.976 5.85863C73.4662 6.05982 76 6.95514 76 12.2194C76 15.9483 73.7677 18.3423 70.6599 18.1419C69.7674 18.0844 69.2221 17.9622 68.4665 17.4837C67.8524 17.0948 67.1504 16.1676 67.1504 16.1676L66.9311 17.9224H63.8602L64.0796 0.813477L67.5892 0.813589ZM69.7825 8.71011C69.2411 8.72965 68.8941 8.81619 68.4665 9.1488C68.1284 9.41175 68.0068 9.64657 67.8084 10.0262C67.4455 10.7208 67.4326 11.2164 67.4456 12.0001C67.4619 12.9868 67.4379 13.7176 68.1131 14.4374C68.6668 15.0277 69.1931 15.3209 70.0019 15.2905C70.6538 15.266 71.1067 15.0129 71.5373 14.6324C72.4103 13.8609 72.4571 12.9453 72.4147 11.7809C72.3821 10.8872 72.3566 10.2507 71.7566 9.58749C71.1907 8.96187 70.6256 8.67968 69.7825 8.71011Z" fill="#EBEDF0"/>
<path d="M61.1214 5.48559V17.9226H57.5009V5.48559H61.1214ZM59.3459 1.12482C59.847 1.12482 60.2798 1.2463 60.6442 1.48927C61.0087 1.71705 61.1909 2.14983 61.1909 2.78762C61.1909 3.41023 61.0087 3.84301 60.6442 4.08598C60.2798 4.32895 59.847 4.45043 59.3459 4.45043C58.8296 4.45043 58.3892 4.32895 58.0248 4.08598C57.6755 3.84301 57.5009 3.41023 57.5009 2.78762C57.5009 2.14983 57.6755 1.71705 58.0248 1.48927C58.3892 1.2463 58.8296 1.12482 59.3459 1.12482Z" fill="#FFBF00"/>
<path d="M48.7267 18.1418C47.6847 18.1443 46.3376 17.7638 46.0946 17.7031L46.5333 14.7917C46.7763 14.8525 47.0024 14.9055 47.3078 14.9512C48.1335 15.0746 48.6757 15.2741 49.4456 14.9512C49.9078 14.7573 50.169 14.5854 50.4815 14.1936C51.0263 13.5107 50.9202 12.0001 50.9202 12.0001V1.69092H54.4297C54.4297 1.69092 54.5879 7.44279 54.4297 11.1228C54.3681 12.5568 54.4345 13.7388 54.2104 14.7917C53.9886 15.8332 53.5685 16.363 52.7508 17.0451C51.5219 18.0701 50.3555 18.1379 48.7267 18.1418Z" fill="#EBEDF0"/>
<path d="M33.8094 6.07764H37.7577L40.1705 13.9741L42.1446 6.07764H46.0928L42.3639 16.3869C42.045 17.2372 41.01 19.6112 39.9511 20.7738C39.2124 21.5847 38.7348 22.03 37.7577 22.5285C37.0338 22.8978 35.7836 23.1865 35.7836 23.1865L34.9062 20.1157C34.9062 20.1157 36.228 19.7733 36.8803 19.2383C37.5967 18.6508 38.3583 17.6962 38.1963 17.2642C37.5383 15.5095 33.8094 6.07764 33.8094 6.07764Z" fill="#EBEDF0"/>
<path d="M28.1074 5.85834C29.5096 6.06852 32.3507 7.17437 32.3507 10.6839C32.3507 14.1934 32.7136 17.9221 32.7136 17.9221H29.4234L29.2952 16.6062C28.9459 17.0466 28.2838 17.6265 27.4493 17.9223C26.7984 18.1531 26.3931 18.1417 25.6946 18.1417C24.9657 18.1417 24.4257 18.0132 23.8335 17.7399C23.2565 17.4514 22.8009 17.0186 22.4668 16.4415C22.1327 15.8493 21.9657 15.1052 21.9657 14.2093C21.9657 12.8882 22.4289 11.9163 23.3552 11.2937C24.2815 10.6559 25.2725 10.2383 27.1251 10.1776H28.9127C28.9127 10.1776 28.9732 9.49722 28.7654 9.14842C28.5098 8.71933 28.1989 8.63212 27.6687 8.49048C27.0585 8.32748 26.4631 8.39925 25.6946 8.49048C24.7276 8.60526 24.0782 8.89027 23.5011 9.14842L22.8431 6.95497C23.5112 6.6057 24.451 6.275 25.2559 6.07759C26.0759 5.88018 27.0028 5.69278 28.1074 5.85834ZM28.3664 12.2048C27.273 12.2352 26.5137 12.4326 26.0885 12.797C25.6633 13.1615 25.4508 13.6398 25.4508 14.2321C25.4508 14.7484 25.6026 15.1204 25.9063 15.3482C26.21 15.5608 26.6048 15.6671 27.0908 15.6671C27.8197 15.6671 28.0449 15.496 28.546 15.0708C29.0472 14.6305 29.2041 14.1057 29.2041 13.3161V12.2193L28.3664 12.2048Z" fill="#EBEDF0"/>
<path d="M14.7333 1.65869C16.8289 1.65869 18.3551 2.11425 19.3117 3.02538C20.2836 3.92132 20.7695 5.15893 20.7695 6.73822C20.7695 7.45193 20.6632 8.13528 20.4506 8.78825C20.238 9.42604 19.8812 10.0031 19.3801 10.5194C18.8941 11.0205 18.2488 11.4153 17.4439 11.7039C16.6391 11.9924 15.6445 12.1366 14.46 12.1366H12.9794V17.9223H9.53992V1.65869H14.7333ZM14.5511 4.48318H12.9794V9.31215H14.1183C14.7713 9.31215 15.3332 9.22863 15.8039 9.06159C16.2747 8.89455 16.6391 8.6288 16.8973 8.26435C17.1554 7.8999 17.2845 7.42915 17.2845 6.85211C17.2845 6.04728 17.0643 5.45505 16.6239 5.07541C16.1835 4.68059 15.4926 4.48318 14.5511 4.48318Z" fill="#EBEDF0"/>
<path d="M17.4024 31.1866C17.1889 31.1866 17.0158 31.1289 16.8831 31.0135C16.7562 30.8923 16.6928 30.7135 16.6928 30.4769C16.6928 30.2346 16.7562 30.0558 16.8831 29.9404C17.0158 29.8192 17.1889 29.7587 17.4024 29.7587C17.6216 29.7587 17.7947 29.8192 17.9216 29.9404C18.0543 30.0558 18.1206 30.2346 18.1206 30.4769C18.1206 30.7135 18.0543 30.8923 17.9216 31.0135C17.7947 31.1289 17.6216 31.1866 17.4024 31.1866ZM23.1259 30.001C23.2933 30.001 23.4144 29.9635 23.4894 29.8885C23.5644 29.8077 23.6019 29.6837 23.6019 29.5164V28.6164H24.7009V29.5164C24.7009 29.6837 24.7529 29.8077 24.8567 29.8885C24.9663 29.9635 25.1048 30.001 25.2721 30.001H25.4625C25.5375 30.001 25.5865 30.0471 25.6096 30.1394C25.6384 30.2317 25.6529 30.376 25.6529 30.5721C25.6529 30.7856 25.6384 30.9414 25.6096 31.0394C25.5865 31.1375 25.5375 31.1866 25.4625 31.1866H25.2288C25.0096 31.1866 24.8077 31.1548 24.6231 31.0914C24.4384 31.0221 24.274 30.8779 24.1298 30.6587C23.9856 30.8779 23.8298 31.0221 23.6625 31.0914C23.4952 31.1548 23.3163 31.1866 23.1259 31.1866H20.3221C20.0856 31.1866 19.8808 31.1519 19.7077 31.0827C19.5404 31.0077 19.4019 30.9096 19.2923 30.7885C19.1884 30.6673 19.1106 30.526 19.0586 30.3644C19.0125 30.2029 18.9894 30.0327 18.9894 29.8539V28.5731H20.0798V29.5683C20.0798 29.6375 20.0827 29.701 20.0884 29.7587C20.1 29.8106 20.1231 29.8567 20.1577 29.8971C20.1923 29.9317 20.2413 29.9577 20.3048 29.975C20.3683 29.9923 20.4548 30.001 20.5644 30.001H23.1259ZM23.0308 27.95H21.9836V26.9462H23.0308V27.95ZM21.6981 27.95H20.6509V26.9462H21.6981V27.95ZM25.8506 30.001C26.1679 30.001 26.3266 29.8394 26.3266 29.5164V28.6164H27.417V29.5164C27.417 29.6837 27.466 29.8077 27.5641 29.8885C27.6679 29.9635 27.792 30.001 27.9362 30.001C28.1266 30.001 28.2622 29.9635 28.3429 29.8885C28.4237 29.8077 28.4641 29.6837 28.4641 29.5164V28.6164H29.5631V29.5164C29.5631 29.6837 29.6035 29.8077 29.6843 29.8885C29.7708 29.9635 29.8718 30.001 29.9872 30.001C30.2699 30.001 30.4112 29.8394 30.4112 29.5164V28.6164H31.5102V29.6116C31.5102 30.1366 31.3833 30.5317 31.1295 30.7971C30.8756 31.0567 30.5093 31.1866 30.0304 31.1866C29.8458 31.1866 29.6612 31.1548 29.4766 31.0914C29.2977 31.0221 29.1362 30.8779 28.992 30.6587C28.8477 30.8779 28.6833 31.0221 28.4987 31.0914C28.3141 31.1548 28.1266 31.1866 27.9362 31.1866C27.7227 31.1866 27.5237 31.1548 27.3391 31.0914C27.1545 31.0221 26.99 30.8779 26.8458 30.6587C26.7016 30.8779 26.5458 31.0221 26.3785 31.0914C26.217 31.1548 26.041 31.1866 25.8506 31.1866H25.4179C25.3429 31.1866 25.2939 31.1404 25.2708 31.0481C25.242 30.95 25.2275 30.8058 25.2275 30.6154C25.2275 30.3962 25.242 30.2404 25.2708 30.1481C25.2939 30.05 25.3429 30.001 25.4179 30.001H25.8506ZM33.6556 31.1866C33.4883 31.1866 33.3296 31.1664 33.1796 31.126C33.0296 31.0798 32.8969 31.0048 32.7815 30.901C32.6719 30.7971 32.5825 30.6616 32.5133 30.4942C32.4498 30.3212 32.4181 30.1077 32.4181 29.8539V25.8212H33.5171V29.5683C33.5171 29.8567 33.644 30.001 33.8979 30.001H34.1315C34.2585 30.001 34.3219 30.1914 34.3219 30.5721C34.3219 30.9817 34.2585 31.1866 34.1315 31.1866H33.6556ZM34.1299 30.001C34.303 30.001 34.4415 29.9721 34.5453 29.9144C34.6492 29.851 34.7011 29.7356 34.7011 29.5683V29.4731C34.7011 29.2481 34.7357 29.0404 34.8049 28.85C34.8742 28.6539 34.9722 28.4866 35.0992 28.3481C35.2261 28.2096 35.3818 28.1 35.5665 28.0192C35.7511 27.9385 35.9559 27.8981 36.1809 27.8981C36.4174 27.8981 36.628 27.9385 36.8126 28.0192C36.9972 28.1 37.1501 28.2125 37.2713 28.3567C37.3982 28.4952 37.4934 28.6654 37.5568 28.8673C37.6261 29.0635 37.6607 29.2798 37.6607 29.5164C37.6607 30.0471 37.5251 30.4596 37.254 30.7539C36.9886 31.0423 36.6309 31.1866 36.1809 31.1866C35.9559 31.1866 35.7367 31.1404 35.5232 31.0481C35.3155 30.9558 35.1626 30.826 35.0645 30.6587C34.9549 30.8548 34.8136 30.9933 34.6405 31.0741C34.4674 31.1491 34.2972 31.1866 34.1299 31.1866H34.0867C34.0117 31.1866 33.9626 31.1404 33.9395 31.0481C33.9107 30.95 33.8963 30.8058 33.8963 30.6154C33.8963 30.3962 33.9107 30.2404 33.9395 30.1481C33.9626 30.05 34.0117 30.001 34.0867 30.001H34.1299ZM36.6049 29.5683C36.6049 29.4471 36.5761 29.3375 36.5184 29.2394C36.4607 29.1414 36.3482 29.0923 36.1809 29.0923C36.0136 29.0923 35.9011 29.1414 35.8434 29.2394C35.7857 29.3375 35.7568 29.4471 35.7568 29.5683C35.7568 29.8567 35.8982 30.001 36.1809 30.001C36.4636 30.001 36.6049 29.8567 36.6049 29.5683ZM40.9122 31.0481C40.9122 31.3423 40.8574 31.625 40.7478 31.8962C40.6439 32.1673 40.4968 32.4039 40.3064 32.6058C40.1218 32.8135 39.8997 32.9779 39.6401 33.0991C39.3862 33.2202 39.1093 33.2808 38.8093 33.2808H38.2381L38.1949 32.0952H38.5237C38.766 32.0952 38.9708 32.0635 39.1381 32C39.2997 31.9423 39.4295 31.8644 39.5276 31.7664C39.6314 31.6683 39.7035 31.5558 39.7439 31.4289C39.7901 31.3077 39.8131 31.1808 39.8131 31.0481V28.6164H40.9122V31.0481ZM40.9122 27.6644H39.7699V26.6173H40.9122V27.6644ZM41.0828 32.0952H41.1953C41.4087 32.0952 41.5904 32.0635 41.7404 32C41.8962 31.9423 42.0203 31.8644 42.1126 31.7664C42.2106 31.6683 42.2799 31.5558 42.3203 31.4289C42.3664 31.3077 42.3895 31.1808 42.3895 31.0481V28.6164H43.4885V31.0481C43.4885 31.3423 43.4337 31.625 43.3241 31.8962C43.2203 32.1673 43.0731 32.4039 42.8828 32.6058C42.6981 32.8135 42.476 32.9779 42.2164 33.0991C41.9626 33.2202 41.6856 33.2808 41.3856 33.2808H41.1693L41.0828 32.0952ZM44.3966 25.8212H45.4956V31.1866H44.3966V25.8212ZM48.2554 31.1866C48.0419 31.1866 47.8688 31.1231 47.7361 30.9962C47.6092 30.8692 47.5458 30.6616 47.5458 30.3731C47.5458 30.0269 47.5602 29.7442 47.589 29.525C47.6236 29.3058 47.6871 29.1298 47.7794 28.9971C47.8775 28.8587 48.0131 28.7606 48.1861 28.7029C48.3592 28.6394 48.59 28.5962 48.8784 28.5731V29.1875C48.7342 29.2106 48.6217 29.2337 48.5409 29.2567C48.4602 29.2798 48.3967 29.3116 48.3506 29.3519C48.3102 29.3923 48.2842 29.4442 48.2727 29.5077C48.2611 29.5712 48.2554 29.6548 48.2554 29.7587C48.4746 29.7587 48.6477 29.8135 48.7746 29.9231C48.9073 30.0269 48.9736 30.2116 48.9736 30.4769C48.9736 30.7135 48.9073 30.8923 48.7746 31.0135C48.6477 31.1289 48.4746 31.1866 48.2554 31.1866ZM53.9789 30.001C54.1462 30.001 54.2674 29.9635 54.3424 29.8885C54.4174 29.8077 54.4549 29.6837 54.4549 29.5164V28.6164H55.5539V29.5164C55.5539 29.6837 55.6059 29.8077 55.7097 29.8885C55.8193 29.9635 55.9578 30.001 56.1251 30.001H56.3155C56.3905 30.001 56.4395 30.0471 56.4626 30.1394C56.4914 30.2317 56.5059 30.376 56.5059 30.5721C56.5059 30.7856 56.4914 30.9414 56.4626 31.0394C56.4395 31.1375 56.3905 31.1866 56.3155 31.1866H56.0818C55.8626 31.1866 55.6607 31.1548 55.4761 31.0914C55.2914 31.0221 55.127 30.8779 54.9828 30.6587C54.8386 30.8779 54.6828 31.0221 54.5155 31.0914C54.3482 31.1548 54.1693 31.1866 53.9789 31.1866H51.1751C50.9386 31.1866 50.7337 31.1519 50.5607 31.0827C50.3934 31.0077 50.2549 30.9096 50.1453 30.7885C50.0414 30.6673 49.9636 30.526 49.9116 30.3644C49.8655 30.2029 49.8424 30.0327 49.8424 29.8539V28.5731H50.9328V29.5683C50.9328 29.6375 50.9357 29.701 50.9414 29.7587C50.953 29.8106 50.9761 29.8567 51.0107 29.8971C51.0453 29.9317 51.0943 29.9577 51.1578 29.975C51.2212 29.9923 51.3078 30.001 51.4174 30.001H53.9789ZM53.8837 27.95H52.8366V26.9462H53.8837V27.95ZM52.5511 27.95H51.5039V26.9462H52.5511V27.95ZM56.8421 30.001C57.0094 30.001 57.1305 29.9635 57.2055 29.8885C57.2805 29.8077 57.318 29.6837 57.318 29.5164V28.6164H58.4171V29.5164C58.4171 29.6837 58.469 29.8077 58.5728 29.8885C58.6767 29.9635 58.8123 30.001 58.9796 30.001H59.17C59.3027 30.001 59.369 30.1914 59.369 30.5721C59.369 30.9817 59.3027 31.1866 59.17 31.1866H58.9363C58.7171 31.1866 58.5152 31.1548 58.3305 31.0914C58.1517 31.0221 57.9902 30.8779 57.8459 30.6587C57.6959 30.8779 57.5373 31.0221 57.37 31.0914C57.2084 31.1548 57.0325 31.1866 56.8421 31.1866H56.2709C56.1959 31.1866 56.1469 31.1404 56.1238 31.0481C56.095 30.95 56.0805 30.8058 56.0805 30.6154C56.0805 30.3962 56.095 30.2404 56.1238 30.1481C56.1469 30.05 56.1959 30.001 56.2709 30.001H56.8421ZM58.9277 33.1337H57.8805V32.1298H58.9277V33.1337ZM57.595 33.1337H56.5478V32.1298H57.595V33.1337ZM59.4552 30.001C59.5648 30.001 59.6542 30.0039 59.7235 30.0096C59.7985 30.0096 59.8648 30.0154 59.9225 30.0269C59.986 30.0385 60.0465 30.0529 60.1042 30.0702C60.1619 30.0875 60.2312 30.1106 60.3119 30.1394C60.0754 29.9952 59.9196 29.8221 59.8446 29.6202C59.7754 29.4183 59.7408 29.1644 59.7408 28.8587C59.7408 28.7029 59.7696 28.5442 59.8273 28.3827C59.8908 28.2154 59.9831 28.0654 60.1042 27.9327C60.2254 27.8 60.3754 27.6904 60.5542 27.6039C60.7331 27.5173 60.9408 27.4741 61.1773 27.4741C61.4023 27.4741 61.6071 27.5029 61.7917 27.5606C61.9821 27.6183 62.1437 27.7135 62.2764 27.8462C62.409 27.9789 62.5129 28.1548 62.5879 28.3741C62.6629 28.5933 62.7004 28.8644 62.7004 29.1875V29.6635C62.7004 30.1423 62.5648 30.5173 62.2937 30.7885C62.0283 31.0539 61.6071 31.1866 61.0302 31.1866H59.1264C59.0514 31.1866 59.0023 31.1404 58.9792 31.0481C58.9504 30.95 58.936 30.8058 58.936 30.6154C58.936 30.3962 58.9504 30.2404 58.9792 30.1481C59.0023 30.05 59.0514 30.001 59.1264 30.001H59.4552ZM61.1514 28.6683C60.9956 28.6683 60.8889 28.7144 60.8312 28.8067C60.7735 28.8991 60.7446 28.9942 60.7446 29.0923C60.7446 29.15 60.7533 29.2077 60.7706 29.2654C60.7879 29.3173 60.8254 29.375 60.8831 29.4385C60.9408 29.5019 61.0244 29.5712 61.134 29.6462C61.2494 29.7212 61.3994 29.8077 61.584 29.9058C61.6129 29.8596 61.6302 29.7933 61.636 29.7067C61.6417 29.6144 61.6446 29.5366 61.6446 29.4731V29.2827C61.6446 29.2019 61.636 29.1241 61.6187 29.0491C61.6071 28.9741 61.5812 28.9106 61.5408 28.8587C61.5062 28.801 61.4571 28.7548 61.3937 28.7202C61.3302 28.6856 61.2494 28.6683 61.1514 28.6683ZM61.7485 26.851H60.6062V25.8039H61.7485V26.851ZM64.8456 31.1866C64.6783 31.1866 64.5196 31.1664 64.3696 31.126C64.2196 31.0798 64.0869 31.0048 63.9716 30.901C63.8619 30.7971 63.7725 30.6616 63.7033 30.4942C63.6398 30.3212 63.6081 30.1077 63.6081 29.8539V25.8212H64.7071V29.5683C64.7071 29.8567 64.8341 30.001 65.0879 30.001H65.3216C65.4485 30.001 65.5119 30.1914 65.5119 30.5721C65.5119 30.9817 65.4485 31.1866 65.3216 31.1866H64.8456ZM66.2286 30.001C66.0844 29.8048 65.9921 29.6317 65.9517 29.4817C65.9113 29.326 65.8911 29.1644 65.8911 28.9971C65.8911 28.8067 65.9286 28.6221 66.0036 28.4433C66.0786 28.2644 66.1853 28.1087 66.3238 27.976C66.4622 27.8375 66.6267 27.7279 66.8171 27.6471C67.0132 27.5606 67.2296 27.5173 67.4661 27.5173C67.7026 27.5173 67.9103 27.5606 68.0892 27.6471C68.268 27.7337 68.4151 27.8462 68.5305 27.9846C68.6517 28.1231 68.7411 28.2789 68.7988 28.4519C68.8622 28.6192 68.894 28.7866 68.894 28.9539C68.894 29.1904 68.8622 29.3894 68.7988 29.551C68.7411 29.7067 68.6632 29.8567 68.5651 30.001H69.5171C69.644 30.001 69.7074 30.1914 69.7074 30.5721C69.7074 30.9817 69.644 31.1866 69.5171 31.1866H68.7036C68.4382 31.1866 68.2017 31.175 67.994 31.1519C67.7863 31.1231 67.6247 31.0712 67.5094 30.9962C67.4286 31.0423 67.3276 31.0798 67.2065 31.1087C67.0911 31.1317 66.9699 31.1491 66.843 31.1606C66.7219 31.1721 66.6007 31.1808 66.4796 31.1866C66.3642 31.1866 66.2661 31.1866 66.1853 31.1866H65.2767C65.2017 31.1866 65.1526 31.1404 65.1296 31.0481C65.1007 30.95 65.0863 30.8058 65.0863 30.6154C65.0863 30.3962 65.1007 30.2404 65.1296 30.1481C65.1526 30.05 65.2017 30.001 65.2767 30.001H66.2286ZM67.3969 28.7116C67.2642 28.7116 67.1546 28.7548 67.068 28.8414C66.9872 28.9279 66.9469 29.0433 66.9469 29.1875C66.9469 29.3029 66.9844 29.4183 67.0594 29.5337C67.1344 29.6491 67.2555 29.7558 67.4228 29.8539C67.5901 29.7558 67.7026 29.6491 67.7603 29.5337C67.818 29.4183 67.8469 29.3029 67.8469 29.1875C67.8469 29.0433 67.8036 28.9279 67.7171 28.8414C67.6363 28.7548 67.5296 28.7116 67.3969 28.7116ZM67.994 26.9462H66.8517V25.8991H67.994V26.9462ZM69.9085 30.001C70.2258 30.001 70.3845 29.8394 70.3845 29.5164V28.6164H71.4749V29.5164C71.4749 29.6837 71.5239 29.8077 71.622 29.8885C71.7258 29.9635 71.8499 30.001 71.9941 30.001C72.1845 30.001 72.32 29.9635 72.4008 29.8885C72.4816 29.8077 72.522 29.6837 72.522 29.5164V28.6164H73.621V29.5164C73.621 29.6837 73.6614 29.8077 73.7422 29.8885C73.8287 29.9635 73.9297 30.001 74.045 30.001C74.3277 30.001 74.4691 29.8394 74.4691 29.5164V28.6164H75.5681V29.6116C75.5681 30.1366 75.4412 30.5317 75.1874 30.7971C74.9335 31.0567 74.5672 31.1866 74.0883 31.1866C73.9037 31.1866 73.7191 31.1548 73.5345 31.0914C73.3556 31.0221 73.1941 30.8779 73.0499 30.6587C72.9056 30.8779 72.7412 31.0221 72.5566 31.0914C72.372 31.1548 72.1845 31.1866 71.9941 31.1866C71.7806 31.1866 71.5816 31.1548 71.397 31.0914C71.2124 31.0221 71.0479 30.8779 70.9037 30.6587C70.7595 30.8779 70.6037 31.0221 70.4364 31.0914C70.2749 31.1548 70.0989 31.1866 69.9085 31.1866H69.4758C69.4008 31.1866 69.3518 31.1404 69.3287 31.0481C69.2999 30.95 69.2854 30.8058 69.2854 30.6154C69.2854 30.3962 69.2999 30.2404 69.3287 30.1481C69.3518 30.05 69.4008 30.001 69.4758 30.001H69.9085ZM73.5777 26.3317H72.522V25.3366H73.5777V26.3317ZM74.2354 27.6644H73.1883V26.6606H74.2354V27.6644ZM72.9027 27.6644H71.8556V26.6606H72.9027V27.6644Z" fill="#EBEDF0"/>
</svg>
