<svg width="76" height="39" viewBox="0 0 76 39" fill="none" xmlns="http://www.w3.org/2000/svg">
<path d="M67.5892 0.313589V7.11339C67.5892 7.11339 68.3747 6.35015 68.981 6.01645C70.0301 5.43901 70.7893 5.1984 71.976 5.35863C73.4662 5.55982 76 6.45514 76 11.7194C76 15.4483 73.7677 17.8423 70.6599 17.6419C69.7674 17.5844 69.2221 17.4622 68.4665 16.9837C67.8524 16.5948 67.1504 15.6676 67.1504 15.6676L66.9311 17.4224H63.8602L64.0796 0.313477L67.5892 0.313589ZM69.7825 8.21011C69.2411 8.22965 68.8941 8.31619 68.4665 8.6488C68.1284 8.91175 68.0068 9.14657 67.8084 9.52618C67.4455 10.2208 67.4326 10.7164 67.4456 11.5001C67.4619 12.4868 67.4379 13.2176 68.1131 13.9374C68.6668 14.5277 69.1931 14.8209 70.0019 14.7905C70.6538 14.766 71.1067 14.5129 71.5373 14.1324C72.4103 13.3609 72.4571 12.4453 72.4147 11.2809C72.3821 10.3872 72.3566 9.75068 71.7566 9.08749C71.1907 8.46187 70.6256 8.17968 69.7825 8.21011Z" fill="#EBEDF0"/>
<path d="M61.1214 4.98559V17.4226H57.5009V4.98559H61.1214ZM59.3459 0.624818C59.847 0.624818 60.2798 0.7463 60.6442 0.989269C61.0087 1.21705 61.1909 1.64983 61.1909 2.28762C61.1909 2.91023 61.0087 3.34301 60.6442 3.58598C60.2798 3.82895 59.847 3.95043 59.3459 3.95043C58.8296 3.95043 58.3892 3.82895 58.0248 3.58598C57.6755 3.34301 57.5009 2.91023 57.5009 2.28762C57.5009 1.64983 57.6755 1.21705 58.0248 0.989269C58.3892 0.7463 58.8296 0.624818 59.3459 0.624818Z" fill="#FFBF00"/>
<path d="M48.7267 17.6418C47.6847 17.6443 46.3376 17.2638 46.0946 17.2031L46.5333 14.2917C46.7763 14.3525 47.0024 14.4055 47.3078 14.4512C48.1335 14.5746 48.6757 14.7741 49.4456 14.4512C49.9078 14.2573 50.169 14.0854 50.4815 13.6936C51.0263 13.0107 50.9202 11.5001 50.9202 11.5001V1.19092H54.4297C54.4297 1.19092 54.5879 6.94279 54.4297 10.6228C54.3681 12.0568 54.4345 13.2388 54.2104 14.2917C53.9886 15.3332 53.5685 15.863 52.7508 16.5451C51.5219 17.5701 50.3555 17.6379 48.7267 17.6418Z" fill="#EBEDF0"/>
<path d="M33.8094 5.57764H37.7577L40.1705 13.4741L42.1446 5.57764H46.0928L42.3639 15.8869C42.045 16.7372 41.01 19.1112 39.9511 20.2738C39.2124 21.0847 38.7348 21.53 37.7577 22.0285C37.0338 22.3978 35.7836 22.6865 35.7836 22.6865L34.9062 19.6157C34.9062 19.6157 36.228 19.2733 36.8803 18.7383C37.5967 18.1508 38.3583 17.1962 38.1963 16.7642C37.5383 15.0095 33.8094 5.57764 33.8094 5.57764Z" fill="#EBEDF0"/>
<path d="M28.1074 5.35834C29.5096 5.56852 32.3507 6.67437 32.3507 10.1839C32.3507 13.6934 32.7136 17.4221 32.7136 17.4221H29.4234L29.2952 16.1062C28.9459 16.5466 28.2838 17.1265 27.4493 17.4223C26.7984 17.6531 26.3931 17.6417 25.6946 17.6417C24.9657 17.6417 24.4257 17.5132 23.8335 17.2399C23.2565 16.9514 22.8009 16.5186 22.4668 15.9415C22.1327 15.3493 21.9657 14.6052 21.9657 13.7093C21.9657 12.3882 22.4289 11.4163 23.3552 10.7937C24.2815 10.1559 25.2725 9.73829 27.1251 9.67755H28.9127C28.9127 9.67755 28.9732 8.99722 28.7654 8.64842C28.5098 8.21933 28.1989 8.13212 27.6687 7.99048C27.0585 7.82748 26.4631 7.89925 25.6946 7.99048C24.7276 8.10526 24.0782 8.39027 23.5011 8.64842L22.8431 6.45497C23.5112 6.1057 24.451 5.775 25.2559 5.57759C26.0759 5.38018 27.0028 5.19278 28.1074 5.35834ZM28.3664 11.7048C27.273 11.7352 26.5137 11.9326 26.0885 12.297C25.6633 12.6615 25.4508 13.1398 25.4508 13.7321C25.4508 14.2484 25.6026 14.6204 25.9063 14.8482C26.21 15.0608 26.6048 15.1671 27.0908 15.1671C27.8197 15.1671 28.0449 14.996 28.546 14.5708C29.0472 14.1305 29.2041 13.6057 29.2041 12.8161V11.7193L28.3664 11.7048Z" fill="#EBEDF0"/>
<path d="M14.7333 1.15869C16.8289 1.15869 18.3551 1.61425 19.3117 2.52538C20.2836 3.42132 20.7695 4.65893 20.7695 6.23822C20.7695 6.95193 20.6632 7.63528 20.4506 8.28825C20.238 8.92604 19.8812 9.50308 19.3801 10.0194C18.8941 10.5205 18.2488 10.9153 17.4439 11.2039C16.6391 11.4924 15.6445 11.6366 14.46 11.6366H12.9794V17.4223H9.53992V1.15869H14.7333ZM14.5511 3.98318H12.9794V8.81215H14.1183C14.7713 8.81215 15.3332 8.72863 15.8039 8.56159C16.2747 8.39455 16.6391 8.1288 16.8973 7.76435C17.1554 7.3999 17.2845 6.92915 17.2845 6.35211C17.2845 5.54728 17.0643 4.95505 16.6239 4.57541C16.1835 4.18059 15.4926 3.98318 14.5511 3.98318Z" fill="#EBEDF0"/>
<path d="M8.28719 32.6865C8.04052 32.6865 7.84052 32.6199 7.68719 32.4865C7.54052 32.3465 7.46719 32.1399 7.46719 31.8665C7.46719 31.5865 7.54052 31.3799 7.68719 31.2465C7.84052 31.1065 8.04052 31.0365 8.28719 31.0365C8.54052 31.0365 8.74052 31.1065 8.88719 31.2465C9.04052 31.3799 9.11719 31.5865 9.11719 31.8665C9.11719 32.1399 9.04052 32.3465 8.88719 32.4865C8.74052 32.6199 8.54052 32.6865 8.28719 32.6865ZM14.9011 31.3165C15.0944 31.3165 15.2344 31.2732 15.3211 31.1865C15.4078 31.0932 15.4511 30.9499 15.4511 30.7565V29.7165H16.7211V30.7565C16.7211 30.9499 16.7811 31.0932 16.9011 31.1865C17.0278 31.2732 17.1878 31.3165 17.3811 31.3165H17.6011C17.6878 31.3165 17.7444 31.3699 17.7711 31.4765C17.8044 31.5832 17.8211 31.7499 17.8211 31.9765C17.8211 32.2232 17.8044 32.4032 17.7711 32.5165C17.7444 32.6299 17.6878 32.6865 17.6011 32.6865H17.3311C17.0778 32.6865 16.8444 32.6499 16.6311 32.5765C16.4178 32.4965 16.2278 32.3299 16.0611 32.0765C15.8944 32.3299 15.7144 32.4965 15.5211 32.5765C15.3278 32.6499 15.1211 32.6865 14.9011 32.6865H11.6611C11.3878 32.6865 11.1511 32.6465 10.9511 32.5665C10.7578 32.4799 10.5978 32.3665 10.4711 32.2265C10.3511 32.0865 10.2611 31.9232 10.2011 31.7365C10.1478 31.5499 10.1211 31.3532 10.1211 31.1465V29.6665H11.3811V30.8165C11.3811 30.8965 11.3844 30.9699 11.3911 31.0365C11.4044 31.0965 11.4311 31.1499 11.4711 31.1965C11.5111 31.2365 11.5678 31.2665 11.6411 31.2865C11.7144 31.3065 11.8144 31.3165 11.9411 31.3165H14.9011ZM14.7911 28.9465H13.5811V27.7865H14.7911V28.9465ZM13.2511 28.9465H12.0411V27.7865H13.2511V28.9465ZM18.0496 31.3165C18.4163 31.3165 18.5996 31.1299 18.5996 30.7565V29.7165H19.8596V30.7565C19.8596 30.9499 19.9163 31.0932 20.0296 31.1865C20.1496 31.2732 20.2929 31.3165 20.4596 31.3165C20.6796 31.3165 20.8363 31.2732 20.9296 31.1865C21.0229 31.0932 21.0696 30.9499 21.0696 30.7565V29.7165H22.3396V30.7565C22.3396 30.9499 22.3863 31.0932 22.4796 31.1865C22.5796 31.2732 22.6963 31.3165 22.8296 31.3165C23.1563 31.3165 23.3196 31.1299 23.3196 30.7565V29.7165H24.5896V30.8665C24.5896 31.4732 24.4429 31.9299 24.1496 32.2365C23.8563 32.5365 23.4329 32.6865 22.8796 32.6865C22.6663 32.6865 22.4529 32.6499 22.2396 32.5765C22.0329 32.4965 21.8463 32.3299 21.6796 32.0765C21.5129 32.3299 21.3229 32.4965 21.1096 32.5765C20.8963 32.6499 20.6796 32.6865 20.4596 32.6865C20.2129 32.6865 19.9829 32.6499 19.7696 32.5765C19.5563 32.4965 19.3663 32.3299 19.1996 32.0765C19.0329 32.3299 18.8529 32.4965 18.6596 32.5765C18.4729 32.6499 18.2696 32.6865 18.0496 32.6865H17.5496C17.4629 32.6865 17.4063 32.6332 17.3796 32.5265C17.3463 32.4132 17.3296 32.2465 17.3296 32.0265C17.3296 31.7732 17.3463 31.5932 17.3796 31.4865C17.4063 31.3732 17.4629 31.3165 17.5496 31.3165H18.0496ZM27.0687 32.6865C26.8753 32.6865 26.692 32.6632 26.5187 32.6165C26.3453 32.5632 26.192 32.4765 26.0587 32.3565C25.932 32.2365 25.8287 32.0799 25.7487 31.8865C25.6753 31.6865 25.6387 31.4399 25.6387 31.1465V26.4865H26.9087V30.8165C26.9087 31.1499 27.0553 31.3165 27.3487 31.3165H27.6187C27.7653 31.3165 27.8387 31.5365 27.8387 31.9765C27.8387 32.4499 27.7653 32.6865 27.6187 32.6865H27.0687ZM27.6168 31.3165C27.8168 31.3165 27.9768 31.2832 28.0968 31.2165C28.2168 31.1432 28.2768 31.0099 28.2768 30.8165V30.7065C28.2768 30.4465 28.3168 30.2065 28.3968 29.9865C28.4768 29.7599 28.5901 29.5665 28.7368 29.4065C28.8835 29.2465 29.0635 29.1199 29.2768 29.0265C29.4901 28.9332 29.7268 28.8865 29.9868 28.8865C30.2601 28.8865 30.5035 28.9332 30.7168 29.0265C30.9301 29.1199 31.1068 29.2499 31.2468 29.4165C31.3935 29.5765 31.5035 29.7732 31.5768 30.0065C31.6568 30.2332 31.6968 30.4832 31.6968 30.7565C31.6968 31.3699 31.5401 31.8465 31.2268 32.1865C30.9201 32.5199 30.5068 32.6865 29.9868 32.6865C29.7268 32.6865 29.4735 32.6332 29.2268 32.5265C28.9868 32.4199 28.8101 32.2699 28.6968 32.0765C28.5701 32.3032 28.4068 32.4632 28.2068 32.5565C28.0068 32.6432 27.8101 32.6865 27.6168 32.6865H27.5668C27.4801 32.6865 27.4235 32.6332 27.3968 32.5265C27.3635 32.4132 27.3468 32.2465 27.3468 32.0265C27.3468 31.7732 27.3635 31.5932 27.3968 31.4865C27.4235 31.3732 27.4801 31.3165 27.5668 31.3165H27.6168ZM30.4768 30.8165C30.4768 30.6765 30.4435 30.5499 30.3768 30.4365C30.3101 30.3232 30.1801 30.2665 29.9868 30.2665C29.7935 30.2665 29.6635 30.3232 29.5968 30.4365C29.5301 30.5499 29.4968 30.6765 29.4968 30.8165C29.4968 31.1499 29.6601 31.3165 29.9868 31.3165C30.3135 31.3165 30.4768 31.1499 30.4768 30.8165ZM35.4541 32.5265C35.4541 32.8665 35.3907 33.1932 35.2641 33.5065C35.1441 33.8199 34.9741 34.0932 34.7541 34.3265C34.5407 34.5665 34.2841 34.7565 33.9841 34.8965C33.6907 35.0365 33.3707 35.1065 33.0241 35.1065H32.3641L32.3141 33.7365H32.6941C32.9741 33.7365 33.2107 33.6999 33.4041 33.6265C33.5907 33.5599 33.7407 33.4699 33.8541 33.3565C33.9741 33.2432 34.0574 33.1132 34.1041 32.9665C34.1574 32.8265 34.1841 32.6799 34.1841 32.5265V29.7165H35.4541V32.5265ZM35.4541 28.6165H34.1341V27.4065H35.4541V28.6165ZM35.6512 33.7365H35.7812C36.0278 33.7365 36.2378 33.6999 36.4112 33.6265C36.5912 33.5599 36.7345 33.4699 36.8412 33.3565C36.9545 33.2432 37.0345 33.1132 37.0812 32.9665C37.1345 32.8265 37.1612 32.6799 37.1612 32.5265V29.7165H38.4312V32.5265C38.4312 32.8665 38.3678 33.1932 38.2412 33.5065C38.1212 33.8199 37.9512 34.0932 37.7312 34.3265C37.5178 34.5665 37.2612 34.7565 36.9612 34.8965C36.6678 35.0365 36.3478 35.1065 36.0012 35.1065H35.7512L35.6512 33.7365ZM39.4805 26.4865H40.7505V32.6865H39.4805V26.4865ZM43.9395 32.6865C43.6929 32.6865 43.4929 32.6132 43.3395 32.4665C43.1929 32.3199 43.1195 32.0799 43.1195 31.7465C43.1195 31.3465 43.1362 31.0199 43.1695 30.7665C43.2095 30.5132 43.2829 30.3099 43.3895 30.1565C43.5029 29.9965 43.6595 29.8832 43.8595 29.8165C44.0595 29.7432 44.3262 29.6932 44.6595 29.6665V30.3765C44.4929 30.4032 44.3629 30.4299 44.2695 30.4565C44.1762 30.4832 44.1029 30.5199 44.0495 30.5665C44.0029 30.6132 43.9729 30.6732 43.9595 30.7465C43.9462 30.8199 43.9395 30.9165 43.9395 31.0365C44.1929 31.0365 44.3929 31.0999 44.5395 31.2265C44.6929 31.3465 44.7695 31.5599 44.7695 31.8665C44.7695 32.1399 44.6929 32.3465 44.5395 32.4865C44.3929 32.6199 44.1929 32.6865 43.9395 32.6865ZM50.5534 31.3165C50.7468 31.3165 50.8868 31.2732 50.9734 31.1865C51.0601 31.0932 51.1034 30.9499 51.1034 30.7565V29.7165H52.3734V30.7565C52.3734 30.9499 52.4334 31.0932 52.5534 31.1865C52.6801 31.2732 52.8401 31.3165 53.0334 31.3165H53.2534C53.3401 31.3165 53.3968 31.3699 53.4234 31.4765C53.4568 31.5832 53.4734 31.7499 53.4734 31.9765C53.4734 32.2232 53.4568 32.4032 53.4234 32.5165C53.3968 32.6299 53.3401 32.6865 53.2534 32.6865H52.9834C52.7301 32.6865 52.4968 32.6499 52.2834 32.5765C52.0701 32.4965 51.8801 32.3299 51.7134 32.0765C51.5468 32.3299 51.3668 32.4965 51.1734 32.5765C50.9801 32.6499 50.7734 32.6865 50.5534 32.6865H47.3134C47.0401 32.6865 46.8034 32.6465 46.6034 32.5665C46.4101 32.4799 46.2501 32.3665 46.1234 32.2265C46.0034 32.0865 45.9134 31.9232 45.8534 31.7365C45.8001 31.5499 45.7734 31.3532 45.7734 31.1465V29.6665H47.0334V30.8165C47.0334 30.8965 47.0368 30.9699 47.0434 31.0365C47.0568 31.0965 47.0834 31.1499 47.1234 31.1965C47.1634 31.2365 47.2201 31.2665 47.2934 31.2865C47.3668 31.3065 47.4668 31.3165 47.5934 31.3165H50.5534ZM50.4434 28.9465H49.2334V27.7865H50.4434V28.9465ZM48.9034 28.9465H47.6934V27.7865H48.9034V28.9465ZM53.862 31.3165C54.0553 31.3165 54.1953 31.2732 54.282 31.1865C54.3686 31.0932 54.412 30.9499 54.412 30.7565V29.7165H55.682V30.7565C55.682 30.9499 55.742 31.0932 55.862 31.1865C55.982 31.2732 56.1386 31.3165 56.332 31.3165H56.552C56.7053 31.3165 56.782 31.5365 56.782 31.9765C56.782 32.4499 56.7053 32.6865 56.552 32.6865H56.282C56.0286 32.6865 55.7953 32.6499 55.582 32.5765C55.3753 32.4965 55.1886 32.3299 55.022 32.0765C54.8486 32.3299 54.6653 32.4965 54.472 32.5765C54.2853 32.6499 54.082 32.6865 53.862 32.6865H53.202C53.1153 32.6865 53.0586 32.6332 53.032 32.5265C52.9986 32.4132 52.982 32.2465 52.982 32.0265C52.982 31.7732 52.9986 31.5932 53.032 31.4865C53.0586 31.3732 53.1153 31.3165 53.202 31.3165H53.862ZM56.272 34.9365H55.062V33.7765H56.272V34.9365ZM54.732 34.9365H53.522V33.7765H54.732V34.9365ZM56.8816 31.3165C57.0082 31.3165 57.1116 31.3199 57.1916 31.3265C57.2782 31.3265 57.3549 31.3332 57.4216 31.3465C57.4949 31.3599 57.5649 31.3765 57.6316 31.3965C57.6982 31.4165 57.7782 31.4432 57.8716 31.4765C57.5982 31.3099 57.4182 31.1099 57.3316 30.8765C57.2516 30.6432 57.2116 30.3499 57.2116 29.9965C57.2116 29.8165 57.2449 29.6332 57.3116 29.4465C57.3849 29.2532 57.4916 29.0799 57.6316 28.9265C57.7716 28.7732 57.9449 28.6465 58.1516 28.5465C58.3582 28.4465 58.5982 28.3965 58.8716 28.3965C59.1316 28.3965 59.3682 28.4299 59.5816 28.4965C59.8016 28.5632 59.9882 28.6732 60.1416 28.8265C60.2949 28.9799 60.4149 29.1832 60.5016 29.4365C60.5882 29.6899 60.6316 30.0032 60.6316 30.3765V30.9265C60.6316 31.4799 60.4749 31.9132 60.1616 32.2265C59.8549 32.5332 59.3682 32.6865 58.7016 32.6865H56.5016C56.4149 32.6865 56.3582 32.6332 56.3316 32.5265C56.2982 32.4132 56.2816 32.2465 56.2816 32.0265C56.2816 31.7732 56.2982 31.5932 56.3316 31.4865C56.3582 31.3732 56.4149 31.3165 56.5016 31.3165H56.8816ZM58.8416 29.7765C58.6616 29.7765 58.5382 29.8299 58.4716 29.9365C58.4049 30.0432 58.3716 30.1532 58.3716 30.2665C58.3716 30.3332 58.3816 30.3999 58.4016 30.4665C58.4216 30.5265 58.4649 30.5932 58.5316 30.6665C58.5982 30.7399 58.6949 30.8199 58.8216 30.9065C58.9549 30.9932 59.1282 31.0932 59.3416 31.2065C59.3749 31.1532 59.3949 31.0765 59.4016 30.9765C59.4082 30.8699 59.4116 30.7799 59.4116 30.7065V30.4865C59.4116 30.3932 59.4016 30.3032 59.3816 30.2165C59.3682 30.1299 59.3382 30.0565 59.2916 29.9965C59.2516 29.9299 59.1949 29.8765 59.1216 29.8365C59.0482 29.7965 58.9549 29.7765 58.8416 29.7765ZM59.5316 27.6765H58.2116V26.4665H59.5316V27.6765ZM63.1105 32.6865C62.9171 32.6865 62.7338 32.6632 62.5605 32.6165C62.3871 32.5632 62.2338 32.4765 62.1005 32.3565C61.9738 32.2365 61.8705 32.0799 61.7905 31.8865C61.7171 31.6865 61.6805 31.4399 61.6805 31.1465V26.4865H62.9505V30.8165C62.9505 31.1499 63.0971 31.3165 63.3905 31.3165H63.6605C63.8071 31.3165 63.8805 31.5365 63.8805 31.9765C63.8805 32.4499 63.8071 32.6865 63.6605 32.6865H63.1105ZM64.7086 31.3165C64.5419 31.0899 64.4353 30.8899 64.3886 30.7165C64.3419 30.5365 64.3186 30.3499 64.3186 30.1565C64.3186 29.9365 64.3619 29.7232 64.4486 29.5165C64.5353 29.3099 64.6586 29.1299 64.8186 28.9765C64.9786 28.8165 65.1686 28.6899 65.3886 28.5965C65.6153 28.4965 65.8653 28.4465 66.1386 28.4465C66.4119 28.4465 66.6519 28.4965 66.8586 28.5965C67.0653 28.6965 67.2353 28.8265 67.3686 28.9865C67.5086 29.1465 67.6119 29.3265 67.6786 29.5265C67.7519 29.7199 67.7886 29.9132 67.7886 30.1065C67.7886 30.3799 67.7519 30.6099 67.6786 30.7965C67.6119 30.9765 67.5219 31.1499 67.4086 31.3165H68.5086C68.6553 31.3165 68.7286 31.5365 68.7286 31.9765C68.7286 32.4499 68.6553 32.6865 68.5086 32.6865H67.5686C67.2619 32.6865 66.9886 32.6732 66.7486 32.6465C66.5086 32.6132 66.3219 32.5532 66.1886 32.4665C66.0953 32.5199 65.9786 32.5632 65.8386 32.5965C65.7053 32.6232 65.5653 32.6432 65.4186 32.6565C65.2786 32.6699 65.1386 32.6799 64.9986 32.6865C64.8653 32.6865 64.7519 32.6865 64.6586 32.6865H63.6086C63.5219 32.6865 63.4653 32.6332 63.4386 32.5265C63.4053 32.4132 63.3886 32.2465 63.3886 32.0265C63.3886 31.7732 63.4053 31.5932 63.4386 31.4865C63.4653 31.3732 63.5219 31.3165 63.6086 31.3165H64.7086ZM66.0586 29.8265C65.9053 29.8265 65.7786 29.8765 65.6786 29.9765C65.5853 30.0765 65.5386 30.2099 65.5386 30.3765C65.5386 30.5099 65.5819 30.6432 65.6686 30.7765C65.7553 30.9099 65.8953 31.0332 66.0886 31.1465C66.2819 31.0332 66.4119 30.9099 66.4786 30.7765C66.5453 30.6432 66.5786 30.5099 66.5786 30.3765C66.5786 30.2099 66.5286 30.0765 66.4286 29.9765C66.3353 29.8765 66.2119 29.8265 66.0586 29.8265ZM66.7486 27.7865H65.4286V26.5765H66.7486V27.7865ZM68.9609 31.3165C69.3276 31.3165 69.5109 31.1299 69.5109 30.7565V29.7165H70.7709V30.7565C70.7709 30.9499 70.8276 31.0932 70.9409 31.1865C71.0609 31.2732 71.2043 31.3165 71.3709 31.3165C71.5909 31.3165 71.7476 31.2732 71.8409 31.1865C71.9343 31.0932 71.9809 30.9499 71.9809 30.7565V29.7165H73.2509V30.7565C73.2509 30.9499 73.2976 31.0932 73.3909 31.1865C73.4909 31.2732 73.6076 31.3165 73.7409 31.3165C74.0676 31.3165 74.2309 31.1299 74.2309 30.7565V29.7165H75.5009V30.8665C75.5009 31.4732 75.3543 31.9299 75.0609 32.2365C74.7676 32.5365 74.3443 32.6865 73.7909 32.6865C73.5776 32.6865 73.3643 32.6499 73.1509 32.5765C72.9443 32.4965 72.7576 32.3299 72.5909 32.0765C72.4243 32.3299 72.2343 32.4965 72.0209 32.5765C71.8076 32.6499 71.5909 32.6865 71.3709 32.6865C71.1243 32.6865 70.8943 32.6499 70.6809 32.5765C70.4676 32.4965 70.2776 32.3299 70.1109 32.0765C69.9443 32.3299 69.7643 32.4965 69.5709 32.5765C69.3843 32.6499 69.1809 32.6865 68.9609 32.6865H68.4609C68.3743 32.6865 68.3176 32.6332 68.2909 32.5265C68.2576 32.4132 68.2409 32.2465 68.2409 32.0265C68.2409 31.7732 68.2576 31.5932 68.2909 31.4865C68.3176 31.3732 68.3743 31.3165 68.4609 31.3165H68.9609ZM73.2009 27.0765H71.9809V25.9265H73.2009V27.0765ZM73.9609 28.6165H72.7509V27.4565H73.9609V28.6165ZM72.4209 28.6165H71.2109V27.4565H72.4209V28.6165Z" fill="#EBEDF0"/>
</svg>
